<?xml version="1.0" encoding="utf-8" ?>
<svg baseProfile="full" height="200mm" version="1.1" viewBox="0,0,200,200" width="200mm" xmlns="http://www.w3.org/2000/svg" xmlns:ev="http://www.w3.org/2001/xml-events" xmlns:xlink="http://www.w3.org/1999/xlink"><defs /><rect fill="#1a1a1a" height="200" width="200" x="0" y="0" /><text alignment-baseline="middle" fill="#e1ed5e" style="dominant-baseline: central; font-size:9.0px; font-family:Arial;" text-anchor="middle" x="100.0" y="100.0">2019</text><line stroke="#e1ed5e" stroke-width="0.3" x1="100.0" x2="100.0" y1="15.0" y2="10.0" /><path d="M 100.0 14.0 a86.0,86.0 0 0,1 42.46469731375804,11.215312516191453" fill="none" id="id13" stroke="none" /><text fill="#e1ed5e" style="font-size:6.75px; font-family:Arial;" text-anchor="middle"><textPath startOffset="22.20632615414155" xlink:href="#id13">January</textPath></text><path d="M 108.43124777332544 80.76684994638697 l 12.72388050757621 -29.02539572383284 a52.69180859616837,52.69180859616837 0 0,0 0.8275571754924834,0.3713007819308187 l -13.221619801535473 28.80207461138549" fill="red" stroke="none" /><line stroke="#e1ed5e" stroke-width="0.3" x1="143.23703022742887" x2="145.7803849466894" y1="26.81831364943548" y2="22.513508569990506" /><path d="M 143.74570117128098 25.957352633546492 a86.0,86.0 0 0,1 28.547481713284135,27.462654790039103" fill="none" id="id14" stroke="none" /><text fill="#e1ed5e" style="font-size:6.75px; font-family:Arial;" text-anchor="middle"><textPath startOffset="19.985693538727396" xlink:href="#id14">February</textPath></text><line stroke="#e1ed5e" stroke-width="0.3" x1="172.23445277983987" x2="176.4835382374775" y1="55.19839476539836" y2="52.563006222186495" /><path d="M 173.08426987136738 54.67131705675599 a86.0,86.0 0 0,1 12.851231095245387,41.99856678651699" fill="none" id="id15" stroke="none" /><text fill="#e1ed5e" style="font-size:6.75px; font-family:Arial;" text-anchor="middle"><textPath startOffset="22.20632615414155" xlink:href="#id15">March</textPath></text><path d="M 118.21658344932153 89.55222093294921 l 25.56787515058755 -14.663974258972573 a50.4745378383418,50.4745378383418 0 0,0 0.42577041368372415,0.7573980572038906 l -25.81650320556371 14.221692691833889" fill="red" stroke="none" /><path d="M 119.47837535516314 92.15188598940014 l 44.11182913066206 -17.773282315445766 a68.55778625543101,68.55778625543101 0 0,0 0.43160864518093733,1.0983969241800895 l -44.4112313257247 17.011336386369894" fill="red" stroke="none" /><path d="M 120.18372546131832 94.20196356495316 l 33.283798183645715 -9.561201916631656 a55.6298686630524,55.6298686630524 0 0,0 0.25646224943996093,0.9226311641728292 l -33.443447203652035 8.986859449039876" fill="red" stroke="none" /><path d="M 120.37134235888165 94.90015583598534 l 39.12500666505922 -9.794712267492928 a61.332400560144,61.332400560144 0 0,0 0.2475702785126265,1.0263386349816912 l -39.28780974383266 9.119788400851832" fill="red" stroke="none" /><path d="M 120.83666639777658 97.38593545837742 l 39.16894330533982 -4.913940832600728 a60.475979204615385,60.475979204615385 0 0,0 0.12069175905846326,1.034013286397769 l -39.24772541740188 4.238983807878107" fill="red" stroke="none" /><line stroke="#e1ed5e" stroke-width="0.3" x1="184.98032266829074" x2="189.97916517819016" y1="98.17113171792111" y2="98.06355123074" /><path d="M 185.9800911702706 98.14961562048488 a86.0,86.0 0 0,1 -9.607161424134198,41.387399972396054" fill="none" id="id16" stroke="none" /><text fill="#e1ed5e" style="font-size:6.75px; font-family:Arial;" text-anchor="middle"><textPath startOffset="21.466115282336823" xlink:href="#id16">April</textPath></text><path d="M 120.99824983174949 100.27111621757518 l 40.03862813158646 0.5169536272266896 a61.04196528284007,61.04196528284007 0 0,0 -0.022608599026375294,1.0505327579716497 l -40.02379746987507 -1.206076200988454" fill="red" stroke="none" /><path d="M 120.81339534386255 102.79330883721812 l 62.44018603158764 8.379926511654341 a84.0,84.0 0 0,0 -0.20466379593359463,1.4314181120783627 l -62.28668818463745 -9.453490095713112" fill="red" stroke="none" /><path d="M 120.32669344350535 105.2749913415812 l 58.94405307583352 15.296603477437253 a81.89653086139329,81.89653086139329 0 0,0 -0.3658510048115387,1.3614676888181392 l -58.672013994680206 -16.30896209943094" fill="red" stroke="none" /><path d="M 119.67450827220406 107.3425965602758 l 35.02507117168137 13.071481307206874 a58.38474600884703,58.38474600884703 0 0,0 -0.3594991258773379,0.9385387766199724 l -34.79487776621052 -13.672443650659991" fill="red" stroke="none" /><path d="M 119.54520255179757 107.68017299344265 l 34.00897241993561 13.363626742783657 a57.540343796691126,57.540343796691126 0 0,0 -0.37016904865065886,0.9187292214082085 l -33.77390075702756 -13.947055332034678" fill="red" stroke="none" /><line stroke="#e1ed5e" stroke-width="0.3" x1="174.80103733775053" x2="179.2010983576182" y1="140.37084112569926" y2="142.7455964860345" /><path d="M 175.68104954172406 140.8457921977663 a86.0,86.0 0 0,1 -30.038265399797805,32.042727171017184" fill="none" id="id17" stroke="none" /><text fill="#e1ed5e" style="font-size:6.75px; font-family:Arial;" text-anchor="middle"><textPath startOffset="22.206326154141568" xlink:href="#id17">May</textPath></text><path d="M 118.48025628344425 109.97397251340804 l 42.16696786269895 22.757919153593893 a68.91634442374962,68.91634442374962 0 0,0 -0.572411249612707,1.0390926861338172 l -41.768980203634726 -23.480382358125514" fill="red" stroke="none" /><path d="M 118.12598468904814 110.60418214915192 l 52.343791599146364 30.622507412243927 a81.64330531219254,81.64330531219254 0 0,0 -0.7200905483345988,1.2069131785397411 l -51.80892017511354 -31.518982684669773" fill="red" stroke="none" /><path d="M 117.35343817320211 111.8261652097733 l 33.603389651255064 22.90031713933259 a61.664632312810674,61.664632312810674 0 0,0 -0.6053091126258674,0.871992922824466 l -33.20421963146706 -23.475351324344075" fill="red" stroke="none" /><path d="M 116.71984013943494 112.70617746262583 l 48.14969838895841 36.59117595622484 a81.47567786149297,81.47567786149297 0 0,0 -0.8581840240713804,1.109318535482882 l -47.51270754766896 -37.41457248582097" fill="red" stroke="none" /><path d="M 115.80600337817218 113.82643327865902 l 46.33615248542018 40.5329358346322 a82.56263407722676,82.56263407722676 0 0,0 -0.9449142119135231,1.061621134051628 l -45.63157942385832 -41.324531138424696" fill="red" stroke="none" /><path d="M 115.07121518719521 114.62390073753431 l 43.477627475112975 42.18720923311781 a81.58105903451639,81.58105903451639 0 0,0 -0.9865845123672968,0.9994049022739961 l -42.74500233769014 -42.929354629372476" fill="red" stroke="none" /><path d="M 114.55890576462653 115.13401014063108 l 25.14683166909194 26.14017918911523 a57.272194736915196,57.272194736915196 0 0,0 -0.7163501544370956,0.677353783342489 l -24.69314568026404 -26.569167609203642" fill="red" stroke="none" /><path d="M 114.0293411484842 115.62618273729858 l 39.608694894838145 44.117018601370205 a80.2887851245581,80.2887851245581 0 0,0 -1.0363280563738706,0.9144390179529333 l -38.84342448555769 -44.79228076109543" fill="red" stroke="none" /><path d="M 112.63410532772338 116.77436683061366 l 30.510074045853955 40.508382730616496 a71.7128552709626,71.7128552709626 0 0,0 -0.9924206455209531,0.7341690681296084 l -29.80826842991444 -41.027561747485876" fill="red" stroke="none" /><path d="M 112.04921762599082 117.19931262002967 l 34.42833978237806 49.143753336186585 a81.00349216619668,81.00349216619668 0 0,0 -1.1488729744383757,0.7902053078018015 l -33.577309923316804 -49.72909943335348" fill="red" stroke="none" /><path d="M 111.45004920935366 117.60387380957326 l 32.99915589692063 50.7345397046217 a81.52220922065806,81.52220922065806 0 0,0 -1.1829190803272396,0.7549949249440304 l -32.12095501454646 -51.295049058389544" fill="red" stroke="none" /><line stroke="#e1ed5e" stroke-width="0.3" x1="143.8653032363475" x2="146.44561519142675" y1="172.8068346515853" y2="177.08958963109032" /><path d="M 144.38136562736335 173.6633856474863 a86.0,86.0 0 0,1 -40.68145358897372,12.25698825130547" fill="none" id="id18" stroke="none" /><text fill="#e1ed5e" style="font-size:6.75px; font-family:Arial;" text-anchor="middle"><textPath startOffset="21.466115282336833" xlink:href="#id18">June</textPath></text><path d="M 106.57524785965236 119.94407469862006 l 18.765486596598166 56.91956781356903 a80.93313513650516,80.93313513650516 0 0,0 -1.3268357572556737,0.42481090938105925 l -17.782929494251555 -57.23415156960979" fill="red" stroke="none" /><path d="M 103.7750983002368 120.6578951692458 l 6.502614174666116 35.58326466303618 a57.17254090030514,57.17254090030514 0 0,0 -0.969621868819046,0.16858119057680035 l -5.889143334375019 -35.689924432133985" fill="red" stroke="none" /><line stroke="#e1ed5e" stroke-width="0.3" x1="102.19456741930631" x2="102.32365962044197" y1="184.97166512339345" y2="189.96999836594603" /><path d="M 102.22038585953345 185.97133177190398 a86.0,86.0 0 0,1 -42.740103519485714,-10.115201625700543" fill="none" id="id19" stroke="none" /><text fill="#e1ed5e" style="font-size:6.75px; font-family:Arial;" text-anchor="middle"><textPath startOffset="22.20632615414155" xlink:href="#id19">July</textPath></text><line stroke="#e1ed5e" stroke-width="0.3" x1="58.666819895761336" x2="56.23545636021788" y1="174.27360380694188" y2="178.64263932499728" /><path d="M 58.180547188652646 175.14741091055294 a86.0,86.0 0 0,1 -31.652253787137756,-30.449443065178592" fill="none" id="id20" stroke="none" /><text fill="#e1ed5e" style="font-size:6.75px; font-family:Arial;" text-anchor="middle"><textPath startOffset="22.20632615414155" xlink:href="#id20">August</textPath></text><line stroke="#e1ed5e" stroke-width="0.3" x1="26.63291911575756" x2="22.317208475507996" y1="142.92168965132927" y2="145.44649492493687" /><path d="M 25.769776987707644 143.4266507060508 a86.0,86.0 0 0,1 -11.730757126820373,-40.83630448921669" fill="none" id="id21" stroke="none" /><text fill="#e1ed5e" style="font-size:6.75px; font-family:Arial;" text-anchor="middle"><textPath startOffset="21.46611528233685" xlink:href="#id21">September</textPath></text><path d="M 81.35079622478065 109.6543875284942 l -31.835251397335842 16.48058854208651 a56.84819423939129,56.84819423939129 0 0,0 -0.44239083442142924,-0.8728790859428289 l 32.11422090154354 -15.930155244440998" fill="red" stroke="none" /><line stroke="#e1ed5e" stroke-width="0.3" x1="15.007084014347285" x2="10.007500721073583" y1="101.09737516637583" y2="101.16192664675087" /><path d="M 14.007167355692545 101.11028546245083 a86.0,86.0 0 0,1 10.666146001902534,-42.60595125391555" fill="none" id="id22" stroke="none" /><text fill="#e1ed5e" style="font-size:6.75px; font-family:Arial;" text-anchor="middle"><textPath startOffset="22.20632615414155" xlink:href="#id22">October</textPath></text><line stroke="#e1ed5e" stroke-width="0.3" x1="26.266209847984243" x2="21.928928074336255" y1="57.711370442889674" y2="55.22380399835377" /><path d="M 25.398753493254645 57.213857153982495 a86.0,86.0 0 0,1 29.58750427330803,-30.492523968695096" fill="none" id="id23" stroke="none" /><text fill="#e1ed5e" style="font-size:6.75px; font-family:Arial;" text-anchor="middle"><textPath startOffset="21.46611528233685" xlink:href="#id23">November</textPath></text><path d="M 82.34701348167596 88.62581576622439 l -31.145915734142783 -20.067957527870096 a58.05119412729799,58.05119412729799 0 0,0 0.5484548683974505,-0.8353343918950092 l 30.795864230387412 20.601109983742774" fill="red" stroke="none" /><path d="M 83.39014120810768 87.1503855733568 l -28.440973726315576 -22.002327104661042 a56.958189394371274,56.958189394371274 0 0,0 0.6065936492765186,-0.770312334031633 l 28.058025996445085 22.488631832645723" fill="red" stroke="none" /><path d="M 84.31358615837235 86.03803664274999 l -26.892356634235753 -23.936006132956862 a57.00182266135803,57.00182266135803 0 0,0 0.6586597507264269,-0.7273085477459972 l 26.476353242893282 24.395367467972417" fill="red" stroke="none" /><path d="M 84.5562425177563 85.77008943001954 l -26.392956219613335 -24.318525275621194 a56.88842166481347,56.88842166481347 0 0,0 0.6697465160507509,-0.7144388865975534 l 25.97044238159213 24.769233579096795" fill="red" stroke="none" /><line stroke="#e1ed5e" stroke-width="0.3" x1="56.762969772571076" x2="54.21961505331055" y1="26.818313649435495" y2="22.513508569990535" /><path d="M 56.25429882871897 25.957352633546506 a86.0,86.0 0 0,1 42.265352541879196,-11.944610805530505" fill="none" id="id24" stroke="none" /><text fill="#e1ed5e" style="font-size:6.75px; font-family:Arial;" text-anchor="middle"><textPath startOffset="22.20632615414155" xlink:href="#id24">December</textPath></text></svg>