<?xml version="1.0" encoding="utf-8" ?>
<svg baseProfile="full" height="200mm" version="1.1" viewBox="0,0,200,200" width="200mm" xmlns="http://www.w3.org/2000/svg" xmlns:ev="http://www.w3.org/2001/xml-events" xmlns:xlink="http://www.w3.org/1999/xlink"><defs /><rect fill="#1a1a1a" height="200" width="200" x="0" y="0" /><text alignment-baseline="middle" fill="#e1ed5e" style="dominant-baseline: central; font-size:9.0px; font-family:Arial;" text-anchor="middle" x="100.0" y="100.0">2025</text><line stroke="#e1ed5e" stroke-width="0.3" x1="100.0" x2="100.0" y1="15.0" y2="10.0" /><path d="M 100.0 14.0 a86.0,86.0 0 0,1 42.46469731375804,11.215312516191453" fill="none" id="id85" stroke="none" /><text fill="#e1ed5e" style="font-size:6.75px; font-family:Arial;" text-anchor="middle"><textPath startOffset="22.20632615414155" xlink:href="#id85">January</textPath></text><path d="M 107.08798089147638 80.2323363322302 l 7.559070237276623 -21.081484329511053 a43.39572558296563,43.39572558296563 0 0,0 0.7009808144602431,0.2581771497861524 l -7.920833377509443 20.948243911918574" fill="red" stroke="none" /><path d="M 107.4271985657038 80.35727306442388 l 6.616002893732312 -17.497356115757828 a39.70638835616117,39.70638835616117 0 0,0 0.6372248253851196,0.24723333236778622 l -6.916210884117099 17.380880079499494" fill="red" stroke="none" /><path d="M 108.09893153111575 80.62456947434976 l 6.949057792596778 -16.624536948102644 a39.018452567956,39.018452567956 0 0,0 0.6174507397247601,0.2643601833109636 l -7.234192290111854 16.502457236828892" fill="red" stroke="none" /><path d="M 108.76106565485865 80.91482961587045 l 4.851557752203881 -10.568669380751212 a32.629031993360314,32.629031993360314 0 0,0 0.5084252482109527,0.23871247127332437 l -5.032761211714432 10.483591926837883" fill="red" stroke="none" /><path d="M 110.36928655335952 81.73862282372117 l 7.98786918151695 -14.067456927515885 a37.17712577896775,37.17712577896775 0 0,0 0.5537679248194566,0.3207781253017225 l -8.228833838801735 13.927874644824112" fill="red" stroke="none" /><line stroke="#e1ed5e" stroke-width="0.3" x1="143.23703022742887" x2="145.7803849466894" y1="26.81831364943548" y2="22.513508569990506" /><path d="M 143.74570117128098 25.957352633546492 a86.0,86.0 0 0,1 28.547481713284135,27.462654790039103" fill="none" id="id86" stroke="none" /><text fill="#e1ed5e" style="font-size:6.75px; font-family:Arial;" text-anchor="middle"><textPath startOffset="19.985693538727396" xlink:href="#id86">February</textPath></text><path d="M 110.99172775467656 82.1063720568725 l 7.235446802074098 -11.77871177017842 a34.823521309369184,34.823521309369184 0 0,0 0.5080599988641469,0.3181471246792149 l -7.437125953310508 11.65242030417626" fill="red" stroke="none" /><path d="M 111.90073688211348 82.69761687909136 l 12.722709595061431 -18.49744246347202 a43.45045026563445,43.45045026563445 0 0,0 0.612586918796364,0.42915628446782694 l -13.039227653441447 18.275701336240257" fill="red" stroke="none" /><path d="M 112.77801427241765 83.33499621200491 l 9.14986361927447 -11.93319310998056 a36.03732363326034,36.03732363326034 0 0,0 0.48902209688870835,0.3816895033616067 l -9.353918271322607 11.77392521739573" fill="red" stroke="none" /><path d="M 113.06298171725822 83.55741782278167 l 24.424686520196076 -30.743740131744836 a60.265033667349705,60.265033667349705 0 0,0 0.8066807690137392,0.6522797476552636 l -24.950270687774307 30.318754286825442" fill="red" stroke="none" /><path d="M 113.6212207817346 84.01681056812373 l 14.51900889906324 -17.036657236185928 a43.38413074466739,43.38413074466739 0 0,0 0.5642131022232495,0.48928004239976874 l -14.810115799933252 16.784212200366486" fill="red" stroke="none" /><path d="M 113.89432698308785 84.25364557470407 l 14.884314801367463 -16.868301467591035 a43.49627572527818,43.49627572527818 0 0,0 0.5571438214569091,0.5002092239285061 l -15.172469610420361 16.609593234893232" fill="red" stroke="none" /><path d="M 114.42810811169701 84.74124197986012 l 15.509634395145628 -16.402549550103863 a43.574153158306885,43.574153158306885 0 0,0 0.5405617639589434,0.5200199886419793 l -15.78967940271699 16.133146474699583" fill="red" stroke="none" /><path d="M 114.94478906791727 85.2469230424477 l 26.456892258790567 -26.117502614307735 a58.17648572419969,58.17648572419969 0 0,0 0.6973857366165226,0.7187173035202399 l -26.9025422591102 25.65822111523738" fill="red" stroke="none" /><path d="M 115.4437574822437 85.77008943001954 l 16.497163925065273 -15.200521478137162 a43.43239333592794,43.43239333592794 0 0,0 0.5018641164870775,0.5541708922178336 l -16.756371682168385 14.914297798649779" fill="red" stroke="none" /><path d="M 115.9244219780498 86.31012108654704 l 24.05223312669837 -20.67718122243375 a52.7183817633626,52.7183817633626 0 0,0 0.5856494733108004,0.693224253047081 l -24.404593213496284 20.26009801975756" fill="red" stroke="none" /><path d="M 116.15771136456269 86.58626213691792 l 14.36206074445598 -11.923032516988389 a39.666212610720095,39.666212610720095 0 0,0 0.43160901881749086,0.5291016230454039 l -14.565168255349878 11.674046724334884" fill="red" stroke="none" /><path d="M 116.60985879189232 87.15038557335679 l 36.24039552424829 -28.036066711352436 a66.81907140479126,66.81907140479126 0 0,0 0.6959494556243234,0.9157879053233913 l -36.71762092009673 27.40809403014801" fill="red" stroke="none" /><path d="M 117.2510076193507 88.02491185347247 l 23.71554492558618 -16.462559590331765 a49.86941182952505,49.86941182952505 0 0,0 0.48343772190388334,0.7093852038122809 l -23.995407113158798 16.051896363249078" fill="red" stroke="none" /><path d="M 117.45458315368197 88.32363383020206 l 28.92985254679047 -19.35282834315814 a55.806153669412886,55.806153669412886 0 0,0 0.5272442217021048,0.8030291217991723 l -29.2586934038505 18.851981157381296" fill="red" stroke="none" /><line stroke="#e1ed5e" stroke-width="0.3" x1="172.23445277983987" x2="176.4835382374775" y1="55.19839476539836" y2="52.563006222186495" /><path d="M 173.08426987136738 54.67131705675599 a86.0,86.0 0 0,1 12.851231095245387,41.99856678651699" fill="none" id="id87" stroke="none" /><text fill="#e1ed5e" style="font-size:6.75px; font-family:Arial;" text-anchor="middle"><textPath startOffset="22.20632615414155" xlink:href="#id87">March</textPath></text><path d="M 117.84615892207809 88.93136811851018 l 19.669985853786002 -12.199814732139414 a44.146140563529535,44.146140563529535 0 0,0 0.3949696370725188,0.649226233073715 l -19.877071289144745 11.859420725858618" fill="red" stroke="none" /><path d="M 118.03404312379186 89.2402003453031 l 35.010505887522655 -20.888606430265835 a61.76848539127744,61.76848539127744 0 0,0 0.5369161633713626,0.9177637671331532 l -35.36488172536435 20.282863250778785" fill="red" stroke="none" /><path d="M 118.3937258080291 89.86733742301442 l 22.827701931711918 -12.57523372350539 a47.06224239553978,47.06224239553978 0 0,0 0.3847717072348369,0.7129235368113613 l -23.04078173816522 12.18042920336157" fill="red" stroke="none" /><path d="M 118.89224826269711 90.83032412892265 l 24.99348558997737 -12.131015777569294 a48.781934161106236,48.781934161106236 0 0,0 0.36015424667764023,0.7585766942872884 l -25.19859803049677 11.698996667641465" fill="red" stroke="none" /><path d="M 119.04729006885535 91.15688171328212 l 20.322275455287535 -9.43505795610383 a43.405695666852665,43.405695666852665 0 0,0 0.3087957315819942,0.6803904621155876 l -20.481673503832877 9.083845485146178" fill="red" stroke="none" /><path d="M 119.196687751892 91.48605970444005 l 37.227208430341044 -16.51067278077965 a61.724284686044925,61.724284686044925 0 0,0 0.4223977684618956,0.9749522871495788 l -37.50589690864562 15.867421349043468" fill="red" stroke="none" /><path d="M 119.47837535516314 92.15188598940014 l 24.316367285170454 -9.797409655474823 a47.21592939234654,47.21592939234654 0 0,0 0.29725001971421033,0.7564688775631131 l -24.481410854766363 9.377391773015926" fill="red" stroke="none" /><path d="M 119.61058180528143 92.48833698450437 l 15.806257396078115 -6.054449596367822 a37.92613756254015,37.92613756254015 0 0,0 0.2282709411314871,0.6116526330607175 l -15.908132925711227 5.781473826277772" fill="red" stroke="none" /><path d="M 119.7369772167798 92.82701384747503 l 29.521166536862147 -10.728842438712842 a52.41030617125333,52.41030617125333 0 0,0 0.3008524258456769,0.8505503210890946 l -29.701472043517633 10.219094491197133" fill="red" stroke="none" /><path d="M 119.97218684219823 93.5106431181261 l 29.423629551818507 -9.560316776046436 a51.9378349737179,51.9378349737179 0 0,0 0.26895022563541404,0.8526457125410167 l -29.583835261222127 9.052420897079001" fill="red" stroke="none" /><path d="M 120.08093135843002 93.85539295169968 l 53.07056039236862 -16.23917405142164 a76.4995058917862,76.4995058917862 0 0,0 0.3744618133116289,1.2624990795477997 l -53.34222810279195 15.323245585127307" fill="red" stroke="none" /><path d="M 120.28053869075195 94.5502522615342 l 37.32737262301474 -10.030540491900622 a59.651578098404315,59.651578098404315 0 0,0 0.2579324810028679,0.9939190665849323 l -37.494501435887905 9.38652499976684" fill="red" stroke="none" /><path d="M 120.45610955862082 95.25157060432595 l 30.691358310710847 -7.1243140137723335 a52.507385247323725,52.507385247323725 0 0,0 0.1967917115624182,0.8821786559574276 l -30.809444409275304 6.594957188264942" fill="red" stroke="none" /><path d="M 120.6074358757038 95.95851677861258 l 30.647283589852677 -6.010475206938464 a52.231103144943106,52.231103144943106 0 0,0 0.1654340007178744,0.8837550469386841 l -30.74620331448041 5.482042082537217" fill="red" stroke="none" /><path d="M 120.67395015179393 96.31383870115 l 62.02185045538181 -11.058483896549978 a84.0,84.0 0 0,0 0.2415525539191079,1.4256568467366484 l -62.20301487082114 9.98924126149749" fill="red" stroke="none" /><path d="M 120.78858239683441 97.02765380044208 l 37.139865017614376 -5.310248410878175 a58.51757337184603,58.51757337184603 0 0,0 0.13398852634023733,0.9983701526675068 l -37.22576954301245 4.6701599161460035" fill="red" stroke="none" /><path d="M 120.87857604477298 97.74499172005257 l 31.45546336300981 -3.3973739483506704 a52.63839953484664,52.63839953484664 0 0,0 0.08954261575580758,0.9016819208209822 l -31.509283104447842 2.8554164968252533" fill="red" stroke="none" /><line stroke="#e1ed5e" stroke-width="0.3" x1="184.98032266829074" x2="189.97916517819016" y1="98.17113171792111" y2="98.06355123074" /><path d="M 185.9800911702706 98.14961562048488 a86.0,86.0 0 0,1 -9.607161424134198,41.387399972396054" fill="none" id="id88" stroke="none" /><text fill="#e1ed5e" style="font-size:6.75px; font-family:Arial;" text-anchor="middle"><textPath startOffset="21.466115282336823" xlink:href="#id88">April</textPath></text><path d="M 120.99513854157772 99.54816195383933 l 37.367677970266165 -0.8041927692074803 a58.376330516779745,58.376330516779745 0 0,0 0.01297342471503312,1.0048060413949718 l -37.375984402098915 0.16085046975204573" fill="red" stroke="none" /><path d="M 120.9904718944345 100.63252640178507 l 37.089416198988815 1.1176516226333904 a58.106252022151054,58.106252022151054 0 0,0 -0.03873159982478934,0.9994904914828273 l -37.064682466312824 -1.755919361130224" fill="red" stroke="none" /><path d="M 120.95626037817324 101.35467743843564 l 27.022052366864454 1.7467889795712042 a48.07845242728462,48.07845242728462 0 0,0 -0.06049515082008509,0.8254082693189603 l -26.987980657380028 -2.2116703853869346" fill="red" stroke="none" /><path d="M 120.89721153311464 102.0752229133903 l 32.19405028728073 3.1970691747621314 a53.352405246104574,53.352405246104574 0 0,0 -0.098619884811285,0.9130976515115778 l -32.13424810096839 -3.7507631481585006" fill="red" stroke="none" /><path d="M 120.81339534386255 102.79330883721812 l 40.441646211851676 5.42756267725079 a61.80422998832428,61.80422998832428 0 0,0 -0.15058438469242083,1.0531868358136198 l -40.34222777614265 -6.122894985044819" fill="red" stroke="none" /><path d="M 120.76222939487914 103.15116336523771 l 29.926564206388097 4.542069687268912 a51.2692854597375,51.2692854597375 0 0,0 -0.1399364522715456,0.8713844218746893 l -29.843945999755263 -5.056533338836806" fill="red" stroke="none" /><path d="M 120.64145759157962 103.86396538481128 l 54.622242885638876 10.224978290145605 a76.57103201211649,76.57103201211649 0 0,0 -0.25366913472407204,1.293453452882823 l -54.43814381793914 -11.163695470096373" fill="red" stroke="none" /><path d="M 120.49622156327973 104.57218783832717 l 30.850975878266475 6.882071228379296 a52.60926473415454,52.60926473415454 0 0,0 -0.20477388219902465,0.8821605250829826 l -30.727941430136898 -7.412100410810844" fill="red" stroke="none" /><path d="M 120.32669344350535 105.2749913415812 l 39.830789775630976 10.33651005652996 a62.15015497296765,62.15015497296765 0 0,0 -0.2776393139843217,1.0331991716956093 l -39.646962385304874 -11.020600161401118" fill="red" stroke="none" /><path d="M 120.13307415673323 105.97154293290107 l 28.992302252821368 8.599222169380768 a51.24070455259468,51.24070455259468 0 0,0 -0.25809022378988755,0.8434537843457615 l -28.839985256525345 -9.097002926278588" fill="red" stroke="none" /><path d="M 120.02730092923936 106.31721596034902 l 42.46179303343369 13.393732765268433 a65.52410521281234,65.52410521281234 0 0,0 -0.34855001416656495,1.0727266404826459 l -42.224950768250885 -14.122658305728875" fill="red" stroke="none" /><path d="M 119.79798401119884 107.00284435728193 l 33.67999242964288 11.913119275468123 a56.724841510247906,56.724841510247906 0 0,0 -0.33353055832567857,0.9177328508373708 l -33.46993761031197 -12.491099923311625" fill="red" stroke="none" /><path d="M 119.41010516605496 108.01547362559984 l 29.26686816790177 12.08585980842489 a52.664137121769826,52.664137121769826 0 0,0 -0.35322343047404664,0.834915849126068 l -29.054493756235413 -12.587850183217123" fill="red" stroke="none" /><path d="M 119.12269723197855 108.67885076344098 l 40.842784403696854 18.536528937471683 a65.85237945635201,65.85237945635201 0 0,0 -0.47735255689295253,1.0281749402703626 l -40.517657229964065 -19.236823945020877" fill="red" stroke="none" /><path d="M 118.81262510543309 109.33194174019688 l 27.983077446225145 13.880914916237503 a52.23671593290913,52.23671593290913 0 0,0 -0.4065044573215621,0.8020718593833006 l -27.73999431911731 -14.360540987323496" fill="red" stroke="none" /><line stroke="#e1ed5e" stroke-width="0.3" x1="174.80103733775053" x2="179.2010983576182" y1="140.37084112569926" y2="142.7455964860345" /><path d="M 175.68104954172406 140.8457921977663 a86.0,86.0 0 0,1 -30.038265399797805,32.042727171017184" fill="none" id="id89" stroke="none" /><text fill="#e1ed5e" style="font-size:6.75px; font-family:Arial;" text-anchor="middle"><textPath startOffset="22.206326154141568" xlink:href="#id89">May</textPath></text><path d="M 118.48025628344425 109.97397251340804 l 41.938157547488395 22.634428020154434 a68.65633630775146,68.65633630775146 0 0,0 -0.5702516520334618,1.0351723892299667 l -41.542329486003425 -23.352970927782206" fill="red" stroke="none" /><path d="M 118.12598468904814 110.60418214915192 l 32.51950842436642 19.024775572122095 a58.675728443283646,58.675728443283646 0 0,0 -0.517517478096839,0.8673890608400256 l -32.18721007057135 -19.581726726848228" fill="red" stroke="none" /><path d="M 117.55443506779139 111.5257021239791 l 29.995603723268935 19.69419079612757 a56.88310736039538,56.88310736039538 0 0,0 -0.5444441873346679,0.8138701889079416 l -29.652156430523544 -20.20759789924132" fill="red" stroke="none" /><path d="M 117.14729908036423 112.12312394758627 l 30.833376567792218 21.799167559979782 a58.76110190234593,58.76110190234593 0 0,0 -0.5910253401929461,0.8208825049909477 l -30.45357143522367 -22.32668367042186" fill="red" stroke="none" /><path d="M 116.71984013943494 112.70617746262583 l 17.00703929911469 12.924433346628037 a42.360720096781904,42.360720096781904 0 0,0 -0.4461858334829391,0.5767553362323301 l -16.782046648413683 -13.21526667697362" fill="red" stroke="none" /><path d="M 116.498646956653 112.99209946851258 l 46.537070540091655 36.646292936539815 a80.23385620102877,80.23385620102877 0 0,0 -0.8637827492294852,1.0777017923331105 l -45.89936987880732 -37.441922562451175" fill="red" stroke="none" /><path d="M 116.0416608686014 113.55231037782055 l 28.280081437630013 23.891568603283805 a58.02121089921833,58.02121089921833 0 0,0 -0.6511015691511606,0.7573782210406904 l -27.864637358908073 -24.374823923486026" fill="red" stroke="none" /><path d="M 115.56566222782051 114.09645910891815 l 23.603559398022288 21.375679685793234 a52.84411559904906,52.84411559904906 0 0,0 -0.6163979015369699,0.6689781820543049 l -23.232115088489596 -21.778809122648873" fill="red" stroke="none" /><path d="M 114.81725581225074 114.88116024355365 l 28.83099806935265 28.955341507764107 a61.86120717142683,61.86120717142683 0 0,0 -0.7610402770870943,0.7448380888752726 l -28.32830783988976 -29.44732969956195" fill="red" stroke="none" /><path d="M 114.29624159901734 115.38237550388516 l 22.07196769297652 23.74884985060155 a53.421900423420844,53.421900423420844 0 0,0 -0.6789680614927311,0.6202212259962518 l -21.659900082016925 -24.12526384318439" fill="red" stroke="none" /><path d="M 113.75828350139079 115.86535959552629 l 21.853652726727976 25.200531661543696 a54.35639269352865,54.35639269352865 0 0,0 -0.7121581047011846,0.6069165867664803 l -21.416629145449743 -25.572972638533123" fill="red" stroke="none" /><path d="M 113.20401910651253 116.32954008644616 l 38.769226347476945 47.94628291997683 a82.65954068450691,82.65954068450691 0 0,0 -1.1141030307702362,0.8851108278028151 l -37.93816582398936 -48.606527661784774" fill="red" stroke="none" /><path d="M 112.63410532772338 116.77436683061366 l 24.99338748117222 33.18384951476396 a62.543197835536404,62.543197835536404 0 0,0 -0.8655234899567618,0.6402935861257494 l -24.418479020796894 -33.60915304962948" fill="red" stroke="none" /><path d="M 111.7513745106137 117.40417183066458 l 20.880699166147412 30.92500165864132 a58.31433136549706,58.31433136549706 0 0,0 -0.8367420698326649,0.5545470177345887 l -20.345282397574785 -31.279846697467228" fill="red" stroke="none" /><line stroke="#e1ed5e" stroke-width="0.3" x1="143.8653032363475" x2="146.44561519142675" y1="172.8068346515853" y2="177.08958963109032" /><path d="M 144.38136562736335 173.6633856474863 a86.0,86.0 0 0,1 -40.68145358897372,12.25698825130547" fill="none" id="id90" stroke="none" /><text fill="#e1ed5e" style="font-size:6.75px; font-family:Arial;" text-anchor="middle"><textPath startOffset="21.466115282336833" xlink:href="#id90">June</textPath></text><line stroke="#e1ed5e" stroke-width="0.3" x1="102.19456741930631" x2="102.32365962044197" y1="184.97166512339345" y2="189.96999836594603" /><path d="M 102.22038585953345 185.97133177190398 a86.0,86.0 0 0,1 -42.740103519485714,-10.115201625700543" fill="none" id="id91" stroke="none" /><text fill="#e1ed5e" style="font-size:6.75px; font-family:Arial;" text-anchor="middle"><textPath startOffset="22.20632615414155" xlink:href="#id91">July</textPath></text><line stroke="#e1ed5e" stroke-width="0.3" x1="58.666819895761336" x2="56.23545636021788" y1="174.27360380694188" y2="178.64263932499728" /><path d="M 58.180547188652646 175.14741091055294 a86.0,86.0 0 0,1 -31.652253787137756,-30.449443065178592" fill="none" id="id92" stroke="none" /><text fill="#e1ed5e" style="font-size:6.75px; font-family:Arial;" text-anchor="middle"><textPath startOffset="22.20632615414155" xlink:href="#id92">August</textPath></text><line stroke="#e1ed5e" stroke-width="0.3" x1="26.63291911575756" x2="22.317208475507996" y1="142.92168965132927" y2="145.44649492493687" /><path d="M 25.769776987707644 143.4266507060508 a86.0,86.0 0 0,1 -11.730757126820373,-40.83630448921669" fill="none" id="id93" stroke="none" /><text fill="#e1ed5e" style="font-size:6.75px; font-family:Arial;" text-anchor="middle"><textPath startOffset="21.46611528233685" xlink:href="#id93">September</textPath></text><line stroke="#e1ed5e" stroke-width="0.3" x1="15.007084014347285" x2="10.007500721073583" y1="101.09737516637583" y2="101.16192664675087" /><path d="M 14.007167355692545 101.11028546245083 a86.0,86.0 0 0,1 10.666146001902534,-42.60595125391555" fill="none" id="id94" stroke="none" /><text fill="#e1ed5e" style="font-size:6.75px; font-family:Arial;" text-anchor="middle"><textPath startOffset="22.20632615414155" xlink:href="#id94">October</textPath></text><line stroke="#e1ed5e" stroke-width="0.3" x1="26.266209847984243" x2="21.928928074336255" y1="57.711370442889674" y2="55.22380399835377" /><path d="M 25.398753493254645 57.213857153982495 a86.0,86.0 0 0,1 29.58750427330803,-30.492523968695096" fill="none" id="id95" stroke="none" /><text fill="#e1ed5e" style="font-size:6.75px; font-family:Arial;" text-anchor="middle"><textPath startOffset="21.46611528233685" xlink:href="#id95">November</textPath></text><line stroke="#e1ed5e" stroke-width="0.3" x1="56.762969772571076" x2="54.21961505331055" y1="26.818313649435495" y2="22.513508569990535" /><path d="M 56.25429882871897 25.957352633546506 a86.0,86.0 0 0,1 42.265352541879196,-11.944610805530505" fill="none" id="id96" stroke="none" /><text fill="#e1ed5e" style="font-size:6.75px; font-family:Arial;" text-anchor="middle"><textPath startOffset="22.20632615414155" xlink:href="#id96">December</textPath></text></svg>