<?xml version="1.0" encoding="utf-8" ?>
<svg baseProfile="full" height="200mm" version="1.1" viewBox="0,0,200,200" width="200mm" xmlns="http://www.w3.org/2000/svg" xmlns:ev="http://www.w3.org/2001/xml-events" xmlns:xlink="http://www.w3.org/1999/xlink"><defs /><rect fill="#1a1a1a" height="200" width="200" x="0" y="0" /><text alignment-baseline="middle" fill="#e1ed5e" style="dominant-baseline: central; font-size:9.0px; font-family:Arial;" text-anchor="middle" x="100.0" y="100.0">2020</text><line stroke="#e1ed5e" stroke-width="0.3" x1="100.0" x2="100.0" y1="15.0" y2="10.0" /><path d="M 100.0 14.0 a86.0,86.0 0 0,1 42.35913384403234,11.155469271406648" fill="none" id="id25" stroke="none" /><text fill="#e1ed5e" style="font-size:6.75px; font-family:Arial;" text-anchor="middle"><textPath startOffset="22.145653131862478" xlink:href="#id25">January</textPath></text><line stroke="#e1ed5e" stroke-width="0.3" x1="143.13028292997686" x2="145.6673583964461" y1="26.7553504044142" y2="22.446841604673864" /><path d="M 143.63769802327073 25.89364864446614 a86.0,86.0 0 0,1 29.32050498858742,28.57503671076993" fill="none" id="id26" stroke="none" /><text fill="#e1ed5e" style="font-size:6.75px; font-family:Arial;" text-anchor="middle"><textPath startOffset="20.669276256404974" xlink:href="#id26">February</textPath></text><line stroke="#e1ed5e" stroke-width="0.3" x1="172.87174338648825" x2="177.1583165268699" y1="56.24261187166439" y2="53.66864786411523" /><path d="M 173.72905801456457 55.72781907015455 a86.0,86.0 0 0,1 12.242430191666344,42.057860355516425" fill="none" id="id27" stroke="none" /><text fill="#e1ed5e" style="font-size:6.75px; font-family:Arial;" text-anchor="middle"><textPath startOffset="22.145653131862474" xlink:href="#id27">March</textPath></text><path d="M 120.77682067341334 96.94652285012252 l 33.677965757875754 -4.949501201963045 a55.03972590572499,55.03972590572499 0 0,0 0.12935772765455475,0.9359680778284298 l -33.75796800208552 4.370644815934529" fill="red" stroke="none" /><path d="M 120.86939407059847 97.66154086499901 l 25.265873896401406 -2.8310938696615664 a46.4239941049335,46.4239941049335 0 0,0 0.0819441139483392,0.792734968742524 l -25.310750402831413 2.396954378636111" fill="red" stroke="none" /><path d="M 120.96210409425399 98.7389718711861 l 31.920725781475195 -1.9202715968589017 a52.978433004477225,52.978433004477225 0 0,0 0.04681883379259755,0.9082728678244266 l -31.948986204724367 1.3720269356577444" fill="red" stroke="none" /><line stroke="#e1ed5e" stroke-width="0.3" x1="184.99686870605535" x2="189.99668451229388" y1="99.2704041080226" y2="99.22748670261217" /><path d="M 185.99683186730306 99.26182062694052 a86.0,86.0 0 0,1 -10.086455211305974,41.156179273409016" fill="none" id="id28" stroke="none" /><text fill="#e1ed5e" style="font-size:6.75px; font-family:Arial;" text-anchor="middle"><textPath startOffset="21.40746469413373" xlink:href="#id28">April</textPath></text><path d="M 120.99922638620191 99.81974689727618 l 41.550536330076014 -0.3566613815000629 a62.552067056381446,62.552067056381446 0 0,0 0.0,1.0738289684477744 l -41.550536330076014 -0.35666138150005783" fill="red" stroke="none" /><path d="M 120.86939407059847 102.33845913500097 l 32.276940734585544 3.6166985325660854 a53.478937966925784,53.478937966925784 0 0,0 -0.11005943466568556,0.9114500023706443 l -32.21009921366019 -4.170242211860138" fill="red" stroke="none" /><path d="M 120.82617615685814 102.69636545807757 l 59.166570210491315 7.660297069750605 a80.66039877229977,80.66039877229977 0 0,0 -0.18957299886935164,1.3716557841348453 l -59.026352695066755 -8.674841162085537" fill="red" stroke="none" /><path d="M 120.43855184770803 104.8234425847677 l 30.331565865991664 7.158166955802063 a52.16477566179688,52.16477566179688 0 0,0 -0.2131613537267295,0.8697710646953973 l -30.204216985748637 -7.677793845105559" fill="red" stroke="none" /><path d="M 120.26092885502905 105.52220625578681 l 55.619360000212666 15.159303896365827 a78.6482237493544,78.6482237493544 0 0,0 -0.36620675780322504,1.2995385923871046 l -55.35093475033486 -16.11185041265594" fill="red" stroke="none" /><path d="M 119.16976305983485 108.57439118712176 l 57.509289179504535 25.723173561365286 a84.0,84.0 0 0,0 -0.6000621405797757,1.3112440711412445 l -57.05924257406971 -26.70660661472122" fill="red" stroke="none" /><path d="M 119.0197475246899 108.90220220490707 l 27.182741378980005 12.722895502437533 a51.0128888786544,51.0128888786544 0 0,0 -0.37803160099546435,0.7899406522324063 l -26.96033052002463 -13.187648656735043" fill="red" stroke="none" /><path d="M 118.8641267826498 109.22738970284198 l 46.45954371702539 22.725690949422127 a72.71988236184262,72.71988236184262 0 0,0 -0.5581427119197337,1.1166593088197216 l -46.06258109189392 -23.519882114405593" fill="red" stroke="none" /><line stroke="#e1ed5e" stroke-width="0.3" x1="174.33088141563837" x2="178.70328620479359" y1="141.23008692659167" y2="143.65538615756765" /><path d="M 175.20536237346943 141.71514677278685 a86.0,86.0 0 0,1 -30.301960400862466,31.631185727798858" fill="none" id="id29" stroke="none" /><text fill="#e1ed5e" style="font-size:6.75px; font-family:Arial;" text-anchor="middle"><textPath startOffset="22.145653131862474" xlink:href="#id29">May</textPath></text><path d="M 118.36410011445183 110.18625677009912 l 38.24072551671756 21.211485820730278 a64.72962632778807,64.72962632778807 0 0,0 -0.5473248538309011,0.9670705730646233 l -37.870967297865285 -21.864813163894024" fill="red" stroke="none" /><path d="M 118.18653347947321 110.5 l 28.197404023506184 16.279778803419923 a53.55955760683986,53.55955760683986 0 0,0 -0.4665452933385866,0.7922959046323399 l -27.91378502003783 -16.76142587634581" fill="red" stroke="none" /><path d="M 113.03279911837588 116.46651593811092 l 20.60163462417376 26.029492345338177 a54.195810292022905,54.195810292022905 0 0,0 -0.7344566024545397,0.5711178963896982 l -20.151768077083986 -26.379311293348668" fill="red" stroke="none" /><line stroke="#e1ed5e" stroke-width="0.3" x1="143.1302829299769" x2="145.66735839644613" y1="173.24464959558577" y2="177.55315839532614" /><path d="M 143.63769802327073 174.10635135553383 a86.0,86.0 0 0,1 -40.68552437913181,11.842963189579606" fill="none" id="id30" stroke="none" /><text fill="#e1ed5e" style="font-size:6.75px; font-family:Arial;" text-anchor="middle"><textPath startOffset="21.407464694133747" xlink:href="#id30">June</textPath></text><line stroke="#e1ed5e" stroke-width="0.3" x1="101.45913802915013" x2="101.54496967792366" y1="184.9874750549273" y2="189.98673829345242" /><path d="M 101.47630435890484 185.9873277026323 a86.0,86.0 0 0,1 -42.54439059252881,-10.42667462771756" fill="none" id="id31" stroke="none" /><text fill="#e1ed5e" style="font-size:6.75px; font-family:Arial;" text-anchor="middle"><textPath startOffset="22.145653131862474" xlink:href="#id31">July</textPath></text><line stroke="#e1ed5e" stroke-width="0.3" x1="58.13341422392154" x2="55.67067388415222" y1="173.97424548756322" y2="178.32567169271397" /><path d="M 57.64086615596768 174.84453072859336 a86.0,86.0 0 0,1 -31.369924170532247,-30.572349798747897" fill="none" id="id32" stroke="none" /><text fill="#e1ed5e" style="font-size:6.75px; font-family:Arial;" text-anchor="middle"><textPath startOffset="22.145653131862474" xlink:href="#id32">August</textPath></text><line stroke="#e1ed5e" stroke-width="0.3" x1="26.387840678322732" x2="22.057713659400548" y1="142.50000000000003" y2="145.00000000000006" /><path d="M 25.521815274538298 143.00000000000003 a86.0,86.0 0 0,1 -11.493303480769221,-40.785679425670985" fill="none" id="id33" stroke="none" /><text fill="#e1ed5e" style="font-size:6.75px; font-family:Arial;" text-anchor="middle"><textPath startOffset="21.40746469413373" xlink:href="#id33">September</textPath></text><line stroke="#e1ed5e" stroke-width="0.3" x1="15.003131293944662" x2="10.003315487706104" y1="100.72959589197737" y2="100.7725132973878" /><path d="M 14.003168132696942 100.73817937305945 a86.0,86.0 0 0,1 10.791469493833604,-42.45332614584628" fill="none" id="id34" stroke="none" /><text fill="#e1ed5e" style="font-size:6.75px; font-family:Arial;" text-anchor="middle"><textPath startOffset="22.145653131862435" xlink:href="#id34">October</textPath></text><line stroke="#e1ed5e" stroke-width="0.3" x1="26.387840678322718" x2="22.05771365940052" y1="57.49999999999999" y2="54.99999999999999" /><path d="M 25.521815274538284 56.99999999999999 a86.0,86.0 0 0,1 29.574782752854787,-30.34633250058573" fill="none" id="id35" stroke="none" /><text fill="#e1ed5e" style="font-size:6.75px; font-family:Arial;" text-anchor="middle"><textPath startOffset="21.40746469413373" xlink:href="#id35">November</textPath></text><line stroke="#e1ed5e" stroke-width="0.3" x1="56.869717070023135" x2="54.33264160355391" y1="26.7553504044142" y2="22.446841604673864" /><path d="M 56.362301976729285 25.89364864446614 a86.0,86.0 0 0,1 42.16139366436587,-11.88097634709845" fill="none" id="id36" stroke="none" /><text fill="#e1ed5e" style="font-size:6.75px; font-family:Arial;" text-anchor="middle"><textPath startOffset="22.145653131862474" xlink:href="#id36">December</textPath></text></svg>