<?xml version="1.0" encoding="utf-8" ?>
<svg baseProfile="full" height="200mm" version="1.1" viewBox="0,0,200,200" width="200mm" xmlns="http://www.w3.org/2000/svg" xmlns:ev="http://www.w3.org/2001/xml-events" xmlns:xlink="http://www.w3.org/1999/xlink"><defs /><rect fill="#1a1a1a" height="200" width="200" x="0" y="0" /><text alignment-baseline="middle" fill="#e1ed5e" style="dominant-baseline: central; font-size:9.0px; font-family:Arial;" text-anchor="middle" x="100.0" y="100.0">2025</text><line stroke="#e1ed5e" stroke-width="0.3" x1="100.0" x2="100.0" y1="15.0" y2="10.0" /><path d="M 100.0 14.0 a86.0,86.0 0 0,1 42.46469731375804,11.215312516191453" fill="none" id="id85" stroke="none" /><text fill="#e1ed5e" style="font-size:6.75px; font-family:Arial;" text-anchor="middle"><textPath startOffset="22.20632615414155" xlink:href="#id85">January</textPath></text><path d="M 107.08798089147638 80.2323363322302 l 7.559070237276623 -21.081484329511053 a43.39572558296563,43.39572558296563 0 0,0 0.7009808144602431,0.2581771497861524 l -7.920833377509443 20.948243911918574" fill="red" stroke="none" /><path d="M 107.4271985657038 80.35727306442388 l 6.616002893732312 -17.497356115757828 a39.70638835616117,39.70638835616117 0 0,0 0.6372248253851196,0.24723333236778622 l -6.916210884117099 17.380880079499494" fill="red" stroke="none" /><path d="M 108.09893153111575 80.62456947434976 l 6.949057792596778 -16.624536948102644 a39.018452567956,39.018452567956 0 0,0 0.6174507397247601,0.2643601833109636 l -7.234192290111854 16.502457236828892" fill="red" stroke="none" /><path d="M 108.76106565485865 80.91482961587045 l 4.851557752203881 -10.568669380751212 a32.629031993360314,32.629031993360314 0 0,0 0.5084252482109527,0.23871247127332437 l -5.032761211714432 10.483591926837883" fill="red" stroke="none" /><path d="M 110.36928655335952 81.73862282372117 l 7.98786918151695 -14.067456927515885 a37.17712577896775,37.17712577896775 0 0,0 0.5537679248194566,0.3207781253017225 l -8.228833838801735 13.927874644824112" fill="red" stroke="none" /><line stroke="#e1ed5e" stroke-width="0.3" x1="143.23703022742887" x2="145.7803849466894" y1="26.81831364943548" y2="22.513508569990506" /><path d="M 143.74570117128098 25.957352633546492 a86.0,86.0 0 0,1 28.547481713284135,27.462654790039103" fill="none" id="id86" stroke="none" /><text fill="#e1ed5e" style="font-size:6.75px; font-family:Arial;" text-anchor="middle"><textPath startOffset="19.985693538727396" xlink:href="#id86">February</textPath></text><path d="M 110.99172775467656 82.1063720568725 l 7.235446802074098 -11.77871177017842 a34.823521309369184,34.823521309369184 0 0,0 0.5080599988641469,0.3181471246792149 l -7.437125953310508 11.65242030417626" fill="red" stroke="none" /><path d="M 111.90073688211348 82.69761687909136 l 12.722709595061431 -18.49744246347202 a43.45045026563445,43.45045026563445 0 0,0 0.612586918796364,0.42915628446782694 l -13.039227653441447 18.275701336240257" fill="red" stroke="none" /><path d="M 112.77801427241765 83.33499621200491 l 9.14986361927447 -11.93319310998056 a36.03732363326034,36.03732363326034 0 0,0 0.48902209688870835,0.3816895033616067 l -9.353918271322607 11.77392521739573" fill="red" stroke="none" /><path d="M 113.06298171725822 83.55741782278167 l 24.424686520196076 -30.743740131744836 a60.265033667349705,60.265033667349705 0 0,0 0.8066807690137392,0.6522797476552636 l -24.950270687774307 30.318754286825442" fill="red" stroke="none" /><path d="M 113.6212207817346 84.01681056812373 l 14.51900889906324 -17.036657236185928 a43.38413074466739,43.38413074466739 0 0,0 0.5642131022232495,0.48928004239976874 l -14.810115799933252 16.784212200366486" fill="red" stroke="none" /><path d="M 113.89432698308785 84.25364557470407 l 14.884314801367463 -16.868301467591035 a43.49627572527818,43.49627572527818 0 0,0 0.5571438214569091,0.5002092239285061 l -15.172469610420361 16.609593234893232" fill="red" stroke="none" /><path d="M 114.42810811169701 84.74124197986012 l 15.509634395145628 -16.402549550103863 a43.574153158306885,43.574153158306885 0 0,0 0.5405617639589434,0.5200199886419793 l -15.78967940271699 16.133146474699583" fill="red" stroke="none" /><path d="M 114.94478906791727 85.2469230424477 l 26.456892258790567 -26.117502614307735 a58.17648572419969,58.17648572419969 0 0,0 0.6973857366165226,0.7187173035202399 l -26.9025422591102 25.65822111523738" fill="red" stroke="none" /><path d="M 115.4437574822437 85.77008943001954 l 16.497163925065273 -15.200521478137162 a43.43239333592794,43.43239333592794 0 0,0 0.5018641164870775,0.5541708922178336 l -16.756371682168385 14.914297798649779" fill="red" stroke="none" /><path d="M 115.9244219780498 86.31012108654704 l 24.05223312669837 -20.67718122243375 a52.7183817633626,52.7183817633626 0 0,0 0.5856494733108004,0.693224253047081 l -24.404593213496284 20.26009801975756" fill="red" stroke="none" /><path d="M 116.15771136456269 86.58626213691792 l 14.36206074445598 -11.923032516988389 a39.666212610720095,39.666212610720095 0 0,0 0.43160901881749086,0.5291016230454039 l -14.565168255349878 11.674046724334884" fill="red" stroke="none" /><path d="M 116.60985879189232 87.15038557335679 l 36.24039552424829 -28.036066711352436 a66.81907140479126,66.81907140479126 0 0,0 0.6959494556243234,0.9157879053233913 l -36.71762092009673 27.40809403014801" fill="red" stroke="none" /><path d="M 117.2510076193507 88.02491185347247 l 23.71554492558618 -16.462559590331765 a49.86941182952505,49.86941182952505 0 0,0 0.48343772190388334,0.7093852038122809 l -23.995407113158798 16.051896363249078" fill="red" stroke="none" /><path d="M 117.45458315368197 88.32363383020206 l 28.92985254679047 -19.35282834315814 a55.806153669412886,55.806153669412886 0 0,0 0.5272442217021048,0.8030291217991723 l -29.2586934038505 18.851981157381296" fill="red" stroke="none" /><line stroke="#e1ed5e" stroke-width="0.3" x1="172.23445277983987" x2="176.4835382374775" y1="55.19839476539836" y2="52.563006222186495" /><path d="M 173.08426987136738 54.67131705675599 a86.0,86.0 0 0,1 12.851231095245387,41.99856678651699" fill="none" id="id87" stroke="none" /><text fill="#e1ed5e" style="font-size:6.75px; font-family:Arial;" text-anchor="middle"><textPath startOffset="22.20632615414155" xlink:href="#id87">March</textPath></text><path d="M 117.84615892207809 88.93136811851018 l 19.669985853786002 -12.199814732139414 a44.146140563529535,44.146140563529535 0 0,0 0.3949696370725188,0.649226233073715 l -19.877071289144745 11.859420725858618" fill="red" stroke="none" /><path d="M 118.03404312379186 89.2402003453031 l 35.010505887522655 -20.888606430265835 a61.76848539127744,61.76848539127744 0 0,0 0.5369161633713626,0.9177637671331532 l -35.36488172536435 20.282863250778785" fill="red" stroke="none" /><path d="M 118.3937258080291 89.86733742301442 l 22.827701931711918 -12.57523372350539 a47.06224239553978,47.06224239553978 0 0,0 0.3847717072348369,0.7129235368113613 l -23.04078173816522 12.18042920336157" fill="red" stroke="none" /><path d="M 118.89224826269711 90.83032412892265 l 24.99348558997737 -12.131015777569294 a48.781934161106236,48.781934161106236 0 0,0 0.36015424667764023,0.7585766942872884 l -25.19859803049677 11.698996667641465" fill="red" stroke="none" /><path d="M 119.04729006885535 91.15688171328212 l 20.322275455287535 -9.43505795610383 a43.405695666852665,43.405695666852665 0 0,0 0.3087957315819942,0.6803904621155876 l -20.481673503832877 9.083845485146178" fill="red" stroke="none" /><path d="M 119.196687751892 91.48605970444005 l 37.227208430341044 -16.51067278077965 a61.724284686044925,61.724284686044925 0 0,0 0.4223977684618956,0.9749522871495788 l -37.50589690864562 15.867421349043468" fill="red" stroke="none" /><path d="M 119.47837535516314 92.15188598940014 l 24.316367285170454 -9.797409655474823 a47.21592939234654,47.21592939234654 0 0,0 0.29725001971421033,0.7564688775631131 l -24.481410854766363 9.377391773015926" fill="red" stroke="none" /><path d="M 119.61058180528143 92.48833698450437 l 15.806257396078115 -6.054449596367822 a37.92613756254015,37.92613756254015 0 0,0 0.2282709411314871,0.6116526330607175 l -15.908132925711227 5.781473826277772" fill="red" stroke="none" /><path d="M 119.7369772167798 92.82701384747503 l 29.521166536862147 -10.728842438712842 a52.41030617125333,52.41030617125333 0 0,0 0.3008524258456769,0.8505503210890946 l -29.701472043517633 10.219094491197133" fill="red" stroke="none" /><path d="M 119.97218684219823 93.5106431181261 l 29.423629551818507 -9.560316776046436 a51.9378349737179,51.9378349737179 0 0,0 0.26895022563541404,0.8526457125410167 l -29.583835261222127 9.052420897079001" fill="red" stroke="none" /><path d="M 120.08093135843002 93.85539295169968 l 53.07056039236862 -16.23917405142164 a76.4995058917862,76.4995058917862 0 0,0 0.3744618133116289,1.2624990795477997 l -53.34222810279195 15.323245585127307" fill="red" stroke="none" /><path d="M 120.28053869075195 94.5502522615342 l 37.32737262301474 -10.030540491900622 a59.651578098404315,59.651578098404315 0 0,0 0.2579324810028679,0.9939190665849323 l -37.494501435887905 9.38652499976684" fill="red" stroke="none" /><path d="M 120.45610955862082 95.25157060432595 l 30.691358310710847 -7.1243140137723335 a52.507385247323725,52.507385247323725 0 0,0 0.1967917115624182,0.8821786559574276 l -30.809444409275304 6.594957188264942" fill="red" stroke="none" /><path d="M 120.6074358757038 95.95851677861258 l 30.647283589852677 -6.010475206938464 a52.231103144943106,52.231103144943106 0 0,0 0.1654340007178744,0.8837550469386841 l -30.74620331448041 5.482042082537217" fill="red" stroke="none" /><path d="M 120.67395015179393 96.31383870115 l 62.02185045538181 -11.058483896549978 a84.0,84.0 0 0,0 0.2415525539191079,1.4256568467366484 l -62.20301487082114 9.98924126149749" fill="red" stroke="none" /><path d="M 120.78858239683441 97.02765380044208 l 37.139865017614376 -5.310248410878175 a58.51757337184603,58.51757337184603 0 0,0 0.13398852634023733,0.9983701526675068 l -37.22576954301245 4.6701599161460035" fill="red" stroke="none" /><path d="M 120.87857604477298 97.74499172005257 l 31.45546336300981 -3.3973739483506704 a52.63839953484664,52.63839953484664 0 0,0 0.08954261575580758,0.9016819208209822 l -31.509283104447842 2.8554164968252533" fill="red" stroke="none" /><line stroke="#e1ed5e" stroke-width="0.3" x1="184.98032266829074" x2="189.97916517819016" y1="98.17113171792111" y2="98.06355123074" /><path d="M 185.9800911702706 98.14961562048488 a86.0,86.0 0 0,1 -9.607161424134198,41.387399972396054" fill="none" id="id88" stroke="none" /><text fill="#e1ed5e" style="font-size:6.75px; font-family:Arial;" text-anchor="middle"><textPath startOffset="21.466115282336823" xlink:href="#id88">April</textPath></text><path d="M 120.99513854157772 99.54816195383933 l 37.367677970266165 -0.8041927692074803 a58.376330516779745,58.376330516779745 0 0,0 0.01297342471503312,1.0048060413949718 l -37.375984402098915 0.16085046975204573" fill="red" stroke="none" /><path d="M 120.9904718944345 100.63252640178507 l 37.089416198988815 1.1176516226333904 a58.106252022151054,58.106252022151054 0 0,0 -0.03873159982478934,0.9994904914828273 l -37.064682466312824 -1.755919361130224" fill="red" stroke="none" /><path d="M 120.95626037817324 101.35467743843564 l 27.022052366864454 1.7467889795712042 a48.07845242728462,48.07845242728462 0 0,0 -0.06049515082008509,0.8254082693189603 l -26.987980657380028 -2.2116703853869346" fill="red" stroke="none" /><path d="M 120.89721153311464 102.0752229133903 l 32.19405028728073 3.1970691747621314 a53.352405246104574,53.352405246104574 0 0,0 -0.098619884811285,0.9130976515115778 l -32.13424810096839 -3.7507631481585006" fill="red" stroke="none" /><path d="M 120.81339534386255 102.79330883721812 l 40.441646211851676 5.42756267725079 a61.80422998832428,61.80422998832428 0 0,0 -0.15058438469242083,1.0531868358136198 l -40.34222777614265 -6.122894985044819" fill="red" stroke="none" /><line stroke="#e1ed5e" stroke-width="0.3" x1="174.80103733775053" x2="179.2010983576182" y1="140.37084112569926" y2="142.7455964860345" /><path d="M 175.68104954172406 140.8457921977663 a86.0,86.0 0 0,1 -30.038265399797805,32.042727171017184" fill="none" id="id89" stroke="none" /><text fill="#e1ed5e" style="font-size:6.75px; font-family:Arial;" text-anchor="middle"><textPath startOffset="22.206326154141568" xlink:href="#id89">May</textPath></text><line stroke="#e1ed5e" stroke-width="0.3" x1="143.8653032363475" x2="146.44561519142675" y1="172.8068346515853" y2="177.08958963109032" /><path d="M 144.38136562736335 173.6633856474863 a86.0,86.0 0 0,1 -40.68145358897372,12.25698825130547" fill="none" id="id90" stroke="none" /><text fill="#e1ed5e" style="font-size:6.75px; font-family:Arial;" text-anchor="middle"><textPath startOffset="21.466115282336833" xlink:href="#id90">June</textPath></text><line stroke="#e1ed5e" stroke-width="0.3" x1="102.19456741930631" x2="102.32365962044197" y1="184.97166512339345" y2="189.96999836594603" /><path d="M 102.22038585953345 185.97133177190398 a86.0,86.0 0 0,1 -42.740103519485714,-10.115201625700543" fill="none" id="id91" stroke="none" /><text fill="#e1ed5e" style="font-size:6.75px; font-family:Arial;" text-anchor="middle"><textPath startOffset="22.20632615414155" xlink:href="#id91">July</textPath></text><line stroke="#e1ed5e" stroke-width="0.3" x1="58.666819895761336" x2="56.23545636021788" y1="174.27360380694188" y2="178.64263932499728" /><path d="M 58.180547188652646 175.14741091055294 a86.0,86.0 0 0,1 -31.652253787137756,-30.449443065178592" fill="none" id="id92" stroke="none" /><text fill="#e1ed5e" style="font-size:6.75px; font-family:Arial;" text-anchor="middle"><textPath startOffset="22.20632615414155" xlink:href="#id92">August</textPath></text><line stroke="#e1ed5e" stroke-width="0.3" x1="26.63291911575756" x2="22.317208475507996" y1="142.92168965132927" y2="145.44649492493687" /><path d="M 25.769776987707644 143.4266507060508 a86.0,86.0 0 0,1 -11.730757126820373,-40.83630448921669" fill="none" id="id93" stroke="none" /><text fill="#e1ed5e" style="font-size:6.75px; font-family:Arial;" text-anchor="middle"><textPath startOffset="21.46611528233685" xlink:href="#id93">September</textPath></text><line stroke="#e1ed5e" stroke-width="0.3" x1="15.007084014347285" x2="10.007500721073583" y1="101.09737516637583" y2="101.16192664675087" /><path d="M 14.007167355692545 101.11028546245083 a86.0,86.0 0 0,1 10.666146001902534,-42.60595125391555" fill="none" id="id94" stroke="none" /><text fill="#e1ed5e" style="font-size:6.75px; font-family:Arial;" text-anchor="middle"><textPath startOffset="22.20632615414155" xlink:href="#id94">October</textPath></text><line stroke="#e1ed5e" stroke-width="0.3" x1="26.266209847984243" x2="21.928928074336255" y1="57.711370442889674" y2="55.22380399835377" /><path d="M 25.398753493254645 57.213857153982495 a86.0,86.0 0 0,1 29.58750427330803,-30.492523968695096" fill="none" id="id95" stroke="none" /><text fill="#e1ed5e" style="font-size:6.75px; font-family:Arial;" text-anchor="middle"><textPath startOffset="21.46611528233685" xlink:href="#id95">November</textPath></text><line stroke="#e1ed5e" stroke-width="0.3" x1="56.762969772571076" x2="54.21961505331055" y1="26.818313649435495" y2="22.513508569990535" /><path d="M 56.25429882871897 25.957352633546506 a86.0,86.0 0 0,1 42.265352541879196,-11.944610805530505" fill="none" id="id96" stroke="none" /><text fill="#e1ed5e" style="font-size:6.75px; font-family:Arial;" text-anchor="middle"><textPath startOffset="22.20632615414155" xlink:href="#id96">December</textPath></text></svg>