<?xml version="1.0" encoding="utf-8" ?>
<svg baseProfile="full" height="200mm" version="1.1" viewBox="0,0,200,200" width="200mm" xmlns="http://www.w3.org/2000/svg" xmlns:ev="http://www.w3.org/2001/xml-events" xmlns:xlink="http://www.w3.org/1999/xlink"><defs /><rect fill="#1a1a1a" height="200" width="200" x="0" y="0" /><text alignment-baseline="middle" fill="#e1ed5e" style="dominant-baseline: central; font-size:9.0px; font-family:Arial;" text-anchor="middle" x="100.0" y="100.0">2019</text><line stroke="#e1ed5e" stroke-width="0.3" x1="100.0" x2="100.0" y1="15.0" y2="10.0" /><path d="M 100.0 14.0 a86.0,86.0 0 0,1 42.46469731375804,11.215312516191453" fill="none" id="id13" stroke="none" /><text fill="#e1ed5e" style="font-size:6.75px; font-family:Arial;" text-anchor="middle"><textPath startOffset="22.20632615414155" xlink:href="#id13">January</textPath></text><path d="M 108.43124777332544 80.76684994638697 l 12.206261419214648 -27.8446160972906 a51.40255685694384,51.40255685694384 0 0,0 0.8073086860927665,0.36221587496646473 l -12.683752223774196 27.630379891807603" fill="red" stroke="none" /><line stroke="#e1ed5e" stroke-width="0.3" x1="143.23703022742887" x2="145.7803849466894" y1="26.81831364943548" y2="22.513508569990506" /><path d="M 143.74570117128098 25.957352633546492 a86.0,86.0 0 0,1 28.547481713284135,27.462654790039103" fill="none" id="id14" stroke="none" /><text fill="#e1ed5e" style="font-size:6.75px; font-family:Arial;" text-anchor="middle"><textPath startOffset="19.985693538727396" xlink:href="#id14">February</textPath></text><line stroke="#e1ed5e" stroke-width="0.3" x1="172.23445277983987" x2="176.4835382374775" y1="55.19839476539836" y2="52.563006222186495" /><path d="M 173.08426987136738 54.67131705675599 a86.0,86.0 0 0,1 12.851231095245387,41.99856678651699" fill="none" id="id15" stroke="none" /><text fill="#e1ed5e" style="font-size:6.75px; font-family:Arial;" text-anchor="middle"><textPath startOffset="22.20632615414155" xlink:href="#id15">March</textPath></text><path d="M 118.21658344932153 89.55222093294921 l 24.527692380038054 -14.06739698056647 a49.27541956008129,49.27541956008129 0 0,0 0.41565543081798967,0.7394046313458675 l -24.766205452148476 13.643108839285809" fill="red" stroke="none" /><path d="M 120.18372546131832 94.20196356495316 l 31.929784602529924 -9.1722439865457 a54.22109577531543,54.22109577531543 0 0,0 0.24996758978280065,0.8992664178467041 l -32.08293896287909 8.621266265280045" fill="red" stroke="none" /><path d="M 120.37134235888165 94.90015583598534 l 37.533298246087114 -9.396237550004871 a59.69157217438763,59.69157217438763 0 0,0 0.24094702005962043,0.9988809527403938 l -37.68947806640755 8.748771365605071" fill="red" stroke="none" /><path d="M 120.83666639777658 97.38593545837742 l 37.57544359889163 -4.714028284202069 a58.86998843831013,58.86998843831013 0 0,0 0.11748668733963713,1.00655418921518 l -37.65102063923485 4.066530356662037" fill="red" stroke="none" /><line stroke="#e1ed5e" stroke-width="0.3" x1="184.98032266829074" x2="189.97916517819016" y1="98.17113171792111" y2="98.06355123074" /><path d="M 185.9800911702706 98.14961562048488 a86.0,86.0 0 0,1 -9.607161424134198,41.387399972396054" fill="none" id="id16" stroke="none" /><text fill="#e1ed5e" style="font-size:6.75px; font-family:Arial;" text-anchor="middle"><textPath startOffset="21.466115282336823" xlink:href="#id16">April</textPath></text><path d="M 120.81339534386255 102.79330883721812 l 59.90003498371834 8.03901979015806 a81.43707496427366,81.43707496427366 0 0,0 -0.19841929633234467,1.3877440964112464 l -59.7527816363694 -9.068909358549714" fill="red" stroke="none" /><path d="M 120.32669344350535 105.2749913415812 l 56.54614671065465 14.674321484087146 a79.41919563671877,79.41919563671877 0 0,0 -0.3547841675271105,1.32028387031826 l -56.28517446678576 -15.645496287580956" fill="red" stroke="none" /><path d="M 119.54520255179757 107.68017299344265 l 32.625433516356736 12.819973225022261 a56.05382469318435,56.05382469318435 0 0,0 -0.36060596080588697,0.8949944216406106 l -32.399924941293456 -13.379667014505685" fill="red" stroke="none" /><line stroke="#e1ed5e" stroke-width="0.3" x1="174.80103733775053" x2="179.2010983576182" y1="140.37084112569926" y2="142.7455964860345" /><path d="M 175.68104954172406 140.8457921977663 a86.0,86.0 0 0,1 -30.038265399797805,32.042727171017184" fill="none" id="id17" stroke="none" /><text fill="#e1ed5e" style="font-size:6.75px; font-family:Arial;" text-anchor="middle"><textPath startOffset="22.206326154141568" xlink:href="#id17">May</textPath></text><path d="M 118.48025628344425 109.97397251340804 l 40.451580061249736 21.83210781639846 a66.96706713679418,66.96706713679418 0 0,0 -0.5562207761191171,1.0097022739020252 l -40.06978287567911 -22.52518060869829" fill="red" stroke="none" /><path d="M 115.80600337817218 113.82643327865902 l 44.45117087217024 38.88403244751213 a80.05823034333193,80.05823034333193 0 0,0 -0.9162517702778431,1.0294185770254838 l -43.77526025224406 -39.64342519427848" fill="red" stroke="none" /><path d="M 114.55890576462653 115.13401014063108 l 24.123770096329427 25.076704744882157 a55.796514258220654,55.796514258220654 0 0,0 -0.6978926124541397,0.6599010253359212 l -23.68854164948448 -25.488240406964" fill="red" stroke="none" /><path d="M 114.0293411484842 115.62618273729858 l 37.99733704499819 42.32225347660167 a77.87680337227923,77.87680337227923 0 0,0 -1.0051953850117297,0.8869680552094746 l -37.26319930707987 -42.97004467358343" fill="red" stroke="none" /><path d="M 112.63410532772338 116.77436683061366 l 37.90231598317012 50.32310049184099 a84.0,84.0 0 0,0 -1.1624601183257428,0.8599602050409239 l -37.03047089442582 -50.96807064562168" fill="red" stroke="none" /><path d="M 112.04921762599082 117.19931262002967 l 33.02772986058433 47.14449258321593 a78.56243671590559,78.56243671590559 0 0,0 -1.1142514715753762,0.7663923224369127 l -32.21132150438607 -47.706025695017935" fill="red" stroke="none" /><path d="M 111.45004920935366 117.60387380957326 l 31.656710057949063 48.67059685919387 a79.06009206264855,79.06009206264855 0 0,0 -1.147192799206383,0.7321927220022123 l -30.81423545669575 -49.208304010019894" fill="red" stroke="none" /><line stroke="#e1ed5e" stroke-width="0.3" x1="143.8653032363475" x2="146.44561519142675" y1="172.8068346515853" y2="177.08958963109032" /><path d="M 144.38136562736335 173.6633856474863 a86.0,86.0 0 0,1 -40.68145358897372,12.25698825130547" fill="none" id="id18" stroke="none" /><text fill="#e1ed5e" style="font-size:6.75px; font-family:Arial;" text-anchor="middle"><textPath startOffset="21.466115282336833" xlink:href="#id18">June</textPath></text><path d="M 106.57524785965236 119.94407469862006 l 18.002062370619434 54.60394563252762 a78.4949139336316,78.4949139336316 0 0,0 -1.2868630183939564,0.41201290069502594 l -17.059478007134537 -54.90573137988235" fill="red" stroke="none" /><line stroke="#e1ed5e" stroke-width="0.3" x1="102.19456741930631" x2="102.32365962044197" y1="184.97166512339345" y2="189.96999836594603" /><path d="M 102.22038585953345 185.97133177190398 a86.0,86.0 0 0,1 -42.740103519485714,-10.115201625700543" fill="none" id="id19" stroke="none" /><text fill="#e1ed5e" style="font-size:6.75px; font-family:Arial;" text-anchor="middle"><textPath startOffset="22.20632615414155" xlink:href="#id19">July</textPath></text><line stroke="#e1ed5e" stroke-width="0.3" x1="58.666819895761336" x2="56.23545636021788" y1="174.27360380694188" y2="178.64263932499728" /><path d="M 58.180547188652646 175.14741091055294 a86.0,86.0 0 0,1 -31.652253787137756,-30.449443065178592" fill="none" id="id20" stroke="none" /><text fill="#e1ed5e" style="font-size:6.75px; font-family:Arial;" text-anchor="middle"><textPath startOffset="22.20632615414155" xlink:href="#id20">August</textPath></text><line stroke="#e1ed5e" stroke-width="0.3" x1="26.63291911575756" x2="22.317208475507996" y1="142.92168965132927" y2="145.44649492493687" /><path d="M 25.769776987707644 143.4266507060508 a86.0,86.0 0 0,1 -11.730757126820373,-40.83630448921669" fill="none" id="id21" stroke="none" /><text fill="#e1ed5e" style="font-size:6.75px; font-family:Arial;" text-anchor="middle"><textPath startOffset="21.46611528233685" xlink:href="#id21">September</textPath></text><path d="M 81.35079622478065 109.6543875284942 l -30.54010848820903 15.81011425802585 a55.38979411574616,55.38979411574616 0 0,0 -0.4310416111742883,-0.8504859917751311 l 30.807728769169586 -15.282074054548033" fill="red" stroke="none" /><line stroke="#e1ed5e" stroke-width="0.3" x1="15.007084014347285" x2="10.007500721073583" y1="101.09737516637583" y2="101.16192664675087" /><path d="M 14.007167355692545 101.11028546245083 a86.0,86.0 0 0,1 10.666146001902534,-42.60595125391555" fill="none" id="id22" stroke="none" /><text fill="#e1ed5e" style="font-size:6.75px; font-family:Arial;" text-anchor="middle"><textPath startOffset="22.20632615414155" xlink:href="#id22">October</textPath></text><line stroke="#e1ed5e" stroke-width="0.3" x1="26.266209847984243" x2="21.928928074336255" y1="57.711370442889674" y2="55.22380399835377" /><path d="M 25.398753493254645 57.213857153982495 a86.0,86.0 0 0,1 29.58750427330803,-30.492523968695096" fill="none" id="id23" stroke="none" /><text fill="#e1ed5e" style="font-size:6.75px; font-family:Arial;" text-anchor="middle"><textPath startOffset="21.46611528233685" xlink:href="#id23">November</textPath></text><path d="M 82.34701348167596 88.62581576622439 l -29.878858318574004 -19.25156623541138 a56.543902106238285,56.543902106238285 0 0,0 0.5342143060890503,-0.8136450385104932 l 29.54304737712703 19.76302933789954" fill="red" stroke="none" /><path d="M 84.31358615837235 86.03803664274999 l -25.798300454562455 -22.9622225489209 a55.537167960474825,55.537167960474825 0 0,0 0.6417355708468596,-0.7086204456167498 l 25.39922124309955 23.402895781807203" fill="red" stroke="none" /><line stroke="#e1ed5e" stroke-width="0.3" x1="56.762969772571076" x2="54.21961505331055" y1="26.818313649435495" y2="22.513508569990535" /><path d="M 56.25429882871897 25.957352633546506 a86.0,86.0 0 0,1 42.265352541879196,-11.944610805530505" fill="none" id="id24" stroke="none" /><text fill="#e1ed5e" style="font-size:6.75px; font-family:Arial;" text-anchor="middle"><textPath startOffset="22.20632615414155" xlink:href="#id24">December</textPath></text></svg>