<?xml version="1.0" encoding="utf-8" ?>
<svg baseProfile="full" height="200mm" version="1.1" viewBox="0,0,200,200" width="200mm" xmlns="http://www.w3.org/2000/svg" xmlns:ev="http://www.w3.org/2001/xml-events" xmlns:xlink="http://www.w3.org/1999/xlink"><defs /><rect fill="#1a1a1a" height="200" width="200" x="0" y="0" /><text alignment-baseline="middle" fill="#e1ed5e" style="dominant-baseline: central; font-size:9.0px; font-family:Arial;" text-anchor="middle" x="100.0" y="100.0">2025</text><line stroke="#e1ed5e" stroke-width="0.3" x1="100.0" x2="100.0" y1="15.0" y2="10.0" /><path d="M 100.0 14.0 a86.0,86.0 0 0,1 42.46469731375804,11.215312516191453" fill="none" id="id85" stroke="none" /><text fill="#e1ed5e" style="font-size:6.75px; font-family:Arial;" text-anchor="middle"><textPath startOffset="22.20632615414155" xlink:href="#id85">January</textPath></text><path d="M 107.08798089147638 80.2323363322302 l 7.391485241226487 -20.614106681573627 a42.8992111353484,42.8992111353484 0 0,0 0.692960506072575,0.25522320252080744 l -7.7452280730716385 20.483820211246496" fill="red" stroke="none" /><path d="M 107.4271985657038 80.35727306442388 l 6.469325751701513 -17.109438784194108 a39.29166671442802,39.29166671442802 0 0,0 0.6305691979992601,0.2446510523434481 l -6.76287811470044 16.995545027960112" fill="red" stroke="none" /><path d="M 108.09893153111575 80.62456947434976 l 6.79499680544235 -16.255970064698893 a38.618982499859584,38.618982499859584 0 0,0 0.6111292924911864,0.2616536695084163 l -7.073809855723852 16.136596867227684" fill="red" stroke="none" /><path d="M 108.76106565485865 80.91482961587045 l 4.743998454404179 -10.334361408893217 a32.37121572502301,32.37121572502301 0 0,0 0.5044079577118387,0.23682629951800577 l -4.921184623415615 10.251170126735209" fill="red" stroke="none" /><path d="M 110.36928655335952 81.73862282372117 l 7.810777689678159 -13.755580646487628 a36.818478025385346,36.818478025385346 0 0,0 0.5484257253330497,0.31768357854407825 l -8.046400147476538 13.619092910553501" fill="red" stroke="none" /><line stroke="#e1ed5e" stroke-width="0.3" x1="143.23703022742887" x2="145.7803849466894" y1="26.81831364943548" y2="22.513508569990506" /><path d="M 143.74570117128098 25.957352633546492 a86.0,86.0 0 0,1 28.547481713284135,27.462654790039103" fill="none" id="id86" stroke="none" /><text fill="#e1ed5e" style="font-size:6.75px; font-family:Arial;" text-anchor="middle"><textPath startOffset="19.985693538727396" xlink:href="#id86">February</textPath></text><path d="M 110.99172775467656 82.1063720568725 l 7.07503655508803 -11.517577093092491 a34.517053094190345,34.517053094190345 0 0,0 0.5035887611718872,0.31534723604651405 l -7.272244468632181 11.394085515723033" fill="red" stroke="none" /><path d="M 111.90073688211348 82.69761687909136 l 12.44064643513456 -18.087353163482206 a42.952722568842255,42.952722568842255 0 0,0 0.6055696963207964,0.42424027168254613 l -12.750147271039008 17.870528049035723" fill="red" stroke="none" /><path d="M 112.77801427241765 83.33499621200491 l 8.9470106478953 -11.668633573234928 a35.70394535490313,35.70394535490313 0 0,0 0.48449819421495577,0.3781585255677876 l -9.146541397269687 11.512896658443916" fill="red" stroke="none" /><path d="M 113.06298171725822 83.55741782278167 l 23.883189898848688 -30.06214975001541 a59.394525746997054,59.394525746997054 0 0,0 0.795028539588319,0.6428577884848141 l -24.397121837001496 29.646585864266466" fill="red" stroke="none" /><path d="M 113.6212207817346 84.01681056812373 l 14.197121686400155 -16.658953623702704 a42.88787335524242,42.88787335524242 0 0,0 0.557759246484234,0.48368332230024497 l -14.481774731531154 16.412105307982788" fill="red" stroke="none" /><path d="M 113.89432698308785 84.25364557470407 l 14.554328737089955 -16.494330311604365 a42.997532075566866,42.997532075566866 0 0,0 0.5507554137531654,0.4944736484153965 l -14.836095138439111 16.241357654419673" fill="red" stroke="none" /><path d="M 114.42810811169701 84.74124197986012 l 15.165784961648898 -16.038904139321613 a43.073682961692725,43.073682961692725 0 0,0 0.5343531509927255,0.5140473078875553 l -15.43962135625404 15.775473744671753" fill="red" stroke="none" /><path d="M 114.94478906791727 85.2469230424477 l 25.870341526291263 -25.53847616858508 a57.352281024721655,57.352281024721655 0 0,0 0.687505652003072,0.7085350078421226 l -26.306111441997444 25.089376965192844" fill="red" stroke="none" /><path d="M 115.4437574822437 85.77008943001954 l 16.13142090847219 -14.86352509473123 a42.93506596224408,42.93506596224408 0 0,0 0.4961174664908817,0.5478252977610171 l -16.38488201557911 14.583647009700664" fill="red" stroke="none" /><path d="M 115.9244219780498 86.31012108654704 l 23.518993817231795 -20.218766996250032 a52.01518352393932,52.01518352393932 0 0,0 0.5778376311264196,0.6839774958826378 l -23.863542061845333 19.810930550738288" fill="red" stroke="none" /><path d="M 116.15771136456269 86.58626213691792 l 14.043653080870277 -11.658698241139005 a39.25238166743658,39.25238166743658 0 0,0 0.42710611431436113,0.5235815945539883 l -14.242257687261047 11.415232476976916" fill="red" stroke="none" /><path d="M 116.60985879189232 87.15038557335679 l 35.436943995138726 -27.41450559581819 a65.80326011327463,65.80326011327463 0 0,0 0.6853693427840042,0.9018657170124182 l -35.90358927814684 26.80045510292474" fill="red" stroke="none" /><path d="M 117.2510076193507 88.02491185347247 l 23.189770011750603 -16.097583753711564 a49.22937540764312,49.22937540764312 0 0,0 0.4772331620669269,0.7002807778540187 l -23.463427639486262 15.696024952587141" fill="red" stroke="none" /><path d="M 117.45458315368197 88.32363383020206 l 28.28847615093737 -18.923775091945647 a55.03449935980688,55.03449935980688 0 0,0 0.5199538021132292,0.7919253125983764 l -28.610026588408523 18.434031715369596" fill="red" stroke="none" /><line stroke="#e1ed5e" stroke-width="0.3" x1="172.23445277983987" x2="176.4835382374775" y1="55.19839476539836" y2="52.563006222186495" /><path d="M 173.08426987136738 54.67131705675599 a86.0,86.0 0 0,1 12.851231095245387,41.99856678651699" fill="none" id="id87" stroke="none" /><text fill="#e1ed5e" style="font-size:6.75px; font-family:Arial;" text-anchor="middle"><textPath startOffset="22.20632615414155" xlink:href="#id87">March</textPath></text><path d="M 117.84615892207809 88.93136811851018 l 19.23390120340702 -11.929344179608265 a43.63298937520131,43.63298937520131 0 0,0 0.3903785417688272,0.6416796795416752 l -19.43639554346207 11.596496726859508" fill="red" stroke="none" /><path d="M 118.03404312379186 89.2402003453031 l 34.234321078187214 -20.42550489578794 a60.864645864879705,60.864645864879705 0 0,0 0.5290596318773042,0.9043344080777058 l -34.580840384534845 19.833191075356343" fill="red" stroke="none" /><path d="M 118.3937258080291 89.86733742301442 l 22.32161054507626 -12.296440111628268 a46.48444107185638,46.48444107185638 0 0,0 0.38004771639972784,0.7041706992437724 l -22.529966360694456 11.910388429052038" fill="red" stroke="none" /><path d="M 118.89224826269711 90.83032412892265 l 24.439378662485115 -11.862070501582476 a48.16600717795764,48.16600717795764 0 0,0 0.35560689277626134,0.7489988072511543 l -24.639943749103132 11.439629278690782" fill="red" stroke="none" /><path d="M 119.04729006885535 91.15688171328212 l 19.871729509159223 -9.225882210850251 a42.90896018193635,42.90896018193635 0 0,0 0.3052618682234901,0.6726040626364631 l -20.02759369434606 8.882456139371724" fill="red" stroke="none" /><path d="M 119.196687751892 91.48605970444005 l 36.40187920572412 -16.14463027212465 a60.82142509167313,60.82142509167313 0 0,0 0.41621922982290055,0.9606913681128494 l -36.6743891453897 15.5156397594252" fill="red" stroke="none" /><path d="M 119.47837535516314 92.15188598940014 l 23.77727210712285 -9.580200553445648 a46.6347208196306,46.6347208196306 0 0,0 0.29359099484863427,0.7471570583891427 l -23.938656651853186 9.169494490160721" fill="red" stroke="none" /><path d="M 119.61058180528143 92.48833698450437 l 15.455831814605606 -5.920222121315466 a37.550884177199954,37.550884177199954 0 0,0 0.2260123551288094,0.6056007454718536 l -15.55544875823604 5.65329823881428" fill="red" stroke="none" /><path d="M 119.7369772167798 92.82701384747503 l 28.866680677863453 -10.490983421495667 a51.713937984371725,51.713937984371725 0 0,0 0.2968550430099323,0.8392491815190829 l -29.042988801683197 9.99253661354997" fill="red" stroke="none" /><path d="M 119.97218684219823 93.5106431181261 l 28.771306093054257 -9.348364035979158 a51.25194149884284,51.25194149884284 0 0,0 0.26539845639199344,0.8413856334309033 l -28.927960033214458 8.851728236121835" fill="red" stroke="none" /><path d="M 120.08093135843002 93.85539295169968 l 51.893983197745555 -15.879150684282576 a75.26907884405308,75.26907884405308 0 0,0 0.3684389254763326,1.242192895905108 l -52.15962802033359 14.98352840163094" fill="red" stroke="none" /><path d="M 120.28053869075195 94.5502522615342 l 36.49982275282811 -9.808162866617236 a58.79467052119859,58.79467052119859 0 0,0 0.25422722618103877,0.9796412082878582 l -36.66324631087945 9.178425232780528" fill="red" stroke="none" /><path d="M 120.45610955862082 95.25157060432595 l 30.01092923678722 -6.966367586714378 a51.808864812074376,51.808864812074376 0 0,0 0.19417373636966087,0.8704427865016452 l -30.12639736015892 6.44874663066277" fill="red" stroke="none" /><path d="M 120.6074358757038 95.95851677861258 l 29.967831654874583 -5.877222646478445 a51.538707898848344,51.538707898848344 0 0,0 0.16324094507205308,0.8720396559863902 l -30.064558323856495 5.360504913029492" fill="red" stroke="none" /><path d="M 120.67395015179393 96.31383870115 l 60.64682267586324 -10.813316710381388 a82.6032865921666,82.6032865921666 0 0,0 0.23753612902916482,1.4019516796794274 l -60.82397066641263 9.767779242386123" fill="red" stroke="none" /><path d="M 120.78858239683441 97.02765380044208 l 36.316472201182236 -5.192519916363897 a57.68580674076935,57.68580674076935 0 0,0 0.13208401836536346,0.9841793561152478 l -36.40047221860544 4.566622218183984" fill="red" stroke="none" /><path d="M 120.87857604477298 97.74499172005257 l 30.758094038744286 -3.322053984142968 a51.936974505756005,51.936974505756005 0 0,0 0.08834942917687692,0.8896666948047796 l -30.810720593603392 2.7921117586337534" fill="red" stroke="none" /><line stroke="#e1ed5e" stroke-width="0.3" x1="184.98032266829074" x2="189.97916517819016" y1="98.17113171792111" y2="98.06355123074" /><path d="M 185.9800911702706 98.14961562048488 a86.0,86.0 0 0,1 -9.607161424134198,41.387399972396054" fill="none" id="id88" stroke="none" /><text fill="#e1ed5e" style="font-size:6.75px; font-family:Arial;" text-anchor="middle"><textPath startOffset="21.466115282336823" xlink:href="#id88">April</textPath></text><path d="M 120.99513854157772 99.54816195383933 l 36.53923452835075 -0.7863637720132778 a57.54769524744008,57.54769524744008 0 0,0 0.01278927067198464,0.9905431078159913 l -36.54735680614045 0.15728440613682376" fill="red" stroke="none" /><path d="M 120.9904718944345 100.63252640178507 l 36.267141835594515 1.092873225702933 a57.28360440764655,57.28360440764655 0 0,0 -0.038183251633450835,0.9853400611947951 l -36.24295645110986 -1.7169905339117342" fill="red" stroke="none" /><path d="M 120.95626037817324 101.35467743843564 l 26.422972004198176 1.7080625734057644 a47.478121672228,47.478121672228 0 0,0 -0.05973977917778831,0.8151018234053846 l -26.38965566635605 -2.1626375333079193" fill="red" stroke="none" /><path d="M 120.89721153311464 102.0752229133903 l 31.480306450952046 3.1261899782198923 a52.635150671772934,52.635150671772934 0 0,0 -0.09729406710588515,0.9008222261706373 l -31.42183008234511 -3.667608526275321" fill="red" stroke="none" /><path d="M 120.81339534386255 102.79330883721812 l 39.545052727741385 5.3072333191051975 a60.8995980022765,60.8995980022765 0 0,0 -0.14838027259495076,1.0377712809374982 l -39.44783840412983 -5.987150072023105" fill="red" stroke="none" /><path d="M 120.76222939487914 103.15116336523771 l 29.263090659127002 4.441371756609831 a50.59821376375097,50.59821376375097 0 0,0 -0.13810480216146262,0.859978734890756 l -29.18230410260425 -4.944429721193791" fill="red" stroke="none" /><path d="M 120.64145759157962 103.86396538481128 l 53.41126480620549 9.998289968357485 a75.33901922642663,75.33901922642663 0 0,0 -0.24958764843477285,1.2726420422256677 l -53.23124722479505 -10.916195737651098" fill="red" stroke="none" /><path d="M 120.49622156327973 104.57218783832717 l 30.167008074236005 6.7294953369770445 a51.908485625171224,51.908485625171224 0 0,0 -0.2020462018287395,0.8704097494378219 l -30.046701306476713 -7.247773743763432" fill="red" stroke="none" /><path d="M 120.32669344350535 105.2749913415812 l 38.94773901175451 10.107349069448052 a61.23785381129834,61.23785381129834 0 0,0 -0.2735638507970917,1.0180328570664077 l -38.76798708461564 -10.776272859690009" fill="red" stroke="none" /><path d="M 120.13307415673323 105.97154293290107 l 28.349541343607495 8.408576948731367 a50.570266496865514,50.570266496865514 0 0,0 -0.2547133477427834,0.8324179580390847 l -28.20060122335858 -8.895321879322509" fill="red" stroke="none" /><path d="M 120.02730092923936 106.31721596034902 l 41.52041278501397 13.096792985360693 a64.53700339181998,64.53700339181998 0 0,0 -0.3432992083360497,1.0565663218211652 l -41.28882132566167 -13.809558207159654" fill="red" stroke="none" /><path d="M 119.79798401119884 107.00284435728193 l 32.93330517563955 11.649004776719474 a55.93281984151638,55.93281984151638 0 0,0 -0.3288736316187025,0.904918988610208 l -32.727907283015625 -12.214171562335814" fill="red" stroke="none" /><path d="M 119.41010516605496 108.01547362559984 l 28.61802011749859 11.817915642716612 a51.9621414889849,51.9621414889849 0 0,0 -0.3485150782795209,0.823786695362963 l -28.410354058026762 -12.308776863745738" fill="red" stroke="none" /><path d="M 119.12269723197855 108.67885076344098 l 39.93729766417475 18.12557308823901 a64.85799977762315,64.85799977762315 0 0,0 -0.4701444698643246,1.0126493620722237 l -39.61937857747059 -18.810342517590062" fill="red" stroke="none" /><path d="M 118.81262510543309 109.33194174019688 l 27.362691105565094 13.573174281689827 a51.54419625100155,51.54419625100155 0 0,0 -0.40111529124458467,0.791438523443106 l -27.12499714453424 -14.042167016835627" fill="red" stroke="none" /><line stroke="#e1ed5e" stroke-width="0.3" x1="174.80103733775053" x2="179.2010983576182" y1="140.37084112569926" y2="142.7455964860345" /><path d="M 175.68104954172406 140.8457921977663 a86.0,86.0 0 0,1 -30.038265399797805,32.042727171017184" fill="none" id="id89" stroke="none" /><text fill="#e1ed5e" style="font-size:6.75px; font-family:Arial;" text-anchor="middle"><textPath startOffset="22.206326154141568" xlink:href="#id89">May</textPath></text><path d="M 118.48025628344425 109.97397251340804 l 41.00838632611686 22.132621526592693 a67.59979275395378,67.59979275395378 0 0,0 -0.5614761224989736,1.0192422541000095 l -40.62133379416638 -22.83523429909051" fill="red" stroke="none" /><path d="M 118.12598468904814 110.60418214915192 l 31.79854916353366 18.602995268588693 a57.840455505718175,57.840455505718175 0 0,0 -0.5101504056183225,0.8550414236128148 l -31.473617882217113 -19.147598786087613" fill="red" stroke="none" /><path d="M 117.55443506779139 111.5257021239791 l 29.330599566184063 19.257569520867566 a56.08757692920507,56.08757692920507 0 0,0 -0.5368299422765479,0.8024879256603881 l -28.994766518496792 -19.75959436073376" fill="red" stroke="none" /><path d="M 117.14729908036423 112.12312394758627 l 30.14979894142696 21.31587883600152 a57.92393623057498,57.92393623057498 0 0,0 -0.5826050398592567,0.8091874442877323 l -29.7784141091921 -21.831699885740385" fill="red" stroke="none" /><path d="M 116.71984013943494 112.70617746262583 l 16.62999231789846 12.637897960217176 a41.887151776779504,41.887151776779504 0 0,0 -0.4411977342464618,0.5703075455666394 l -16.40998776643393 -12.922283499897068" fill="red" stroke="none" /><path d="M 116.498646956653 112.99209946851258 l 45.50534116890698 35.833842639843695 a78.92063840493906,78.92063840493906 0 0,0 -0.8496448910739287,1.0600626404889857 l -44.8817783657782 -36.61183311391093" fill="red" stroke="none" /><path d="M 116.0416608686014 113.55231037782055 l 27.653110502414805 23.361891234992093 a57.200448651009346,57.200448651009346 0 0,0 -0.6418911514534474,0.7466644244512736 l -27.246876841390577 -23.834432758604894" fill="red" stroke="none" /><path d="M 115.56566222782051 114.09645910891815 l 23.080267209390385 20.901779710893244 a52.13812983368734,52.13812983368734 0 0,0 -0.608162961102244,0.6600407806328985 l -22.71705784029242 -21.295971746327478" fill="red" stroke="none" /><path d="M 114.81725581225074 114.88116024355365 l 28.19181328261164 28.313400020267455 a60.95531199814762,60.95531199814762 0 0,0 -0.7498956075080838,0.733930684050197 l -27.700267722727762 -28.794480807240227" fill="red" stroke="none" /><path d="M 114.29624159901734 115.38237550388516 l 21.582630975293252 23.222336564776832 a52.70310513724892,52.70310513724892 0 0,0 -0.6698325002679512,0.6118761074194812 l -21.179698925558437 -23.590405438782895" fill="red" stroke="none" /><path d="M 113.75828350139079 115.86535959552629 l 21.369156063655662 24.641834511445158 a53.616879663179326,53.616879663179326 0 0,0 -0.7024692682645072,0.5986595501603263 l -20.94182131881411 -25.006018451828428" fill="red" stroke="none" /><path d="M 113.20401910651253 116.32954008644616 l 37.90971050222537 46.88331123410215 a81.29254533220691,81.29254533220691 0 0,0 -1.095678374010297,0.8704731661625825 l -37.09707463549773 -47.52891831426986" fill="red" stroke="none" /><path d="M 112.63410532772338 116.77436683061366 l 24.439282728757483 32.44816177602116 a61.62218289234325,61.62218289234325 0 0,0 -0.8527777382919511,0.6308645837520096 l -23.877120020046966 -32.86403630851294" fill="red" stroke="none" /><path d="M 111.7513745106137 117.40417183066458 l 20.41777293614275 30.239392699055696 a57.48707062069503,57.48707062069503 0 0,0 -0.824871851111328,0.5466800840293299 l -19.89422638629146 -30.586370804176344" fill="red" stroke="none" /><line stroke="#e1ed5e" stroke-width="0.3" x1="143.8653032363475" x2="146.44561519142675" y1="172.8068346515853" y2="177.08958963109032" /><path d="M 144.38136562736335 173.6633856474863 a86.0,86.0 0 0,1 -40.68145358897372,12.25698825130547" fill="none" id="id90" stroke="none" /><text fill="#e1ed5e" style="font-size:6.75px; font-family:Arial;" text-anchor="middle"><textPath startOffset="21.466115282336833" xlink:href="#id90">June</textPath></text><path d="M 109.57404056367764 118.69057910512821 l 17.11671439089997 33.4154949746852 a58.54433666936804,58.54433666936804 0 0,0 -0.9008749343814836,0.45171739395573435 l -16.538985548835722 -33.705180209550235" fill="red" stroke="none" /><path d="M 108.92500713936063 119.00905698771935 l 16.18575922233883 34.47347600317821 a59.08410888212078,59.08410888212078 0 0,0 -0.9243343194923407,0.4243165503434844 l -15.589956907079072 -34.74697962385577" fill="red" stroke="none" /><path d="M 108.59647513512805 119.15986991738527 l 13.349977756349793 29.754502071021108 a53.612149570205176,53.612149570205176 0 0,0 -0.8452321099929108,0.3705249179388688 l -12.835824971699127 -29.97989154225443" fill="red" stroke="none" /><path d="M 107.93186726928326 119.44442032107085 l 11.20143846846931 27.4595464582466 a50.65634696747911,50.65634696747911 0 0,0 -0.8102094910041312,0.32239907728879263 l -10.727107901423311 -27.64829237994146" fill="red" stroke="none" /><path d="M 107.2578585660854 119.70592522655815 l 12.554062120924085 34.08573027318275 a57.32411711235647,57.32411711235647 0 0,0 -0.9288702741669141,0.333059832694853 l -11.965472286127437 -34.29677764691756" fill="red" stroke="none" /><path d="M 106.57524785965236 119.94407469862006 l 11.392194460231684 34.55486122284048 a57.384344555722016,57.384344555722016 0 0,0 -0.9407716645943807,0.3012053784131335 l -10.795701450546364 -34.74583944791332" fill="red" stroke="none" /><path d="M 106.2309692047433 120.05430185196036 l 10.832974001787552 34.86580072020053 a57.50996282638673,57.50996282638673 0 0,0 -0.9478874930106486,0.2855907260044373 l -10.231211534336659 -35.0471068153107" fill="red" stroke="none" /><path d="M 105.53697534728816 120.25689768951611 l 4.228717967374381 15.47066798209159 a37.03819264941374,37.03819264941374 0 0,0 -0.6164382053313832,0.1628069327476808 l -3.9617893192315004 -15.541166264142856" fill="red" stroke="none" /><path d="M 105.18746579009965 120.34920634021253 l 4.624373871749705 18.140329385905112 a39.72048033397792,39.72048033397792 0 0,0 -0.6639878166507062,0.16319205058942543 l -4.311432770355788 -18.21724269480857" fill="red" stroke="none" /><path d="M 104.83641907484287 120.43548508189849 l 7.273788170310565 30.73418315142608 a52.583191864217156,52.583191864217156 0 0,0 -0.8825959815593206,0.20087597191708717 l -6.743672039358382 -30.854835856920854" fill="red" stroke="none" /><path d="M 104.13013068566511 120.58985236759428 l 7.143663722257439 35.61315430417987 a57.32256448641839,57.32256448641839 0 0,0 -0.9691127051657346,0.18573275645269102 l -6.52958340252 -35.73084425898104" fill="red" stroke="none" /><path d="M 103.06178313531738 120.77559828337769 l 4.349172547741607 29.511123983510917 a50.82987999674458,50.82987999674458 0 0,0 -0.8667012733446989,0.1201168990855866 l -3.840542683210077 -29.581615448089106" fill="red" stroke="none" /><path d="M 102.34483914955558 120.86867818915974 l 3.097534793150158 27.567544149127446 a48.74102038874682,48.74102038874682 0 0,0 -0.8345562923797654,0.08650517199996904 l -2.6225459041647903 -27.61677868958317" fill="red" stroke="none" /><path d="M 101.62511606390274 120.93702456842531 l 2.2846085058083374 29.433531227592084 a50.5220628776251,50.5220628776251 0 0,0 -0.8676255845685718,0.05983654010566049 l -1.7776201604608353 -29.46849611221403" fill="red" stroke="none" /><path d="M 101.26447882468166 120.96189622390904 l 3.2740306708981564 54.27523958302761 a75.3738991486635,75.3738991486635 0 0,0 -1.2957560439460283,0.0669757868190651 l -2.3392865585386486 -54.32355517660888" fill="red" stroke="none" /><line stroke="#e1ed5e" stroke-width="0.3" x1="102.19456741930631" x2="102.32365962044197" y1="184.97166512339345" y2="189.96999836594603" /><path d="M 102.22038585953345 185.97133177190398 a86.0,86.0 0 0,1 -42.740103519485714,-10.115201625700543" fill="none" id="id91" stroke="none" /><text fill="#e1ed5e" style="font-size:6.75px; font-family:Arial;" text-anchor="middle"><textPath startOffset="22.20632615414155" xlink:href="#id91">July</textPath></text><path d="M 100.54218724476979 120.99299961872073 l 1.0076690460792077 39.01603385951876 a60.02904424955267,60.02904424955267 0 0,0 -1.0331864937621464,0.017787242464436744 l -0.33592286242439334 -39.02759857926235" fill="red" stroke="none" /><path d="M 99.81925306533755 120.99922214144158 l -0.2591716160498916 30.110620400572614 a51.11173576587616,51.11173576587616 0 0,0 -0.8797067440639188,-0.015144949385940583 l 0.7774380500064783 -30.101697973907516" fill="red" stroke="none" /><path d="M 99.09653310690486 120.98055641714683 l -1.3765910530905208 31.967575650460425 a52.997201375985355,52.997201375985355 0 0,0 -0.9110772398773227,-0.04709228660658983 l 1.9266563613813323 -31.939143557091633" fill="red" stroke="none" /><path d="M 98.73552117531835 120.96189622390904 l -1.878733620849887 31.144704382486722 a52.20131809860922,52.20131809860922 0 0,0 -0.8964637734658715,-0.06182539045449603 l 2.4145601550946885 -31.10775064751594" fill="red" stroke="none" /><path d="M 98.01472825383883 120.90594882070398 l -3.669365293477261 38.640333837539615 a59.8141680412383,59.8141680412383 0 0,0 -1.024153575656417,-0.10615770562810496 l 4.333951465739272 -38.57144676345575" fill="red" stroke="none" /><path d="M 97.2962882734958 120.8252237178851 l -4.939771166744228 38.04837573997452 a59.367697815090224,59.367697815090224 0 0,0 -1.0122797711735165,-0.1402927523703611 l 5.593979529104575 -37.95770842211155" fill="red" stroke="none" /><path d="M 96.58105272829116 120.7198165907248 l -5.582022912702461 33.82868519601662 a55.286133084515804,55.286133084515804 0 0,0 -0.9376291981611158,-0.16301885469857372 l 6.163501082335627 -33.72758776279704" fill="red" stroke="none" /><path d="M 95.51606077576429 120.51570834832081 l -7.067680880278217 32.337298162979934 a54.10064901942129,54.10064901942129 0 0,0 -0.90806612781499,-0.20667289428119498 l 7.623267157486069 -32.21084853512105" fill="red" stroke="none" /><path d="M 94.81253420990036 120.34920634021253 l -7.179123159961891 28.162009049327548 a50.06266613785301,50.06266613785301 0 0,0 -0.8332085844532027,-0.22005796006907072 l 7.662822187226584 -28.034259739954894" fill="red" stroke="none" /><path d="M 94.11515582081647 120.15858648285463 l -9.188019420486343 31.473642878972356 a53.7873435481486,53.7873435481486 0 0,0 -0.8865307457330577,-0.26710444136677186 l 9.728425140659645 -31.310823068499857" fill="red" stroke="none" /><path d="M 93.76903079525671 120.05430185196036 l -10.745894008545683 34.58553477563301 a57.216480416509526,57.216480416509526 0 0,0 -0.9380196626869739,-0.30032427430773767 l 11.339635016323598 -34.395437654665564" fill="red" stroke="none" /><path d="M 93.08242187328487 119.8279376855182 l -10.98889177194618 31.497593130981823 a54.35946815254134,54.35946815254134 0 0,0 -0.8808316050895785,-0.31583487509769864 l 11.529442937665486 -31.303770714844166" fill="red" stroke="none" /><path d="M 92.40401165467489 119.57807347666478 l -14.047362467588206 36.20599216862198 a59.83557983615182,59.83557983615182 0 0,0 -0.9570242937989603,-0.38081971723306784 l 14.668507837429024 -35.95882560698285" fill="red" stroke="none" /><path d="M 91.7346041902142 119.30500536409082 l -15.760101701783256 36.80995500921177 a61.04189797488059,61.04189797488059 0 0,0 -0.9623671618635397,-0.42187348239708417 l 16.391389538304537 -36.53321697352023" fill="red" stroke="none" /><path d="M 90.7491055286396 118.85261126421891 l -13.770741326715385 28.06371144502978 a52.26028177667634,52.26028177667634 0 0,0 -0.8041764685490858,-0.4032307757601486 l 14.25177170294723 -27.82251282836033" fill="red" stroke="none" /><path d="M 90.10565033884886 118.52300852407294 l -20.005987743900288 37.45279823369921 a63.46117804704989,63.46117804704989 0 0,0 -0.9591014401941073,-0.5229785767323767 l 20.64771199596304 -37.10287900520707" fill="red" stroke="none" /><line stroke="#e1ed5e" stroke-width="0.3" x1="58.666819895761336" x2="56.23545636021788" y1="174.27360380694188" y2="178.64263932499728" /><path d="M 58.180547188652646 175.14741091055294 a86.0,86.0 0 0,1 -31.652253787137756,-30.449443065178592" fill="none" id="id92" stroke="none" /><text fill="#e1ed5e" style="font-size:6.75px; font-family:Arial;" text-anchor="middle"><textPath startOffset="22.20632615414155" xlink:href="#id92">August</textPath></text><path d="M 89.4739219176387 118.17145234162733 l -22.47612611872848 38.801142400347764 a65.84088421158813,65.84088421158813 0 0,0 -0.9757999317403028,-0.5765197995366073 l 23.140693921497167 -38.408504028517406" fill="red" stroke="none" /><path d="M 89.1626897886671 117.98757091392108 l -12.13995317697532 20.149674080028706 a44.52419666365961,44.52419666365961 0 0,0 -0.653065651367222,-0.4011662625698022 l 12.484998028274852 -19.937719350630527" fill="red" stroke="none" /><path d="M 88.54995079064634 117.60387380957326 l -17.708344053934592 27.225686842228708 a53.47804601825094,53.47804601825094 0 0,0 -0.7673470632022691,-0.5085557913340121 l 18.174365815876822 -26.916833029803378" fill="red" stroke="none" /><path d="M 87.95078237400918 117.19931262002967 l -18.760716081136717 26.779449991762835 a53.6971468134201,53.6971468134201 0 0,0 -0.7524572799845599,-0.5368582902890926 l 19.218900688970162 -26.452547439629523" fill="red" stroke="none" /><path d="M 87.07902340077011 116.55440617244103 l -29.72623817148514 38.085373569890685 a69.31298910009593,69.31298910009593 0 0,0 -0.9342153439116944,-0.7421971698830292 l 30.37741100811419 -37.568042486002525" fill="red" stroke="none" /><path d="M 86.51685102203217 116.09983520530335 l -24.815012128029256 29.630882706384636 a59.64937304632202,59.64937304632202 0 0,0 -0.7815048488370083,-0.6660153865645236 l 25.32138245344332 -29.19934292959716" fill="red" stroke="none" /><path d="M 85.97065885151581 115.62618273729859 l -20.319429998517982 22.63221935471252 a51.41540051330077,51.41540051330077 0 0,0 -0.653466360063909,-0.5969260263805239 l 20.705995908048745 -22.27910056174542" fill="red" stroke="none" /><path d="M 85.44109423537348 115.13401014063109 l -26.872135698791205 27.933635998526125 a59.76080103806426,59.76080103806426 0 0,0 -0.7352002759164089,-0.7195482091304447 l 27.348985927083408 -27.46693768647311" fill="red" stroke="none" /><path d="M 85.18274418774928 114.88116024355367 l -32.12738545396084 32.26594567878925 a66.53306651933245,66.53306651933245 0 0,0 -0.804604570780395,-0.8150601822245259 l 32.67803064979677 -31.70814500258406" fill="red" stroke="none" /><path d="M 84.67929136418377 114.36230785411682 l -24.309781564930375 22.7890611982298 a54.32126633294857,54.32126633294857 0 0,0 -0.6336280624036393,-0.6876781186769698 l 24.698456035329745 -22.367231824751485" fill="red" stroke="none" /><path d="M 84.19399662182784 113.82643327865904 l -24.136281509947995 21.113413549758423 a53.067683372058234,53.067683372058234 0 0,0 -0.5955141469691313,-0.6927174907964774 l 24.496138166487906 -20.694818959800415" fill="red" stroke="none" /><path d="M 83.72743513129214 113.27417163493432 l -24.37334171414992 19.882294146062378 a52.45417948103665,52.45417948103665 0 0,0 -0.564711924691516,-0.7045649544805147 l 24.711971550896298 -19.459801358003602" fill="red" stroke="none" /><path d="M 82.05923443525364 110.91462005526583 l -42.82932520006014 26.056068237168745 a71.13252226920665,71.13252226920665 0 0,0 -0.627385880194213,-1.0515348223739087 l 43.271491955952584 -25.314971320908725" fill="red" stroke="none" /><line stroke="#e1ed5e" stroke-width="0.3" x1="26.63291911575756" x2="22.317208475507996" y1="142.92168965132927" y2="145.44649492493687" /><path d="M 25.769776987707644 143.4266507060508 a86.0,86.0 0 0,1 -11.730757126820373,-40.83630448921669" fill="none" id="id93" stroke="none" /><text fill="#e1ed5e" style="font-size:6.75px; font-family:Arial;" text-anchor="middle"><textPath startOffset="21.46611528233685" xlink:href="#id93">September</textPath></text><path d="M 81.69416730710424 110.29060199501025 l -27.126370868203487 15.24905700039833 a52.11870395567136,52.11870395567136 0 0,0 -0.4328919751753164,-0.785824676917218 l 27.384839252830318 -14.779861805083291" fill="red" stroke="none" /><path d="M 81.35079622478065 109.6543875284942 l -30.05964092808375 15.561384066848293 a54.84876196851648,54.84876196851648 0 0,0 -0.4268313162605422,-0.8421786804795279 l 30.323050914130558 -15.041651174666079" fill="red" stroke="none" /><path d="M 81.02952815118164 109.00673069616217 l -29.550269726093056 14.029768133492786 a53.711662060562155,53.711662060562155 0 0,0 -0.38934658749232465,-0.8386179115599759 l 29.787390930425207 -13.519030154653983" fill="red" stroke="none" /><path d="M 80.58989483394504 108.01547362559985 l -21.086231479057904 8.707636091496454 a43.813418952238266,43.813418952238266 0 0,0 -0.2818608743282481,-0.699555574840643 l 21.23299496764354 -8.343381148813005" fill="red" stroke="none" /><path d="M 80.32549172779594 107.34259656027581 l -33.96762098656115 12.676837131886087 a57.256054324140614,57.256054324140614 0 0,0 -0.33665398188563234,-0.9263271710173432 l 34.180799229452006 -12.090262163862626" fill="red" stroke="none" /><path d="M 80.20201598880116 107.00284435728193 l -3.712764522640773 1.3132605861578877 a24.938181530571658,24.938181530571658 0 0,0 -0.13966470512368856,-0.4059310086887491 l 3.73482005870769 -1.2491568743798418" fill="red" stroke="none" /><path d="M 80.0844068197444 106.66101706037122 l -34.61451009191101 11.577252064337054 a57.49927498271994,57.49927498271994 0 0,0 -0.30586259888177786,-0.9413482852160897 l 34.808664941809035 -10.979704879143162" fill="red" stroke="none" /><path d="M 79.76711848015287 105.62410040840567 l -32.22842796143229 8.95848249209407 a54.450350931288995,54.450350931288995 0 0,0 -0.24324248403474522,-0.9051957715184156 l 32.377858521808804 -8.402395787400117" fill="red" stroke="none" /><path d="M 79.58551787078972 104.9243191809786 l -35.555777439904354 8.576656303781553 a57.57557029916563,57.57557029916563 0 0,0 -0.22410450154663503,-0.9654363273031784 l 35.69814250738154 -7.963351319129801" fill="red" stroke="none" /><path d="M 79.35854240842038 103.8639653848113 l -15.38943743034711 2.880816592469617 a36.656752174765266,36.656752174765266 0 0,0 -0.11076196846569225,-0.6212119408580214 l 15.43674584115199 -2.615485900878382" fill="red" stroke="none" /><path d="M 79.29508885075956 103.50808413554451 l -32.20743123837913 5.456984469027456 a53.66645537045804,53.66645537045804 0 0,0 -0.146479384356321,-0.9121272662123168 l 32.296592377096744 -4.901777973121926" fill="red" stroke="none" /><path d="M 79.1416061653843 102.43462659150553 l -33.19380358955004 3.8744362357476443 a54.41915398220756,54.41915398220756 0 0,0 -0.10059172913567452,-0.9313544810058955 l 33.25557762018677 -3.3024854328569666" fill="red" stroke="none" /><path d="M 79.07016306316243 101.71520430193888 l -36.18155836015188 2.965085907619214 a57.302849747762764,57.302849747762764 0 0,0 -0.07210183279411503,-0.9837722233027761 l 36.227236751610334 -2.341840547819677" fill="red" stroke="none" /><path d="M 79.0235259727143 100.99374915477108 l -19.07132410650351 0.9034937037821849 a40.09271337573777,40.09271337573777 0 0,0 -0.02672440359373617,-0.6896381095363215 l 19.084050642948448 -0.5750783472318666" fill="red" stroke="none" /><line stroke="#e1ed5e" stroke-width="0.3" x1="15.007084014347285" x2="10.007500721073583" y1="101.09737516637583" y2="101.16192664675087" /><path d="M 14.007167355692545 101.11028546245083 a86.0,86.0 0 0,1 10.666146001902534,-42.60595125391555" fill="none" id="id94" stroke="none" /><text fill="#e1ed5e" style="font-size:6.75px; font-family:Arial;" text-anchor="middle"><textPath startOffset="22.20632615414155" xlink:href="#id94">October</textPath></text><path d="M 79.01574976396665 99.18683210126434 l -19.440101064556277 -0.7533300430591019 a40.45469186479029,40.45469186479029 0 0,0 0.03295399084915197,-0.6956066627316325 l 19.424253465473626 1.0878478124137436" fill="red" stroke="none" /><path d="M 79.12142395522702 97.74499172005258 l -30.12570073273762 -3.253751809791114 a51.300903377262316,51.300903377262316 0 0,0 0.10238108338752652,-0.8771385993903467 l 30.065229296346505 3.7718341475063224" fill="red" stroke="none" /><path d="M 79.21141760316559 97.0276538004421 l -22.294432268856724 -3.18765222951076 a43.52116420007955,43.52116420007955 0 0,0 0.11241746040546384,-0.7406906054684733 l 22.23625891501196 3.5709419473713258" fill="red" stroke="none" /><path d="M 79.26566170972629 96.67025291283419 l -39.37042504202136 -6.32253396606562 a60.87486431000708,60.87486431000708 0 0,0 0.17505332075668287,-1.033174608306291 l 39.25575985974445 6.999294362687739" fill="red" stroke="none" /><path d="M 79.46518482838121 95.60439243477599 l -30.899177803711112 -6.614165191070835 a52.599151414557426,52.599151414557426 0 0,0 0.19713564072644685,-0.8837204229620478 l 30.780747775982626 7.145063783582842" fill="red" stroke="none" /><path d="M 79.62865764111835 94.90015583598534 l -31.984665198535797 -8.007170331590762 a53.971708851400685,53.971708851400685 0 0,0 0.2333728161397611,-0.8992806593495773 l 31.84209605052573 8.556547416489204" fill="red" stroke="none" /><path d="M 80.14247586403 93.16781622104843 l -37.61358001072612 -12.94133596202359 a60.77762659718727,60.77762659718727 0 0,0 0.3488836019991764,-0.9863409240227884 l 37.38524332791713 13.58687451247299" fill="red" stroke="none" /><path d="M 80.38941819471856 92.48833698450439 l -21.163109894884016 -8.106345414364833 a43.6625253756048,43.6625253756048 0 0,0 0.27487940395758537,-0.6995381005422008 l 21.02043694104474 8.469432519802798" fill="red" stroke="none" /><path d="M 80.65960295795068 91.81776055985345 l -50.108224989084434 -21.19902160695143 a75.40802081172131,75.40802081172131 0 0,0 0.5160396734771823,-1.1910907146799754 l 49.73589460576457 22.058411466218004" fill="red" stroke="none" /><path d="M 81.10775173730289 90.83032412892265 l -32.75947331753634 -15.900370768583677 a57.41434995466493,57.41434995466493 0 0,0 0.4391924015716952,-0.88538508168492 l 32.48092090301123 16.46191543876756" fill="red" stroke="none" /><line stroke="#e1ed5e" stroke-width="0.3" x1="26.266209847984243" x2="21.928928074336255" y1="57.711370442889674" y2="55.22380399835377" /><path d="M 25.398753493254645 57.213857153982495 a86.0,86.0 0 0,1 29.58750427330803,-30.492523968695096" fill="none" id="id95" stroke="none" /><text fill="#e1ed5e" style="font-size:6.75px; font-family:Arial;" text-anchor="middle"><textPath startOffset="21.46611528233685" xlink:href="#id95">November</textPath></text><path d="M 82.34701348167596 88.62581576622439 l -32.48831200460113 -20.932891202355 a59.64810928102358,59.64810928102358 0 0,0 0.5635421702806449,-0.8583133877433997 l 32.12317319896256 21.489022654076066" fill="red" stroke="none" /><path d="M 82.7489923806493 88.02491185347247 l -51.75302285805211 -35.92526443958256 a84.0,84.0 0 0,0 0.834749520784487,-1.1806939986728553 l 51.12696071746375 36.810784938587204" fill="red" stroke="none" /><line stroke="#e1ed5e" stroke-width="0.3" x1="56.762969772571076" x2="54.21961505331055" y1="26.818313649435495" y2="22.513508569990535" /><path d="M 56.25429882871897 25.957352633546506 a86.0,86.0 0 0,1 42.265352541879196,-11.944610805530505" fill="none" id="id96" stroke="none" /><text fill="#e1ed5e" style="font-size:6.75px; font-family:Arial;" text-anchor="middle"><textPath startOffset="22.20632615414155" xlink:href="#id96">December</textPath></text></svg>