<?xml version="1.0" encoding="utf-8" ?>
<svg baseProfile="full" height="200mm" version="1.1" viewBox="0,0,200,200" width="200mm" xmlns="http://www.w3.org/2000/svg" xmlns:ev="http://www.w3.org/2001/xml-events" xmlns:xlink="http://www.w3.org/1999/xlink"><defs /><rect fill="#1a1a1a" height="200" width="200" x="0" y="0" /><text alignment-baseline="middle" fill="#e1ed5e" style="dominant-baseline: central; font-size:9.0px; font-family:Arial;" text-anchor="middle" x="100.0" y="100.0">2025</text><line stroke="#e1ed5e" stroke-width="0.3" x1="100.0" x2="100.0" y1="15.0" y2="10.0" /><path d="M 100.0 14.0 a86.0,86.0 0 0,1 42.46469731375804,11.215312516191453" fill="none" id="id85" stroke="none" /><text fill="#e1ed5e" style="font-size:6.75px; font-family:Arial;" text-anchor="middle"><textPath startOffset="22.20632615414155" xlink:href="#id85">January</textPath></text><path d="M 107.08798089147638 80.2323363322302 l 7.559070237276623 -21.081484329511053 a43.39572558296563,43.39572558296563 0 0,0 0.7009808144602431,0.2581771497861524 l -7.920833377509443 20.948243911918574" fill="red" stroke="none" /><path d="M 107.4271985657038 80.35727306442388 l 6.616002893732312 -17.497356115757828 a39.70638835616117,39.70638835616117 0 0,0 0.6372248253851196,0.24723333236778622 l -6.916210884117099 17.380880079499494" fill="red" stroke="none" /><path d="M 108.09893153111575 80.62456947434976 l 6.949057792596778 -16.624536948102644 a39.018452567956,39.018452567956 0 0,0 0.6174507397247601,0.2643601833109636 l -7.234192290111854 16.502457236828892" fill="red" stroke="none" /><path d="M 108.76106565485865 80.91482961587045 l 4.851557752203881 -10.568669380751212 a32.629031993360314,32.629031993360314 0 0,0 0.5084252482109527,0.23871247127332437 l -5.032761211714432 10.483591926837883" fill="red" stroke="none" /><path d="M 110.36928655335952 81.73862282372117 l 7.98786918151695 -14.067456927515885 a37.17712577896775,37.17712577896775 0 0,0 0.5537679248194566,0.3207781253017225 l -8.228833838801735 13.927874644824112" fill="red" stroke="none" /><line stroke="#e1ed5e" stroke-width="0.3" x1="143.23703022742887" x2="145.7803849466894" y1="26.81831364943548" y2="22.513508569990506" /><path d="M 143.74570117128098 25.957352633546492 a86.0,86.0 0 0,1 28.547481713284135,27.462654790039103" fill="none" id="id86" stroke="none" /><text fill="#e1ed5e" style="font-size:6.75px; font-family:Arial;" text-anchor="middle"><textPath startOffset="19.985693538727396" xlink:href="#id86">February</textPath></text><path d="M 110.99172775467656 82.1063720568725 l 7.235446802074098 -11.77871177017842 a34.823521309369184,34.823521309369184 0 0,0 0.5080599988641469,0.3181471246792149 l -7.437125953310508 11.65242030417626" fill="red" stroke="none" /><path d="M 111.90073688211348 82.69761687909136 l 12.722709595061431 -18.49744246347202 a43.45045026563445,43.45045026563445 0 0,0 0.612586918796364,0.42915628446782694 l -13.039227653441447 18.275701336240257" fill="red" stroke="none" /><path d="M 112.77801427241765 83.33499621200491 l 9.14986361927447 -11.93319310998056 a36.03732363326034,36.03732363326034 0 0,0 0.48902209688870835,0.3816895033616067 l -9.353918271322607 11.77392521739573" fill="red" stroke="none" /><path d="M 113.06298171725822 83.55741782278167 l 24.424686520196076 -30.743740131744836 a60.265033667349705,60.265033667349705 0 0,0 0.8066807690137392,0.6522797476552636 l -24.950270687774307 30.318754286825442" fill="red" stroke="none" /><path d="M 113.6212207817346 84.01681056812373 l 14.51900889906324 -17.036657236185928 a43.38413074466739,43.38413074466739 0 0,0 0.5642131022232495,0.48928004239976874 l -14.810115799933252 16.784212200366486" fill="red" stroke="none" /><path d="M 113.89432698308785 84.25364557470407 l 14.884314801367463 -16.868301467591035 a43.49627572527818,43.49627572527818 0 0,0 0.5571438214569091,0.5002092239285061 l -15.172469610420361 16.609593234893232" fill="red" stroke="none" /><path d="M 114.42810811169701 84.74124197986012 l 15.509634395145628 -16.402549550103863 a43.574153158306885,43.574153158306885 0 0,0 0.5405617639589434,0.5200199886419793 l -15.78967940271699 16.133146474699583" fill="red" stroke="none" /><path d="M 114.94478906791727 85.2469230424477 l 26.456892258790567 -26.117502614307735 a58.17648572419969,58.17648572419969 0 0,0 0.6973857366165226,0.7187173035202399 l -26.9025422591102 25.65822111523738" fill="red" stroke="none" /><path d="M 115.4437574822437 85.77008943001954 l 16.497163925065273 -15.200521478137162 a43.43239333592794,43.43239333592794 0 0,0 0.5018641164870775,0.5541708922178336 l -16.756371682168385 14.914297798649779" fill="red" stroke="none" /><path d="M 115.9244219780498 86.31012108654704 l 24.05223312669837 -20.67718122243375 a52.7183817633626,52.7183817633626 0 0,0 0.5856494733108004,0.693224253047081 l -24.404593213496284 20.26009801975756" fill="red" stroke="none" /><path d="M 116.15771136456269 86.58626213691792 l 14.36206074445598 -11.923032516988389 a39.666212610720095,39.666212610720095 0 0,0 0.43160901881749086,0.5291016230454039 l -14.565168255349878 11.674046724334884" fill="red" stroke="none" /><path d="M 116.60985879189232 87.15038557335679 l 36.24039552424829 -28.036066711352436 a66.81907140479126,66.81907140479126 0 0,0 0.6959494556243234,0.9157879053233913 l -36.71762092009673 27.40809403014801" fill="red" stroke="none" /><path d="M 117.2510076193507 88.02491185347247 l 23.71554492558618 -16.462559590331765 a49.86941182952505,49.86941182952505 0 0,0 0.48343772190388334,0.7093852038122809 l -23.995407113158798 16.051896363249078" fill="red" stroke="none" /><path d="M 117.45458315368197 88.32363383020206 l 28.92985254679047 -19.35282834315814 a55.806153669412886,55.806153669412886 0 0,0 0.5272442217021048,0.8030291217991723 l -29.2586934038505 18.851981157381296" fill="red" stroke="none" /><line stroke="#e1ed5e" stroke-width="0.3" x1="172.23445277983987" x2="176.4835382374775" y1="55.19839476539836" y2="52.563006222186495" /><path d="M 173.08426987136738 54.67131705675599 a86.0,86.0 0 0,1 12.851231095245387,41.99856678651699" fill="none" id="id87" stroke="none" /><text fill="#e1ed5e" style="font-size:6.75px; font-family:Arial;" text-anchor="middle"><textPath startOffset="22.20632615414155" xlink:href="#id87">March</textPath></text><path d="M 117.84615892207809 88.93136811851018 l 19.669985853786002 -12.199814732139414 a44.146140563529535,44.146140563529535 0 0,0 0.3949696370725188,0.649226233073715 l -19.877071289144745 11.859420725858618" fill="red" stroke="none" /><path d="M 118.03404312379186 89.2402003453031 l 35.010505887522655 -20.888606430265835 a61.76848539127744,61.76848539127744 0 0,0 0.5369161633713626,0.9177637671331532 l -35.36488172536435 20.282863250778785" fill="red" stroke="none" /><path d="M 118.3937258080291 89.86733742301442 l 22.827701931711918 -12.57523372350539 a47.06224239553978,47.06224239553978 0 0,0 0.3847717072348369,0.7129235368113613 l -23.04078173816522 12.18042920336157" fill="red" stroke="none" /><path d="M 118.89224826269711 90.83032412892265 l 24.99348558997737 -12.131015777569294 a48.781934161106236,48.781934161106236 0 0,0 0.36015424667764023,0.7585766942872884 l -25.19859803049677 11.698996667641465" fill="red" stroke="none" /><path d="M 119.04729006885535 91.15688171328212 l 20.322275455287535 -9.43505795610383 a43.405695666852665,43.405695666852665 0 0,0 0.3087957315819942,0.6803904621155876 l -20.481673503832877 9.083845485146178" fill="red" stroke="none" /><path d="M 119.196687751892 91.48605970444005 l 37.227208430341044 -16.51067278077965 a61.724284686044925,61.724284686044925 0 0,0 0.4223977684618956,0.9749522871495788 l -37.50589690864562 15.867421349043468" fill="red" stroke="none" /><path d="M 119.47837535516314 92.15188598940014 l 24.316367285170454 -9.797409655474823 a47.21592939234654,47.21592939234654 0 0,0 0.29725001971421033,0.7564688775631131 l -24.481410854766363 9.377391773015926" fill="red" stroke="none" /><path d="M 119.61058180528143 92.48833698450437 l 15.806257396078115 -6.054449596367822 a37.92613756254015,37.92613756254015 0 0,0 0.2282709411314871,0.6116526330607175 l -15.908132925711227 5.781473826277772" fill="red" stroke="none" /><path d="M 119.7369772167798 92.82701384747503 l 29.521166536862147 -10.728842438712842 a52.41030617125333,52.41030617125333 0 0,0 0.3008524258456769,0.8505503210890946 l -29.701472043517633 10.219094491197133" fill="red" stroke="none" /><path d="M 119.97218684219823 93.5106431181261 l 29.423629551818507 -9.560316776046436 a51.9378349737179,51.9378349737179 0 0,0 0.26895022563541404,0.8526457125410167 l -29.583835261222127 9.052420897079001" fill="red" stroke="none" /><path d="M 120.08093135843002 93.85539295169968 l 53.07056039236862 -16.23917405142164 a76.4995058917862,76.4995058917862 0 0,0 0.3744618133116289,1.2624990795477997 l -53.34222810279195 15.323245585127307" fill="red" stroke="none" /><path d="M 120.28053869075195 94.5502522615342 l 37.32737262301474 -10.030540491900622 a59.651578098404315,59.651578098404315 0 0,0 0.2579324810028679,0.9939190665849323 l -37.494501435887905 9.38652499976684" fill="red" stroke="none" /><path d="M 120.45610955862082 95.25157060432595 l 30.691358310710847 -7.1243140137723335 a52.507385247323725,52.507385247323725 0 0,0 0.1967917115624182,0.8821786559574276 l -30.809444409275304 6.594957188264942" fill="red" stroke="none" /><path d="M 120.6074358757038 95.95851677861258 l 30.647283589852677 -6.010475206938464 a52.231103144943106,52.231103144943106 0 0,0 0.1654340007178744,0.8837550469386841 l -30.74620331448041 5.482042082537217" fill="red" stroke="none" /><path d="M 120.67395015179393 96.31383870115 l 62.02185045538181 -11.058483896549978 a84.0,84.0 0 0,0 0.2415525539191079,1.4256568467366484 l -62.20301487082114 9.98924126149749" fill="red" stroke="none" /><path d="M 120.78858239683441 97.02765380044208 l 37.139865017614376 -5.310248410878175 a58.51757337184603,58.51757337184603 0 0,0 0.13398852634023733,0.9983701526675068 l -37.22576954301245 4.6701599161460035" fill="red" stroke="none" /><path d="M 120.87857604477298 97.74499172005257 l 31.45546336300981 -3.3973739483506704 a52.63839953484664,52.63839953484664 0 0,0 0.08954261575580758,0.9016819208209822 l -31.509283104447842 2.8554164968252533" fill="red" stroke="none" /><line stroke="#e1ed5e" stroke-width="0.3" x1="184.98032266829074" x2="189.97916517819016" y1="98.17113171792111" y2="98.06355123074" /><path d="M 185.9800911702706 98.14961562048488 a86.0,86.0 0 0,1 -9.607161424134198,41.387399972396054" fill="none" id="id88" stroke="none" /><text fill="#e1ed5e" style="font-size:6.75px; font-family:Arial;" text-anchor="middle"><textPath startOffset="21.466115282336823" xlink:href="#id88">April</textPath></text><path d="M 120.99513854157772 99.54816195383933 l 37.367677970266165 -0.8041927692074803 a58.376330516779745,58.376330516779745 0 0,0 0.01297342471503312,1.0048060413949718 l -37.375984402098915 0.16085046975204573" fill="red" stroke="none" /><path d="M 120.9904718944345 100.63252640178507 l 37.089416198988815 1.1176516226333904 a58.106252022151054,58.106252022151054 0 0,0 -0.03873159982478934,0.9994904914828273 l -37.064682466312824 -1.755919361130224" fill="red" stroke="none" /><path d="M 120.95626037817324 101.35467743843564 l 27.022052366864454 1.7467889795712042 a48.07845242728462,48.07845242728462 0 0,0 -0.06049515082008509,0.8254082693189603 l -26.987980657380028 -2.2116703853869346" fill="red" stroke="none" /><path d="M 120.89721153311464 102.0752229133903 l 32.19405028728073 3.1970691747621314 a53.352405246104574,53.352405246104574 0 0,0 -0.098619884811285,0.9130976515115778 l -32.13424810096839 -3.7507631481585006" fill="red" stroke="none" /><path d="M 120.81339534386255 102.79330883721812 l 40.441646211851676 5.42756267725079 a61.80422998832428,61.80422998832428 0 0,0 -0.15058438469242083,1.0531868358136198 l -40.34222777614265 -6.122894985044819" fill="red" stroke="none" /><path d="M 120.76222939487914 103.15116336523771 l 29.926564206388097 4.542069687268912 a51.2692854597375,51.2692854597375 0 0,0 -0.1399364522715456,0.8713844218746893 l -29.843945999755263 -5.056533338836806" fill="red" stroke="none" /><path d="M 120.64145759157962 103.86396538481128 l 54.622242885638876 10.224978290145605 a76.57103201211649,76.57103201211649 0 0,0 -0.25366913472407204,1.293453452882823 l -54.43814381793914 -11.163695470096373" fill="red" stroke="none" /><path d="M 120.49622156327973 104.57218783832717 l 30.850975878266475 6.882071228379296 a52.60926473415454,52.60926473415454 0 0,0 -0.20477388219902465,0.8821605250829826 l -30.727941430136898 -7.412100410810844" fill="red" stroke="none" /><path d="M 120.32669344350535 105.2749913415812 l 39.830789775630976 10.33651005652996 a62.15015497296765,62.15015497296765 0 0,0 -0.2776393139843217,1.0331991716956093 l -39.646962385304874 -11.020600161401118" fill="red" stroke="none" /><path d="M 120.13307415673323 105.97154293290107 l 28.992302252821368 8.599222169380768 a51.24070455259468,51.24070455259468 0 0,0 -0.25809022378988755,0.8434537843457615 l -28.839985256525345 -9.097002926278588" fill="red" stroke="none" /><path d="M 120.02730092923936 106.31721596034902 l 42.46179303343369 13.393732765268433 a65.52410521281234,65.52410521281234 0 0,0 -0.34855001416656495,1.0727266404826459 l -42.224950768250885 -14.122658305728875" fill="red" stroke="none" /><path d="M 119.79798401119884 107.00284435728193 l 33.67999242964288 11.913119275468123 a56.724841510247906,56.724841510247906 0 0,0 -0.33353055832567857,0.9177328508373708 l -33.46993761031197 -12.491099923311625" fill="red" stroke="none" /><path d="M 119.41010516605496 108.01547362559984 l 29.26686816790177 12.08585980842489 a52.664137121769826,52.664137121769826 0 0,0 -0.35322343047404664,0.834915849126068 l -29.054493756235413 -12.587850183217123" fill="red" stroke="none" /><path d="M 119.12269723197855 108.67885076344098 l 40.842784403696854 18.536528937471683 a65.85237945635201,65.85237945635201 0 0,0 -0.47735255689295253,1.0281749402703626 l -40.517657229964065 -19.236823945020877" fill="red" stroke="none" /><path d="M 118.81262510543309 109.33194174019688 l 27.983077446225145 13.880914916237503 a52.23671593290913,52.23671593290913 0 0,0 -0.4065044573215621,0.8020718593833006 l -27.73999431911731 -14.360540987323496" fill="red" stroke="none" /><line stroke="#e1ed5e" stroke-width="0.3" x1="174.80103733775053" x2="179.2010983576182" y1="140.37084112569926" y2="142.7455964860345" /><path d="M 175.68104954172406 140.8457921977663 a86.0,86.0 0 0,1 -30.038265399797805,32.042727171017184" fill="none" id="id89" stroke="none" /><text fill="#e1ed5e" style="font-size:6.75px; font-family:Arial;" text-anchor="middle"><textPath startOffset="22.206326154141568" xlink:href="#id89">May</textPath></text><path d="M 118.48025628344425 109.97397251340804 l 41.938157547488395 22.634428020154434 a68.65633630775146,68.65633630775146 0 0,0 -0.5702516520334618,1.0351723892299667 l -41.542329486003425 -23.352970927782206" fill="red" stroke="none" /><path d="M 118.12598468904814 110.60418214915192 l 32.51950842436642 19.024775572122095 a58.675728443283646,58.675728443283646 0 0,0 -0.517517478096839,0.8673890608400256 l -32.18721007057135 -19.581726726848228" fill="red" stroke="none" /><path d="M 117.55443506779139 111.5257021239791 l 29.995603723268935 19.69419079612757 a56.88310736039538,56.88310736039538 0 0,0 -0.5444441873346679,0.8138701889079416 l -29.652156430523544 -20.20759789924132" fill="red" stroke="none" /><path d="M 117.14729908036423 112.12312394758627 l 30.833376567792218 21.799167559979782 a58.76110190234593,58.76110190234593 0 0,0 -0.5910253401929461,0.8208825049909477 l -30.45357143522367 -22.32668367042186" fill="red" stroke="none" /><path d="M 116.71984013943494 112.70617746262583 l 17.00703929911469 12.924433346628037 a42.360720096781904,42.360720096781904 0 0,0 -0.4461858334829391,0.5767553362323301 l -16.782046648413683 -13.21526667697362" fill="red" stroke="none" /><path d="M 116.498646956653 112.99209946851258 l 46.537070540091655 36.646292936539815 a80.23385620102877,80.23385620102877 0 0,0 -0.8637827492294852,1.0777017923331105 l -45.89936987880732 -37.441922562451175" fill="red" stroke="none" /><path d="M 116.0416608686014 113.55231037782055 l 28.280081437630013 23.891568603283805 a58.02121089921833,58.02121089921833 0 0,0 -0.6511015691511606,0.7573782210406904 l -27.864637358908073 -24.374823923486026" fill="red" stroke="none" /><path d="M 115.56566222782051 114.09645910891815 l 23.603559398022288 21.375679685793234 a52.84411559904906,52.84411559904906 0 0,0 -0.6163979015369699,0.6689781820543049 l -23.232115088489596 -21.778809122648873" fill="red" stroke="none" /><path d="M 114.81725581225074 114.88116024355365 l 28.83099806935265 28.955341507764107 a61.86120717142683,61.86120717142683 0 0,0 -0.7610402770870943,0.7448380888752726 l -28.32830783988976 -29.44732969956195" fill="red" stroke="none" /><path d="M 114.29624159901734 115.38237550388516 l 22.07196769297652 23.74884985060155 a53.421900423420844,53.421900423420844 0 0,0 -0.6789680614927311,0.6202212259962518 l -21.659900082016925 -24.12526384318439" fill="red" stroke="none" /><path d="M 113.75828350139079 115.86535959552629 l 21.853652726727976 25.200531661543696 a54.35639269352865,54.35639269352865 0 0,0 -0.7121581047011846,0.6069165867664803 l -21.416629145449743 -25.572972638533123" fill="red" stroke="none" /><path d="M 113.20401910651253 116.32954008644616 l 38.769226347476945 47.94628291997683 a82.65954068450691,82.65954068450691 0 0,0 -1.1141030307702362,0.8851108278028151 l -37.93816582398936 -48.606527661784774" fill="red" stroke="none" /><path d="M 112.63410532772338 116.77436683061366 l 24.99338748117222 33.18384951476396 a62.543197835536404,62.543197835536404 0 0,0 -0.8655234899567618,0.6402935861257494 l -24.418479020796894 -33.60915304962948" fill="red" stroke="none" /><path d="M 111.7513745106137 117.40417183066458 l 20.880699166147412 30.92500165864132 a58.31433136549706,58.31433136549706 0 0,0 -0.8367420698326649,0.5545470177345887 l -20.345282397574785 -31.279846697467228" fill="red" stroke="none" /><line stroke="#e1ed5e" stroke-width="0.3" x1="143.8653032363475" x2="146.44561519142675" y1="172.8068346515853" y2="177.08958963109032" /><path d="M 144.38136562736335 173.6633856474863 a86.0,86.0 0 0,1 -40.68145358897372,12.25698825130547" fill="none" id="id90" stroke="none" /><text fill="#e1ed5e" style="font-size:6.75px; font-family:Arial;" text-anchor="middle"><textPath startOffset="21.466115282336833" xlink:href="#id90">June</textPath></text><path d="M 109.57404056367764 118.69057910512821 l 17.504796680179396 34.17311477782192 a59.395568499927315,59.395568499927315 0 0,0 -0.9139736124624969,0.45828534306965085 l -16.91396916003414 -34.46936796180088" fill="red" stroke="none" /><path d="M 108.92500713936063 119.00905698771935 l 16.552734235725186 35.25508310260178 a59.947578811139294,59.947578811139294 0 0,0 -0.9378427721768653,0.430517618423185 l -15.943423467780903 -35.534787791359044" fill="red" stroke="none" /><path d="M 108.59647513512805 119.15986991738527 l 13.65265792096527 30.429117246362843 a54.35155535653161,54.35155535653161 0 0,0 -0.8568893466067731,0.37563510789578086 l -13.126847899700742 -30.65961690755308" fill="red" stroke="none" /><path d="M 107.93186726928326 119.44442032107085 l 11.455405426425758 28.082128772160576 a51.32873670069351,51.32873670069351 0 0,0 -0.820963850055205,0.32667845869989104 l -10.970320500328686 -28.275154075266535" fill="red" stroke="none" /><path d="M 107.2578585660854 119.70592522655815 l 12.83869672172309 34.85854612639408 a58.14768325963716,58.14768325963716 0 0,0 -0.9422152003786832,0.3378448484446608 l -12.236761960714674 -35.0743785158787" fill="red" stroke="none" /><path d="M 106.57524785965236 119.94407469862006 l 11.650486373333514 35.33831354568945 a58.209276222317044,58.209276222317044 0 0,0 -0.95429577719282,0.30553537218975413 l -11.040469251049753 -35.533621764538914" fill="red" stroke="none" /><path d="M 106.2309692047433 120.05430185196036 l 11.078586872009499 35.65630288387801 a58.33774259951328,58.33774259951328 0 0,0 -0.96153107849309,0.28970142639025864 l -10.463180819076163 -35.841719679373995" fill="red" stroke="none" /><path d="M 105.53697534728816 120.25689768951611 l 4.324594460492019 15.821429939676396 a37.401821928792145,37.401821928792145 0 0,0 -0.6224902009702556,0.1644053198016394 l -4.051613816710266 -15.893526608781618" fill="red" stroke="none" /><path d="M 105.18746579009965 120.34920634021253 l 4.729220956163681 18.551619800384877 a40.14492434224408,40.14492434224408 0 0,0 -0.6710830392655758,0.16493588368225182 l -4.409184632154894 -18.63027694238116" fill="red" stroke="none" /><path d="M 104.83641907484287 120.43548508189849 l 7.438704654888265 31.43101035109472 a53.299268391610354,53.299268391610354 0 0,0 -0.8946151504830746,0.20361149563307912 l -6.896569355012328 -31.55439858030548" fill="red" stroke="none" /><path d="M 104.13013068566511 120.58985236759428 l 7.305629933053711 36.42060099839915 a58.14609543146256,58.14609543146256 0 0,0 -0.9830355697320703,0.1884011065835262 l -6.677626748749937 -36.54095930333115" fill="red" stroke="none" /><path d="M 103.06178313531738 120.77559828337769 l 4.447780072541819 30.18022111822848 a51.50620419388267,51.50620419388267 0 0,0 -0.8782332903963023,0.12171513156896013 l -3.927618190958686 -30.25231081529004" fill="red" stroke="none" /><path d="M 102.34483914955558 120.86867818915974 l 3.167764299011837 28.19257506329009 a49.36998447925801,49.36998447925801 0 0,0 -0.8453255773727857,0.0876214524224453 l -2.682006125033449 -28.242925884168294" fill="red" stroke="none" /><path d="M 101.62511606390274 120.93702456842531 l 2.336406770287922 30.100869124312165 a51.1914080267088,51.1914080267088 0 0,0 -0.8791203839329318,0.06062928876983694 l -1.8179236255760602 -30.136626757598286" fill="red" stroke="none" /><path d="M 101.26447882468166 120.96189622390904 l 3.348261816485813 55.505806311404484 a76.6067027566901,76.6067027566901 0 0,0 -1.3169492254603385,0.06807123222620944 l -2.392324522611995 -55.555217350392894" fill="red" stroke="none" /><line stroke="#e1ed5e" stroke-width="0.3" x1="102.19456741930631" x2="102.32365962044197" y1="184.97166512339345" y2="189.96999836594603" /><path d="M 102.22038585953345 185.97133177190398 a86.0,86.0 0 0,1 -42.740103519485714,-10.115201625700543" fill="none" id="id91" stroke="none" /><text fill="#e1ed5e" style="font-size:6.75px; font-family:Arial;" text-anchor="middle"><textPath startOffset="22.20632615414155" xlink:href="#id91">July</textPath></text><path d="M 100.54218724476979 120.99299961872073 l 1.030515633415288 39.900633052624165 a60.91393842344898,60.91393842344898 0 0,0 -1.0484167996966824,0.018049445993132414 l -0.34353914382593764 -39.912459975896454" fill="red" stroke="none" /><path d="M 99.81925306533755 120.99922214144158 l -0.2650477387552143 30.793309743270925 a51.79445039692774,51.79445039692774 0 0,0 -0.8914572482525901,-0.015347244971824802 l 0.7950646769004722 -30.78418502101994" fill="red" stroke="none" /><path d="M 99.09653310690486 120.98055641714683 l -1.4078021018399802 32.69236719969254 a53.72266462067962,53.72266462067962 0 0,0 -0.9235487106993272,-0.0477369191938715 l 1.9703388809527964 -32.66329047373647" fill="red" stroke="none" /><path d="M 98.73552117531835 120.96189622390904 l -1.9213296020571966 31.85083921068205 a52.90873651313167,52.90873651313167 0 0,0 -0.9086124127033726,-0.0626632317444407 l 2.4693047755394995 -31.813047634421324" fill="red" stroke="none" /><path d="M 98.01472825383883 120.90594882070398 l -3.7525597460324907 39.51641489326875 a60.69419038933148,60.69419038933148 0 0,0 -1.0392215447341748,-0.10771956223222293 l 4.432213887372259 -39.445965962580765" fill="red" stroke="none" /><path d="M 97.2962882734958 120.8252237178851 l -5.051769162336524 38.91103550184934 a60.23759747354206,60.23759747354206 0 0,0 -1.0271124471843711,-0.1423484261098138 l 5.720810200707726 -38.818312510246926" fill="red" stroke="none" /><path d="M 96.58105272829116 120.7198165907248 l -5.708582495417909 34.59567314092052 a56.06349261240815,56.06349261240815 0 0,0 -0.950812883656109,-0.16531100741130386 l 6.303244350546069 -34.492283554988205" fill="red" stroke="none" /><path d="M 95.51606077576429 120.51570834832081 l -7.227924354187732 33.070472323254094 a54.85113041174512,54.85113041174512 0 0,0 -0.9206627739602156,-0.2095398499326894 l 7.796107277540811 -32.941155739743714" fill="red" stroke="none" /><path d="M 94.81253420990036 120.34920634021253 l -7.3418933322806055 28.80051809335188 a50.72159551820991,50.72159551820991 0 0,0 -0.8441753518792522,-0.22295438302168846 l 7.836559126971347 -28.66987236102661" fill="red" stroke="none" /><path d="M 94.11515582081647 120.15858648285463 l -9.396336713701324 32.18723563407076 a54.53072145660522,54.53072145660522 0 0,0 -0.8987832075218722,-0.27079600759526506 l 9.948994895663441 -32.020724257369764" fill="red" stroke="none" /><path d="M 93.76903079525671 120.05430185196036 l -10.989532539396421 35.36968255102715 a58.03760614827701,58.03760614827701 0 0,0 -0.951481379946218,-0.3046342910671279 l 11.59673526443358 -35.17527541330031" fill="red" stroke="none" /><path d="M 93.08242187328487 119.8279376855182 l -11.238039720443119 32.21172890318131 a55.11581767582749,55.11581767582749 0 0,0 -0.8930873645229742,-0.32022935439147954 l 11.79084664559582 -32.013512007749874" fill="red" stroke="none" /><path d="M 92.40401165467489 119.57807347666478 l -14.365854233020588 37.02688010339421 a60.71608764764633,60.71608764764633 0 0,0 -0.9711073421923657,-0.3864236528297988 l 15.001082651254812 -36.77410960615835" fill="red" stroke="none" /><path d="M 91.7346041902142 119.30500536409082 l -16.11742590595157 37.64453641788693 a61.949756286838316,61.949756286838316 0 0,0 -0.9766801674554122,-0.42814788342809984 l 16.763026748064725 -37.361523981164375" fill="red" stroke="none" /><path d="M 90.7491055286396 118.85261126421891 l -14.082961341438992 28.699991816048573 a52.9690370575299,52.9690370575299 0 0,0 -0.8150827304260876,-0.4086994018755599 l 14.57489797954784 -28.45332457326371" fill="red" stroke="none" /><path d="M 90.10565033884886 118.52300852407294 l -20.45957768795385 38.30195463991827 a64.42388799276011,64.42388799276011 0 0,0 -0.973651067601517,-0.5309121936728054 l 21.11585156742401 -37.944101794485704" fill="red" stroke="none" /><line stroke="#e1ed5e" stroke-width="0.3" x1="58.666819895761336" x2="56.23545636021788" y1="174.27360380694188" y2="178.64263932499728" /><path d="M 58.180547188652646 175.14741091055294 a86.0,86.0 0 0,1 -31.652253787137756,-30.449443065178592" fill="none" id="id92" stroke="none" /><text fill="#e1ed5e" style="font-size:6.75px; font-family:Arial;" text-anchor="middle"><textPath startOffset="22.20632615414155" xlink:href="#id92">August</textPath></text><path d="M 89.4739219176387 118.17145234162733 l -22.98572079204538 39.680869421871805 a66.85754854334789,66.85754854334789 0 0,0 -0.9908674843318788,-0.585421975194798 l 23.66535614740564 -39.27932887438325" fill="red" stroke="none" /><path d="M 89.1626897886671 117.98757091392108 l -12.415198806076337 20.606521782609363 a45.05755393575069,45.05755393575069 0 0,0 -0.6608887529706229,-0.40597185053078255 l 12.768066758979268 -20.389761465250203" fill="red" stroke="none" /><path d="M 88.54995079064634 117.60387380957326 l -18.109840190567702 27.84296692505548 a54.21441131372999,54.21441131372999 0 0,0 -0.7779130391307292,-0.5155583440343379 l 18.586427928438393 -27.527110559929827" fill="red" stroke="none" /><path d="M 87.95078237400918 117.19931262002967 l -19.186072342801026 27.386612676207257 a54.43847971753187,54.43847971753187 0 0,0 -0.7628455663962987,-0.5442700568177572 l 19.65464523704621 -27.05229835754528" fill="red" stroke="none" /><path d="M 87.07902340077011 116.55440617244103 l -30.400212527649476 38.94887217280735 a70.40837545659585,70.40837545659585 0 0,0 -0.9489791963301198,-0.7539264671515205 l 31.066149216696957 -38.419811791650694" fill="red" stroke="none" /><path d="M 86.51685102203217 116.09983520530335 l -25.377635683883074 30.302695095810115 a60.52565904540403,60.52565904540403 0 0,0 -0.7929856360150859,-0.6757995624680401 l 25.895486796475215 -29.861371143119122" fill="red" stroke="none" /><path d="M 85.97065885151581 115.62618273729859 l -20.78012652768776 23.14535308459006 a52.10500004689045,52.10500004689045 0 0,0 -0.6622308565497439,-0.6049321861161281 l 21.175456933704357 -22.784228131887353" fill="red" stroke="none" /><path d="M 85.44109423537348 115.13401014063109 l -27.481399819325855 28.566967206761372 a60.63961341160913,60.63961341160913 0 0,0 -0.7460117625144117,-0.7301295242828826 l 27.96906153421606 -28.08968757955592" fill="red" stroke="none" /><path d="M 85.18274418774928 114.88116024355367 l -32.855800324408435 32.997502084932684 a67.56542449932712,67.56542449932712 0 0,0 -0.8170891892241274,-0.8277070347944568 l 33.4189301386881 -32.427054556157564" fill="red" stroke="none" /><path d="M 84.67929136418377 114.36230785411682 l -24.860950175105746 23.30575095762895 a55.07674971748499,55.07674971748499 0 0,0 -0.6424403656770555,-0.6972421334292289 l 25.25843694877853 -22.874357569398377" fill="red" stroke="none" /><path d="M 84.19399662182784 113.82643327865904 l -24.683516403816014 21.592111837161625 a53.7947446345592,53.7947446345592 0 0,0 -0.603673072326716,-0.7022081642423843 l 25.05153198571351 -21.16402657375771" fill="red" stroke="none" /><path d="M 83.72743513129214 113.27417163493432 l -24.925951405110577 20.33307962113188 a53.16733094817197,53.16733094817197 0 0,0 -0.5723895805349014,-0.714144010638691 l 25.27225889770034 -19.901007776914927" fill="red" stroke="none" /><path d="M 82.05923443525364 110.91462005526583 l -43.80038203914423 26.646829897390027 a72.26916237228211,72.26916237228211 0 0,0 -0.6374109985055421,-1.068337497307424 l 44.25257391334801 -25.888930306196492" fill="red" stroke="none" /><line stroke="#e1ed5e" stroke-width="0.3" x1="26.63291911575756" x2="22.317208475507996" y1="142.92168965132927" y2="145.44649492493687" /><path d="M 25.769776987707644 143.4266507060508 a86.0,86.0 0 0,1 -11.730757126820373,-40.83630448921669" fill="none" id="id93" stroke="none" /><text fill="#e1ed5e" style="font-size:6.75px; font-family:Arial;" text-anchor="middle"><textPath startOffset="21.46611528233685" xlink:href="#id93">September</textPath></text><path d="M 81.69416730710424 110.29060199501025 l -27.741399188823944 15.594794436621097 a52.82424928374824,52.82424928374824 0 0,0 -0.4387521537190249,-0.7964626031779714 l 28.005727751994485 -15.114961315045303" fill="red" stroke="none" /><path d="M 81.35079622478065 109.6543875284942 l -30.74117442802287 15.914202803850154 a55.61620510824662,55.61620510824662 0 0,0 -0.4328035342966424,-0.8539624332492257 l 31.01055663210578 -15.382686158898244" fill="red" stroke="none" /><path d="M 81.02952815118164 109.00673069616217 l -30.22025440085188 14.347860987703177 a54.45332406465256,54.45332406465256 0 0,0 -0.39472276762318204,-0.8501977252744051 l 30.46275178531489 -13.825543195149944" fill="red" stroke="none" /><path d="M 80.58989483394504 108.01547362559985 l -21.564313475274385 8.905061793148446 a44.33066096791286,44.33066096791286 0 0,0 -0.2851884002384327,-0.7078142212613074 l 21.714404489770207 -8.532548204044334" fill="red" stroke="none" /><path d="M 80.32549172779594 107.34259656027581 l -34.73775898225318 12.964255374815954 a58.07807730361104,58.07807730361104 0 0,0 -0.341487310212337,-0.939626414740518 l 34.95577055347075 -12.364381163069318" fill="red" stroke="none" /><path d="M 80.20201598880116 107.00284435728193 l -3.7969429533019694 1.3430357616417734 a25.027470775521305,25.027470775521305 0 0,0 -0.14016476388103308,-0.40738441350990795 l 3.819498548126231 -1.2774786450425686" fill="red" stroke="none" /><path d="M 80.0844068197444 106.66101706037122 l -35.39931481622753 11.839739734697531 a58.32681243347416,58.32681243347416 0 0,0 -0.3102646153495638,-0.9548962988293691 l 35.59787168259334 -11.228644535890357" fill="red" stroke="none" /><path d="M 79.76711848015287 105.62410040840567 l -32.959133739277085 9.161595561261707 a55.208761013396604,55.208761013396604 0 0,0 -0.24663047968828364,-0.9178037637105513 l 33.11195229530714 -8.592900864375618" fill="red" stroke="none" /><path d="M 79.58551787078972 104.9243191809786 l -36.36192324516029 8.771112338784624 a58.40483757144934,58.40483757144934 0 0,0 -0.22733230333371993,-0.9793416129225188 l 36.50751611442457 -8.14390206851353" fill="red" stroke="none" /><path d="M 79.35854240842038 103.8639653848113 l -15.738357671247249 2.9461325095707496 a37.01173316515288,37.01173316515288 0 0,0 -0.11183457831055191,-0.6272277064925502 l 15.78673869189699 -2.674786052344986" fill="red" stroke="none" /><path d="M 79.29508885075956 103.50808413554451 l -32.93766096362623 5.5807090914601565 a54.40709241640603,54.40709241640603 0 0,0 -0.1485009089338817,-0.9247153016864834 l 33.0288436269214 -5.012914560080459" fill="red" stroke="none" /><path d="M 79.1416061653843 102.43462659150553 l -33.946397048360865 3.9622802021595342 a55.17685674495811,55.17685674495811 0 0,0 -0.10199231377359218,-0.9443221552844959 l 34.009571663635505 -3.3773617249902563" fill="red" stroke="none" /><path d="M 79.07016306316243 101.71520430193888 l -37.00189231428798 3.0323124384042814 a58.12593370626879,58.12593370626879 0 0,0 -0.07313748568420601,-0.9979028841580146 l 37.04860635863652 -2.3949364177495065" fill="red" stroke="none" /><path d="M 79.0235259727143 100.99374915477108 l -19.503722693628188 0.9239783538678198 a40.52559691554559,40.52559691554559 0 0,0 -0.027012948654742443,-0.6970841754397361 l 19.516737775134132 -0.5881169314140868" fill="red" stroke="none" /><line stroke="#e1ed5e" stroke-width="0.3" x1="15.007084014347285" x2="10.007500721073583" y1="101.09737516637583" y2="101.16192664675087" /><path d="M 14.007167355692545 101.11028546245083 a86.0,86.0 0 0,1 10.666146001902534,-42.60595125391555" fill="none" id="id94" stroke="none" /><text fill="#e1ed5e" style="font-size:6.75px; font-family:Arial;" text-anchor="middle"><textPath startOffset="22.20632615414155" xlink:href="#id94">October</textPath></text><path d="M 79.01574976396665 99.18683210126434 l -19.880860824441474 -0.7704100761201653 a40.89578243764741,40.89578243764741 0 0,0 0.033313298855999804,-0.7031910868664897 l 19.864653917351976 1.112512269609664" fill="red" stroke="none" /><path d="M 79.12142395522702 97.74499172005258 l -30.808731987423 -3.327523178656282 a51.987906950572764,51.987906950572764 0 0,0 0.10375213468479862,-0.8888849296184568 l 30.74688949973461 3.8573518465996006" fill="red" stroke="none" /><path d="M 79.21141760316559 97.0276538004421 l -22.799907450336818 -3.2599249418084484 a44.031780008721626,44.031780008721626 0 0,0 0.11373640794525229,-0.7493808218130117 l 22.740415148952263 3.651904876013552" fill="red" stroke="none" /><path d="M 79.26566170972629 96.67025291283419 l -40.2630592433804 -6.465882940615441 a61.77893551624051,61.77893551624051 0 0,0 0.1776530910994259,-1.0485186000337219 l 40.14579429076075 7.157987328964992" fill="red" stroke="none" /><path d="M 79.46518482838121 95.60439243477599 l -31.5997458791644 -6.764126235603292 a53.315589788195794,53.315589788195794 0 0,0 0.19982077031561216,-0.8957573324092735 l 31.478630721846752 7.307061737562525" fill="red" stroke="none" /><path d="M 79.62865764111835 94.90015583598534 l -32.709844214123216 -8.188714576705125 a54.71926682077997,54.71926682077997 0 0,0 0.23660524498543842,-0.9117365262826843 l 32.56404263726747 8.750547528536673" fill="red" stroke="none" /><path d="M 80.14247586403 93.16781622104843 l -38.46638177543384 -13.23475111003508 a61.67949316102652,61.67949316102652 0 0,0 0.35406061322734134,-1.0009770319086404 l 38.23286808139669 13.894925768370333" fill="red" stroke="none" /><path d="M 80.38941819471856 92.48833698450439 l -21.64293493307272 -8.290138227299131 a44.17634622508358,44.17634622508358 0 0,0 0.27811418636265023,-0.7077702689285074 l 21.497027196828377 8.661457501123403" fill="red" stroke="none" /><line stroke="#e1ed5e" stroke-width="0.3" x1="26.266209847984243" x2="21.928928074336255" y1="57.711370442889674" y2="55.22380399835377" /><path d="M 25.398753493254645 57.213857153982495 a86.0,86.0 0 0,1 29.58750427330803,-30.492523968695096" fill="none" id="id95" stroke="none" /><text fill="#e1ed5e" style="font-size:6.75px; font-family:Arial;" text-anchor="middle"><textPath startOffset="21.46611528233685" xlink:href="#id95">November</textPath></text><line stroke="#e1ed5e" stroke-width="0.3" x1="56.762969772571076" x2="54.21961505331055" y1="26.818313649435495" y2="22.513508569990535" /><path d="M 56.25429882871897 25.957352633546506 a86.0,86.0 0 0,1 42.265352541879196,-11.944610805530505" fill="none" id="id96" stroke="none" /><text fill="#e1ed5e" style="font-size:6.75px; font-family:Arial;" text-anchor="middle"><textPath startOffset="22.20632615414155" xlink:href="#id96">December</textPath></text></svg>