<?xml version="1.0" encoding="utf-8" ?>
<svg baseProfile="full" height="200mm" version="1.1" viewBox="0,0,200,200" width="200mm" xmlns="http://www.w3.org/2000/svg" xmlns:ev="http://www.w3.org/2001/xml-events" xmlns:xlink="http://www.w3.org/1999/xlink"><defs /><rect fill="#1a1a1a" height="200" width="200" x="0" y="0" /><text alignment-baseline="middle" fill="#e1ed5e" style="dominant-baseline: central; font-size:9.0px; font-family:Arial;" text-anchor="middle" x="100.0" y="100.0">2026</text><line stroke="#e1ed5e" stroke-width="0.3" x1="100.0" x2="100.0" y1="15.0" y2="10.0" /><path d="M 100.0 14.0 a86.0,86.0 0 0,1 42.46469731375804,11.215312516191453" fill="none" id="id97" stroke="none" /><text fill="#e1ed5e" style="font-size:6.75px; font-family:Arial;" text-anchor="middle"><textPath startOffset="22.20632615414155" xlink:href="#id97">January</textPath></text><path d="M 100.36148047927253 79.00311137660856 l 0.5622121074310111 -32.65654905130102 a53.66138818840638,53.66138818840638 0 0,0 0.9234188766551805,0.023849185232948756 l -1.1242576192810594 32.64203307392572" fill="red" stroke="none" /><path d="M 101.08401301168833 79.027996857942 l 3.2438123777336476 -62.75685129657481 a83.84062940011296,83.84062940011296 0 0,0 1.4406133779397219,0.0869017331018103 l -4.323587804512981 62.6917162940927" fill="red" stroke="none" /><path d="M 101.44485096284872 79.0497635885617 l 3.0379015304020327 -44.04935657246519 a65.15398804362525,65.15398804362525 0 0,0 1.1181969758614887,0.08679360632839683 l -3.7956886956258624 43.99053770394833" fill="red" stroke="none" /><path d="M 102.16513564639614 79.11191278185805 l 5.1901844524881025 -50.072163239411466 a71.34043649120574,71.34043649120574 0 0,0 1.220374293990044,0.13712327133136548 l -6.051325449987871 49.975404014609495" fill="red" stroke="none" /><path d="M 102.88285421437855 79.19881850522331 l 8.048038725605709 -58.07047521631365 a79.6255150866698,79.6255150866698 0 0,0 1.3560263878256746,0.19984304031388003 l -9.04643409386004 57.9233376918388" fill="red" stroke="none" /><path d="M 103.95276090670814 79.375362276772 l 9.206684408336049 -48.038455913631076 a69.91274153388434,69.91274153388434 0 0,0 1.1799725717072125,0.23669139727884872 l -10.032223389510387 47.87286056027502" fill="red" stroke="none" /><path d="M 104.66035177308747 79.52364482259891 l 13.961341683145587 -61.342449020270095 a83.91116843135227,83.91116843135227 0 0,0 1.4056172120689423,0.33266418042600815 l -15.015182582177053 61.09303892770322" fill="red" stroke="none" /><path d="M 105.36241919743992 79.69619591428918 l 16.08725759231978 -60.91141225713248 a84.0,84.0 0 0,0 1.3948084431051566,0.3812538366948255 l -17.13336392464865 60.62547187961136" fill="red" stroke="none" /><path d="M 106.40334571778207 80.00007090966166 l 19.143027350457416 -59.790491792494834 a83.78023896839477,83.78023896839477 0 0,0 1.369675961642149,0.4515606299763721 l -20.16938613434198 59.45211743825923" fill="red" stroke="none" /><path d="M 107.08798089147638 80.2323363322302 l 19.87499145220148 -55.42934616251252 a79.88486818554257,79.88486818554257 0 0,0 1.290398056755431,0.47526449442019925 l -20.82617183472949 55.079018400286" fill="red" stroke="none" /><path d="M 107.76421540070413 80.48803036053334 l 23.254522136180643 -58.440100703583305 a83.89688521721146,83.89688521721146 0 0,0 1.3372209892139162,0.5454860171198105 l -24.257026994982947 58.03115380027992" fill="red" stroke="none" /><path d="M 108.76106565485865 80.91482961587045 l 14.95385153971583 -32.57558107399656 a56.843913823414766,56.843913823414766 0 0,0 0.8857412932394899,0.41586741367002406 l -15.512371044254918 32.31334867768653" fill="red" stroke="none" /><path d="M 109.41281617654863 81.2277094730956 l 26.23822415614162 -52.327757977074846 a79.5374979118108,79.5374979118108 0 0,0 1.2185883712645895,0.6242082939908477 l -27.135073014994962 51.8683571577715" fill="red" stroke="none" /><line stroke="#e1ed5e" stroke-width="0.3" x1="143.23703022742887" x2="145.7803849466894" y1="26.81831364943548" y2="22.513508569990506" /><path d="M 143.74570117128098 25.957352633546492 a86.0,86.0 0 0,1 28.547481713284135,27.462654790039103" fill="none" id="id98" stroke="none" /><text fill="#e1ed5e" style="font-size:6.75px; font-family:Arial;" text-anchor="middle"><textPath startOffset="19.985693538727396" xlink:href="#id98">February</textPath></text><line stroke="#e1ed5e" stroke-width="0.3" x1="172.23445277983987" x2="176.4835382374775" y1="55.19839476539836" y2="52.563006222186495" /><path d="M 173.08426987136738 54.67131705675599 a86.0,86.0 0 0,1 12.851231095245387,41.99856678651699" fill="none" id="id99" stroke="none" /><text fill="#e1ed5e" style="font-size:6.75px; font-family:Arial;" text-anchor="middle"><textPath startOffset="22.20632615414155" xlink:href="#id99">March</textPath></text><line stroke="#e1ed5e" stroke-width="0.3" x1="184.98032266829074" x2="189.97916517819016" y1="98.17113171792111" y2="98.06355123074" /><path d="M 185.9800911702706 98.14961562048488 a86.0,86.0 0 0,1 -9.607161424134198,41.387399972396054" fill="none" id="id100" stroke="none" /><text fill="#e1ed5e" style="font-size:6.75px; font-family:Arial;" text-anchor="middle"><textPath startOffset="21.466115282336823" xlink:href="#id100">April</textPath></text><line stroke="#e1ed5e" stroke-width="0.3" x1="174.80103733775053" x2="179.2010983576182" y1="140.37084112569926" y2="142.7455964860345" /><path d="M 175.68104954172406 140.8457921977663 a86.0,86.0 0 0,1 -30.038265399797805,32.042727171017184" fill="none" id="id101" stroke="none" /><text fill="#e1ed5e" style="font-size:6.75px; font-family:Arial;" text-anchor="middle"><textPath startOffset="22.206326154141568" xlink:href="#id101">May</textPath></text><line stroke="#e1ed5e" stroke-width="0.3" x1="143.8653032363475" x2="146.44561519142675" y1="172.8068346515853" y2="177.08958963109032" /><path d="M 144.38136562736335 173.6633856474863 a86.0,86.0 0 0,1 -40.68145358897372,12.25698825130547" fill="none" id="id102" stroke="none" /><text fill="#e1ed5e" style="font-size:6.75px; font-family:Arial;" text-anchor="middle"><textPath startOffset="21.466115282336833" xlink:href="#id102">June</textPath></text><line stroke="#e1ed5e" stroke-width="0.3" x1="102.19456741930631" x2="102.32365962044197" y1="184.97166512339345" y2="189.96999836594603" /><path d="M 102.22038585953345 185.97133177190398 a86.0,86.0 0 0,1 -42.740103519485714,-10.115201625700543" fill="none" id="id103" stroke="none" /><text fill="#e1ed5e" style="font-size:6.75px; font-family:Arial;" text-anchor="middle"><textPath startOffset="22.20632615414155" xlink:href="#id103">July</textPath></text><line stroke="#e1ed5e" stroke-width="0.3" x1="58.666819895761336" x2="56.23545636021788" y1="174.27360380694188" y2="178.64263932499728" /><path d="M 58.180547188652646 175.14741091055294 a86.0,86.0 0 0,1 -31.652253787137756,-30.449443065178592" fill="none" id="id104" stroke="none" /><text fill="#e1ed5e" style="font-size:6.75px; font-family:Arial;" text-anchor="middle"><textPath startOffset="22.20632615414155" xlink:href="#id104">August</textPath></text><line stroke="#e1ed5e" stroke-width="0.3" x1="26.63291911575756" x2="22.317208475507996" y1="142.92168965132927" y2="145.44649492493687" /><path d="M 25.769776987707644 143.4266507060508 a86.0,86.0 0 0,1 -11.730757126820373,-40.83630448921669" fill="none" id="id105" stroke="none" /><text fill="#e1ed5e" style="font-size:6.75px; font-family:Arial;" text-anchor="middle"><textPath startOffset="21.46611528233685" xlink:href="#id105">September</textPath></text><line stroke="#e1ed5e" stroke-width="0.3" x1="15.007084014347285" x2="10.007500721073583" y1="101.09737516637583" y2="101.16192664675087" /><path d="M 14.007167355692545 101.11028546245083 a86.0,86.0 0 0,1 10.666146001902534,-42.60595125391555" fill="none" id="id106" stroke="none" /><text fill="#e1ed5e" style="font-size:6.75px; font-family:Arial;" text-anchor="middle"><textPath startOffset="22.20632615414155" xlink:href="#id106">October</textPath></text><line stroke="#e1ed5e" stroke-width="0.3" x1="26.266209847984243" x2="21.928928074336255" y1="57.711370442889674" y2="55.22380399835377" /><path d="M 25.398753493254645 57.213857153982495 a86.0,86.0 0 0,1 29.58750427330803,-30.492523968695096" fill="none" id="id107" stroke="none" /><text fill="#e1ed5e" style="font-size:6.75px; font-family:Arial;" text-anchor="middle"><textPath startOffset="21.46611528233685" xlink:href="#id107">November</textPath></text><line stroke="#e1ed5e" stroke-width="0.3" x1="56.762969772571076" x2="54.21961505331055" y1="26.818313649435495" y2="22.513508569990535" /><path d="M 56.25429882871897 25.957352633546506 a86.0,86.0 0 0,1 42.265352541879196,-11.944610805530505" fill="none" id="id108" stroke="none" /><text fill="#e1ed5e" style="font-size:6.75px; font-family:Arial;" text-anchor="middle"><textPath startOffset="22.20632615414155" xlink:href="#id108">December</textPath></text></svg>