<?xml version="1.0" encoding="utf-8" ?>
<svg baseProfile="full" height="200mm" version="1.1" viewBox="0,0,200,200" width="200mm" xmlns="http://www.w3.org/2000/svg" xmlns:ev="http://www.w3.org/2001/xml-events" xmlns:xlink="http://www.w3.org/1999/xlink"><defs /><rect fill="#1a1a1a" height="200" width="200" x="0" y="0" /><text alignment-baseline="middle" fill="#e1ed5e" style="dominant-baseline: central; font-size:9.0px; font-family:Arial;" text-anchor="middle" x="100.0" y="100.0">2026</text><line stroke="#e1ed5e" stroke-width="0.3" x1="100.0" x2="100.0" y1="15.0" y2="10.0" /><path d="M 100.0 14.0 a86.0,86.0 0 0,1 42.46469731375804,11.215312516191453" fill="none" id="id97" stroke="none" /><text fill="#e1ed5e" style="font-size:6.75px; font-family:Arial;" text-anchor="middle"><textPath startOffset="22.20632615414155" xlink:href="#id97">January</textPath></text><path d="M 100.36148047927253 79.00311137660856 l 0.4302830891252975 -24.99334436281216 a45.99704794520548,45.99704794520548 0 0,0 0.7915289517648522,0.020442857586212004 l -0.8604386760850176 24.98223471308359" fill="red" stroke="none" /><path d="M 101.08401301168833 79.027996857942 l 2.4826174889970396 -48.03029227359837 a69.09441095890412,69.09441095890412 0 0,0 1.1872326517640395,0.07161711574614435 l -3.309012189600691 47.980441888471915" fill="red" stroke="none" /><path d="M 101.44485096284872 79.0497635885617 l 2.325025800196337 -33.71270908161267 a54.79278767123287,54.79278767123287 0 0,0 0.9403742013761184,0.07299113662218444 l -2.9049901909347966 33.66769268280203" fill="red" stroke="none" /><path d="M 102.16513564639614 79.11191278185805 l 3.972252766934076 -38.322200452582635 a59.52752054794521,59.52752054794521 0 0,0 1.0182984494443297,0.11441769567509648 l -4.631317919888131 38.24814680343694" fill="red" stroke="none" /><path d="M 102.88285421437855 79.19881850522331 l 6.159481303377271 -44.44362391486844 a65.86841780821918,65.86841780821918 0 0,0 1.1217423532526052,0.1653156637182386 l -6.923592637058532 44.33101376698923" fill="red" stroke="none" /><path d="M 103.95276090670814 79.375362276772 l 7.046238520052966 -36.76572406413895 a58.43484931506849,58.43484931506849 0 0,0 0.9862511169041531,0.19783269588218202 l -7.678056046424245 36.63898741217956" fill="red" stroke="none" /><path d="M 104.66035177308747 79.52364482259891 l 10.685165168725614 -46.94779445352263 a69.14839726027397,69.14839726027397 0 0,0 1.158322297174758,0.27413746384880794 l -11.491711152862896 46.75691107753296" fill="red" stroke="none" /><path d="M 105.36241919743992 79.69619591428918 l 12.312212421051703 -46.617905026528774 a69.21638356164382,69.21638356164382 0 0,0 1.1493285261069734,0.31415490232163523 l -13.112838836382387 46.399063583380844" fill="red" stroke="none" /><path d="M 106.40334571778207 80.00007090966166 l 14.650913480328464 -45.76002040644839 a69.04819178082192,69.04819178082192 0 0,0 1.1288300157836233,0.37215750830025 l -15.436426318354505 45.5010491738889" fill="red" stroke="none" /><path d="M 107.08798089147638 80.2323363322302 l 15.211114462599038 -42.422263732425954 a66.06691095890412,66.06691095890412 0 0,0 1.067193518041416,0.39305637911123786 l -15.93909030641303 42.15414408550839" fill="red" stroke="none" /><path d="M 107.76421540070413 80.48803036053334 l 17.797602521600368 -44.72651287150896 a69.13746575342466,69.13746575342466 0 0,0 1.101972619211985,0.44952230026122564 l -18.56485901040074 44.413529685064155" fill="red" stroke="none" /><path d="M 108.76106565485865 80.91482961587045 l 11.444772088298677 -24.931376377892757 a48.432760273972605,48.432760273972605 0 0,0 0.7546787832641471,0.3543318078802075 l -11.872229082862424 24.73067958737255" fill="red" stroke="none" /><path d="M 109.41281617654863 81.2277094730956 l 20.081147299824014 -40.04849602450014 a65.80105479452055,65.80105479452055 0 0,0 1.0081332993206962,0.5164050320218434 l -20.767541086733466 39.696898467165795" fill="red" stroke="none" /><path d="M 110.05341064243156 81.56283822128135 l 13.366514414944113 -24.513132652293056 a48.920554794520555,48.920554794520555 0 0,0 0.7358488004200286,0.4094990607471538 l -13.786487304436177 24.279418193985723" fill="red" stroke="none" /><line stroke="#e1ed5e" stroke-width="0.3" x1="143.23703022742887" x2="145.7803849466894" y1="26.81831364943548" y2="22.513508569990506" /><path d="M 143.74570117128098 25.957352633546492 a86.0,86.0 0 0,1 28.547481713284135,27.462654790039103" fill="none" id="id98" stroke="none" /><text fill="#e1ed5e" style="font-size:6.75px; font-family:Arial;" text-anchor="middle"><textPath startOffset="19.985693538727396" xlink:href="#id98">February</textPath></text><path d="M 111.2981086023043 82.29822771554956 l 23.273536235839874 -36.46476177585316 a64.25894520547945,64.25894520547945 0 0,0 0.9272656802657814,0.6031193920178066 l -23.897768941889936 36.058743459675824" fill="red" stroke="none" /><path d="M 111.90073688211348 82.69761687909136 l 30.299656490711005 -44.05242047004273 a74.4666712328767,74.4666712328767 0 0,0 1.0498696424246061,0.7355007772673064 l -31.05345727271926 43.524334850011485" fill="red" stroke="none" /><path d="M 113.34407831869373 83.78471172551755 l 30.56698773168227 -37.14400544677833 a69.1042397260274,69.1042397260274 0 0,0 0.9119866287732782,0.7637625742662385 l -31.201831897414667 36.61234171511827" fill="red" stroke="none" /><path d="M 113.89432698308785 84.25364557470407 l 32.0921521104215 -36.36983655388983 a69.50434246575344,69.50434246575344 0 0,0 0.8902811636977671,0.7993032190627462 l -32.71344426171526 35.812034326057784" fill="red" stroke="none" /><path d="M 114.42810811169701 84.74124197986012 l 43.28432433509102 -45.77627406041963 a84.0,84.0 0 0,0 1.042067025550327,1.0024676529507923 l -44.06587460425377 45.02442332070654" fill="red" stroke="none" /><line stroke="#e1ed5e" stroke-width="0.3" x1="172.23445277983987" x2="176.4835382374775" y1="55.19839476539836" y2="52.563006222186495" /><path d="M 173.08426987136738 54.67131705675599 a86.0,86.0 0 0,1 12.851231095245387,41.99856678651699" fill="none" id="id99" stroke="none" /><text fill="#e1ed5e" style="font-size:6.75px; font-family:Arial;" text-anchor="middle"><textPath startOffset="22.20632615414155" xlink:href="#id99">March</textPath></text><line stroke="#e1ed5e" stroke-width="0.3" x1="184.98032266829074" x2="189.97916517819016" y1="98.17113171792111" y2="98.06355123074" /><path d="M 185.9800911702706 98.14961562048488 a86.0,86.0 0 0,1 -9.607161424134198,41.387399972396054" fill="none" id="id100" stroke="none" /><text fill="#e1ed5e" style="font-size:6.75px; font-family:Arial;" text-anchor="middle"><textPath startOffset="21.466115282336823" xlink:href="#id100">April</textPath></text><line stroke="#e1ed5e" stroke-width="0.3" x1="174.80103733775053" x2="179.2010983576182" y1="140.37084112569926" y2="142.7455964860345" /><path d="M 175.68104954172406 140.8457921977663 a86.0,86.0 0 0,1 -30.038265399797805,32.042727171017184" fill="none" id="id101" stroke="none" /><text fill="#e1ed5e" style="font-size:6.75px; font-family:Arial;" text-anchor="middle"><textPath startOffset="22.206326154141568" xlink:href="#id101">May</textPath></text><line stroke="#e1ed5e" stroke-width="0.3" x1="143.8653032363475" x2="146.44561519142675" y1="172.8068346515853" y2="177.08958963109032" /><path d="M 144.38136562736335 173.6633856474863 a86.0,86.0 0 0,1 -40.68145358897372,12.25698825130547" fill="none" id="id102" stroke="none" /><text fill="#e1ed5e" style="font-size:6.75px; font-family:Arial;" text-anchor="middle"><textPath startOffset="21.466115282336833" xlink:href="#id102">June</textPath></text><line stroke="#e1ed5e" stroke-width="0.3" x1="102.19456741930631" x2="102.32365962044197" y1="184.97166512339345" y2="189.96999836594603" /><path d="M 102.22038585953345 185.97133177190398 a86.0,86.0 0 0,1 -42.740103519485714,-10.115201625700543" fill="none" id="id103" stroke="none" /><text fill="#e1ed5e" style="font-size:6.75px; font-family:Arial;" text-anchor="middle"><textPath startOffset="22.20632615414155" xlink:href="#id103">July</textPath></text><line stroke="#e1ed5e" stroke-width="0.3" x1="58.666819895761336" x2="56.23545636021788" y1="174.27360380694188" y2="178.64263932499728" /><path d="M 58.180547188652646 175.14741091055294 a86.0,86.0 0 0,1 -31.652253787137756,-30.449443065178592" fill="none" id="id104" stroke="none" /><text fill="#e1ed5e" style="font-size:6.75px; font-family:Arial;" text-anchor="middle"><textPath startOffset="22.20632615414155" xlink:href="#id104">August</textPath></text><line stroke="#e1ed5e" stroke-width="0.3" x1="26.63291911575756" x2="22.317208475507996" y1="142.92168965132927" y2="145.44649492493687" /><path d="M 25.769776987707644 143.4266507060508 a86.0,86.0 0 0,1 -11.730757126820373,-40.83630448921669" fill="none" id="id105" stroke="none" /><text fill="#e1ed5e" style="font-size:6.75px; font-family:Arial;" text-anchor="middle"><textPath startOffset="21.46611528233685" xlink:href="#id105">September</textPath></text><line stroke="#e1ed5e" stroke-width="0.3" x1="15.007084014347285" x2="10.007500721073583" y1="101.09737516637583" y2="101.16192664675087" /><path d="M 14.007167355692545 101.11028546245083 a86.0,86.0 0 0,1 10.666146001902534,-42.60595125391555" fill="none" id="id106" stroke="none" /><text fill="#e1ed5e" style="font-size:6.75px; font-family:Arial;" text-anchor="middle"><textPath startOffset="22.20632615414155" xlink:href="#id106">October</textPath></text><line stroke="#e1ed5e" stroke-width="0.3" x1="26.266209847984243" x2="21.928928074336255" y1="57.711370442889674" y2="55.22380399835377" /><path d="M 25.398753493254645 57.213857153982495 a86.0,86.0 0 0,1 29.58750427330803,-30.492523968695096" fill="none" id="id107" stroke="none" /><text fill="#e1ed5e" style="font-size:6.75px; font-family:Arial;" text-anchor="middle"><textPath startOffset="21.46611528233685" xlink:href="#id107">November</textPath></text><line stroke="#e1ed5e" stroke-width="0.3" x1="56.762969772571076" x2="54.21961505331055" y1="26.818313649435495" y2="22.513508569990535" /><path d="M 56.25429882871897 25.957352633546506 a86.0,86.0 0 0,1 42.265352541879196,-11.944610805530505" fill="none" id="id108" stroke="none" /><text fill="#e1ed5e" style="font-size:6.75px; font-family:Arial;" text-anchor="middle"><textPath startOffset="22.20632615414155" xlink:href="#id108">December</textPath></text></svg>