<?xml version="1.0" encoding="utf-8" ?>
<svg baseProfile="full" height="200mm" version="1.1" viewBox="0,0,200,200" width="200mm" xmlns="http://www.w3.org/2000/svg" xmlns:ev="http://www.w3.org/2001/xml-events" xmlns:xlink="http://www.w3.org/1999/xlink"><defs /><rect fill="#1a1a1a" height="200" width="200" x="0" y="0" /><text alignment-baseline="middle" fill="#e1ed5e" style="dominant-baseline: central; font-size:9.0px; font-family:Arial;" text-anchor="middle" x="100.0" y="100.0">2019</text><line stroke="#e1ed5e" stroke-width="0.3" x1="100.0" x2="100.0" y1="15.0" y2="10.0" /><path d="M 100.0 14.0 a86.0,86.0 0 0,1 42.46469731375804,11.215312516191453" fill="none" id="id13" stroke="none" /><text fill="#e1ed5e" style="font-size:6.75px; font-family:Arial;" text-anchor="middle"><textPath startOffset="22.20632615414155" xlink:href="#id13">January</textPath></text><path d="M 108.43124777332544 80.76684994638697 l 12.723886287764598 -29.025408909453 a52.69182299308321,52.69182299308321 0 0,0 0.827557401604862,0.371300883380852 l -13.22162580783624 28.802087695555613" fill="red" stroke="none" /><line stroke="#e1ed5e" stroke-width="0.3" x1="143.23703022742887" x2="145.7803849466894" y1="26.81831364943548" y2="22.513508569990506" /><path d="M 143.74570117128098 25.957352633546492 a86.0,86.0 0 0,1 28.547481713284135,27.462654790039103" fill="none" id="id14" stroke="none" /><text fill="#e1ed5e" style="font-size:6.75px; font-family:Arial;" text-anchor="middle"><textPath startOffset="19.985693538727396" xlink:href="#id14">February</textPath></text><line stroke="#e1ed5e" stroke-width="0.3" x1="172.23445277983987" x2="176.4835382374775" y1="55.19839476539836" y2="52.563006222186495" /><path d="M 173.08426987136738 54.67131705675599 a86.0,86.0 0 0,1 12.851231095245387,41.99856678651699" fill="none" id="id15" stroke="none" /><text fill="#e1ed5e" style="font-size:6.75px; font-family:Arial;" text-anchor="middle"><textPath startOffset="22.20632615414155" xlink:href="#id15">March</textPath></text><path d="M 118.21658344932153 89.55222093294921 l 25.56782605471629 -14.663946100958341 a50.474481240830016,50.474481240830016 0 0,0 0.42576993626387966,0.7573972079272592 l -25.8164536322726 14.221665383096287" fill="red" stroke="none" /><path d="M 120.18372546131832 94.20196356495316 l 33.28381512752717 -9.561206783980959 a55.62988629218193,55.62988629218193 0 0,0 0.25646233071295915,0.9226314565550456 l -33.44346422880649 8.98686402400696" fill="red" stroke="none" /><path d="M 120.37134235888165 94.90015583598534 l 39.12495419246016 -9.794699131290447 a61.33234646824565,61.33234646824565 0 0,0 0.24757006016887642,1.0263377298058851 l -39.28775705288986 9.119776169825156" fill="red" stroke="none" /><path d="M 120.83666639777658 97.38593545837742 l 39.168886782319184 -4.913933741503658 a60.47592223852442,60.47592223852442 0 0,0 0.1206916453713793,1.034012312396261 l -39.247668780694156 4.238977690782544" fill="red" stroke="none" /><line stroke="#e1ed5e" stroke-width="0.3" x1="184.98032266829074" x2="189.97916517819016" y1="98.17113171792111" y2="98.06355123074" /><path d="M 185.9800911702706 98.14961562048488 a86.0,86.0 0 0,1 -9.607161424134198,41.387399972396054" fill="none" id="id16" stroke="none" /><text fill="#e1ed5e" style="font-size:6.75px; font-family:Arial;" text-anchor="middle"><textPath startOffset="21.466115282336823" xlink:href="#id16">April</textPath></text><path d="M 120.81339534386255 102.79330883721812 l 62.44018603158764 8.379926511654341 a84.0,84.0 0 0,0 -0.20466379593359463,1.4314181120783627 l -62.28668818463745 -9.453490095713112" fill="red" stroke="none" /><path d="M 120.32669344350535 105.2749913415812 l 58.94407108347151 15.296608150609243 a81.89654946552085,81.89654946552085 0 0,0 -0.36585108792053844,1.3614679980976445 l -58.672031919209196 -16.308967081882436" fill="red" stroke="none" /><path d="M 119.54520255179757 107.68017299344265 l 34.00896407950732 13.363623465461155 a57.540334835464265,57.540334835464265 0 0,0 -0.370168991001215,0.9187290783270164 l -33.77389247424871 -13.947051911630986" fill="red" stroke="none" /><line stroke="#e1ed5e" stroke-width="0.3" x1="174.80103733775053" x2="179.2010983576182" y1="140.37084112569926" y2="142.7455964860345" /><path d="M 175.68104954172406 140.8457921977663 a86.0,86.0 0 0,1 -30.038265399797805,32.042727171017184" fill="none" id="id17" stroke="none" /><text fill="#e1ed5e" style="font-size:6.75px; font-family:Arial;" text-anchor="middle"><textPath startOffset="22.206326154141568" xlink:href="#id17">May</textPath></text><path d="M 118.48025628344425 109.97397251340804 l 42.166990135859564 22.75793117463345 a68.91636973380841,68.91636973380841 0 0,0 -0.5724114598351513,1.039093067748617 l -41.7690022665729 -23.48039476077987" fill="red" stroke="none" /><path d="M 115.80600337817218 113.82643327865902 l 46.33618960881457 40.532968308631055 a82.56268339970656,82.56268339970656 0 0,0 -0.9449147764002628,1.0616217682584639 l -45.63161598276597 -41.32456424663039" fill="red" stroke="none" /><path d="M 114.55890576462653 115.13401014063108 l 25.146774839238265 26.140120114374604 a57.27211276461958,57.27211276461958 0 0,0 -0.7163491291425894,0.6773528138625377 l -24.693089875704867 -26.569107564983064" fill="red" stroke="none" /><path d="M 114.0293411484842 115.62618273729858 l 39.608671254357674 44.116992270093206 a80.2887497380004,80.2887497380004 0 0,0 -1.0363275996216292,0.914438614922186 l -38.84340130182945 -44.79225402678768" fill="red" stroke="none" /><path d="M 112.63410532772338 116.77436683061366 l 30.509991135253344 40.508272649784274 a71.71271745965205,71.71271745965205 0 0,0 -0.992418738376282,0.734167657269574 l -29.808187426458495 -41.02745025579362" fill="red" stroke="none" /><path d="M 112.04921762599082 117.19931262002967 l 34.42832040509588 49.14372567663687 a81.00345839446656,81.00345839446656 0 0,0 -1.148872495453742,0.7902049783518028 l -33.57729102501926 -49.72907144435377" fill="red" stroke="none" /><path d="M 111.45004920935366 117.60387380957326 l 32.99916044629444 50.73454669905474 a81.52221756445189,81.52221756445189 0 0,0 -1.1829192013989454,0.7549950022177213 l -32.120959442848566 -51.29505613009627" fill="red" stroke="none" /><line stroke="#e1ed5e" stroke-width="0.3" x1="143.8653032363475" x2="146.44561519142675" y1="172.8068346515853" y2="177.08958963109032" /><path d="M 144.38136562736335 173.6633856474863 a86.0,86.0 0 0,1 -40.68145358897372,12.25698825130547" fill="none" id="id18" stroke="none" /><text fill="#e1ed5e" style="font-size:6.75px; font-family:Arial;" text-anchor="middle"><textPath startOffset="21.466115282336833" xlink:href="#id18">June</textPath></text><path d="M 106.57524785965236 119.94407469862006 l 18.765466892953466 56.91950804837536 a80.93307220708446,80.93307220708446 0 0,0 -1.3268347255768018,0.42481057907006375 l -17.782910822285725 -57.23409147410513" fill="red" stroke="none" /><line stroke="#e1ed5e" stroke-width="0.3" x1="102.19456741930631" x2="102.32365962044197" y1="184.97166512339345" y2="189.96999836594603" /><path d="M 102.22038585953345 185.97133177190398 a86.0,86.0 0 0,1 -42.740103519485714,-10.115201625700543" fill="none" id="id19" stroke="none" /><text fill="#e1ed5e" style="font-size:6.75px; font-family:Arial;" text-anchor="middle"><textPath startOffset="22.20632615414155" xlink:href="#id19">July</textPath></text><line stroke="#e1ed5e" stroke-width="0.3" x1="58.666819895761336" x2="56.23545636021788" y1="174.27360380694188" y2="178.64263932499728" /><path d="M 58.180547188652646 175.14741091055294 a86.0,86.0 0 0,1 -31.652253787137756,-30.449443065178592" fill="none" id="id20" stroke="none" /><text fill="#e1ed5e" style="font-size:6.75px; font-family:Arial;" text-anchor="middle"><textPath startOffset="22.20632615414155" xlink:href="#id20">August</textPath></text><line stroke="#e1ed5e" stroke-width="0.3" x1="26.63291911575756" x2="22.317208475507996" y1="142.92168965132927" y2="145.44649492493687" /><path d="M 25.769776987707644 143.4266507060508 a86.0,86.0 0 0,1 -11.730757126820373,-40.83630448921669" fill="none" id="id21" stroke="none" /><text fill="#e1ed5e" style="font-size:6.75px; font-family:Arial;" text-anchor="middle"><textPath startOffset="21.46611528233685" xlink:href="#id21">September</textPath></text><path d="M 81.35079622478065 109.6543875284942 l -31.83520770809183 16.48056592488003 a56.84814504296793,56.84814504296793 0 0,0 -0.44239045157643175,-0.8728783305533283 l 32.11417682945453 -15.930133382624016" fill="red" stroke="none" /><line stroke="#e1ed5e" stroke-width="0.3" x1="15.007084014347285" x2="10.007500721073583" y1="101.09737516637583" y2="101.16192664675087" /><path d="M 14.007167355692545 101.11028546245083 a86.0,86.0 0 0,1 10.666146001902534,-42.60595125391555" fill="none" id="id22" stroke="none" /><text fill="#e1ed5e" style="font-size:6.75px; font-family:Arial;" text-anchor="middle"><textPath startOffset="22.20632615414155" xlink:href="#id22">October</textPath></text><line stroke="#e1ed5e" stroke-width="0.3" x1="26.266209847984243" x2="21.928928074336255" y1="57.711370442889674" y2="55.22380399835377" /><path d="M 25.398753493254645 57.213857153982495 a86.0,86.0 0 0,1 29.58750427330803,-30.492523968695096" fill="none" id="id23" stroke="none" /><text fill="#e1ed5e" style="font-size:6.75px; font-family:Arial;" text-anchor="middle"><textPath startOffset="21.46611528233685" xlink:href="#id23">November</textPath></text><path d="M 82.34701348167596 88.62581576622439 l -31.145916230772112 -20.067957847858644 a58.051194718088446,58.051194718088446 0 0,0 0.5484548739791084,-0.8353344003962571 l 30.795864721435084 20.601110312232567" fill="red" stroke="none" /><path d="M 84.31358615837235 86.03803664274999 l -26.892316175099445 -23.935970121604345 a57.0017684971704,57.0017684971704 0 0,0 0.6586591248557327,-0.7273078566439446 l 26.476313409627668 24.395330765517844" fill="red" stroke="none" /><line stroke="#e1ed5e" stroke-width="0.3" x1="56.762969772571076" x2="54.21961505331055" y1="26.818313649435495" y2="22.513508569990535" /><path d="M 56.25429882871897 25.957352633546506 a86.0,86.0 0 0,1 42.265352541879196,-11.944610805530505" fill="none" id="id24" stroke="none" /><text fill="#e1ed5e" style="font-size:6.75px; font-family:Arial;" text-anchor="middle"><textPath startOffset="22.20632615414155" xlink:href="#id24">December</textPath></text></svg>