<?xml version="1.0" encoding="utf-8" ?>
<svg baseProfile="full" height="200mm" version="1.1" viewBox="0,0,200,200" width="200mm" xmlns="http://www.w3.org/2000/svg" xmlns:ev="http://www.w3.org/2001/xml-events" xmlns:xlink="http://www.w3.org/1999/xlink"><defs /><rect fill="#1a1a1a" height="200" width="200" x="0" y="0" /><text alignment-baseline="middle" fill="#e1ed5e" style="dominant-baseline: central; font-size:9.0px; font-family:Arial;" text-anchor="middle" x="100.0" y="100.0">2020</text><line stroke="#e1ed5e" stroke-width="0.3" x1="100.0" x2="100.0" y1="15.0" y2="10.0" /><path d="M 100.0 14.0 a86.0,86.0 0 0,1 42.35913384403234,11.155469271406648" fill="none" id="id25" stroke="none" /><text fill="#e1ed5e" style="font-size:6.75px; font-family:Arial;" text-anchor="middle"><textPath startOffset="22.145653131862478" xlink:href="#id25">January</textPath></text><line stroke="#e1ed5e" stroke-width="0.3" x1="143.13028292997686" x2="145.6673583964461" y1="26.7553504044142" y2="22.446841604673864" /><path d="M 143.63769802327073 25.89364864446614 a86.0,86.0 0 0,1 29.32050498858742,28.57503671076993" fill="none" id="id26" stroke="none" /><text fill="#e1ed5e" style="font-size:6.75px; font-family:Arial;" text-anchor="middle"><textPath startOffset="20.669276256404974" xlink:href="#id26">February</textPath></text><line stroke="#e1ed5e" stroke-width="0.3" x1="172.87174338648825" x2="177.1583165268699" y1="56.24261187166439" y2="53.66864786411523" /><path d="M 173.72905801456457 55.72781907015455 a86.0,86.0 0 0,1 12.242430191666344,42.057860355516425" fill="none" id="id27" stroke="none" /><text fill="#e1ed5e" style="font-size:6.75px; font-family:Arial;" text-anchor="middle"><textPath startOffset="22.145653131862474" xlink:href="#id27">March</textPath></text><path d="M 120.77682067341334 96.94652285012252 l 28.668423746109198 -4.213271039286887 a49.97637266700184,49.97637266700184 0 0,0 0.11745752541889229,0.849864142530287 l -28.736525788083302 3.720518588556515" fill="red" stroke="none" /><path d="M 120.82617615685814 97.30363454192243 l 28.3951427687204 -3.6763197219738353 a49.63214032436605,49.63214032436605 0 0,0 0.10214274091841528,0.8458884214245266 l -28.45406759589848 3.188337623625896" fill="red" stroke="none" /><path d="M 120.86939407059847 97.66154086499901 l 21.507658875364296 -2.4099780376679774 a42.64225922682469,42.64225922682469 0 0,0 0.0752688823197615,0.7281581580180132 l -21.545860150165723 2.0404153573670327" fill="red" stroke="none" /><path d="M 120.9064616781168 98.02013634271609 l 27.994694886185435 -2.6511267116962953 a49.11994691695001,49.11994691695001 0 0,0 0.07229141011820003,0.8401357660282469 l -28.036079919001377 2.1701698982923867" fill="red" stroke="none" /><path d="M 120.93736805541906 98.37931529534042 l 28.64385824059762 -2.2172157842426867 a49.72954334376631,49.72954334376631 0 0,0 0.05857675787594918,0.8516932036851245 l -28.677698959638636 1.725179156403228" fill="red" stroke="none" /><path d="M 120.96210409425399 98.7389718711861 l 27.172576286332255 -1.634634713926425 a48.221699665607204,48.221699665607204 0 0,0 0.042615147595056704,0.8267224786159271 l -27.196633023383885 1.1679404419337673" fill="red" stroke="none" /><path d="M 120.98066250479742 99.09900007780936 l 39.46124732278573 -1.6946357513374868 a60.49761803703832,60.49761803703832 0 0,0 0.03565128376921311,1.0379482279779815 l -39.48452329355179 1.0169812587953853" fill="red" stroke="none" /><line stroke="#e1ed5e" stroke-width="0.3" x1="184.99686870605535" x2="189.99668451229388" y1="99.2704041080226" y2="99.22748670261217" /><path d="M 185.99683186730306 99.26182062694052 a86.0,86.0 0 0,1 -10.086455211305974,41.156179273409016" fill="none" id="id28" stroke="none" /><text fill="#e1ed5e" style="font-size:6.75px; font-family:Arial;" text-anchor="middle"><textPath startOffset="21.40746469413373" xlink:href="#id28">April</textPath></text><path d="M 120.99922638620191 99.81974689727618 l 35.36999038076551 -0.3036088278773051 a56.37129341508181,56.37129341508181 0 0,0 0.0,0.9677238612022596 l -35.36999038076551 -0.3036088278773008" fill="red" stroke="none" /><path d="M 120.99922638620191 100.18025310272382 l 51.04772589636922 0.4381833316422565 a72.04960650017759,72.04960650017759 0 0,0 -0.021232567529303702,1.2366906126763753 l -51.03268189724125 -1.3144208602877028" fill="red" stroke="none" /><path d="M 120.98066250479742 100.90099992219065 l 28.44451636352662 1.221529921871046 a49.47073315713805,49.47073315713805 0 0,0 -0.04371896075307194,0.8481361589953677 l -28.419355813316976 -1.7096378742431444" fill="red" stroke="none" /><path d="M 120.9064616781168 101.97986365728391 l 50.84531129591767 4.815103843394239 a72.0728000583622,72.0728000583622 0 0,0 -0.12721744120527262,1.2307133413016744 l -50.755161462230724 -5.687221706978844" fill="red" stroke="none" /><path d="M 120.86939407059847 102.33845913500097 l 27.475728696442552 3.0787127093221915 a48.64767873343183,48.64767873343183 0 0,0 -0.10011672300805008,0.8291100867473276 l -27.41882988717484 -3.5499164729929276" fill="red" stroke="none" /><path d="M 120.82617615685814 102.69636545807757 l 50.36557343996533 6.520831835712242 a71.78594525817334,71.78594525817334 0 0,0 -0.16871571584563622,1.2207428742191602 l -50.24621320756448 -7.384463018131488" fill="red" stroke="none" /><path d="M 120.77682067341334 103.0534771498775 l 48.60454783437603 7.143194742124727 a70.12664553282735,70.12664553282735 0 0,0 -0.18526293597666138,1.1895209476331976 l -48.4747634062611 -7.976503871689375" fill="red" stroke="none" /><path d="M 120.592083275326 104.11899336999214 l 47.48004816505124 9.497339389312327 a69.42059922420796,69.42059922420796 0 0,0 -0.24377304298749727,1.1665422575300897 l -47.31001741123938 -10.310998098127826" fill="red" stroke="none" /><path d="M 120.43855184770803 104.8234425847677 l 25.819743808001682 6.09338923517096 a47.52901360175569,47.52901360175569 0 0,0 -0.19421820092415587,0.7924765368941508 l -25.71133808056123 -6.535721596673211" fill="red" stroke="none" /><path d="M 120.26092885502905 105.52220625578681 l 47.34597986243857 12.9043573497282 a70.07305011657542,70.07305011657542 0 0,0 -0.3262785002539187,1.157847292304716 l -47.11748287011007 -13.715212565935923" fill="red" stroke="none" /><path d="M 119.94978838288452 106.5578916946017 l 26.068904170897845 8.569366595204945 a48.441242838371394,48.441242838371394 0 0,0 -0.26646046404691265,0.7877430150330665 l -25.917958285278566 -9.015611284712174" fill="red" stroke="none" /><path d="M 119.31412917781788 108.2440532568976 l 44.61318586894955 19.042716183440447 a69.5073333942457,69.5073333942457 0 0,0 -0.4778335187371323,1.0933766023264495 l -44.279718468195455 -19.80575485554274" fill="red" stroke="none" /><path d="M 119.16976305983485 108.57439118712176 l 48.95488385186403 21.896896865954734 a74.62886112260595,74.62886112260595 0 0,0 -0.5331185018364492,1.164960139083814 l -48.57178088517253 -22.734045987253236" fill="red" stroke="none" /><path d="M 119.0197475246899 108.90220220490707 l 23.13932029003605 10.830370268512194 a46.54848456636806,46.54848456636806 0 0,0 -0.3449480813837992,0.7208088204189702 l -22.94999295069234 -11.225991590996268" fill="red" stroke="none" /><path d="M 118.8641267826498 109.22738970284198 l 39.54868595336452 19.345244109716766 a65.02654915278261,65.02654915278261 0 0,0 -0.49909451599938354,0.9985233621607027 l -39.2107715241534 -20.021299328041216" fill="red" stroke="none" /><line stroke="#e1ed5e" stroke-width="0.3" x1="174.33088141563837" x2="178.70328620479359" y1="141.23008692659167" y2="143.65538615756765" /><path d="M 175.20536237346943 141.71514677278685 a86.0,86.0 0 0,1 -30.301960400862466,31.631185727798858" fill="none" id="id29" stroke="none" /><text fill="#e1ed5e" style="font-size:6.75px; font-family:Arial;" text-anchor="middle"><textPath startOffset="22.145653131862474" xlink:href="#id29">May</textPath></text><path d="M 118.36410011445183 110.18625677009912 l 32.552473902098015 18.056308536881367 a58.22490879942928,58.22490879942928 0 0,0 -0.4923238632119903,0.8698890927341406 l -32.23771667386465 -18.612454399714633" fill="red" stroke="none" /><path d="M 118.18653347947321 110.5 l 24.003142523943758 13.858220797595875 a48.71644159519176,48.71644159519176 0 0,0 -0.4243579960327811,0.7206526507829453 l -23.76171081778121 -14.268224616672368" fill="red" stroke="none" /><path d="M 118.00360718960297 110.81064883170644 l 31.795202423522753 19.09210550495832 a58.086970619952865,58.086970619952865 0 0,0 -0.5206585104006111,0.8504565477332778 l -31.46277594866674 -19.635099168816154" fill="red" stroke="none" /><path d="M 117.81537515405839 111.11811171558189 l 32.01315664596324 19.97857742990955 a58.73573577607666,58.73573577607666 0 0,0 -0.5411583686670054,0.8507908395604391 l -31.66548058567035 -20.52518194414866" fill="red" stroke="none" /><path d="M 117.21940702142032 112.02048342749411 l 31.298886460413428 21.849053543388905 a59.170688157324676,59.170688157324676 0 0,0 -0.5885649221741519,0.8278902710424878 l -30.919206439709313 -22.383121041140896" fill="red" stroke="none" /><path d="M 117.01052211995028 112.31430620078461 l 21.57970553157862 15.622042625426552 a47.64079403134015,47.64079403134015 0 0,0 -0.48525093470126074,0.658336088062659 l -21.30835257729353 -15.990185022758087" fill="red" stroke="none" /><path d="M 116.79662413953412 112.60449989151573 l 25.13730853616746 18.863504957009088 a52.42795093074927,52.42795093074927 0 0,0 -0.5463692091695254,0.7152148334901499 l -24.809787349643628 -19.292240703740116" fill="red" stroke="none" /><path d="M 116.35404254752997 113.17365903436017 l 37.53692271524774 30.237087840063694 a69.20064364692871,69.20064364692871 0 0,0 -0.753144153154277,0.9187134073218767 l -37.01233174285483 -30.877003529084064" fill="red" stroke="none" /><path d="M 116.1254893667686 113.45245675266167 l 37.29246966523532 31.110704547384334 a69.56546335789598,69.56546335789598 0 0,0 -0.7728571806449406,0.9104238154780009 l -36.75291792108327 -31.74629514531189" fill="red" stroke="none" /><path d="M 115.41159269507618 114.26474011684316 l 46.23477808522855 42.794220350529464 a84.0,84.0 0 0,0 -0.9885766650549601,1.0498341602220114 l -45.49334558643733 -43.58159597069598" fill="red" stroke="none" /><path d="M 115.16444852881244 114.52719865689866 l 22.42477696599444 21.48242906444538 a52.05423289156443,52.05423289156443 0 0,0 -0.6236920024517808,0.6399629387820546 l -22.05269816239185 -21.86421469529517" fill="red" stroke="none" /><path d="M 114.91283532996324 114.78537596483092 l 26.677544309182874 26.4495324800637 a58.566862242971,58.566862242971 0 0,0 -0.7139804736588508,0.7078781131166797 l -26.21957191539406 -26.90359060340904" fill="red" stroke="none" /><path d="M 114.65682725009322 115.03919595460226 l 19.933095711882025 20.453112210279293 a49.559728705737484,49.559728705737484 0 0,0 -0.6143695702454368,0.5885521506932028 l -19.57905365577128 -20.792276491278077" fill="red" stroke="none" /><path d="M 113.03279911837588 116.46651593811092 l 17.537165715319755 22.15763598730216 a49.257972571866766,49.257972571866766 0 0,0 -0.6675394829230406,0.5190827394974252 l -17.154216287761482 -22.455419778420378" fill="red" stroke="none" /><path d="M 111.5731344415666 117.5232005979908 l 14.921803333805341 22.593512105320684 a48.07631813940065,48.07631813940065 0 0,0 -0.6925608088262688,0.44890954899887786 l -14.531756892722061 -22.846335496023457" fill="red" stroke="none" /><line stroke="#e1ed5e" stroke-width="0.3" x1="143.1302829299769" x2="145.66735839644613" y1="173.24464959558577" y2="177.55315839532614" /><path d="M 143.63769802327073 174.10635135553383 a86.0,86.0 0 0,1 -40.68552437913181,11.842963189579606" fill="none" id="id30" stroke="none" /><text fill="#e1ed5e" style="font-size:6.75px; font-family:Arial;" text-anchor="middle"><textPath startOffset="21.407464694133747" xlink:href="#id30">June</textPath></text><line stroke="#e1ed5e" stroke-width="0.3" x1="101.45913802915013" x2="101.54496967792366" y1="184.9874750549273" y2="189.98673829345242" /><path d="M 101.47630435890484 185.9873277026323 a86.0,86.0 0 0,1 -42.54439059252881,-10.42667462771756" fill="none" id="id31" stroke="none" /><text fill="#e1ed5e" style="font-size:6.75px; font-family:Arial;" text-anchor="middle"><textPath startOffset="22.145653131862474" xlink:href="#id31">July</textPath></text><line stroke="#e1ed5e" stroke-width="0.3" x1="58.13341422392154" x2="55.67067388415222" y1="173.97424548756322" y2="178.32567169271397" /><path d="M 57.64086615596768 174.84453072859336 a86.0,86.0 0 0,1 -31.369924170532247,-30.572349798747897" fill="none" id="id32" stroke="none" /><text fill="#e1ed5e" style="font-size:6.75px; font-family:Arial;" text-anchor="middle"><textPath startOffset="22.145653131862474" xlink:href="#id32">August</textPath></text><line stroke="#e1ed5e" stroke-width="0.3" x1="26.387840678322732" x2="22.057713659400548" y1="142.50000000000003" y2="145.00000000000006" /><path d="M 25.521815274538298 143.00000000000003 a86.0,86.0 0 0,1 -11.493303480769221,-40.785679425670985" fill="none" id="id33" stroke="none" /><text fill="#e1ed5e" style="font-size:6.75px; font-family:Arial;" text-anchor="middle"><textPath startOffset="21.40746469413373" xlink:href="#id33">September</textPath></text><line stroke="#e1ed5e" stroke-width="0.3" x1="15.003131293944662" x2="10.003315487706104" y1="100.72959589197737" y2="100.7725132973878" /><path d="M 14.003168132696942 100.73817937305945 a86.0,86.0 0 0,1 10.791469493833604,-42.45332614584628" fill="none" id="id34" stroke="none" /><text fill="#e1ed5e" style="font-size:6.75px; font-family:Arial;" text-anchor="middle"><textPath startOffset="22.145653131862435" xlink:href="#id34">October</textPath></text><line stroke="#e1ed5e" stroke-width="0.3" x1="26.387840678322718" x2="22.05771365940052" y1="57.49999999999999" y2="54.99999999999999" /><path d="M 25.521815274538284 56.99999999999999 a86.0,86.0 0 0,1 29.574782752854787,-30.34633250058573" fill="none" id="id35" stroke="none" /><text fill="#e1ed5e" style="font-size:6.75px; font-family:Arial;" text-anchor="middle"><textPath startOffset="21.40746469413373" xlink:href="#id35">November</textPath></text><line stroke="#e1ed5e" stroke-width="0.3" x1="56.869717070023135" x2="54.33264160355391" y1="26.7553504044142" y2="22.446841604673864" /><path d="M 56.362301976729285 25.89364864446614 a86.0,86.0 0 0,1 42.16139366436587,-11.88097634709845" fill="none" id="id36" stroke="none" /><text fill="#e1ed5e" style="font-size:6.75px; font-family:Arial;" text-anchor="middle"><textPath startOffset="22.145653131862474" xlink:href="#id36">December</textPath></text></svg>