<?xml version="1.0" encoding="utf-8" ?>
<svg baseProfile="full" height="200mm" version="1.1" viewBox="0,0,200,200" width="200mm" xmlns="http://www.w3.org/2000/svg" xmlns:ev="http://www.w3.org/2001/xml-events" xmlns:xlink="http://www.w3.org/1999/xlink"><defs /><rect fill="#1a1a1a" height="200" width="200" x="0" y="0" /><text alignment-baseline="middle" fill="#e1ed5e" style="dominant-baseline: central; font-size:9.0px; font-family:Arial;" text-anchor="middle" x="100.0" y="100.0">2026</text><line stroke="#e1ed5e" stroke-width="0.3" x1="100.0" x2="100.0" y1="15.0" y2="10.0" /><path d="M 100.0 14.0 a86.0,86.0 0 0,1 42.46469731375804,11.215312516191453" fill="none" id="id97" stroke="none" /><text fill="#e1ed5e" style="font-size:6.75px; font-family:Arial;" text-anchor="middle"><textPath startOffset="22.20632615414155" xlink:href="#id97">January</textPath></text><path d="M 100.36148047927253 79.00311137660856 l 0.3759255180256921 -21.83594048719094 a42.83917619680851,42.83917619680851 0 0,0 0.7371874879866961,0.019039377899756807 l -0.7517396412072559 21.826234317148824" fill="red" stroke="none" /><path d="M 101.08401301168833 79.027996857942 l 2.1689889498285306 -41.962635669885806 a63.018654255319156,63.018654255319156 0 0,0 1.0828343850654398,0.06531952719958505 l -2.8909853837335824 41.91908287330592" fill="red" stroke="none" /><path d="M 101.44485096284872 79.0497635885617 l 2.031305785543874 -29.453789716249375 a50.52375199468085,50.52375199468085 0 0,0 0.8671074232908077,0.06730422453839235 l -2.538003398197023 29.41446022952252" fill="red" stroke="none" /><path d="M 102.16513564639614 79.11191278185805 l 3.470438920047457 -33.48096502306754 a54.660347074468085,54.660347074468085 0 0,0 0.9350388888982721,0.10506251393461609 l -4.046244512455455 33.416266555662325" fill="red" stroke="none" /><path d="M 102.88285421437855 79.19881850522331 l 5.381355340849558 -38.8290703617933 a60.20020013297872,60.20020013297872 0 0,0 1.025212331045531,0.15108964769626423 l -6.048936652323745 38.73068622993607" fill="red" stroke="none" /><path d="M 103.95276090670814 79.375362276772 l 6.1560887070143595 -32.12111796561076 a53.70571276595744,53.70571276595744 0 0,0 0.9064337432269305,0.18182208160539734 l -6.708088859708416 32.01039192792815" fill="red" stroke="none" /><path d="M 104.66035177308747 79.52364482259891 l 9.335310526399907 -41.01688956910156 a63.0658204787234,63.0658204787234 0 0,0 1.0564315146042238,0.25002320757351637 l -10.039965727966655 40.85012044938718" fill="red" stroke="none" /><path d="M 105.36241919743992 79.69619591428918 l 10.756813245519906 -40.72867500323059 a63.125218085106376,63.125218085106376 0 0,0 1.048185561404294,0.28650870937076656 l -11.456296696147911 40.53747975303353" fill="red" stroke="none" /><path d="M 106.40334571778207 80.00007090966166 l 12.8000666975742 -39.979166764676314 a62.97827393617021,62.97827393617021 0 0,0 1.0295963460861846,0.33944172759127234 l -13.486345865902804 39.7529113128258" fill="red" stroke="none" /><path d="M 107.08798089147638 80.2323363322302 l 13.289497608946233 -37.06306818112214 a60.37361768617021,60.37361768617021 0 0,0 0.9752284845808716,0.35918488116287556 l -13.92550841929968 36.82882003215294" fill="red" stroke="none" /><path d="M 107.76421540070413 80.48803036053334 l 15.549235181770532 -39.07622201673056 a63.05626994680851,63.05626994680851 0 0,0 1.0050452702278954,0.4099832009098207 l -16.219564321586816 38.802777929637166" fill="red" stroke="none" /><path d="M 108.76106565485865 80.91482961587045 l 9.998956465441797 -21.781800904621733 a44.96718550531915,44.96718550531915 0 0,0 0.7006782320892059,0.3289778250352341 l -10.3724129088306 21.606458096946493" fill="red" stroke="none" /><path d="M 109.41281617654863 81.2277094730956 l 17.544300234021776 -34.98917804268164 a60.14134707446809,60.14134707446809 0 0,0 0.9214213182616564,0.4719877874117866 l -18.14398203987219 34.68199772995735" fill="red" stroke="none" /><path d="M 110.05341064243156 81.56283822128135 l 11.677925492843459 -21.41639381988901 a45.39335704787234,45.39335704787234 0 0,0 0.6827937146464301,0.3799739629556688 l -12.044843296561924 21.21220445937316" fill="red" stroke="none" /><line stroke="#e1ed5e" stroke-width="0.3" x1="143.23703022742887" x2="145.7803849466894" y1="26.81831364943548" y2="22.513508569990506" /><path d="M 143.74570117128098 25.957352633546492 a86.0,86.0 0 0,1 28.547481713284135,27.462654790039103" fill="none" id="id98" stroke="none" /><text fill="#e1ed5e" style="font-size:6.75px; font-family:Arial;" text-anchor="middle"><textPath startOffset="19.985693538727396" xlink:href="#id98">February</textPath></text><path d="M 111.2981086023043 82.29822771554956 l 20.333395354982446 -31.858176179169586 a58.79405186170213,58.79405186170213 0 0,0 0.8484064953259465,0.5518271845219997 l -20.878768876092675 31.503450070488057" fill="red" stroke="none" /><path d="M 111.90073688211348 82.69761687909136 l 26.47190733297491 -38.48728756491766 a67.7122380319149,67.7122380319149 0 0,0 0.9546421500166482,0.6687878332474023 l -27.13048062257521 38.025914888906314" fill="red" stroke="none" /><path d="M 113.34407831869373 83.78471172551755 l 26.705466675153254 -32.451611141666696 a63.02724135638297,63.02724135638297 0 0,0 0.8317869003895313,0.6965976081655663 l -27.260111112501903 31.987112376107312" fill="red" stroke="none" /><path d="M 113.89432698308785 84.25364557470407 l 28.03795736242942 -31.77524284030002 a63.376799202127664,63.376799202127664 0 0,0 0.811793458414646,0.728836182302049 l -28.58076180844006 31.28790764922867" fill="red" stroke="none" /><path d="M 114.42810811169701 84.74124197986012 l 37.81622485126969 -39.9933670979996 a76.04122340425532,76.04122340425532 0 0,0 0.9433339463342888,0.9074865089710796 l -38.49904204121639 39.33649750226622" fill="red" stroke="none" /><path d="M 115.19652480421416 85.50635884689758 l 20.597697091575792 -19.64499344895049 a49.463852393617024,49.463852393617024 0 0,0 0.5823371758538888,0.6211966969155449 l -20.932801589400146 19.28752733515689" fill="red" stroke="none" /><path d="M 115.68641384162765 86.03803664274999 l 14.313425008831313 -12.739910951457631 a40.16192752659575,40.16192752659575 0 0,0 0.45518407265364635,0.5203540815662535 l -14.530600945062808 12.49164131368843" fill="red" stroke="none" /><path d="M 116.60985879189232 87.15038557335679 l 33.3245231422521 -25.780307869848148 a63.132506648936165,63.132506648936165 0 0,0 0.6575522932420698,0.8652617404931285 l -33.76335137571828 25.202861353473985" fill="red" stroke="none" /><path d="M 117.04232023915458 87.72973835380427 l 34.30292721839365 -24.69768706922147 a63.26897872340425,63.26897872340425 0 0,0 0.6287351151176718,0.8893012319152643 l -34.72297495331521 24.103559336974413" fill="red" stroke="none" /><path d="M 117.45458315368197 88.32363383020206 l 52.36374946104589 -35.02909850939381 a84.0,84.0 0 0,0 0.7936134585683003,1.208727744089304 l -52.95895955497212 34.12255270132683" fill="red" stroke="none" /><line stroke="#e1ed5e" stroke-width="0.3" x1="172.23445277983987" x2="176.4835382374775" y1="55.19839476539836" y2="52.563006222186495" /><path d="M 173.08426987136738 54.67131705675599 a86.0,86.0 0 0,1 12.851231095245387,41.99856678651699" fill="none" id="id99" stroke="none" /><text fill="#e1ed5e" style="font-size:6.75px; font-family:Arial;" text-anchor="middle"><textPath startOffset="22.20632615414155" xlink:href="#id99">March</textPath></text><path d="M 118.73160827565052 90.50648371742162 l 35.15270256136381 -17.816022480928847 a60.409683510638295,60.409683510638295 0 0,0 0.4621052750779834,0.93157603651111 l -35.454167849395205 17.20828685591879" fill="red" stroke="none" /><path d="M 119.196687751892 91.48605970444005 l 38.44749382563775 -17.05188265684673 a63.05920212765957,63.05920212765957 0 0,0 0.4315330083644225,0.996037680353857 l -38.73531754384485 16.38754583190627" fill="red" stroke="none" /><path d="M 119.61058180528143 92.48833698450437 l 39.29682864129161 -15.052308863756508 a63.08102593085106,63.08102593085106 0 0,0 0.3796739157271223,1.017337332153901 l -39.55010714552036 14.373648394573275" fill="red" stroke="none" /><path d="M 119.7369772167798 92.82701384747503 l 22.28736474151057 -8.099870456921554 a44.71359375,44.71359375 0 0,0 0.25667076059448835,0.7256428038569568 l -22.423488582914867 7.715030026637983" fill="red" stroke="none" /><path d="M 120.08093135843002 93.85539295169968 l 40.78160779057296 -12.478851214526799 a63.64810970744681,63.64810970744681 0 0,0 0.3115547779958546,1.0504078292254277 l -40.99036846568052 11.77501399855484" fill="red" stroke="none" /><path d="M 120.37134235888165 94.90015583598534 l 40.87475982370841 -10.232752543749578 a63.13615093085106,63.13615093085106 0 0,0 0.2548511769865954,1.0565226596800854 l -41.044843800955825 9.527644652410087" fill="red" stroke="none" /><path d="M 120.6074358757038 95.95851677861258 l 41.192811929758726 -8.078640120975368 a62.977519946808506,62.977519946808506 0 0,0 0.199471626153065,1.0655854030542762 l -41.32576927982166 7.368376640458529" fill="red" stroke="none" /><path d="M 120.67395015179393 96.31383870115 l 41.43158581457465 -7.387243708063946 a63.085005319148934,63.085005319148934 0 0,0 0.18140885891477299,1.0706853542816972 l -41.55260653500965 6.672972565466411" fill="red" stroke="none" /><path d="M 120.78858239683441 97.02765380044208 l 42.069428472844926 -6.015076134189664 a63.49726994680851,63.49726994680851 0 0,0 0.14539060894986525,1.0833289119481007 l -42.16673508085263 5.2900288801769" fill="red" stroke="none" /><path d="M 120.87857604477298 97.74499172005257 l 39.196180954362625 -4.233416704513887 a60.42413497340426,60.42413497340426 0 0,0 0.10278684663880815,1.03504951837864 l -39.26324492668366 3.5580916554308124" fill="red" stroke="none" /><path d="M 120.94382443527127 98.46500227214037 l 38.81130184996914 -2.8445263346768206 a59.91540159574468,59.91540159574468 0 0,0 0.0665329407117079,1.0292351446335297 l -38.85451538168526 2.1760321257902557" fill="red" stroke="none" /><path d="M 120.96714384426684 98.82574320788733 l 39.340621324973654 -2.2032563013781394 a60.4022692819149,60.4022692819149 0 0,0 0.049203089615346564,1.038599455831725 l -39.3727180228225 1.5257457389234146" fill="red" stroke="none" /><line stroke="#e1ed5e" stroke-width="0.3" x1="184.98032266829074" x2="189.97916517819016" y1="98.17113171792111" y2="98.06355123074" /><path d="M 185.9800911702706 98.14961562048488 a86.0,86.0 0 0,1 -9.607161424134198,41.387399972396054" fill="none" id="id100" stroke="none" /><text fill="#e1ed5e" style="font-size:6.75px; font-family:Arial;" text-anchor="middle"><textPath startOffset="21.466115282336823" xlink:href="#id100">April</textPath></text><path d="M 120.99513854157772 99.54816195383933 l 42.329591466486626 -0.9109785041484807 a63.33939295212767,63.33939295212767 0 0,0 0.014076404575037981,1.090233047078801 l -42.339000878179384 0.18220919900921695" fill="red" stroke="none" /><path d="M 120.99824983174949 100.27111621757518 l 25.332601336913704 0.3270786427838163 a46.33471276595745,46.33471276595745 0 0,0 -0.017161356733419137,0.7974208131455619 l -25.323217917495278 -0.763089271719493" fill="red" stroke="none" /><path d="M 120.89721153311464 102.0752229133903 l 41.82886733976027 4.153866357101275 a63.034613696808506,63.034613696808506 0 0,0 -0.11651707759430371,1.0788034291049657 l -41.751167960664915 -4.873266108091031" fill="red" stroke="none" /><path d="M 120.81339534386255 102.79330883721812 l 41.6895768410995 5.595044032278287 a63.063349069148934,63.063349069148934 0 0,0 -0.15365219529496835,1.0746430960226183 l -41.58709059478793 -6.311832600281315" fill="red" stroke="none" /><path d="M 120.64145759157962 103.86396538481128 l 28.96578413530725 5.422232744280627 a50.46892021276596,50.46892021276596 0 0,0 -0.16719648389752323,0.8525312692943741 l -28.868157718434063 -5.920027740642945" fill="red" stroke="none" /><path d="M 120.41448212921028 104.9243191809786 l 40.99914828563868 9.889689634491187 a63.175065159574466,63.175065159574466 0 0,0 -0.2640979018896635,1.0549398378913464 l -40.822839069453956 -10.59395731177993" fill="red" stroke="none" /><path d="M 120.13307415673323 105.97154293290107 l 36.23134103439113 10.746347369464665 a58.79145478723404,58.79145478723404 0 0,0 -0.2961219962812152,0.9677438173510498 l -36.04099226560378 -11.36841815936777" fill="red" stroke="none" /><line stroke="#e1ed5e" stroke-width="0.3" x1="174.80103733775053" x2="179.2010983576182" y1="140.37084112569926" y2="142.7455964860345" /><path d="M 175.68104954172406 140.8457921977663 a86.0,86.0 0 0,1 -30.038265399797805,32.042727171017184" fill="none" id="id101" stroke="none" /><text fill="#e1ed5e" style="font-size:6.75px; font-family:Arial;" text-anchor="middle"><textPath startOffset="22.206326154141568" xlink:href="#id101">May</textPath></text><line stroke="#e1ed5e" stroke-width="0.3" x1="143.8653032363475" x2="146.44561519142675" y1="172.8068346515853" y2="177.08958963109032" /><path d="M 144.38136562736335 173.6633856474863 a86.0,86.0 0 0,1 -40.68145358897372,12.25698825130547" fill="none" id="id102" stroke="none" /><text fill="#e1ed5e" style="font-size:6.75px; font-family:Arial;" text-anchor="middle"><textPath startOffset="21.466115282336833" xlink:href="#id102">June</textPath></text><line stroke="#e1ed5e" stroke-width="0.3" x1="102.19456741930631" x2="102.32365962044197" y1="184.97166512339345" y2="189.96999836594603" /><path d="M 102.22038585953345 185.97133177190398 a86.0,86.0 0 0,1 -42.740103519485714,-10.115201625700543" fill="none" id="id103" stroke="none" /><text fill="#e1ed5e" style="font-size:6.75px; font-family:Arial;" text-anchor="middle"><textPath startOffset="22.20632615414155" xlink:href="#id103">July</textPath></text><line stroke="#e1ed5e" stroke-width="0.3" x1="58.666819895761336" x2="56.23545636021788" y1="174.27360380694188" y2="178.64263932499728" /><path d="M 58.180547188652646 175.14741091055294 a86.0,86.0 0 0,1 -31.652253787137756,-30.449443065178592" fill="none" id="id104" stroke="none" /><text fill="#e1ed5e" style="font-size:6.75px; font-family:Arial;" text-anchor="middle"><textPath startOffset="22.20632615414155" xlink:href="#id104">August</textPath></text><line stroke="#e1ed5e" stroke-width="0.3" x1="26.63291911575756" x2="22.317208475507996" y1="142.92168965132927" y2="145.44649492493687" /><path d="M 25.769776987707644 143.4266507060508 a86.0,86.0 0 0,1 -11.730757126820373,-40.83630448921669" fill="none" id="id105" stroke="none" /><text fill="#e1ed5e" style="font-size:6.75px; font-family:Arial;" text-anchor="middle"><textPath startOffset="21.46611528233685" xlink:href="#id105">September</textPath></text><line stroke="#e1ed5e" stroke-width="0.3" x1="15.007084014347285" x2="10.007500721073583" y1="101.09737516637583" y2="101.16192664675087" /><path d="M 14.007167355692545 101.11028546245083 a86.0,86.0 0 0,1 10.666146001902534,-42.60595125391555" fill="none" id="id106" stroke="none" /><text fill="#e1ed5e" style="font-size:6.75px; font-family:Arial;" text-anchor="middle"><textPath startOffset="22.20632615414155" xlink:href="#id106">October</textPath></text><line stroke="#e1ed5e" stroke-width="0.3" x1="26.266209847984243" x2="21.928928074336255" y1="57.711370442889674" y2="55.22380399835377" /><path d="M 25.398753493254645 57.213857153982495 a86.0,86.0 0 0,1 29.58750427330803,-30.492523968695096" fill="none" id="id107" stroke="none" /><text fill="#e1ed5e" style="font-size:6.75px; font-family:Arial;" text-anchor="middle"><textPath startOffset="21.46611528233685" xlink:href="#id107">November</textPath></text><line stroke="#e1ed5e" stroke-width="0.3" x1="56.762969772571076" x2="54.21961505331055" y1="26.818313649435495" y2="22.513508569990535" /><path d="M 56.25429882871897 25.957352633546506 a86.0,86.0 0 0,1 42.265352541879196,-11.944610805530505" fill="none" id="id108" stroke="none" /><text fill="#e1ed5e" style="font-size:6.75px; font-family:Arial;" text-anchor="middle"><textPath startOffset="22.20632615414155" xlink:href="#id108">December</textPath></text></svg>