<?xml version="1.0" encoding="utf-8" ?>
<svg baseProfile="full" height="200mm" version="1.1" viewBox="0,0,200,200" width="200mm" xmlns="http://www.w3.org/2000/svg" xmlns:ev="http://www.w3.org/2001/xml-events" xmlns:xlink="http://www.w3.org/1999/xlink"><defs /><rect fill="#1a1a1a" height="200" width="200" x="0" y="0" /><text alignment-baseline="middle" fill="#e1ed5e" style="dominant-baseline: central; font-size:9.0px; font-family:Arial;" text-anchor="middle" x="100.0" y="100.0">2025</text><line stroke="#e1ed5e" stroke-width="0.3" x1="100.0" x2="100.0" y1="15.0" y2="10.0" /><path d="M 100.0 14.0 a86.0,86.0 0 0,1 42.46469731375804,11.215312516191453" fill="none" id="id85" stroke="none" /><text fill="#e1ed5e" style="font-size:6.75px; font-family:Arial;" text-anchor="middle"><textPath startOffset="22.20632615414155" xlink:href="#id85">January</textPath></text><path d="M 100.0 79.0 l 0.0 -34.15675901848315 a55.15675901848315,55.15675901848315 0 0,0 0.9494329373866972,0.008172069038763186 l -0.5879524581141689 34.151698326052944" fill="red" stroke="none" /><path d="M 100.72285384407766 79.0124445844662 l 0.8223759551537149 -23.87711025209243 a44.891268199955235,44.891268199955235 0 0,0 0.7720425264801478,0.03324577522482965 l -1.2332593140231942 23.859416750343403" fill="red" stroke="none" /><path d="M 101.44485096284872 79.0497635885617 l 2.9166248250544515 -42.290852952671294 a63.39130740888503,63.39130740888503 0 0,0 1.087945195205232,0.08444548591876214 l -3.644160209622025 42.23438220456407" fill="red" stroke="none" /><path d="M 102.52436894288641 79.15227682838746 l 2.880800299340448 -23.791342910706515 a44.96512065188709,44.96512065188709 0 0,0 0.7675873087890095,0.09965486258408247 l -3.2899023366373035 23.738229724958295" fill="red" stroke="none" /><path d="M 102.88285421437855 79.19881850522331 l 3.9793117631129182 -28.712650745904877 a49.98708738325327,49.98708738325327 0 0,0 0.851282525060702,0.1254569155154802 l -4.4729632686022756 28.63989934622843" fill="red" stroke="none" /><path d="M 103.2404852339499 79.25152402106235 l 3.5840686572622054 -22.948403425194495 a44.22659613256854,44.22659613256854 0 0,0 0.751158816779932,0.12394764094579054 l -3.9785566801810126 22.88330952130908" fill="red" stroke="none" /><path d="M 103.95276090670814 79.375362276772 l 7.569096700318782 -39.49388314158475 a61.2126600768953,61.2126600768953 0 0,0 1.0331344236724929,0.2072370461646602 l -8.2477975334584 39.35774213934288" fill="red" stroke="none" /><path d="M 104.66035177308747 79.52364482259891 l 7.244135959328867 -31.828820672549867 a53.64278375388011,53.64278375388011 0 0,0 0.8985838423812661,0.21266576341209137 l -7.7909434886726565 31.699408996996908" fill="red" stroke="none" /><path d="M 105.36241919743992 79.69619591428918 l 5.544389284243474 -20.992800013832763 a42.7126208679655,42.7126208679655 0 0,0 0.7092371930212831,0.1938613164428966 l -5.904924366488467 20.894252156563574" fill="red" stroke="none" /><path d="M 105.71112130821622 79.79150937346287 l 6.02543302702905 -21.320665465881202 a43.155735579556634,43.155735579556634 0 0,0 0.7131172574974903,0.2081784824262691 l -6.391540502249967 21.213788654536227" fill="red" stroke="none" /><path d="M 106.40334571778207 80.00007090966166 l 12.926009369898443 -40.37253058211596 a63.39130740888503,63.39130740888503 0 0,0 1.0363487978086543,0.3416679047595039 l -13.619040989949514 40.14404895309721" fill="red" stroke="none" /><path d="M 107.08798089147638 80.2323363322302 l 7.559069565835145 -21.081482456928505 a43.39572359364438,43.39572359364438 0 0,0 0.7009807823262941,0.2581771379509478 l -7.920832673934016 20.94824205117123" fill="red" stroke="none" /><path d="M 107.4271985657038 80.35727306442388 l 6.616004658210913 -17.49736078227792 a39.70639334512845,39.70639334512845 0 0,0 0.6372249054501654,0.2472333634317801 l -6.916212728660745 17.38088471495559" fill="red" stroke="none" /><path d="M 108.09893153111575 80.62456947434976 l 6.949063548173609 -16.624550717422537 a39.01846749179045,39.01846749179045 0 0,0 0.6174509758882165,0.2643602844238308 l -7.234198281852141 16.502470905035914" fill="red" stroke="none" /><path d="M 108.76106565485865 80.91482961587045 l 4.851560128721412 -10.56867455777462 a32.62903768979841,32.62903768979841 0 0,0 0.5084253369727938,0.23871251294819892 l -5.032763676993804 10.48359706218642" fill="red" stroke="none" /><path d="M 110.36928655335952 81.73862282372117 l 7.987868087930323 -14.067455001597667 a37.177123564223365,37.177123564223365 0 0,0 0.5537678918299671,0.32077810619208086 l -8.22883271222562 13.927872738015537" fill="red" stroke="none" /><line stroke="#e1ed5e" stroke-width="0.3" x1="143.23703022742887" x2="145.7803849466894" y1="26.81831364943548" y2="22.513508569990506" /><path d="M 143.74570117128098 25.957352633546492 a86.0,86.0 0 0,1 28.547481713284135,27.462654790039103" fill="none" id="id86" stroke="none" /><text fill="#e1ed5e" style="font-size:6.75px; font-family:Arial;" text-anchor="middle"><textPath startOffset="19.985693538727396" xlink:href="#id86">February</textPath></text><path d="M 110.99172775467656 82.1063720568725 l 7.2354603808058675 -11.778733875235936 a34.82354725191193,34.82354725191193 0 0,0 0.5080603773545391,0.3181473616898638 l -7.43713991053267 11.652442172223129" fill="red" stroke="none" /><path d="M 111.90073688211348 82.69761687909136 l 12.722719330555442 -18.497456617826398 a43.45046744485421,43.45046744485421 0 0,0 0.6125871609978886,0.42915645414547304 l -13.03923763113698 18.27571532091699" fill="red" stroke="none" /><path d="M 112.77801427241765 83.33499621200491 l 9.149876361107848 -11.933209727797463 a36.03734457379893,36.03734457379893 0 0,0 0.4890223810492691,0.3816897251534316 l -9.35393129731655 11.773941613420806" fill="red" stroke="none" /><path d="M 113.06298171725822 83.55741782278167 l 24.424699931525204 -30.743757012797424 a60.26505522735169,60.26505522735169 0 0,0 0.8066810576062765,0.6522799810103586 l -24.950284387695973 30.318770934522934" fill="red" stroke="none" /><path d="M 113.6212207817346 84.01681056812373 l 14.519013130959133 -17.03666220190778 a43.384137269032216,43.384137269032216 0 0,0 0.5642131870729874,0.48928011598062526 l -14.810120116678885 16.784217092507486" fill="red" stroke="none" /><path d="M 113.89432698308785 84.25364557470407 l 14.884320575968944 -16.868308011911008 a43.49628445305832,43.49628445305832 0 0,0 0.55714393325105,0.5002093242983896 l -15.172475496815984 16.60959967884332" fill="red" stroke="none" /><path d="M 114.42810811169701 84.74124197986012 l 15.50964121852752 -16.40255676631907 a43.574163089686564,43.574163089686564 0 0,0 0.5405618871632681,0.5200201071644421 l -15.789686349303206 16.133153572392327" fill="red" stroke="none" /><path d="M 114.94478906791727 85.2469230424477 l 26.456891093390613 -26.11750146385756 a58.17648408661224,58.17648408661224 0 0,0 0.6973857169860805,0.7187172832893438 l -26.902541074079803 25.658219985018103" fill="red" stroke="none" /><path d="M 115.4437574822437 85.77008943001954 l 16.497170887570544 -15.200527893404136 a43.432402803352616,43.432402803352616 0 0,0 0.5018642258837825,0.5541710130164076 l -16.75637875407036 14.91430409311818" fill="red" stroke="none" /><path d="M 115.9244219780498 86.31012108654704 l 24.052240298028643 -20.677187387470273 a52.718391220405124,52.718391220405124 0 0,0 0.5856495783692599,0.6932243774031599 l -24.40460048988502 20.260104060438007" fill="red" stroke="none" /><path d="M 116.15771136456269 86.58626213691792 l 14.362074635898502 -11.923044049325137 a39.66623066527537,39.66623066527537 0 0,0 0.43160921526954354,0.5291018638723917 l -14.565182343244453 11.674058015844645" fill="red" stroke="none" /><path d="M 116.60985879189232 87.15038557335679 l 36.2403951091783 -28.0360663902486 a66.81907088001438,66.81907088001438 0 0,0 0.6959494501585458,0.9157878981310686 l -36.71762049956096 27.408093716236497" fill="red" stroke="none" /><path d="M 117.2510076193507 88.02491185347247 l 23.715552169752335 -16.462564618996186 a49.86942064799482,49.86942064799482 0 0,0 0.48343780739077363,0.7093853292537439 l -23.995414442811843 16.051901266472036" fill="red" stroke="none" /><path d="M 117.45458315368197 88.32363383020206 l 28.92985127447454 -19.35282749203345 a55.80615213866109,55.80615213866109 0 0,0 0.5272442072398997,0.8030290997722418 l -29.258692117072364 18.851980328283535" fill="red" stroke="none" /><line stroke="#e1ed5e" stroke-width="0.3" x1="172.23445277983987" x2="176.4835382374775" y1="55.19839476539836" y2="52.563006222186495" /><path d="M 173.08426987136738 54.67131705675599 a86.0,86.0 0 0,1 12.851231095245387,41.99856678651699" fill="none" id="id87" stroke="none" /><text fill="#e1ed5e" style="font-size:6.75px; font-family:Arial;" text-anchor="middle"><textPath startOffset="22.20632615414155" xlink:href="#id87">March</textPath></text><path d="M 117.84615892207809 88.93136811851018 l 19.66999078245729 -12.199817789024001 a44.146146363214356,44.146146363214356 0 0,0 0.39496968896152607,0.6492263183655996 l -19.87707626970504 11.85942369745132" fill="red" stroke="none" /><path d="M 118.03404312379186 89.2402003453031 l 35.01052526871542 -20.88861799382647 a61.76850795998514,61.76850795998514 0 0,0 0.5369163595475175,0.9177641024617933 l -35.364901302733266 20.282874479010783" fill="red" stroke="none" /><path d="M 118.3937258080291 89.86733742301442 l 22.827726678880847 -12.575247356127466 a47.06227064922547,47.06227064922547 0 0,0 0.3847719382314559,0.712923964813014 l -23.04080671633077 12.180442407981992" fill="red" stroke="none" /><path d="M 118.89224826269711 90.83032412892265 l 24.993500699372394 -12.131023111172635 a48.781950956211354,48.781950956211354 0 0,0 0.36015437067494654,0.7585769554572387 l -25.198613263889097 11.699003740074856" fill="red" stroke="none" /><path d="M 119.04729006885535 91.15688171328212 l 20.322287385534885 -9.435063494980389 a43.405708820177544,43.405708820177544 0 0,0 0.3087958251570542,0.6803906682958286 l -20.481685527655284 9.083850817842498" fill="red" stroke="none" /><path d="M 119.196687751892 91.48605970444005 l 37.22722999568112 -16.510682345243076 a61.72430827720542,61.72430827720542 0 0,0 0.42239792990327313,0.9749526597785367 l -37.50591863542707 15.867430540877935" fill="red" stroke="none" /><path d="M 119.47837535516314 92.15188598940014 l 24.316390507105503 -9.797419011922191 a47.21595442834811,47.21595442834811 0 0,0 0.297250177329491,0.7564692786768104 l -24.481434234316694 9.377400728349595" fill="red" stroke="none" /><path d="M 119.7369772167798 92.82701384747503 l 29.52119014996519 -10.728851020394794 a52.41033129542298,52.41033129542298 0 0,0 0.30085257006668875,0.850550728821316 l -29.701495800841688 10.219102665146863" fill="red" stroke="none" /><path d="M 119.97218684219823 93.5106431181261 l 29.423646030871936 -9.56032213041547 a51.93785230082007,51.93785230082007 0 0,0 0.2689503153605256,0.8526459969941401 l -29.58385183000067 9.05242596699491" fill="red" stroke="none" /><path d="M 120.08093135843002 93.85539295169968 l 53.070555702876526 -16.23917261647394 a76.49950098766436,76.49950098766436 0 0,0 0.37446178930616203,1.262498998613299 l -53.34222338929439 15.323244231114112" fill="red" stroke="none" /><path d="M 120.28053869075195 94.5502522615342 l 37.327362690392846 -10.03053782282538 a59.651567813418154,59.651567813418154 0 0,0 0.25793243653075026,0.9939188952157217 l -37.494491458793895 9.386522502060808" fill="red" stroke="none" /><path d="M 120.45610955862082 95.25157060432595 l 30.69138641008355 -7.124320536414723 a52.50741409380722,52.50741409380722 0 0,0 0.19679181967575946,0.8821791406083376 l -30.809472616761347 6.5949632262564215" fill="red" stroke="none" /><path d="M 120.6074358757038 95.95851677861258 l 30.647307304267468 -6.010479857755289 a52.231127311108835,52.231127311108835 0 0,0 0.1654340772604944,0.8837554558324208 l -30.74622710543782 5.482046324460305" fill="red" stroke="none" /><path d="M 120.67395015179393 96.31383870115 l 62.02185045538181 -11.058483896549978 a84.0,84.0 0 0,0 0.2415525539191079,1.4256568467366484 l -62.20301487082114 9.98924126149749" fill="red" stroke="none" /><path d="M 120.78858239683441 97.02765380044208 l 37.139867297250184 -5.31024873681992 a58.51757567466548,58.51757567466548 0 0,0 0.13398853161303603,0.9983701919559816 l -37.22577182792105 4.670160202799274" fill="red" stroke="none" /><path d="M 120.87857604477298 97.74499172005257 l 31.455486555579338 -3.397376453283776 a52.638422862297666,52.638422862297666 0 0,0 0.08954265543788383,0.9016823204140746 l -31.509306336699453 2.8554186021652663" fill="red" stroke="none" /><line stroke="#e1ed5e" stroke-width="0.3" x1="184.98032266829074" x2="189.97916517819016" y1="98.17113171792111" y2="98.06355123074" /><path d="M 185.9800911702706 98.14961562048488 a86.0,86.0 0 0,1 -9.607161424134198,41.387399972396054" fill="none" id="id88" stroke="none" /><text fill="#e1ed5e" style="font-size:6.75px; font-family:Arial;" text-anchor="middle"><textPath startOffset="21.466115282336823" xlink:href="#id88">April</textPath></text><path d="M 120.99513854157772 99.54816195383933 l 37.36769473425751 -0.8041931299866713 a58.37634728465282,58.37634728465282 0 0,0 0.01297342844148761,1.0048063300129788 l -37.37600116981672 0.16085054191322964" fill="red" stroke="none" /><line stroke="#e1ed5e" stroke-width="0.3" x1="174.80103733775053" x2="179.2010983576182" y1="140.37084112569926" y2="142.7455964860345" /><path d="M 175.68104954172406 140.8457921977663 a86.0,86.0 0 0,1 -30.038265399797805,32.042727171017184" fill="none" id="id89" stroke="none" /><text fill="#e1ed5e" style="font-size:6.75px; font-family:Arial;" text-anchor="middle"><textPath startOffset="22.206326154141568" xlink:href="#id89">May</textPath></text><line stroke="#e1ed5e" stroke-width="0.3" x1="143.8653032363475" x2="146.44561519142675" y1="172.8068346515853" y2="177.08958963109032" /><path d="M 144.38136562736335 173.6633856474863 a86.0,86.0 0 0,1 -40.68145358897372,12.25698825130547" fill="none" id="id90" stroke="none" /><text fill="#e1ed5e" style="font-size:6.75px; font-family:Arial;" text-anchor="middle"><textPath startOffset="21.466115282336833" xlink:href="#id90">June</textPath></text><line stroke="#e1ed5e" stroke-width="0.3" x1="102.19456741930631" x2="102.32365962044197" y1="184.97166512339345" y2="189.96999836594603" /><path d="M 102.22038585953345 185.97133177190398 a86.0,86.0 0 0,1 -42.740103519485714,-10.115201625700543" fill="none" id="id91" stroke="none" /><text fill="#e1ed5e" style="font-size:6.75px; font-family:Arial;" text-anchor="middle"><textPath startOffset="22.20632615414155" xlink:href="#id91">July</textPath></text><line stroke="#e1ed5e" stroke-width="0.3" x1="58.666819895761336" x2="56.23545636021788" y1="174.27360380694188" y2="178.64263932499728" /><path d="M 58.180547188652646 175.14741091055294 a86.0,86.0 0 0,1 -31.652253787137756,-30.449443065178592" fill="none" id="id92" stroke="none" /><text fill="#e1ed5e" style="font-size:6.75px; font-family:Arial;" text-anchor="middle"><textPath startOffset="22.20632615414155" xlink:href="#id92">August</textPath></text><line stroke="#e1ed5e" stroke-width="0.3" x1="26.63291911575756" x2="22.317208475507996" y1="142.92168965132927" y2="145.44649492493687" /><path d="M 25.769776987707644 143.4266507060508 a86.0,86.0 0 0,1 -11.730757126820373,-40.83630448921669" fill="none" id="id93" stroke="none" /><text fill="#e1ed5e" style="font-size:6.75px; font-family:Arial;" text-anchor="middle"><textPath startOffset="21.46611528233685" xlink:href="#id93">September</textPath></text><line stroke="#e1ed5e" stroke-width="0.3" x1="15.007084014347285" x2="10.007500721073583" y1="101.09737516637583" y2="101.16192664675087" /><path d="M 14.007167355692545 101.11028546245083 a86.0,86.0 0 0,1 10.666146001902534,-42.60595125391555" fill="none" id="id94" stroke="none" /><text fill="#e1ed5e" style="font-size:6.75px; font-family:Arial;" text-anchor="middle"><textPath startOffset="22.20632615414155" xlink:href="#id94">October</textPath></text><line stroke="#e1ed5e" stroke-width="0.3" x1="26.266209847984243" x2="21.928928074336255" y1="57.711370442889674" y2="55.22380399835377" /><path d="M 25.398753493254645 57.213857153982495 a86.0,86.0 0 0,1 29.58750427330803,-30.492523968695096" fill="none" id="id95" stroke="none" /><text fill="#e1ed5e" style="font-size:6.75px; font-family:Arial;" text-anchor="middle"><textPath startOffset="21.46611528233685" xlink:href="#id95">November</textPath></text><line stroke="#e1ed5e" stroke-width="0.3" x1="56.762969772571076" x2="54.21961505331055" y1="26.818313649435495" y2="22.513508569990535" /><path d="M 56.25429882871897 25.957352633546506 a86.0,86.0 0 0,1 42.265352541879196,-11.944610805530505" fill="none" id="id96" stroke="none" /><text fill="#e1ed5e" style="font-size:6.75px; font-family:Arial;" text-anchor="middle"><textPath startOffset="22.20632615414155" xlink:href="#id96">December</textPath></text></svg>