<?xml version="1.0" encoding="utf-8" ?>
<svg baseProfile="full" height="200mm" version="1.1" viewBox="0,0,200,200" width="200mm" xmlns="http://www.w3.org/2000/svg" xmlns:ev="http://www.w3.org/2001/xml-events" xmlns:xlink="http://www.w3.org/1999/xlink"><defs /><rect fill="#1a1a1a" height="200" width="200" x="0" y="0" /><text alignment-baseline="middle" fill="#e1ed5e" style="dominant-baseline: central; font-size:9.0px; font-family:Arial;" text-anchor="middle" x="100.0" y="100.0">2024</text><line stroke="#e1ed5e" stroke-width="0.3" x1="100.0" x2="100.0" y1="15.0" y2="10.0" /><path d="M 100.0 14.0 a86.0,86.0 0 0,1 42.35913384403234,11.155469271406648" fill="none" id="id73" stroke="none" /><text fill="#e1ed5e" style="font-size:6.75px; font-family:Arial;" text-anchor="middle"><textPath startOffset="22.145653131862478" xlink:href="#id73">January</textPath></text><line stroke="#e1ed5e" stroke-width="0.3" x1="143.13028292997686" x2="145.6673583964461" y1="26.7553504044142" y2="22.446841604673864" /><path d="M 143.63769802327073 25.89364864446614 a86.0,86.0 0 0,1 29.32050498858742,28.57503671076993" fill="none" id="id74" stroke="none" /><text fill="#e1ed5e" style="font-size:6.75px; font-family:Arial;" text-anchor="middle"><textPath startOffset="20.669276256404974" xlink:href="#id74">February</textPath></text><line stroke="#e1ed5e" stroke-width="0.3" x1="172.87174338648825" x2="177.1583165268699" y1="56.24261187166439" y2="53.66864786411523" /><path d="M 173.72905801456457 55.72781907015455 a86.0,86.0 0 0,1 12.242430191666344,42.057860355516425" fill="none" id="id75" stroke="none" /><text fill="#e1ed5e" style="font-size:6.75px; font-family:Arial;" text-anchor="middle"><textPath startOffset="22.145653131862474" xlink:href="#id75">March</textPath></text><line stroke="#e1ed5e" stroke-width="0.3" x1="184.99686870605535" x2="189.99668451229388" y1="99.2704041080226" y2="99.22748670261217" /><path d="M 185.99683186730306 99.26182062694052 a86.0,86.0 0 0,1 -10.086455211305974,41.156179273409016" fill="none" id="id76" stroke="none" /><text fill="#e1ed5e" style="font-size:6.75px; font-family:Arial;" text-anchor="middle"><textPath startOffset="21.40746469413373" xlink:href="#id76">April</textPath></text><path d="M 120.7213421655516 103.40968896794604 l 5.987297849528936 0.9852075827059436 a27.06781422919284,27.06781422919284 0 0,0 -0.07937982282814943,0.45784172370574006 l -5.969503209208552 -1.0878423393322716" fill="red" stroke="none" /><path d="M 120.51834098615036 104.47187691870673 l 9.41904006529983 2.052835942867858 a30.640147880611252,30.640147880611252 0 0,0 -0.11641671433998747,0.5129535237073387 l -9.38241248940218 -2.2142238005142136" fill="red" stroke="none" /><path d="M 120.35273937422433 105.17358676015961 l 5.379416728003567 1.3674266962130277 a26.550493681019795,26.550493681019795 0 0,0 -0.11607688617834074,0.4407628436061998 l -5.355150361020495 -1.4595700441920307" fill="red" stroke="none" /><path d="M 120.16314734710363 105.8691983318838 l 5.741512907983479 1.671270729808287 a26.97980905421359,26.97980905421359 0 0,0 -0.13325928955725835,0.4435768347010705 l -5.711977298422591 -1.769585168100081" fill="red" stroke="none" /><path d="M 119.4528033332814 107.91128576633889 l 5.6241712748499655 2.2873014954121276 a27.07149492792031,27.07149492792031 0 0,0 -0.17876746172686497,0.42897683013510557 l -5.584077968586615 -2.3835108349885106" fill="red" stroke="none" /><path d="M 119.0197475246899 108.90220220490707 l 7.555207836909725 3.5362187524813384 a29.34182285380736,29.34182285380736 0 0,0 -0.21743791644372928,0.4543616170799324 l -7.4933906625060835 -3.6653928716263744" fill="red" stroke="none" /><path d="M 118.70294669586154 109.54985784667822 l 5.419452350995689 2.7672109855452303 a27.085057142150344,27.085057142150344 0 0,0 -0.21499335604518494,0.4122781081532178 l -5.371150925975555 -2.8598353368029508" fill="red" stroke="none" /><line stroke="#e1ed5e" stroke-width="0.3" x1="174.33088141563837" x2="178.70328620479359" y1="141.23008692659167" y2="143.65538615756765" /><path d="M 175.20536237346943 141.71514677278685 a86.0,86.0 0 0,1 -30.301960400862466,31.631185727798858" fill="none" id="id77" stroke="none" /><text fill="#e1ed5e" style="font-size:6.75px; font-family:Arial;" text-anchor="middle"><textPath startOffset="22.145653131862474" xlink:href="#id77">May</textPath></text><path d="M 116.79662413953412 112.60449989151573 l 5.208700325588572 3.908705829422706 a27.512183991776457,27.512183991776457 0 0,0 -0.28671366977451607,0.37531739736728925 l -5.140834678459752 -3.9975441400308727" fill="red" stroke="none" /><path d="M 116.1254893667686 113.45245675266167 l 5.09496820507218 4.250403685494757 a27.635106065494647,27.635106065494647 0 0,0 -0.30702002300654363,0.36166881511084126 l -5.0212536185585215 -4.337239283055156" fill="red" stroke="none" /><path d="M 115.41159269507618 114.26474011684316 l 4.642067493502471 4.296628369942198 a27.32533050232353,27.32533050232353 0 0,0 -0.3215855249941854,0.3415126833416159 l -4.567626134772025 -4.375682513228311" fill="red" stroke="none" /><path d="M 113.59037401385872 116.0094264158162 l 4.212669659651287 4.962514266462028 a27.50946491704085,27.50946491704085 0 0,0 -0.36263456869094396,0.30252265474735424 l -4.1268607567984485 -5.0340991051212525" fill="red" stroke="none" /><path d="M 112.7482090630111 116.68781488649013 l 4.12658728422112 5.401835220276861 a27.797686839015093,27.797686839015093 0 0,0 -0.38168475786783473,0.28642335800173224 l -4.033249537442519 -5.471877605542608" fill="red" stroke="none" /><line stroke="#e1ed5e" stroke-width="0.3" x1="143.1302829299769" x2="145.66735839644613" y1="173.24464959558577" y2="177.55315839532614" /><path d="M 143.63769802327073 174.10635135553383 a86.0,86.0 0 0,1 -40.68552437913181,11.842963189579606" fill="none" id="id78" stroke="none" /><text fill="#e1ed5e" style="font-size:6.75px; font-family:Arial;" text-anchor="middle"><textPath startOffset="21.407464694133747" xlink:href="#id78">June</textPath></text><path d="M 110.34350942703117 118.27599006163325 l 3.312255750614506 5.852438537119723 a27.72473605342566,27.72473605342566 0 0,0 -0.41620877012765256,0.2308639887641978 l -3.2113027923307587 -5.9084354413170646" fill="red" stroke="none" /><path d="M 109.06512990194946 118.94263497670748 l 2.9859073886302943 6.239398039394234 a27.917060851797793,27.917060851797793 0 0,0 -0.43405883064990103,0.20316144965935565 l -2.878359844108887 -6.289735720624123" fill="red" stroke="none" /><path d="M 107.74402155503746 119.51999308798841 l 5.342145594625033 13.465696646243885 a35.486666480693046,35.486666480693046 0 0,0 -0.5681715039261968,0.2197809434327135 l -5.110201828205307 -13.555417477814638" fill="red" stroke="none" /><path d="M 103.2317021107853 120.74984581791261 l 1.0302808755266215 6.6151422945125695 a27.694892550229984,27.694892550229984 0 0,0 -0.4703844226457037,0.06913031155170633 l -0.9165713472732323 -6.631853679363159" fill="red" stroke="none" /><path d="M 101.80034050326958 120.92268563240118 l 0.5733879316075453 6.663636915711293 a27.688260660630945,27.688260660630945 0 0,0 -0.47390568391313687,0.03668329712389352 l -0.4589132529191727 -6.67249797983024" fill="red" stroke="none" /><line stroke="#e1ed5e" stroke-width="0.3" x1="101.45913802915013" x2="101.54496967792366" y1="184.9874750549273" y2="189.98673829345242" /><path d="M 101.47630435890484 185.9873277026323 a86.0,86.0 0 0,1 -42.54439059252881,-10.42667462771756" fill="none" id="id79" stroke="none" /><text fill="#e1ed5e" style="font-size:6.75px; font-family:Arial;" text-anchor="middle"><textPath startOffset="22.145653131862474" xlink:href="#id79">July</textPath></text><path d="M 100.36049292484886 120.99690560180557 l 0.059628133144171654 3.4730398200325268 a24.473551655840723,24.473551655840723 0 0,0 -0.42012105799302346,0.0036062340026306217 l -4.2538739169983296e-16 -3.4735516558407227" fill="red" stroke="none" /><path d="M 99.27912038922189 120.98762331915562 l -0.23892587121553224 6.95606604944773 a27.960168134191548,27.960168134191548 0 0,0 -0.4795491567240527,-0.02059390416275884 l 0.3583007885404237 -6.9509395768591435" fill="red" stroke="none" /><path d="M 97.48249496171623 120.84855314841334 l -1.594820071294151 13.207398004335035 a34.303338419536495,34.303338419536495 0 0,0 -0.5840097270557093,-0.0756117514494257 l 1.8213076202406542 -13.178074656685213" fill="red" stroke="none" /><path d="M 96.76829788921471 120.74984581791261 l -2.030306499389057 13.03602416968802 a34.19318273329645,34.19318273329645 0 0,0 -0.5792040162119566,-0.09530780045469814 l 2.2537880186540775 -12.999250370737652" fill="red" stroke="none" /><path d="M 94.6519064749342 120.30758222061772 l -1.7176544715592372 6.522213802790907 a27.744598562774783,27.744598562774783 0 0,0 -0.4595279716063617,-0.12524639209143482 l 1.829363844100294 -6.491766916555328" fill="red" stroke="none" /><path d="M 93.27111125876986 119.89276391827306 l -1.77438483137173 5.24565346642806 a26.53762781519766,26.53762781519766 0 0,0 -0.4302813854615372,-0.14967420163539918 l 1.864171988878289 -5.21442083222407" fill="red" stroke="none" /><path d="M 92.59220618246901 119.65005319985036 l -2.294437680940514 6.086268544289677 a27.504391521497585,27.504391521497585 0 0,0 -0.44036853965549133,-0.17034401133243354 l 2.3985784830895334 -6.045984644819202" fill="red" stroke="none" /><line stroke="#e1ed5e" stroke-width="0.3" x1="58.13341422392154" x2="55.67067388415222" y1="173.97424548756322" y2="178.32567169271397" /><path d="M 57.64086615596768 174.84453072859336 a86.0,86.0 0 0,1 -31.369924170532247,-30.572349798747897" fill="none" id="id80" stroke="none" /><text fill="#e1ed5e" style="font-size:6.75px; font-family:Arial;" text-anchor="middle"><textPath startOffset="22.145653131862474" xlink:href="#id80">August</textPath></text><path d="M 87.2517909369889 116.68781488649013 l -5.822815954976694 7.622252999967736 a30.591867724330246,30.591867724330246 0 0,0 -0.41457815854185315,-0.3223784836357182 l 5.952804058153776 -7.521173464711224" fill="red" stroke="none" /><path d="M 83.4222238831116 112.89097897827486 l -6.160939202211347 4.790783587747167 a28.804407680149225,28.804407680149225 0 0,0 -0.3001803649657816,-0.39294573365937197 l 6.242271544531424 -4.684316940846924" fill="red" stroke="none" /><path d="M 82.78059297857968 112.02048342749411 l -11.308786203694503 7.894411054775752 a34.79167761016174,34.79167761016174 0 0,0 -0.3376619509696871,-0.4926588776144343 l 11.442637891479514 -7.699117442091266" fill="red" stroke="none" /><path d="M 82.18462484594161 111.11811171558189 l -6.65294778113523 4.151931465318824 a28.84220945086375,28.84220945086375 0 0,0 -0.2585251330733166,-0.422281375957244 l 6.723240878663952 -4.037112973237022" fill="red" stroke="none" /><line stroke="#e1ed5e" stroke-width="0.3" x1="26.387840678322732" x2="22.057713659400548" y1="142.50000000000003" y2="145.00000000000006" /><path d="M 25.521815274538298 143.00000000000003 a86.0,86.0 0 0,1 -11.493303480769221,-40.785679425670985" fill="none" id="id81" stroke="none" /><text fill="#e1ed5e" style="font-size:6.75px; font-family:Arial;" text-anchor="middle"><textPath startOffset="21.40746469413373" xlink:href="#id81">September</textPath></text><path d="M 81.29705330413844 109.54985784667822 l -7.172138367086954 3.6621449537437263 a29.053004061769208,29.053004061769208 0 0,0 -0.2229888436255104,-0.44612706155550796 l 7.233947123924201 -3.5384860360244654" fill="red" stroke="none" /><path d="M 80.5471966667186 107.91128576633889 l -21.18675386954048 8.616468354268154 a43.87186189247812,43.87186189247812 0 0,0 -0.2777325453185349,-0.7000674425293508 l 21.331545089825138 -8.251499894525237" fill="red" stroke="none" /><path d="M 80.28708602549918 107.23885506374661 l -10.327975663185345 3.7925757208908077 a32.00230484480589,32.00230484480589 0 0,0 -0.1849425844841683,-0.517317324288242 l 10.391558417713457 -3.6147234402216446" fill="red" stroke="none" /><path d="M 79.13060592940153 102.33845913500099 l -10.874397321233163 1.2184989016664183 a31.94245204117456,31.94245204117456 0 0,0 -0.056382394068355386,-0.545448516626645 l 10.893712107783184 -1.031645862756842" fill="red" stroke="none" /><path d="M 79.00696218219943 100.54070618675478 l -18.788577193616725 0.4839271008359704 a39.79480828312484,39.79480828312484 0 0,0 -0.011727280622766179,-0.683055303527269 l 18.794115905838154 -0.1613248813396491" fill="red" stroke="none" /><line stroke="#e1ed5e" stroke-width="0.3" x1="15.003131293944662" x2="10.003315487706104" y1="100.72959589197737" y2="100.7725132973878" /><path d="M 14.003168132696942 100.73817937305945 a86.0,86.0 0 0,1 10.791469493833604,-42.45332614584628" fill="none" id="id82" stroke="none" /><text fill="#e1ed5e" style="font-size:6.75px; font-family:Arial;" text-anchor="middle"><textPath startOffset="22.145653131862435" xlink:href="#id82">October</textPath></text><path d="M 79.407916724674 95.88100663000787 l -8.545031032646806 -1.7092455240807585 a29.714302933137397,29.714302933137397 0 0,0 0.1043428914070373,-0.4993185079345668 l 8.514430430415402 1.8556804833007343" fill="red" stroke="none" /><path d="M 79.56144815229197 95.17655741523228 l -22.384522222549595 -5.2826862946277044 a43.99942628891564,43.99942628891564 0 0,0 0.1797952191293174,-0.7336258493165846 l 22.29053947690398 5.666167968552407" fill="red" stroke="none" /><path d="M 79.73907114497095 94.47779374421319 l -13.516357537135907 -3.6839433513185837 a35.009402545698194,35.009402545698194 0 0,0 0.1630129605945874,-0.5784754891546168 l 13.451126084466736 3.915426764376214" fill="red" stroke="none" /><path d="M 80.05021161711548 93.44210830539832 l -6.659341302000654 -2.1890577572930456 a28.009907306184342,28.009907306184342 0 0,0 0.1540739349652866,-0.4554922115807571 l 6.620781945463002 2.3030516433479646" fill="red" stroke="none" /><path d="M 80.28708602549916 92.7611449362534 l -27.154669707804782 -9.971570848073291 a49.9276392420487,49.9276392420487 0 0,0 0.3023458924367079,-0.802008400541266 l 26.97949313155364 10.436247528808702" fill="red" stroke="none" /><path d="M 80.5471966667186 92.08871423366112 l -27.731188232290528 -11.278032836040419 a50.936813882334484,50.936813882334484 0 0,0 0.3363628403397767,-0.8071483682229449 l 27.533499547414273 11.752413713704627" fill="red" stroke="none" /><path d="M 81.63589988554816 89.8137432299009 l -30.698925745524033 -17.028176619665967 a56.10531072244963,56.10531072244963 0 0,0 0.4744014871150422,-0.8382219714597452 l 30.402090893387623 17.55265536122482" fill="red" stroke="none" /><line stroke="#e1ed5e" stroke-width="0.3" x1="26.387840678322718" x2="22.05771365940052" y1="57.49999999999999" y2="54.99999999999999" /><path d="M 25.521815274538284 56.99999999999999 a86.0,86.0 0 0,1 29.574782752854787,-30.34633250058573" fill="none" id="id83" stroke="none" /><text fill="#e1ed5e" style="font-size:6.75px; font-family:Arial;" text-anchor="middle"><textPath startOffset="21.40746469413373" xlink:href="#id83">November</textPath></text><path d="M 81.99639281039701 89.18935116829357 l -36.49548560225731 -21.91449050368345 a63.56953562561615,63.56953562561615 0 0,0 0.5698010994969114,-0.930727273813121 l 36.113916538305006 22.537754893621113" fill="red" stroke="none" /><path d="M 82.98947788004972 87.6856937992154 l -14.598397670511378 -10.56811411712406 a39.02215998538879,39.02215998538879 0 0,0 0.39746481963579916,-0.5392373631648024 l 14.414830831291761 10.817157789557724" fill="red" stroke="none" /><path d="M 84.10781606972428 86.27271002978789 l -9.207024356432742 -7.9528083527136175 a33.166201469437254,33.166201469437254 0 0,0 0.3758661428688732,-0.42766667378859163 l 9.069147149605277 8.109687304313509" fill="red" stroke="none" /><path d="M 85.08716467003674 85.21462403516908 l -12.36253468962079 -12.256872634880635 a38.408710197477674,38.408710197477674 0 0,0 0.46823524514002146,-0.464233258545411 l 12.150307524350792 12.46728590365472" fill="red" stroke="none" /><path d="M 86.40962598614128 83.9905735841838 l -11.724414090205899 -13.811330317642664 a39.11669757162309,39.11669757162309 0 0,0 0.5156431357453237,-0.43016784332238245 l 11.485596620298667 14.010560344876927" fill="red" stroke="none" /><path d="M 87.54013794807813 83.09580414077388 l -21.102492788374917 -28.629584318517697 a56.56639284682282,56.56639284682282 0 0,0 0.7865933755199244,-0.5694329435250336 l 20.607918402481026 28.98761803341581" fill="red" stroke="none" /><path d="M 88.4268655584334 82.4767994020092 l -20.761001146121195 -31.434801827926652 a58.671818837829775,58.671818837829775 0 0,0 0.845193722859828,-0.5478443598168771 l 20.21832179100434 31.786560029447436" fill="red" stroke="none" /><line stroke="#e1ed5e" stroke-width="0.3" x1="56.869717070023135" x2="54.33264160355391" y1="26.7553504044142" y2="22.446841604673864" /><path d="M 56.362301976729285 25.89364864446614 a86.0,86.0 0 0,1 42.16139366436587,-11.88097634709845" fill="none" id="id84" stroke="none" /><text fill="#e1ed5e" style="font-size:6.75px; font-family:Arial;" text-anchor="middle"><textPath startOffset="22.145653131862474" xlink:href="#id84">December</textPath></text><path d="M 89.34428304082924 81.90426304109057 l -29.15175614479459 -49.506055116494686 a78.45149588585991,78.45149588585991 0 0,0 1.1663403772944918,-0.673386930797701 l 28.297623299639696 49.99918894456856" fill="red" stroke="none" /><path d="M 90.61103034731259 81.2157712731953 l -11.434818199038467 -22.877296279116965 a46.575882238694334,46.575882238694334 0 0,0 0.7182439092656544,-0.3513290876831114 l 11.040414040510761 23.07021911689729" fill="red" stroke="none" /><path d="M 91.5904679813234 80.7573450057729 l -25.22859605602979 -57.7279649826813 a84.0,84.0 0 0,0 1.3262596993182754,-0.5661014013623844 l 24.233901281541083 58.15254103370309" fill="red" stroke="none" /><path d="M 92.25597844496254 80.48000691201159 l -9.322608322538109 -23.499062951289343 a46.2807631515371,46.2807631515371 0 0,0 0.7409941087863883,-0.28663243964503643 l 8.91784195125819 23.65563527907242" fill="red" stroke="none" /><path d="M 92.93061703081487 80.22567764915836 l -8.343006853219382 -23.336875029965686 a45.78337143160917,45.78337143160917 0 0,0 0.7423320813705985,-0.258221632126401 l 7.941168999803779 23.47665509466067" fill="red" stroke="none" /><path d="M 93.95794788825049 79.88797359093562 l -15.01393077085221 -49.976492519825335 a73.18302331003926,73.18302331003926 0 0,0 1.2062652753529663,-0.35112624135676557 l 14.153805483117619 50.22686245548462" fill="red" stroke="none" /><path d="M 96.05791012581881 79.37332000966035 l -3.950159087697342 -20.668901525181248 a42.04298569775111,42.04298569775111 0 0,0 0.710056510704894,-0.12939594947730068 l 3.5947678434414096 20.73366564858991" fill="red" stroke="none" /><path d="M 96.41257539226777 79.30868818359171 l -0.8406749229584819 -4.848789554957344 a25.921127358070983,25.921127358070983 0 0,0 0.4390822927377293,-0.07225082417958566 l 0.7573151271676798 4.862506377632599" fill="red" stroke="none" /><path d="M 97.84075906011542 79.11130261209362 l -1.832940483973115 -17.73203647287446 a38.82651924221713,38.82651924221713 0 0,0 0.6635645099177059,-0.06284024899462692 l 1.5282764106703934 17.76088847737427" fill="red" stroke="none" /></svg>