<?xml version="1.0" encoding="utf-8" ?>
<svg baseProfile="full" height="200mm" version="1.1" viewBox="0,0,200,200" width="200mm" xmlns="http://www.w3.org/2000/svg" xmlns:ev="http://www.w3.org/2001/xml-events" xmlns:xlink="http://www.w3.org/1999/xlink"><defs /><rect fill="#1a1a1a" height="200" width="200" x="0" y="0" /><text alignment-baseline="middle" fill="#e1ed5e" style="dominant-baseline: central; font-size:9.0px; font-family:Arial;" text-anchor="middle" x="100.0" y="100.0">2025</text><line stroke="#e1ed5e" stroke-width="0.3" x1="100.0" x2="100.0" y1="15.0" y2="10.0" /><path d="M 100.0 14.0 a86.0,86.0 0 0,1 42.46469731375804,11.215312516191453" fill="none" id="id85" stroke="none" /><text fill="#e1ed5e" style="font-size:6.75px; font-family:Arial;" text-anchor="middle"><textPath startOffset="22.20632615414155" xlink:href="#id85">January</textPath></text><path d="M 107.08798089147638 80.2323363322302 l 7.065648047880943 -19.705379619928973 a41.93383310103613,41.93383310103613 0 0,0 0.6773665398083059,0.24947981314278225 l -7.403796913461825 19.580836538979867" fill="red" stroke="none" /><path d="M 107.4271985657038 80.35727306442388 l 6.184139909211392 -16.35520721486554 a38.48531925524641,38.48531925524641 0 0,0 0.6176285947324055,0.23963029932024263 l -6.464751668943464 16.246334211654748" fill="red" stroke="none" /><path d="M 108.09893153111575 80.62456947434976 l 6.495454478613611 -15.539361766349405 a37.842288828696155,37.842288828696155 0 0,0 0.5988384390555161,0.2563913675007284 l -6.761976675459442 15.425250870885886" fill="red" stroke="none" /><path d="M 108.76106565485865 80.91482961587045 l 4.534869829889446 -9.878794062602541 a31.869940961447433,31.869940961447433 0 0,0 0.4965970993895733,0.23315899680352659 l -4.7042451405786165 9.799270083159012" fill="red" stroke="none" /><path d="M 110.36928655335952 81.73862282372117 l 7.466456920956934 -13.149196456515812 a36.121155590911485,36.121155590911485 0 0,0 0.5380388331412089,0.31166682015906333 l -7.691692486563471 13.018725478966699" fill="red" stroke="none" /><line stroke="#e1ed5e" stroke-width="0.3" x1="143.23703022742887" x2="145.7803849466894" y1="26.81831364943548" y2="22.513508569990506" /><path d="M 143.74570117128098 25.957352633546492 a86.0,86.0 0 0,1 28.547481713284135,27.462654790039103" fill="none" id="id86" stroke="none" /><text fill="#e1ed5e" style="font-size:6.75px; font-family:Arial;" text-anchor="middle"><textPath startOffset="19.985693538727396" xlink:href="#id86">February</textPath></text><path d="M 110.99172775467656 82.1063720568725 l 6.763149298509476 -11.00985031401129 a33.921183861042444,33.921183861042444 0 0,0 0.49489528875630895,0.30990338441741966 l -6.9516637396380485 10.891802588270926" fill="red" stroke="none" /><path d="M 111.90073688211348 82.69761687909136 l 11.8922281963726 -17.290012412943046 a41.98498560195656,41.98498560195656 0 0,0 0.5919260400841952,0.4146820185801771 l -12.188085376040444 17.082745551598933" fill="red" stroke="none" /><path d="M 112.77801427241765 83.33499621200491 l 8.552601575401614 -11.154247805071021 a35.05575461526324,35.05575461526324 0 0,0 0.47570232474617014,0.3712932099296308 l -8.743336455307215 11.005376205918166" fill="red" stroke="none" /><path d="M 113.06298171725822 83.55741782278167 l 22.830352571734146 -28.736926715564348 a57.701988442118555,57.701988442118555 0 0,0 0.7723729927214542,0.6245385785061529 l -23.321628963020093 28.339682039794067" fill="red" stroke="none" /><path d="M 113.6212207817346 84.01681056812373 l 13.571273141363468 -15.924580691109238 a41.9229951217588,41.9229951217588 0 0,0 0.545210949859704,0.47280156312042076 l -13.843377889869936 15.688614134569146" fill="red" stroke="none" /><path d="M 113.89432698308785 84.25364557470407 l 13.912733513403237 -15.76721443171719 a42.02781978120234,42.02781978120234 0 0,0 0.5383343684018729,0.4833219112583664 l -14.182078869401101 15.525393511689524" fill="red" stroke="none" /><path d="M 114.42810811169701 84.74124197986012 l 14.497235049755178 -15.331864709688986 a42.100613724819866,42.100613724819866 0 0,0 0.5222816823579323,0.5024345646250963 l -14.758999975725528 15.080047058301588" fill="red" stroke="none" /><path d="M 114.94478906791727 85.2469230424477 l 24.729905037721796 -24.41266922647273 a55.74977153789513,55.74977153789513 0 0,0 0.6682957041178802,0.6887374679443411 l -25.146465005542787 23.983367562978273" fill="red" stroke="none" /><path d="M 115.4437574822437 85.77008943001954 l 15.420303082764406 -14.208299637055198 a41.968107347604274,41.968107347604274 0 0,0 0.48494419710500275,0.5354874946363297 l -15.662590920485444 13.94075935514932" fill="red" stroke="none" /><path d="M 115.9244219780498 86.31012108654704 l 22.482211264656968 -19.327467605672826 a50.647948114448006,50.647948114448006 0 0,0 0.5626489877978997,0.6659989329263897 l -22.811570865941984 18.93760972311733" fill="red" stroke="none" /><path d="M 116.15771136456269 86.58626213691792 l 13.424569858101105 -11.144750450001293 a38.447766002209015,38.447766002209015 0 0,0 0.4183510717999115,0.5128489476391527 l -13.614419421977425 10.91201733275404" fill="red" stroke="none" /><path d="M 116.60985879189232 87.15038557335679 l 33.87478510618948 -26.205998067388787 a63.8282080024194,63.8282080024194 0 0,0 0.6647983229766142,0.8747966662537308 l -34.3208593693902 25.619016625254023" fill="red" stroke="none" /><path d="M 117.2510076193507 88.02491185347247 l 22.16750055867602 -15.387957563741141 a47.98494615526219,47.98494615526219 0 0,0 0.4651695739721219,0.6825789508934778 l -22.429094598316876 15.004100589577256" fill="red" stroke="none" /><path d="M 117.45458315368197 88.32363383020206 l 27.041441573687198 -18.089562540309853 a53.534164124546365,53.534164124546365 0 0,0 0.5057789659814794,0.7703360646901128 l -27.3488171750266 17.621408411642065" fill="red" stroke="none" /><line stroke="#e1ed5e" stroke-width="0.3" x1="172.23445277983987" x2="176.4835382374775" y1="55.19839476539836" y2="52.563006222186495" /><path d="M 173.08426987136738 54.67131705675599 a86.0,86.0 0 0,1 12.851231095245387,41.99856678651699" fill="none" id="id87" stroke="none" /><text fill="#e1ed5e" style="font-size:6.75px; font-family:Arial;" text-anchor="middle"><textPath startOffset="22.20632615414155" xlink:href="#id87">March</textPath></text><path d="M 117.84615892207809 88.93136811851018 l 18.386017431651876 -11.403465564001158 a42.63526435859675,42.63526435859675 0 0,0 0.38145202899384567,0.6270068396081042 l -18.579585258931946 11.085290951185973" fill="red" stroke="none" /><path d="M 118.03404312379186 89.2402003453031 l 32.7251771467362 -19.525091924550672 a59.10730158312734,59.10730158312734 0 0,0 0.5137840986745049,0.8782235701972821 l -33.056420919881035 18.958888941999493" fill="red" stroke="none" /><path d="M 118.3937258080291 89.86733742301442 l 21.337611971908157 -11.754378888023673 a45.36101614684689,45.36101614684689 0 0,0 0.37086281350638345,0.6871524691273998 l -21.536782884633006 11.385345435563815" fill="red" stroke="none" /><path d="M 118.89224826269711 90.83032412892265 l 23.362022990302012 -11.339157496501345 a46.96845414979225,46.96845414979225 0 0,0 0.3467654268497358,0.7303764251549617 l -23.553746610993503 10.935338655705843" fill="red" stroke="none" /><path d="M 119.04729006885535 91.15688171328212 l 18.9957284946308 -8.819179705519778 a41.94315238258034,41.94315238258034 0 0,0 0.298390942152894,0.6574648878156687 l -19.144721753747042 8.490892808862046" fill="red" stroke="none" /><path d="M 119.196687751892 91.48605970444005 l 34.79718329335991 -15.432930140988669 a59.06598610161468,59.06598610161468 0 0,0 0.40420623500500624,0.9329637197972106 l -35.05768023820759 14.831667276604856" fill="red" stroke="none" /><path d="M 119.47837535516314 92.15188598940014 l 22.72910393036916 -9.157878711739016 a45.50467114605796,45.50467114605796 0 0,0 0.286476716000997,0.7290519947133947 l -22.883374196251857 8.765277712129837" fill="red" stroke="none" /><path d="M 119.61058180528143 92.48833698450437 l 14.774495832061426 -5.659242291546971 a36.821275245884394,36.821275245884394 0 0,0 0.22162096364754655,0.593833999564552 l -14.869721384210598 5.404085154953086" fill="red" stroke="none" /><path d="M 119.7369772167798 92.82701384747503 l 27.594157239567803 -10.028511741997654 a50.35998231473202,50.35998231473202 0 0,0 0.289082891357782,0.8172762621892565 l -27.762693211735396 9.552037853381783" fill="red" stroke="none" /><path d="M 119.97218684219823 93.5106431181261 l 27.50298703128329 -8.93626219170213 a49.91835191710935,49.91835191710935 0 0,0 0.2584927157292616,0.8194925483662328 l -27.65273523078076 8.461519476909478" fill="red" stroke="none" /><path d="M 120.08093135843002 93.85539295169968 l 49.60635232453983 -15.179153630534952 a72.876747159838,72.876747159838 0 0,0 0.35672856408156406,1.2027113788144355 l -49.860286785733095 14.323012864973986" fill="red" stroke="none" /><path d="M 120.28053869075195 94.5502522615342 l 34.89080921694802 -9.375791813163811 a57.12857650028928,57.12857650028928 0 0,0 0.24702306196449011,0.9518806247979602 l -35.04702861078282 8.773814762817" fill="red" stroke="none" /><path d="M 120.45610955862082 95.25157060432595 l 28.687964144783077 -6.659270760002495 a50.45072450428654,50.45072450428654 0 0,0 0.1890835808714855,0.8476246174825175 l -28.798342112656602 6.164467972970013" fill="red" stroke="none" /><path d="M 120.6074358757038 95.95851677861258 l 28.646766423950066 -5.618138352957264 a50.19247685793931,50.19247685793931 0 0,0 0.15897696492271304,0.849261303527563 l -28.73922911278264 5.124198971967139" fill="red" stroke="none" /><path d="M 120.67395015179393 96.31383870115 l 57.973342334482076 -10.336635684487534 a79.88764266554463,79.88764266554463 0 0,0 0.2297269537195166,1.3558614849498156 l -58.14268114972182 9.33718841122188" fill="red" stroke="none" /><path d="M 120.78858239683441 97.02765380044208 l 34.71554126672757 -4.9636192203979395 a56.0685945142797,56.0685945142797 0 0,0 0.12838106435478217,0.9565880476514379 l -34.795838330140185 4.365312830681837" fill="red" stroke="none" /><path d="M 120.87857604477298 97.74499172005257 l 29.40219184761988 -3.17560862018579 a50.57318676694893,50.57318676694893 0 0,0 0.08602950451070916,0.8663053700155331 l -29.452498477812817 2.669027719465822" fill="red" stroke="none" /><line stroke="#e1ed5e" stroke-width="0.3" x1="184.98032266829074" x2="189.97916517819016" y1="98.17113171792111" y2="98.06355123074" /><path d="M 185.9800911702706 98.14961562048488 a86.0,86.0 0 0,1 -9.607161424134198,41.387399972396054" fill="none" id="id88" stroke="none" /><text fill="#e1ed5e" style="font-size:6.75px; font-family:Arial;" text-anchor="middle"><textPath startOffset="21.466115282336823" xlink:href="#id88">April</textPath></text><path d="M 120.99513854157772 99.54816195383933 l 34.92848361197108 -0.7516986734492842 a55.93657135907011,55.93657135907011 0 0,0 0.01243121811391316,0.9628115426055919 l -34.93624783720271 0.1503508727832296" fill="red" stroke="none" /><path d="M 120.9904718944345 100.63252640178507 l 34.66838552063041 1.0446963393365274 a55.684122376794825,55.684122376794825 0 0,0 -0.037117092729891304,0.9578272372645147 l -34.64526629504932 -1.6413008236150481" fill="red" stroke="none" /><path d="M 120.95626037817324 101.35467743843564 l 25.258174029675374 1.6327664323984195 a46.310892547204546,46.310892547204546 0 0,0 -0.058271102496343846,0.7950628969561311 l -25.226326368514695 -2.067302465851321" fill="red" stroke="none" /><path d="M 120.89721153311464 102.0752229133903 l 30.092567131332736 2.9883788434987313 a51.24058538894441,51.24058538894441 0 0,0 -0.09471626640655477,0.8769549932172874 l -30.03666856342513 -3.5059301586008105" fill="red" stroke="none" /><path d="M 120.81339534386255 102.79330883721812 l 37.80179699888727 5.073275737822083 a59.1407129332562,59.1407129332562 0 0,0 -0.14409479527546723,1.0077986625463093 l -37.7088681525952 -5.7232198723488015" fill="red" stroke="none" /><path d="M 120.76222939487914 103.15116336523771 l 27.973092368146993 4.245583757236409 a49.293442315783935,49.293442315783935 0 0,0 -0.1345435064301792,0.8378025429725319 l -27.895867107355524 -4.726465529902145" fill="red" stroke="none" /><path d="M 120.64145759157962 103.86396538481128 l 51.0567479466681 9.557537584334064 a72.9436043759533,72.9436043759533 0 0,0 -0.24165197359198623,1.2321782071693341 l -50.88466604010044 -10.434979518571343" fill="red" stroke="none" /><path d="M 120.49622156327973 104.57218783832717 l 28.83716259369354 6.432840496755965 a50.54595375532531,50.54595375532531 0 0,0 -0.19674274545051135,0.8475625981647642 l -28.72215928231248 -6.928271752269294" fill="red" stroke="none" /><path d="M 120.32669344350535 105.2749913415812 l 37.23081453006009 9.66178905742452 a59.46405748698259,59.46405748698259 0 0,0 -0.2656398867322372,0.9885448389940974 l -37.05898656698607 -10.301224829594167" fill="red" stroke="none" /><path d="M 120.13307415673323 105.97154293290107 l 27.099814843104905 8.037903528763875 a49.266727042023874,49.266727042023874 0 0,0 -0.24814765368067884,0.8109608899556109 l -26.957440416918097 -8.503191391271544" fill="red" stroke="none" /><path d="M 120.02730092923936 106.31721596034902 l 39.69007769985962 12.519449984744835 a62.61777139325725,62.61777139325725 0 0,0 -0.333090013748572,1.025145651711466 l -39.4686954350948 -13.200794536434096" fill="red" stroke="none" /><path d="M 119.79798401119884 107.00284435728193 l 31.48151363769934 11.135484300409187 a54.392884145058645,54.392884145058645 0 0,0 -0.3198191221842001,0.8800048674035218 l -31.285170254509914 -11.67573696481884" fill="red" stroke="none" /><path d="M 119.41010516605496 108.01547362559984 l 27.35645832715877 11.296949106418932 a50.59724431967601,50.59724431967601 0 0,0 -0.33936058175235173,0.8021481697672929 l -27.157946764214106 -11.766171801852389" fill="red" stroke="none" /><path d="M 119.12269723197855 108.67885076344098 l 38.17675068937746 17.326547497291433 a62.92461736706464,62.92461736706464 0 0,0 -0.4561297137575437,0.9824628242294515 l -37.87284635878008 -17.981130388799716" fill="red" stroke="none" /><path d="M 118.81262510543309 109.33194174019688 l 26.156467703739168 12.974831070765436 a50.19772326829012,50.19772326829012 0 0,0 -0.39063708143832027,0.7707640214273244 l -25.92925195251458 -13.423149303895455" fill="red" stroke="none" /><line stroke="#e1ed5e" stroke-width="0.3" x1="174.80103733775053" x2="179.2010983576182" y1="140.37084112569926" y2="142.7455964860345" /><path d="M 175.68104954172406 140.8457921977663 a86.0,86.0 0 0,1 -30.038265399797805,32.042727171017184" fill="none" id="id89" stroke="none" /><text fill="#e1ed5e" style="font-size:6.75px; font-family:Arial;" text-anchor="middle"><textPath startOffset="22.206326154141568" xlink:href="#id89">May</textPath></text><path d="M 118.48025628344425 109.97397251340804 l 39.200622789012854 21.15695411412452 a65.54554449587124,65.54554449587124 0 0,0 -0.5444137721631289,0.9882691321457768 l -38.830632607398215 -21.828593764668103" fill="red" stroke="none" /><path d="M 118.12598468904814 110.60418214915192 l 30.396780821480284 17.782923582274734 a56.216425932256875,56.216425932256875 0 0,0 -0.49582653250229,0.8310337883627019 l -30.086173413279766 -18.30351946452354" fill="red" stroke="none" /><path d="M 117.55443506779139 111.5257021239791 l 28.037625295129224 18.408642383959023 a54.54081911060853,54.54081911060853 0 0,0 -0.5220254890279958,0.780357276748397 l -27.716596700690506 -18.88853657491323" fill="red" stroke="none" /><path d="M 117.14729908036423 112.12312394758627 l 28.82071208724326 20.376215709181302 a56.29622659496135,56.29622659496135 0 0,0 -0.5662333652313261,0.7864486201366644 l -28.46569892963633 -20.869297934769097" fill="red" stroke="none" /><path d="M 116.71984013943494 112.70617746262583 l 15.896896080081596 12.08078432652192 a40.966388129174774,40.966388129174774 0 0,0 -0.4314993227320051,0.5577710413251755 l -15.686589940131523 -12.352633361960349" fill="red" stroke="none" /><path d="M 116.498646956653 112.99209946851258 l 43.49933937565336 34.254187356568714 a76.36733583600694,76.36733583600694 0 0,0 -0.822156511267268,1.025766660148562 l -42.90326495233124 -34.99788185029553" fill="red" stroke="none" /><path d="M 116.0416608686014 113.55231037782055 l 26.434084607169176 22.332034200468605 a55.6046323568085,55.6046323568085 0 0,0 -0.6239832436878555,0.7258334819859575 l -26.04575885391054 -22.783744781616093" fill="red" stroke="none" /><path d="M 115.56566222782051 114.09645910891815 l 22.0628249438999 19.980371223335446 a50.76547460947772,50.76547460947772 0 0,0 -0.5921516835901686,0.6426637011592548 l -21.715626852314013 -20.357186179296036" fill="red" stroke="none" /><path d="M 114.81725581225074 114.88116024355365 l 26.949039873000732 27.065266729651192 a59.193970901488456,59.193970901488456 0 0,0 -0.7282269143554949,0.7127233071450297 l -26.47916300626944 -27.525140139718793" fill="red" stroke="none" /><path d="M 114.29624159901734 115.38237550388516 l 20.631208673483282 22.198631487617416 a51.30554423289328,51.30554423289328 0 0,0 -0.6520701366955693,0.595650609437686 l -20.24603898732085 -22.550474863641686" fill="red" stroke="none" /><path d="M 113.75828350139079 115.86535959552629 l 20.427144328705747 23.55555402328141 a52.17903704044601,52.17903704044601 0 0,0 -0.6836311661329387,0.5826053108399059 l -20.018647685995763 -23.903683724344262" fill="red" stroke="none" /><path d="M 113.20401910651253 116.32954008644616 l 36.23854519952128 44.81656469416987 a78.63468251985483,78.63468251985483 0 0,0 -1.0598551285616569,0.8420130134137759 l -35.46173257824228 -45.43371162158878" fill="red" stroke="none" /><path d="M 112.63410532772338 116.77436683061366 l 23.361931285599464 31.01775670623217 a59.83144427496976,59.83144427496976 0 0,0 -0.8279960451366838,0.6125316796023524 l -22.824550270044217 -31.41529833457429" fill="red" stroke="none" /><path d="M 111.7513745106137 117.40417183066458 l 19.517700811155947 28.906356303261035 a55.87861923420817,55.87861923420817 0 0,0 -0.8017924654639339,0.5313843257026709 l -19.017233646952047 -29.238038650055024" fill="red" stroke="none" /><line stroke="#e1ed5e" stroke-width="0.3" x1="143.8653032363475" x2="146.44561519142675" y1="172.8068346515853" y2="177.08958963109032" /><path d="M 144.38136562736335 173.6633856474863 a86.0,86.0 0 0,1 -40.68145358897372,12.25698825130547" fill="none" id="id90" stroke="none" /><text fill="#e1ed5e" style="font-size:6.75px; font-family:Arial;" text-anchor="middle"><textPath startOffset="21.466115282336833" xlink:href="#id90">June</textPath></text><path d="M 109.57404056367764 118.69057910512821 l 16.362162092625656 31.942447171508253 a56.88927805974859,56.88927805974859 0 0,0 -0.8754070428455536,0.4389472644348635 l -15.809901142097342 -32.21936227685242" fill="red" stroke="none" /><path d="M 108.92500713936063 119.00905698771935 l 15.47224601287479 32.95378945857292 a57.405255614579495,57.405255614579495 0 0,0 -0.8980696990734,0.4122597513074314 l -14.902708318033971 -33.21523628021443" fill="red" stroke="none" /><path d="M 108.59647513512805 119.15986991738527 l 12.761473668011433 28.44284100050439 a52.1745154631042,52.1745154631042 0 0,0 -0.8225668275991967,0.3605891242087151 l -12.269986165754482 -28.65829467800756" fill="red" stroke="none" /><path d="M 107.93186726928326 119.44442032107085 l 10.707647957782552 26.24905340353653 a49.349012846473464,49.349012846473464 0 0,0 -0.7892996825366488,0.31407863297031535 l -10.254227199204037 -26.429478880912914" fill="red" stroke="none" /><path d="M 107.2578585660854 119.70592522655815 l 12.000644203811566 32.58313663700793 a55.72284916898964,55.72284916898964 0 0,0 -0.9029235999136577,0.3237562784460876 l -11.438001043268175 -32.78488045649398" fill="red" stroke="none" /><path d="M 106.57524785965236 119.94407469862006 l 10.889994895756523 33.03158699177041 a55.78042161941829,55.78042161941829 0 0,0 -0.9144765964473123,0.29278652796332566 l -10.319796954218269 -33.21414636639344" fill="red" stroke="none" /><path d="M 106.2309692047433 120.05430185196036 l 10.35542642790618 33.328819412702174 a55.90050228790828,55.90050228790828 0 0,0 -0.9213601325335881,0.27759824989995513 l -9.780191320932346 -33.50213303170786" fill="red" stroke="none" /><path d="M 105.53697534728816 120.25689768951611 l 4.042304337505521 14.788677980089096 a36.33118458423184,36.33118458423184 0 0,0 -0.604671249341363,0.1596991727225177 l -3.787142645352661 -14.856068502115198" fill="red" stroke="none" /><path d="M 105.18746579009965 120.34920634021253 l 4.42051863099956 17.34065329638266 a38.89522957976122,38.89522957976122 0 0,0 -0.6501925039587557,0.15980149836803428 l -4.121372842297593 -17.414176053064722" fill="red" stroke="none" /><path d="M 104.83641907484287 120.43548508189849 l 6.953139390660058 29.379335018607943 a51.19091706989954,51.19091706989954 0 0,0 -0.8592269905352656,0.19555726564291492 l -6.446392250731931 -29.494669017828542" fill="red" stroke="none" /><path d="M 104.13013068566511 120.58985236759428 l 6.828751189593232 34.043227575525506 a55.72136498711408,55.72136498711408 0 0,0 -0.9420423395569439,0.18054465645575313 l -6.241741235464584 -34.15572943032973" fill="red" stroke="none" /><path d="M 103.06178313531738 120.77559828337769 l 4.15744894550433 28.210191694878773 a49.51489605796034,49.51489605796034 0 0,0 -0.8442794566053102,0.11700943959356676 l -3.67124089771219 -28.27757569996494" fill="red" stroke="none" /><path d="M 102.34483914955558 120.86867818915974 l 2.9609868585536274 26.352290256326523 a47.51811918161258,47.51811918161258 0 0,0 -0.8136174632532354,0.08433477674729721 l -2.5069367986947895 -26.39935440152958" fill="red" stroke="none" /><path d="M 101.62511606390274 120.93702456842531 l 2.18389661920753 28.136019443092383 a49.22064837216641,49.22064837216641 0 0,0 -0.8452761305528157,0.058295190904647264 l -1.6992577278757839 -28.169442978513313" fill="red" stroke="none" /><path d="M 101.26447882468166 120.96189622390904 l 3.129702307934983 51.88263631633205 a72.97694669436702,72.97694669436702 0 0,0 -1.2545499279723795,0.0648459012962562 l -2.236164311549124 -51.928822024390506" fill="red" stroke="none" /><line stroke="#e1ed5e" stroke-width="0.3" x1="102.19456741930631" x2="102.32365962044197" y1="184.97166512339345" y2="189.96999836594603" /><path d="M 102.22038585953345 185.97133177190398 a86.0,86.0 0 0,1 -42.740103519485714,-10.115201625700543" fill="none" id="id91" stroke="none" /><text fill="#e1ed5e" style="font-size:6.75px; font-family:Arial;" text-anchor="middle"><textPath startOffset="22.20632615414155" xlink:href="#id91">July</textPath></text><path d="M 100.54218724476979 120.99299961872073 l 0.9632481965367756 37.29609875130081 a58.30853560721612,58.30853560721612 0 0,0 -1.003574056751267,0.017277437506420492 l -0.32111444989284066 -37.30715366608639" fill="red" stroke="none" /><path d="M 99.81925306533755 120.99922214144158 l -0.2477466115734553 28.783260645256696 a49.78432684216063,49.78432684216063 0 0,0 -0.8568601205864435,-0.014751624043670768 l 0.7431664220525667 -28.774731543933864" fill="red" stroke="none" /><path d="M 99.09653310690486 120.98055641714683 l -1.3159070970945306 30.558356151528038 a51.58667589281018,51.58667589281018 0 0,0 -0.8868288337233671,-0.04583892098359519 l 1.8417239992313865 -30.531177423782243" fill="red" stroke="none" /><path d="M 98.73552117531835 120.96189622390904 l -1.7959138261694803 29.771759333910506 a50.82587736022721,50.82587736022721 0 0,0 -0.8728430520086201,-0.06019636720767205 l 2.3081196389570304 -29.73643462218655" fill="red" stroke="none" /><path d="M 98.01472825383883 120.90594882070398 l -3.5076094826264796 36.936960629495495 a58.10313173881029,58.10313173881029 0 0,0 -0.9948567718289121,-0.10312097212398058 l 4.142898851060985 -36.87111028891575" fill="red" stroke="none" /><path d="M 97.2962882734958 120.8252237178851 l -4.72201233746811 36.37109768855913 a57.6763431599432,57.6763431599432 0 0,0 -0.9834404500225068,-0.13629588524332412 l 5.347381378677448 -36.2844272378232" fill="red" stroke="none" /><path d="M 96.58105272829116 120.7198165907248 l -5.335951843126236 32.33742282057948 a53.7747051359596,53.7747051359596 0 0,0 -0.9119960258552023,-0.15856219912535086 l 5.891796840453488 -32.24078204293312" fill="red" stroke="none" /><path d="M 95.51606077576429 120.51570834832081 l -6.756117882269757 30.91178026908843 a52.64148050018409,52.64148050018409 0 0,0 -0.8835743420211153,-0.2010986435729179 l 7.287212373683736 -30.790904891937824" fill="red" stroke="none" /><path d="M 94.81253420990036 120.34920634021253 l -6.862647476823573 26.920549493077118 a48.78150311628886,48.78150311628886 0 0,0 -0.8118857882459084,-0.21442641579084534 l 7.325023707880971 -26.798431727982692" fill="red" stroke="none" /><path d="M 94.11515582081647 120.15858648285463 l -8.782986012088596 30.086197308108634 a52.341986404039346,52.341986404039346 0 0,0 -0.8627081610450678,-0.25992689201992253 l 9.29956914757391 -29.930555046982988" fill="red" stroke="none" /><path d="M 93.76903079525671 120.05430185196036 l -10.272185162561138 33.06090836918469 a55.61995739757008,55.61995739757008 0 0,0 -0.9118459104254585,-0.2919442653734545 l 10.839752418077538 -32.87919125715153" fill="red" stroke="none" /><path d="M 93.08242187328487 119.8279376855182 l -10.504470909819867 30.10909176650694 a52.88889016725398,52.88889016725398 0 0,0 -0.8570026087580627,-0.30729064480829793 l 11.021193079207656 -29.923813580658685" fill="red" stroke="none" /><path d="M 92.40401165467489 119.57807347666478 l -13.428115724752669 34.609931500772106 a58.12359964234997,58.12359964234997 0 0,0 -0.9296424811641119,-0.3699239288894521 l 14.021879281958638 -34.37366072747658" fill="red" stroke="none" /><path d="M 91.7346041902142 119.30500536409082 l -15.06535265774711 35.187269982327095 a59.27673992794404,59.27673992794404 0 0,0 -0.9345382411348631,-0.4096741013662257 l 15.668811573539719 -34.92273132766642" fill="red" stroke="none" /><path d="M 90.7491055286396 118.85261126421891 l -13.163688811862514 26.82658512011942 a50.88224175564088,50.88224175564088 0 0,0 -0.7829713138893536,-0.39259807100196925 l 13.623514033434628 -26.59601920820815" fill="red" stroke="none" /><path d="M 90.10565033884886 118.52300852407294 l -19.124068253590096 35.80177489249851 a61.58937141692526,61.58937141692526 0 0,0 -0.9308124532896029,-0.5075531655208949 l 19.737503518748337 -35.46728107521785" fill="red" stroke="none" /><line stroke="#e1ed5e" stroke-width="0.3" x1="58.666819895761336" x2="56.23545636021788" y1="174.27360380694188" y2="178.64263932499728" /><path d="M 58.180547188652646 175.14741091055294 a86.0,86.0 0 0,1 -31.652253787137756,-30.449443065178592" fill="none" id="id92" stroke="none" /><text fill="#e1ed5e" style="font-size:6.75px; font-family:Arial;" text-anchor="middle"><textPath startOffset="22.20632615414155" xlink:href="#id92">August</textPath></text><path d="M 89.4739219176387 118.17145234162733 l -21.48531607003092 37.09068030433847 a63.86417352600853,63.86417352600853 0 0,0 -0.9465039376910701,-0.5592112098686749 l 22.12058787875037 -36.715350522176045" fill="red" stroke="none" /><path d="M 89.1626897886671 117.98757091392108 l -11.60479033196698 19.261420497048608 a43.48718475516752,43.48718475516752 0 0,0 -0.6378551162370575,-0.39182270956394416 l 11.934624648136346 -19.058809320656284" fill="red" stroke="none" /><path d="M 88.54995079064634 117.60387380957326 l -16.92771107733761 26.02550296874992 a52.046323568084986,52.046323568084986 0 0,0 -0.7468035299347922,-0.49494065768895834 l 17.373189306012364 -25.730264289969643" fill="red" stroke="none" /><path d="M 87.95078237400918 117.19931262002967 l -17.93369162346279 25.59893747771695 a52.25576579182665,52.25576579182665 0 0,0 -0.7322592302315978,-0.5224475180818362 l 18.371678181543274 -25.286445697790896" fill="red" stroke="none" /><path d="M 87.07902340077011 116.55440617244103 l -28.41582305214025 36.40646455140086 a67.18321839004892,67.18321839004892 0 0,0 -0.9055098371636544,-0.7193917792337537 l 29.038290382021263 -35.911938858161975" fill="red" stroke="none" /><path d="M 86.51685102203217 116.09983520530335 l -23.72109748966478 28.32467112071457 a57.945601364855634,57.945601364855634 0 0,0 -0.7591826388559721,-0.6469919149486809 l 24.205145605097805 -27.912154815542937" fill="red" stroke="none" /><path d="M 85.97065885151581 115.62618273729859 l -19.42369310329018 21.634528282749216 a50.07460520433387,50.07460520433387 0 0,0 -0.6364254613955284,-0.581359569482766 l 19.793218114152562 -21.296975946679872" fill="red" stroke="none" /><path d="M 85.44109423537348 115.13401014063109 l -25.68753734141942 26.702243760477703 a58.052117301320145,58.052117301320145 0 0,0 -0.714179393784859,-0.6989748516555101 l 26.143366687580077 -26.25611880589962" fill="red" stroke="none" /><path d="M 85.18274418774928 114.88116024355367 l -30.711121095146808 30.84357320052507 a64.52584251564718,64.52584251564718 0 0,0 -0.7803306015732788,-0.7904707795741344 l 31.237492321775623 -30.310361926970273" fill="red" stroke="none" /><path d="M 84.67929136418377 114.36230785411682 l -23.238138892659304 21.78445610230203 a52.852372389943724,52.852372389943724 0 0,0 -0.6164942125173368,-0.6690827086018393 l 23.60967951317237 -21.38122213889885" fill="red" stroke="none" /><path d="M 84.19399662182784 113.82643327865904 l -23.072287201857563 20.18267565494048 a51.65405084678903,51.65405084678903 0 0,0 -0.5796506663360806,-0.6742646789609343 l 23.416280377764423 -19.78253387681801" fill="red" stroke="none" /><path d="M 83.72743513129214 113.27417163493432 l -23.298897134013995 19.00582741300447 a51.06759191079787,51.06759191079787 0 0,0 -0.5497841812154036,-0.6859402992485762 l 23.622599227284258 -18.601959280177635" fill="red" stroke="none" /><path d="M 82.05923443525364 110.91462005526583 l -40.94128962119785 24.907444399477065 a68.92254148477357,68.92254148477357 0 0,0 -0.607893941831526,-1.0188652125038453 l 41.363964438727606 -24.199017093087107" fill="red" stroke="none" /><line stroke="#e1ed5e" stroke-width="0.3" x1="26.63291911575756" x2="22.317208475507996" y1="142.92168965132927" y2="145.44649492493687" /><path d="M 25.769776987707644 143.4266507060508 a86.0,86.0 0 0,1 -11.730757126820373,-40.83630448921669" fill="none" id="id93" stroke="none" /><text fill="#e1ed5e" style="font-size:6.75px; font-family:Arial;" text-anchor="middle"><textPath startOffset="21.46611528233685" xlink:href="#id93">September</textPath></text><path d="M 81.69416730710424 110.29060199501025 l -25.930565118630067 14.576836225815345 a50.74690507810446,50.74690507810446 0 0,0 -0.42149797109266895,-0.7651412498950059 l 26.17763949917425 -14.128324457522515" fill="red" stroke="none" /><path d="M 81.35079622478065 109.6543875284942 l -28.734528489469668 14.875395047938671 a53.35661455320044,53.35661455320044 0 0,0 -0.4152194726659741,-0.8192674114515575 l 28.98632663192191 -14.37857342478443" fill="red" stroke="none" /><path d="M 81.02952815118164 109.00673069616217 l -28.24761178443203 13.4112969977583 a52.26964116657024,52.26964116657024 0 0,0 -0.3788936263917106,-0.8161031632883285 l 28.474280027663568 -12.923073767191143" fill="red" stroke="none" /><path d="M 80.58989483394504 108.01547362559985 l -20.15669184539281 8.323779314119362 a42.80774009887972,42.80774009887972 0 0,0 -0.27539113223370676,-0.6834982055416791 l 20.296985591883907 -7.975581740734878" fill="red" stroke="none" /><path d="M 80.32549172779594 107.34259656027581 l -32.47023393569427 12.118006951381401 a55.657786777468054,55.657786777468054 0 0,0 -0.32725649300769133,-0.9004693176861227 l 32.674014689707185 -11.557289836689161" fill="red" stroke="none" /><path d="M 80.20201598880116 107.00284435728193 l -3.5490955532619703 1.2553684129937832 a24.764575553568612,24.764575553568612 0 0,0 -0.13869243585232585,-0.40310513907701134 l 3.5701788200575244 -1.194090570827475" fill="red" stroke="none" /><path d="M 80.0844068197444 106.66101706037122 l -33.088606373065495 11.0668946468241 a55.890285594067215,55.890285594067215 0 0,0 -0.2973037139891523,-0.9150067460854779 l 33.27420233807089 -10.49568900076082" fill="red" stroke="none" /><path d="M 79.76711848015287 105.62410040840567 l -30.807709368324524 8.563567708854274 a52.975766580760535,52.975766580760535 0 0,0 -0.23665517001001238,-0.8806819254914182 l 30.95055261467631 -8.031994850187317" fill="red" stroke="none" /><path d="M 79.58551787078972 104.9243191809786 l -33.9883800427454 8.19857347913807 a55.96321760111503,55.96321760111503 0 0,0 -0.2178286540676351,-0.9384001406178352 l 34.12446926274359 -7.6123046811716595" fill="red" stroke="none" /><path d="M 79.35854240842038 103.8639653848113 l -14.711028296618116 2.753822197919787 a35.966559064850365,35.966559064850365 0 0,0 -0.1086764823563075,-0.6095154272298384 l 14.756251221313612 -2.500188019956735" fill="red" stroke="none" /><path d="M 79.29508885075956 103.50808413554451 l -30.787638239125073 5.216425441242253 a52.226427312891175,52.226427312891175 0 0,0 -0.1425489137882138,-0.8876522222327858 l 30.87286890727458 -4.685693989316253" fill="red" stroke="none" /><path d="M 79.1416061653843 102.43462659150553 l -31.730528558199584 3.7036403283417876 a52.94594487981908,52.94594487981908 0 0,0 -0.09786855833746394,-0.9061413014805985 l 31.789579418038098 -3.156902704976407" fill="red" stroke="none" /><path d="M 79.07016306316243 101.71520430193888 l -34.58657480242464 2.8343766876672642 a55.70251932888024,55.70251932888024 0 0,0 -0.07008820246359017,-0.9562978372795123 l 34.630239563552564 -2.238605713890991" fill="red" stroke="none" /><path d="M 79.0235259727143 100.99374915477108 l -18.23060718460715 0.8636651925915287 a39.25105355546205,39.25105355546205 0 0,0 -0.026163382529512277,-0.6751606487097643 l 18.24277269998786 -0.5497272968677677" fill="red" stroke="none" /><line stroke="#e1ed5e" stroke-width="0.3" x1="15.007084014347285" x2="10.007500721073583" y1="101.09737516637583" y2="101.16192664675087" /><path d="M 14.007167355692545 101.11028546245083 a86.0,86.0 0 0,1 10.666146001902534,-42.60595125391555" fill="none" id="id94" stroke="none" /><text fill="#e1ed5e" style="font-size:6.75px; font-family:Arial;" text-anchor="middle"><textPath startOffset="22.20632615414155" xlink:href="#id94">October</textPath></text><path d="M 79.01574976396665 99.18683210126434 l -18.583127430367217 -0.720121162992053 a39.59707502761269,39.59707502761269 0 0,0 0.03225538467761351,-0.6808601906041117 l 18.567978437456105 1.039892460219174" fill="red" stroke="none" /><path d="M 79.12142395522702 97.74499172005258 l -28.797676194506355 -3.1103173953337837 a49.96515541997581,49.96515541997581 0 0,0 0.09971533456057154,-0.8543000913863708 l 28.739870506942196 3.605561225045016" fill="red" stroke="none" /><path d="M 79.21141760316559 97.0276538004421 l -21.311631789570207 -3.0471316680906706 a42.52836874769894,42.52836874769894 0 0,0 0.10985301743823003,-0.7237941304259055 l 21.256022878692676 3.4135249109086683" fill="red" stroke="none" /><path d="M 79.26566170972629 96.67025291283419 l -37.63486738644189 -6.04381911308259 a59.11706957081997,59.11706957081997 0 0,0 0.1699985611314898,-1.0033411308648645 l 37.52525696379018 6.690746032263282" fill="red" stroke="none" /><path d="M 79.46518482838121 95.60439243477599 l -29.537056248480148 -6.3225944239181295 a51.20617307894598,51.20617307894598 0 0,0 0.19191491625991447,-0.8603169388597772 l 29.423846945218198 6.830089532327865" fill="red" stroke="none" /><path d="M 79.62865764111835 94.90015583598534 l -30.574692344871757 -7.654192029891238 a52.51822437279756,52.51822437279756 0 0,0 0.22708797222420218,-0.875062591993745 l 30.438408040777247 8.179351047433848" fill="red" stroke="none" /><path d="M 80.14247586403 93.16781622104843 l -35.955468962351844 -12.37084593865343 a59.0241183663809,59.0241183663809 0 0,0 0.33881788699925497,-0.9578837922542509 l 35.73719799454278 12.987927357334291" fill="red" stroke="none" /><path d="M 80.38941819471856 92.48833698450439 l -20.23018124718126 -7.748995199637506 a42.663498330089936,42.663498330089936 0 0,0 0.2685899839928376,-0.6835322127517474 l 20.09379771330673 8.096076417285017" fill="red" stroke="none" /><path d="M 80.65960295795068 91.81776055985345 l -47.899315296225325 -20.264509871264814 a73.00956417977173,73.00956417977173 0 0,0 0.4996263163319161,-1.1532064234185648 l 47.54339827005072 21.08601543926998" fill="red" stroke="none" /><path d="M 81.10775173730289 90.83032412892265 l -31.315344770579642 -15.199438274598322 a55.8091042970599,55.8091042970599 0 0,0 0.42691303768387323,-0.8606306333840121 l 31.049071719942358 15.736228496481296" fill="red" stroke="none" /><line stroke="#e1ed5e" stroke-width="0.3" x1="26.266209847984243" x2="21.928928074336255" y1="57.711370442889674" y2="55.22380399835377" /><path d="M 25.398753493254645 57.213857153982495 a86.0,86.0 0 0,1 29.58750427330803,-30.492523968695096" fill="none" id="id95" stroke="none" /><text fill="#e1ed5e" style="font-size:6.75px; font-family:Arial;" text-anchor="middle"><textPath startOffset="21.46611528233685" xlink:href="#id95">November</textPath></text><path d="M 82.34701348167596 88.62581576622439 l -31.05613700125133 -20.010111233866397 a57.94439330984064,57.94439330984064 0 0,0 0.5474458378484,-0.8337975691431984 l 30.70709452804501 20.54172686698726" fill="red" stroke="none" /><path d="M 82.7489923806493 88.02491185347247 l -49.47160590802418 -34.34157902952448 a81.22278506811129,81.22278506811129 0 0,0 0.8071509632427059,-1.141657796254931 l 48.87314232497759 35.1880633261112" fill="red" stroke="none" /><path d="M 84.31358615837235 86.03803664274999 l -47.05924152488297 -41.885890071750055 a84.0,84.0 0 0,0 0.9706254375358201,-1.071788850921776 l 46.331272446731106 42.68973170994139" fill="red" stroke="none" /><path d="M 84.80347519578584 85.50635884689758 l -25.244525471377585 -24.076892445898974 a55.88528079471941,55.88528079471941 0 0,0 0.6699201099531746,-0.6904115609469169 l 24.82634109772129 24.507868202396015" fill="red" stroke="none" /><path d="M 85.83668400450813 84.49514656593479 l -23.488441049386132 -25.713246529367247 a55.82639674170304,55.82639674170304 0 0,0 0.715080348839342,-0.6420061976171805 l 23.04234971295082 26.113751735753706" fill="red" stroke="none" /><line stroke="#e1ed5e" stroke-width="0.3" x1="56.762969772571076" x2="54.21961505331055" y1="26.818313649435495" y2="22.513508569990535" /><path d="M 56.25429882871897 25.957352633546506 a86.0,86.0 0 0,1 42.265352541879196,-11.944610805530505" fill="none" id="id96" stroke="none" /><text fill="#e1ed5e" style="font-size:6.75px; font-family:Arial;" text-anchor="middle"><textPath startOffset="22.20632615414155" xlink:href="#id96">December</textPath></text></svg>