<?xml version="1.0" encoding="utf-8" ?>
<svg baseProfile="full" height="200mm" version="1.1" viewBox="0,0,200,200" width="200mm" xmlns="http://www.w3.org/2000/svg" xmlns:ev="http://www.w3.org/2001/xml-events" xmlns:xlink="http://www.w3.org/1999/xlink"><defs /><rect fill="#1a1a1a" height="200" width="200" x="0" y="0" /><text alignment-baseline="middle" fill="#e1ed5e" style="dominant-baseline: central; font-size:9.0px; font-family:Arial;" text-anchor="middle" x="100.0" y="100.0">2025</text><line stroke="#e1ed5e" stroke-width="0.3" x1="100.0" x2="100.0" y1="15.0" y2="10.0" /><path d="M 100.0 14.0 a86.0,86.0 0 0,1 42.46469731375804,11.215312516191453" fill="none" id="id85" stroke="none" /><text fill="#e1ed5e" style="font-size:6.75px; font-family:Arial;" text-anchor="middle"><textPath startOffset="22.20632615414155" xlink:href="#id85">January</textPath></text><path d="M 107.08798089147638 80.2323363322302 l 5.8507780516877625 -16.317229757153406 a38.3344625171317,38.3344625171317 0 0,0 0.6192251056104647,0.22806583225196983 l -6.130785483070803 16.21410065709511" fill="#ffc912" stroke="none" /><path d="M 107.4271985657038 80.35727306442388 l 5.12083673064238 -13.543087166964 a35.47888734792426,35.47888734792426 0 0,0 0.5693801106347995,0.22091063707554592 l -5.353200006276847 13.452933825997906" fill="#ffa30f" stroke="none" /><path d="M 108.09893153111575 80.62456947434976 l 5.3786237641156065 -12.867518470164965 a34.94641979778128,34.94641979778128 0 0,0 0.5530125193276575,0.2367711002304187 l -5.59932004123358 12.773027841971757" fill="#ff9c0e" stroke="none" /><path d="M 108.76106565485865 80.91482961587045 l 3.7551427255049217 -8.180230756887571 a30.00095951134333,30.00095951134333 0 0,0 0.4674746492395287,0.2194856159686572 l -3.8953955860440486 8.11438015827891" fill="#ff5708" stroke="none" /><path d="M 110.36928655335952 81.73862282372117 l 6.1826717069651425 -10.888319019539352 a33.521218810777555,33.521218810777555 0 0,0 0.4993117512264724,0.2892335946538743 l -6.369180190656944 10.780281267495429" fill="#ff880c" stroke="none" /><line stroke="#e1ed5e" stroke-width="0.3" x1="143.23703022742887" x2="145.7803849466894" y1="26.81831364943548" y2="22.513508569990506" /><path d="M 143.74570117128098 25.957352633546492 a86.0,86.0 0 0,1 28.547481713284135,27.462654790039103" fill="none" id="id86" stroke="none" /><text fill="#e1ed5e" style="font-size:6.75px; font-family:Arial;" text-anchor="middle"><textPath startOffset="19.985693538727396" xlink:href="#id86">February</textPath></text><path d="M 110.99172775467656 82.1063720568725 l 5.600291043066328 -9.116812800901386 a31.69951098946715,31.69951098946715 0 0,0 0.46248204982560487,0.289606217172609 l -5.7563922452641965 9.019062242405834" fill="#ff6f0a" stroke="none" /><path d="M 111.90073688211348 82.69761687909136 l 9.847474321604016 -14.317161632384876 a38.37681983915596,38.37681983915596 0 0,0 0.5410562531515448,0.3790444819599357 l -10.092461714339212 14.145532307661004" fill="#ffca12" stroke="none" /><path d="M 112.77801427241765 83.33499621200491 l 7.082064269702374 -9.236382536852846 a32.6390032514505,32.6390032514505 0 0,0 0.4429073027956616,0.3456961751112403 l -7.240004127657466 9.113107972518382" fill="#ff7c0b" stroke="none" /><path d="M 113.06298171725822 83.55741782278167 l 18.90489376682949 -23.795889486854417 a51.39143571478151,51.39143571478151 0 0,0 0.6879027582055482,0.5562361900386801 l -19.311699923599527 23.466947199551605" fill="#95ff23" stroke="none" /><path d="M 113.6212207817346 84.01681056812373 l 11.237823691595082 -13.18650271829144 a38.32548802380133,38.32548802380133 0 0,0 0.49842516424711014,0.43222939087196655 l -11.463142654488957 12.9911083339998" fill="#ffc912" stroke="none" /><path d="M 113.89432698308785 84.25364557470407 l 11.520573247858444 -13.056194068569871 a38.41228909464321,38.41228909464321 0 0,0 0.4920230337021618,0.44174313770460194 l -11.743607269156596 12.855951922095972" fill="#ffca12" stroke="none" /><path d="M 114.42810811169701 84.74124197986012 l 12.00457538565121 -12.695698529987968 a38.47256682213926,38.47256682213926 0 0,0 0.47727372944801016,0.4591369495855055 l -12.221332358711638 12.48717849364016" fill="#ffcb12" stroke="none" /><path d="M 114.94478906791727 85.2469230424477 l 20.477836517546187 -20.215146342619903 a49.77488366775593,49.77488366775593 0 0,0 0.5966722375806967,0.6149231897973207 l -20.82277301882999 19.85965895727247" fill="#a8ff21" stroke="none" /><path d="M 115.4437574822437 85.77008943001954 l 12.768930778270112 -11.765319628850907 a38.36284363775929,38.36284363775929 0 0,0 0.44328514155975945,0.48948652500722456 l -12.969559560445909 11.543780316574132" fill="#ffc912" stroke="none" /><path d="M 115.9244219780498 86.31012108654704 l 18.616611997835356 -16.0042960667834 a45.550269547831974,45.550269547831974 0 0,0 0.5060187827766747,0.5989666322674115 l -18.889341394099148 15.68147048488688" fill="#daff1c" stroke="none" /><path d="M 116.15771136456269 86.58626213691792 l 11.116344622158643 -9.228518160335007 a35.44779101434639,35.44779101434639 0 0,0 0.38570827139707026,0.47283273407343523 l -11.273551385632121 9.03580125665347" fill="#ffa30f" stroke="none" /><path d="M 116.60985879189232 87.15038557335679 l 28.05034270909844 -21.700129595505967 a56.46431094155963,56.46431094155963 0 0,0 0.5881001581707586,0.7738708718270473 l -28.419718807493314 21.214073947797885" fill="#5dff2a" stroke="none" /><path d="M 117.2510076193507 88.02491185347247 l 18.35601276069437 -12.742146759098858 a43.3451450767541,43.3451450767541 0 0,0 0.42019100331745174,0.616578448521857 l -18.572628229680554 12.424290287306595" fill="#f5ff19" stroke="none" /><path d="M 117.45458315368197 88.32363383020206 l 22.3919266531788 -14.979236831251434 a47.940228567851065,47.940228567851065 0 0,0 0.45292869759865617,0.6898414800945741 l -22.646451986135382 14.591577287179184" fill="#bdff1f" stroke="none" /><line stroke="#e1ed5e" stroke-width="0.3" x1="172.23445277983987" x2="176.4835382374775" y1="55.19839476539836" y2="52.563006222186495" /><path d="M 173.08426987136738 54.67131705675599 a86.0,86.0 0 0,1 12.851231095245387,41.99856678651699" fill="none" id="id87" stroke="none" /><text fill="#e1ed5e" style="font-size:6.75px; font-family:Arial;" text-anchor="middle"><textPath startOffset="22.20632615414155" xlink:href="#id87">March</textPath></text><path d="M 117.84615892207809 88.93136811851018 l 15.224719164906524 -9.442749707161665 a38.915289438978476,38.915289438978476 0 0,0 0.3481699090810958,0.5722997854157461 l -15.385004872273845 9.179282148538839" fill="#ffd113" stroke="none" /><path d="M 118.03404312379186 89.2402003453031 l 27.09839874420877 -16.16794079116463 a52.555118822890535,52.555118822890535 0 0,0 0.45682992848481274,0.7808704313775792 l -27.37268834716391 15.699090947433152" fill="#88ff25" stroke="none" /><path d="M 118.3937258080291 89.86733742301442 l 17.668815507745467 -9.733326871538187 a41.172374511567895,41.172374511567895 0 0,0 0.3366172971228725,0.62370072826132 l -17.833740904086806 9.42774515994441" fill="#ffee16" stroke="none" /><path d="M 118.89224826269711 90.83032412892265 l 19.345148587704898 -9.389498791276152 a42.50342906216953,42.50342906216953 0 0,0 0.3138004004627407,0.6609436724540826 l -19.503907182009396 9.05511270318153" fill="#ffff18" stroke="none" /><path d="M 119.04729006885535 91.15688171328212 l 15.72959629450233 -7.302806862906274 a38.342179438148264,38.342179438148264 0 0,0 0.2727729890778547,0.6010191240031815 l -15.852971600543533 7.0309657300610295" fill="#ffc912" stroke="none" /><path d="M 119.196687751892 91.48605970444005 l 28.81414342940631 -12.779386735687645 a52.520907139717096,52.520907139717096 0 0,0 0.359416299212725,0.8295823726348458 l -29.029850438461715 12.281505218466195" fill="#88ff25" stroke="none" /><path d="M 119.47837535516314 92.15188598940014 l 18.821053852267216 -7.5832698435539285 a41.291329419978794,41.291329419978794 0 0,0 0.2599514325371763,0.6615480415489448 l -18.94879883468609 7.2581727971092" fill="#ffef16" stroke="none" /><path d="M 119.61058180528143 92.48833698450437 l 12.234163852090285 -4.686190192914644 a34.10095964744423,34.10095964744423 0 0,0 0.20524784891086598,0.5499621922707478 l -12.313016289502777 4.474904863614563" fill="#ff900d" stroke="none" /><path d="M 119.7369772167798 92.82701384747503 l 22.849608194184523 -8.30420592613157 a45.31181668842012,45.31181668842012 0 0,0 0.26010475736665256,0.7353511751588436 l -22.989166032360984 7.909657124546111" fill="#ddff1b" stroke="none" /><path d="M 119.97218684219823 93.5106431181261 l 22.774113823394458 -7.399758145470961 a44.946120375801804,44.946120375801804 0 0,0 0.23274495794107325,0.7378651199683716 l -22.898114265103736 7.00664285907617" fill="#e1ff1b" stroke="none" /><path d="M 120.08093135843002 93.85539295169968 l 41.07701875863352 -12.569244647186391 a63.95704111199879,63.95704111199879 0 0,0 0.3130669840237091,1.0555062361934677 l -41.28729163976894 11.860309024246392" fill="#33ff55" stroke="none" /><path d="M 120.28053869075195 94.5502522615342 l 28.89167127895192 -7.763714890116043 a50.91661642275117,50.91661642275117 0 0,0 0.22016264475898062,0.8483764802513686 l -29.021030255581206 7.265241984315825" fill="#9aff22" stroke="none" /><path d="M 120.45610955862082 95.25157060432595 l 23.75534555761537 -5.514273416796317 a45.3869566341703,45.3869566341703 0 0,0 0.17010515447639574,0.7625480532487798 l -23.846745099093805 5.104547193997573" fill="#dcff1b" stroke="none" /><path d="M 120.6074358757038 95.95851677861258 l 23.721231387309135 -4.652153679900001 a45.17311217844461,45.17311217844461 0 0,0 0.14307889787085537,0.764333193630679 l -23.79779600908985 4.24314240880676" fill="#deff1b" stroke="none" /><path d="M 120.67395015179393 96.31383870115 l 48.00538558034955 -8.559350930199521 a69.76248079276053,69.76248079276053 0 0,0 0.20061077860980972,1.1840161712801545 l -48.14560822047958 7.73174897060353" fill="#3bff99" stroke="none" /><path d="M 120.78858239683441 97.02765380044208 l 28.74653896138316 -4.110172795876731 a50.03888811008929,50.03888811008929 0 0,0 0.11457475919192203,0.8537150377773116 l -28.81302971963292 3.614739416034755" fill="#a5ff21" stroke="none" /><path d="M 120.87857604477298 97.74499172005257 l 24.346768699462668 -2.6295933635281674 a45.48836269256576,45.48836269256576 0 0,0 0.07737976492322499,0.7792036727955903 l -24.38842559006812 2.210114160028142" fill="#daff1b" stroke="none" /><line stroke="#e1ed5e" stroke-width="0.3" x1="184.98032266829074" x2="189.97916517819016" y1="98.17113171792111" y2="98.06355123074" /><path d="M 185.9800911702706 98.14961562048488 a86.0,86.0 0 0,1 -9.607161424134198,41.387399972396054" fill="none" id="id88" stroke="none" /><text fill="#e1ed5e" style="font-size:6.75px; font-family:Arial;" text-anchor="middle"><textPath startOffset="21.466115282336823" xlink:href="#id88">April</textPath></text><path d="M 120.99513854157772 99.54816195383933 l 28.922867925320073 -0.6224513406691533 a49.92956506235463,49.92956506235463 0 0,0 0.011096234512455587,0.8594155914691566 l -28.929297166950246 0.12449949113953393" fill="#a6ff21" stroke="none" /><path d="M 120.9904718944345 100.63252640178507 l 28.707491190760205 0.8650708854231479 a49.72052224637257,49.72052224637257 0 0,0 -0.03314196499873901,0.8552468536064785 l -28.688347092910263 -1.3590949860436325" fill="#a8ff21" stroke="none" /><path d="M 120.95626037817324 101.35467743843564 l 20.915274754288838 1.3520280010372474 a41.9589288314785,41.9589288314785 0 0,0 -0.052795204499323935,0.7203486194080087 l -20.88890299112518 -1.7118497569420263" fill="#fff817" stroke="none" /><path d="M 120.89721153311464 102.0752229133903 l 24.918440615471322 2.474555940118495 a46.041008562107606,46.041008562107606 0 0,0 -0.08510504709292295,0.7879670391121564 l -24.872153266877344 -2.903119301115443" fill="#d4ff1c" stroke="none" /><path d="M 120.81339534386255 102.79330883721812 l 31.30214280369894 4.20097493334834 a52.58278541379437,52.58278541379437 0 0,0 -0.1281165769470096,0.8960470407718476 l -31.22519217573533 -4.7391674461005975" fill="#88ff25" stroke="none" /><path d="M 120.76222939487914 103.15116336523771 l 23.163389084243086 3.5155966013465103 a44.42865794985771,44.42865794985771 0 0,0 -0.1212653680842019,0.7551195628171584 l -23.099441961797595 -3.9137953938568737" fill="#e7ff1a" stroke="none" /><path d="M 120.64145759157962 103.86396538481128 l 42.27803285029312 7.914211229835215 a64.01240287499542,64.01240287499542 0 0,0 -0.21206415040010582,1.0813105341571925 l -42.13553876691735 -8.640785491060353" fill="#33ff55" stroke="none" /><path d="M 120.49622156327973 104.57218783832717 l 23.878890773045832 5.326775652194528 a45.465812134484025,45.465812134484025 0 0,0 -0.17696903587526325,0.7623779748406557 l -23.783661171240016 -5.737022284383749" fill="#dbff1b" stroke="none" /><path d="M 120.32669344350535 105.2749913415812 l 30.82933526023313 8.000537668186 a52.85053399188021,52.85053399188021 0 0,0 -0.2360957266734559,0.8786000287180604 l -30.687051457217898 -8.53002863007961" fill="#85ff25" stroke="none" /><path d="M 120.13307415673323 105.97154293290107 l 22.44026320223983 6.655863585192225 a44.406536109610215,44.406536109610215 0 0,0 -0.22366774505411594,0.7309591321659694 l -22.32236868467958 -7.0411496899102515" fill="#e8ff1a" stroke="none" /><path d="M 120.02730092923936 106.31721596034902 l 32.86575186061878 10.366851376345544 a55.46199722626366,55.46199722626366 0 0,0 -0.2950254697280508,0.9079950312294246 l -32.68243413987448 -10.931045307552765" fill="#68ff28" stroke="none" /><path d="M 119.79798401119884 107.00284435728193 l 26.068571173821912 9.220845235744116 a48.65129996774408,48.65129996774408 0 0,0 -0.28605977221778994,0.7871136353598378 l -25.905987140598896 -9.668206668110086" fill="#b5ff20" stroke="none" /><path d="M 119.41010516605496 108.01547362559984 l 22.65277931589785 9.354547726544686 a45.508283781264076,45.508283781264076 0 0,0 -0.30522843420061935,0.7214698554283896 l -22.488399900504923 -9.743092107639239" fill="#daff1c" stroke="none" /><path d="M 119.12269723197855 108.67885076344098 l 31.61262682552582 14.347414861554167 a55.716083996031294,55.716083996031294 0 0,0 -0.4038762968800002,0.8699136129574173 l -31.360975911805987 -14.889448541790415" fill="#65ff29" stroke="none" /><path d="M 118.81262510543309 109.33194174019688 l 21.659115499902917 10.743934079190067 a45.17745651916505,45.17745651916505 0 0,0 -0.3515695257159497,0.6936800276471156 l -21.4709673044007 -11.115168318539878" fill="#deff1b" stroke="none" /><line stroke="#e1ed5e" stroke-width="0.3" x1="174.80103733775053" x2="179.2010983576182" y1="140.37084112569926" y2="142.7455964860345" /><path d="M 175.68104954172406 140.8457921977663 a86.0,86.0 0 0,1 -30.038265399797805,32.042727171017184" fill="none" id="id89" stroke="none" /><text fill="#e1ed5e" style="font-size:6.75px; font-family:Arial;" text-anchor="middle"><textPath startOffset="22.206326154141568" xlink:href="#id89">May</textPath></text><path d="M 118.48025628344425 109.97397251340804 l 32.460453998304246 17.51922002520478 a57.886367997778834,57.886367997778834 0 0,0 -0.48079753095161026,0.8727871757605048 l -32.154080057901126 -18.07537771936309" fill="#4eff2b" stroke="none" /><path d="M 118.12598468904814 110.60418214915192 l 25.17034769735209 14.725321482891797 a50.161301342363174,50.161301342363174 0 0,0 -0.44242058611761176,0.7415223503176847 l -24.91314623553625 -15.156405927095587" fill="#a3ff21" stroke="none" /><path d="M 117.55443506779139 111.5257021239791 l 23.216826197192976 15.243453975002092 a48.773798943584815,48.773798943584815 0 0,0 -0.4668277202372572,0.6978441017378595 l -22.950995371544995 -15.64083499094576" fill="#b3ff20" stroke="none" /><path d="M 117.14729908036423 112.12312394758627 l 23.865268772427306 16.87272205462988 a50.22738105121613,50.22738105121613 0 0,0 -0.5051922787651231,0.7016678898394023 l -23.57129670128658 -17.281023549920413" fill="#a2ff22" stroke="none" /><path d="M 116.71984013943494 112.70617746262583 l 13.16357820896514 10.003610044797833 a37.53336037204542,37.53336037204542 0 0,0 -0.39533921148542617,0.5110292231069229 l -12.989432180261645 -10.228717262018007" fill="#ffbf11" stroke="none" /><path d="M 116.498646956653 112.99209946851258 l 36.02004775178668 28.364510403871396 a66.84745675053657,66.84745675053657 0 0,0 -0.719667266475436,0.8978955688289555 l -35.52646257325639 -28.9803338062786" fill="#37ff77" stroke="none" /><path d="M 116.0416608686014 113.55231037782055 l 21.888998855875194 18.492256430580113 a49.65469976822017,49.65469976822017 0 0,0 -0.5572143778759618,0.6481662067013294 l -21.56744196842845 -18.86629973644297" fill="#a9ff21" stroke="none" /><path d="M 115.56566222782051 114.09645910891815 l 18.26933510772768 16.54493920810625 a45.64758849620755,45.64758849620755 0 0,0 -0.5324543223085333,0.5778740058600857 l -17.981834377423425 -16.85696446876767" fill="#d8ff1c" stroke="none" /><path d="M 114.81725581225074 114.88116024355365 l 22.315412533221018 22.41165530349474 a52.626886188344585,52.626886188344585 0 0,0 -0.6474361215748801,0.6336525122013545 l -21.926326459270342 -22.792457918618666" fill="#87ff25" stroke="none" /><path d="M 114.29624159901734 115.38237550388516 l 17.08387143947934 18.38179102682717 a46.09479835971195,46.09479835971195 0 0,0 -0.5858439261638657,0.5351545363252707 l -16.764927963848606 -18.67313832973902" fill="#d3ff1c" stroke="none" /><path d="M 113.75828350139079 115.86535959552629 l 16.914893989503675 19.505403827196474 a46.81810250847568,46.81810250847568 0 0,0 -0.613394110535067,0.5227477682990199 l -16.576634402391562 -19.79367598571844" fill="#caff1d" stroke="none" /><path d="M 113.20401910651253 116.32954008644616 l 30.007677065381422 37.11078888840686 a68.72495505267784,68.72495505267784 0 0,0 -0.9262896948093946,0.7359005548985385 l -29.36442987785468 -37.621823357310525" fill="#39ff8d" stroke="none" /><path d="M 112.63410532772338 116.77436683061366 l 19.345072650740978 25.684552771325922 a53.154752167066576,53.154752167066576 0 0,0 -0.735598565401235,0.5441782330058341 l -18.90008911492118 -26.013740953071526" fill="#81ff25" stroke="none" /><path d="M 111.7513745106137 117.40417183066458 l 16.161820508391646 23.936187291993406 a49.88157724610717,49.88157724610717 0 0,0 -0.7157419662385235,0.47435474700637453 l -15.74740384341316 -24.210840060091098" fill="#a6ff21" stroke="none" /><line stroke="#e1ed5e" stroke-width="0.3" x1="143.8653032363475" x2="146.44561519142675" y1="172.8068346515853" y2="177.08958963109032" /><path d="M 144.38136562736335 173.6633856474863 a86.0,86.0 0 0,1 -40.68145358897372,12.25698825130547" fill="none" id="id90" stroke="none" /><text fill="#e1ed5e" style="font-size:6.75px; font-family:Arial;" text-anchor="middle"><textPath startOffset="21.466115282336833" xlink:href="#id90">June</textPath></text><path d="M 109.57404056367764 118.69057910512821 l 13.548846220609938 26.450251634640356 a50.71846303975916,50.71846303975916 0 0,0 -0.7804511018873578,0.3913343843854256 l -13.091541211039821 -26.679553859935083" fill="#9dff22" stroke="none" /><path d="M 108.92500713936063 119.00905698771935 l 12.811942622812996 27.287703375203098 a51.14572323337629,51.14572323337629 0 0,0 -0.8001431886564748,0.3673064933670513 l -12.340331438389102 -27.504196938904222" fill="#98ff23" stroke="none" /><path d="M 108.59647513512805 119.15986991738527 l 10.56726142287617 23.552368972482952 a46.814358372723206,46.814358372723206 0 0,0 -0.7380602945891112,0.32354394355517496 l -10.160280453629305 -23.730777469332583" fill="#caff1d" stroke="none" /><path d="M 107.93186726928326 119.44442032107085 l 8.866571223482074 21.73578198210012 a44.474673664067595,44.474673664067595 0 0,0 -0.7113383587464844,0.28305621329585406 l -8.491111788693724 -21.885185039802046" fill="#e7ff1a" stroke="none" /><path d="M 107.2578585660854 119.70592522655815 l 9.937249242811106 26.98078072939441 a49.75259034037474,49.75259034037474 0 0,0 -0.8061825381348346,0.28906837557431664 l -9.471347144046536 -27.147836646008688" fill="#a8ff21" stroke="none" /><path d="M 106.57524785965236 119.94407469862006 l 9.017565365174502 27.352124373336995 a49.80026376354374,49.80026376354374 0 0,0 -0.8164365629823439,0.26139720525005683 l -8.545407457101218 -27.50329442524676" fill="#a7ff21" stroke="none" /><path d="M 106.2309692047433 120.05430185196036 l 8.574910786623683 27.59825054787227 a49.899697719901624,49.899697719901624 0 0,0 -0.8224540070821408,0.24779864564075274 l -8.098581805101297 -27.741764562618748" fill="#a6ff21" stroke="none" /><path d="M 105.53697534728816 120.25689768951611 l 3.3472691161304864 12.245907516626612 a33.69513534553977,33.69513534553977 0 0,0 -0.5607986587631555,0.14811202279904248 l -3.1359800145558334 -12.301710888729238" fill="#ff8b0c" stroke="none" /><path d="M 105.18746579009965 120.34920634021253 l 3.660453111740509 14.35909530461688 a35.81831754789731,35.81831754789731 0 0,0 -0.5987572724387595,0.14715996987338475 l -3.4127425545585384 -14.419976532804293" fill="#ffa80f" stroke="none" /><path d="M 104.83641907484287 120.43548508189849 l 5.75761417233345 24.327841881624025 a45.99988023120821,45.99988023120821 0 0,0 -0.7720967100877384,0.1757266974848964 l -5.33799731285285 -24.423345312686607" fill="#d4ff1c" stroke="none" /><path d="M 104.13013068566511 120.58985236759428 l 5.654613322056315 28.189823121352905 a49.751361349249876,49.751361349249876 0 0,0 -0.8411116427680615,0.16120104819908088 l -5.168534064716549 -28.282981367900454" fill="#a8ff21" stroke="none" /><path d="M 103.06178313531738 120.77559828337769 l 3.442615719964182 23.35972146982352 a44.612034858162446,44.612034858162446 0 0,0 -0.7606806748421169,0.10542341019502245 l -3.0400064539352343 -23.415519445511144" fill="#e5ff1a" stroke="none" /><path d="M 102.34483914955558 120.86867818915974 l 2.451873742643765 21.82126825431972 a42.95858449620211,42.95858449620211 0 0,0 -0.735547937180867,0.07624255116286277 l -2.0758932088572957 -21.86024017393834" fill="#faff18" stroke="none" /><path d="M 101.62511606390274 120.93702456842531 l 1.808396670797468 23.29830242094715 a44.36838022236165,44.36838022236165 0 0,0 -0.761947150100153,0.05254833653624029 l -1.4070867599183845 -23.325979101999675" fill="#e8ff1a" stroke="none" /><path d="M 101.26447882468166 120.96189622390904 l 2.5915801986590936 42.96191768486582 a64.04001230352134,64.04001230352134 0 0,0 -1.1009146924056556,0.05690471450165126 l -1.8516774378399583 -43.00016220612967" fill="#33ff56" stroke="none" /><line stroke="#e1ed5e" stroke-width="0.3" x1="102.19456741930631" x2="102.32365962044197" y1="184.97166512339345" y2="189.96999836594603" /><path d="M 102.22038585953345 185.97133177190398 a86.0,86.0 0 0,1 -42.740103519485714,-10.115201625700543" fill="none" id="id91" stroke="none" /><text fill="#e1ed5e" style="font-size:6.75px; font-family:Arial;" text-anchor="middle"><textPath startOffset="22.20632615414155" xlink:href="#id91">July</textPath></text><path d="M 100.54218724476979 120.99299961872073 l 0.7976269647786097 30.883394489643983 a51.89369294820408,51.89369294820408 0 0,0 -0.8931653558006454,0.015376651592310095 l -0.2659019190852964 -30.892548618515455" fill="#8fff24" stroke="none" /><path d="M 99.81925306533755 120.99922214144158 l -0.20514897254310702 23.834256744472594 a44.83513961910802,44.83513961910802 0 0,0 -0.7716774651255206,-0.013285127379616598 l 0.6153861275612955 -23.827194139813816" fill="#e2ff1b" stroke="none" /><path d="M 99.09653310690486 120.98055641714683 l -1.089649570650475 25.304141708648913 a46.327592143711655,46.327592143711655 0 0,0 -0.79641969169302,-0.041165801030645564 l 1.525057330756984 -25.281636100856065" fill="#d0ff1d" stroke="none" /><path d="M 98.73552117531835 120.96189622390904 l -1.4871237748710517 24.652792622923602 a45.697605576870465,45.697605576870465 0 0,0 -0.7847742054407588,-0.0541226239208861 l 1.9112607410907405 -24.62354165448643" fill="#d8ff1c" stroke="none" /><path d="M 98.01472825383883 120.90594882070398 l -2.904509881580883 30.58600670209164 a51.723606292761204,51.723606292761204 0 0,0 -0.8856248956610828,-0.09179864153699038 l 3.4305673738475595 -30.53147869209889" fill="#91ff23" stroke="none" /><path d="M 97.2962882734958 120.8252237178851 l -3.910107884887216 30.11743843310081 a51.37019989139148,51.37019989139148 0 0,0 -0.8759142783868878,-0.12139373763533536 l 4.427950754460935 -30.04567012997287" fill="#95ff23" stroke="none" /><path d="M 96.58105272829116 120.7198165907248 l -4.418486417249281 26.77731503248821 a48.139410873645275,48.139410873645275 0 0,0 -0.8164238426370641,-0.1419457500217832 l 4.878759231358394 -26.69729070394542" fill="#bbff1f" stroke="none" /><path d="M 95.51606077576429 120.51570834832081 l -5.594468610993735 25.596797959844384 a47.201033278031,47.201033278031 0 0,0 -0.7922577694448992,-0.18031528895580737 l 6.034246529831497 -25.49670593731089" fill="#c6ff1e" stroke="none" /><path d="M 94.81253420990036 120.34920634021253 l -5.682681469806818 22.291820799184492 a44.004741755347744,44.004741755347744 0 0,0 -0.7323846573860171,-0.19342944455621383 l 6.065556570004325 -22.190700005324697" fill="#edff1a" stroke="none" /><path d="M 94.11515582081647 120.15858648285463 l -7.272836325780495 24.913166021879874 a46.95303430150976,46.95303430150976 0 0,0 -0.7738866760818133,-0.23316570721424532 l 7.7005979763025545 -24.784284945559904" fill="#c9ff1d" stroke="none" /><path d="M 93.76903079525671 120.05430185196036 l -8.505982053551342 27.376404222865045 a49.66738981611407,49.66738981611407 0 0,0 -0.8142581980350323,-0.2606997615844254 l 8.975961596677315 -27.22593161462091" fill="#a9ff21" stroke="none" /><path d="M 93.08242187328487 119.8279376855182 l -8.698328508196626 24.932123999095044 a47.40590324042632,47.40590324042632 0 0,0 -0.7681572182569968,-0.2754338487422023 l 9.12620528708335 -24.778702609312884" fill="#c3ff1e" stroke="none" /><path d="M 92.40401165467489 119.57807347666478 l -11.119280811258157 28.659087775517573 a51.740554937808696,51.740554937808696 0 0,0 -0.8275505675003957,-0.329299449505686 l 11.610952454800412 -28.46344148160582" fill="#91ff24" stroke="none" /><path d="M 91.7346041902142 119.30500536409082 l -12.475010653455623 29.137158476660087 a52.69542387944727,52.69542387944727 0 0,0 -0.8307793041253164,-0.3641892325753224 l 12.974710632238683 -28.91810469079031" fill="#86ff25" stroke="none" /><path d="M 90.7491055286396 118.85261126421891 l -10.900319554239807 22.214012693372265 a45.74427865842621,45.74427865842621 0 0,0 -0.7039088044924441,-0.35295448747958724 l 11.28108226641501 -22.023090364983375" fill="#d7ff1c" stroke="none" /><path d="M 90.10565033884886 118.52300852407294 l -15.835869270426048 29.6460051976857 a54.61042070149125,54.61042070149125 0 0,0 -0.8253381792814226,-0.4500401816059556 l 16.343830261576112 -29.369024364319976" fill="#71ff27" stroke="none" /><line stroke="#e1ed5e" stroke-width="0.3" x1="58.666819895761336" x2="56.23545636021788" y1="174.27360380694188" y2="178.64263932499728" /><path d="M 58.180547188652646 175.14741091055294 a86.0,86.0 0 0,1 -31.652253787137756,-30.449443065178592" fill="none" id="id92" stroke="none" /><text fill="#e1ed5e" style="font-size:6.75px; font-family:Arial;" text-anchor="middle"><textPath startOffset="22.20632615414155" xlink:href="#id92">August</textPath></text><path d="M 89.4739219176387 118.17145234162733 l -17.79112331158522 30.713295762286698 a56.494092540445784,56.494092540445784 0 0,0 -0.8372750807467876,-0.4946768758717241 l 18.317166263360388 -30.402500314121223" fill="#5dff2a" stroke="none" /><path d="M 89.1626897886671 117.98757091392108 l -9.609458624120647 15.949605121112548 a39.62073034464831,39.62073034464831 0 0,0 -0.5811432885726108,-0.35698567304239565 l 9.882581112625566 -15.781830981241775" fill="#ffda14" stroke="none" /><path d="M 88.54995079064634 117.60387380957326 l -14.017154515119365 21.550668887245784 a46.708207836962,46.708207836962 0 0,0 -0.6702078475137644,-0.4441772160152048 l 14.386037061373091 -21.30619365013926" fill="#ccff1d" stroke="none" /><path d="M 87.95078237400918 117.19931262002967 l -14.850166414354744 21.197447215909968 a46.881638491512064,46.881638491512064 0 0,0 -0.6569516682723683,-0.46871757216370846 l 15.212845410476 -20.93868538190204" fill="#caff1d" stroke="none" /><path d="M 87.07902340077011 116.55440617244103 l -23.529996499608654 30.146724305177823 a59.242459669900875,59.242459669900875 0 0,0 -0.7984825867885494,-0.6343628586037862 l 24.04543657911456 -29.737227532568905" fill="#40ff2d" stroke="none" /><path d="M 86.51685102203217 116.09983520530335 l -19.642483692079722 23.454517263147928 a51.59316174639231,51.59316174639231 0 0,0 -0.6759552366179278,-0.5760637171814872 l 20.043304405274707 -23.112929155743487" fill="#93ff23" stroke="none" /><path d="M 85.97065885151581 115.62618273729859 l -16.0839765186906 17.914679924269578 a45.07550741817954,45.07550741817954 0 0,0 -0.5728892018058217,-0.5233207027777441 l 16.389965269963277 -17.635166454905256" fill="#dfff1b" stroke="none" /><path d="M 85.44109423537348 115.13401014063109 l -21.270813188064277 22.111050630589226 a51.681363295492744,51.681363295492744 0 0,0 -0.6358039366035443,-0.622267970956506 l 21.648267077043617 -21.74163255671015" fill="#92ff23" stroke="none" /><path d="M 85.18274418774928 114.88116024355367 l -25.430640194440333 25.540318438501668 a57.041993932621885,57.041993932621885 0 0,0 -0.689826148795939,-0.6987902467363919 l 25.866506968291805 -25.098787697784612" fill="#57ff2a" stroke="none" /><path d="M 84.67929136418377 114.36230785411682 l -19.24256516513286 18.038829102099076 a47.37566434251697,47.37566434251697 0 0,0 -0.5526113882994378,-0.5997505199243257 l 19.550222961428027 -17.704927327373404" fill="#c4ff1e" stroke="none" /><path d="M 84.19399662182784 113.82643327865904 l -19.10523007204552 16.71245934499573 a46.38338262454253,46.38338262454253 0 0,0 -0.5205043593770494,-0.6054641617019175 l 19.390076940993346 -16.38111808413228" fill="#d0ff1d" stroke="none" /><path d="M 83.72743513129214 113.27417163493432 l -19.292876613222013 15.737958801319268 a45.897759643089,45.897759643089 0 0,0 -0.4941267301006525,-0.6164990712585924 l 19.560921255377526 -15.403531896482415" fill="#d5ff1c" stroke="none" /><path d="M 82.05923443525364 110.91462005526583 l -33.901829966656244 20.624849699356155 a60.68272294348137,60.68272294348137 0 0,0 -0.5352190858970682,-0.8970579737077905 l 34.251829928251546 -20.038229631762253" fill="#32ff2f" stroke="none" /><line stroke="#e1ed5e" stroke-width="0.3" x1="26.63291911575756" x2="22.317208475507996" y1="142.92168965132927" y2="145.44649492493687" /><path d="M 25.769776987707644 143.4266507060508 a86.0,86.0 0 0,1 -11.730757126820373,-40.83630448921669" fill="none" id="id93" stroke="none" /><text fill="#e1ed5e" style="font-size:6.75px; font-family:Arial;" text-anchor="middle"><textPath startOffset="21.46611528233685" xlink:href="#id93">September</textPath></text><path d="M 81.69416730710424 110.29060199501025 l -21.472054684275076 12.070489907663253 a45.63221181655232,45.63221181655232 0 0,0 -0.37901591570057097,-0.6880239796112246 l 21.676647009427164 -11.699095409654205" fill="#d9ff1c" stroke="none" /><path d="M 81.35079622478065 109.6543875284942 l -23.793903612593112 12.317714421505377 a47.79320693189102,47.79320693189102 0 0,0 -0.3719252119995166,-0.7338437278290619 l 24.002407494378897 -11.90631648197363" fill="#bfff1e" stroke="none" /><path d="M 81.02952815118164 109.00673069616217 l -23.390707536093277 11.10535390206467 a46.893128129470064,46.893128129470064 0 0,0 -0.3399202093851277,-0.7321578902940945 l 23.578402362318233 -10.701075944491748" fill="#c9ff1d" stroke="none" /><path d="M 80.58989483394504 108.01547362559985 l -16.690943200748162 6.892585788043597 a39.05810964016283,39.05810964016283 0 0,0 -0.2512689764016342,-0.6236289930100769 l 16.807114791407184 -6.604257427190715" fill="#ffd313" stroke="none" /><path d="M 80.32549172779594 107.34259656027581 l -26.887290558026432 10.034432598522306 a49.69871479920354,49.69871479920354 0 0,0 -0.2922183589010594,-0.8040594209044806 l 27.05603317793272 -9.570125380611708" fill="#a8ff21" stroke="none" /><path d="M 80.20201598880116 107.00284435728193 l -2.938862822723726 1.0395199290642458 a24.117293116424793,24.117293116424793 0 0,0 -0.13506737158672935,-0.3925690054662188 l 2.9563210252536836 -0.9887782205087301" fill="#ff0000" stroke="none" /><path d="M 80.0844068197444 106.66101706037122 l -27.39933982227266 9.16404891118209 a49.89123768797235,49.89123768797235 0 0,0 -0.26539227886365035,-0.8167934475520842 l 27.55302435215256 -8.691056563652204" fill="#a6ff21" stroke="none" /><path d="M 79.76711848015287 105.62410040840567 l -25.510621046151176 7.09114488233435 a47.477842093014075,47.477842093014075 0 0,0 -0.21209465228033822,-0.789283102282441 l 25.62890377477329 -6.65097084687637" fill="#c2ff1e" stroke="none" /><path d="M 79.58551787078972 104.9243191809786 l -28.14440609253906 6.788907888113174 a49.95162974022421,49.95162974022421 0 0,0 -0.19442942599106558,-0.8375968784786687 l 28.25709608446068 -6.3034423522859315" fill="#a6ff21" stroke="none" /><path d="M 79.35854240842038 103.8639653848113 l -12.181608946885541 2.2803290462043018 a33.39320366546943,33.39320366546943 0 0,0 -0.1009008368698133,-0.5659054779755947 l 12.219056226094544 -2.0703048174954937" fill="#ff860c" stroke="none" /><path d="M 79.29508885075956 103.50808413554451 l -25.49400095392511 4.319511426703332 a46.85734448090436,46.85734448090436 0 0,0 -0.12789432290162348,-0.796398070793087 l 25.564577031188026 -3.880034126217031" fill="#caff1d" stroke="none" /><path d="M 79.1416061653843 102.43462659150553 l -26.274770381811415 3.066835115132374 a47.453147945761074,47.453147945761074 0 0,0 -0.0877153328468825,-0.8121350433262917 l 26.32366801615935 -2.6141037499213002" fill="#c3ff1e" stroke="none" /><path d="M 79.07016306316243 101.71520430193888 l -28.639747036051748 2.347032968814882 a49.735756020083045,49.735756020083045 0 0,0 -0.06258046816579022,-0.8538607677087093 l 28.675904062881873 -1.853699064609412" fill="#a8ff21" stroke="none" /><path d="M 79.0235259727143 100.99374915477108 l -15.096030210085273 0.7151662973556516 a36.112961024785335,36.112961024785335 0 0,0 -0.024071639560700298,-0.621182057135676 l 15.106103982497173 -0.45520699320597885" fill="#ffac0f" stroke="none" /><line stroke="#e1ed5e" stroke-width="0.3" x1="15.007084014347285" x2="10.007500721073583" y1="101.09737516637583" y2="101.16192664675087" /><path d="M 14.007167355692545 101.11028546245083 a86.0,86.0 0 0,1 10.666146001902534,-42.60595125391555" fill="none" id="id94" stroke="none" /><text fill="#e1ed5e" style="font-size:6.75px; font-family:Arial;" text-anchor="middle"><textPath startOffset="22.20632615414155" xlink:href="#id94">October</textPath></text><path d="M 79.01574976396665 99.18683210126434 l -15.387938001513847 -0.5963032784025195 a36.39948744401149,36.39948744401149 0 0,0 0.02965066153890961,-0.6258786019356087 l 15.37539373174144 0.8610929869611373" fill="#ffaf10" stroke="none" /><path d="M 79.12142395522702 97.74499172005258 l -23.846193679143184 -2.575528334709403 a44.98487646801833,44.98487646801833 0 0,0 0.08977620442627658,-0.769147694120217 l 23.79832712171332 2.9856197671544815" fill="#e1ff1b" stroke="none" /><path d="M 79.21141760316559 97.0276538004421 l -17.647302367043913 -2.523206783504372 a38.82677349679959,38.82677349679959 0 0,0 0.10029160185564158,-0.6607963481289223 l 17.60125487174897 2.8266022440253864" fill="#ffd013" stroke="none" /><path d="M 79.26566170972629 96.67025291283419 l -31.16391512719231 -5.004642741269816 a52.563207299363455,52.563207299363455 0 0,0 0.15115210673024687,-0.8921082901521116 l 31.07315115894184 5.540336819737755" fill="#88ff25" stroke="none" /><path d="M 79.46518482838121 95.60439243477599 l -24.458444468077257 -5.235485327673222 a46.01251311672421,46.01251311672421 0 0,0 0.1724496690680269,-0.7730580524499593 l 24.364700412007192 5.655721549673141" fill="#d4ff1c" stroke="none" /><path d="M 79.62865764111835 94.90015583598534 l -25.317669051196386 -6.338127575618758 a47.09896985228969,47.09896985228969 0 0,0 0.20365520131989107,-0.7847665668705935 l 25.204817518006188 6.772990568038216" fill="#c7ff1e" stroke="none" /><path d="M 80.14247586403 93.16781622104843 l -29.773273055422006 -10.243798361905583 a52.48623815752046,52.48623815752046 0 0,0 0.3012883004653195,-0.8517825973343405 l 29.592531674146876 10.754778585666536" fill="#89ff24" stroke="none" /><path d="M 80.38941819471856 92.48833698450439 l -16.751796809094035 -6.416630255206408 a38.938668851539774,38.938668851539774 0 0,0 0.2451401514854496,-0.6238549468159476 l 16.638863107726895 6.704034206918118" fill="#ffd113" stroke="none" /><path d="M 80.65960295795068 91.81776055985345 l -39.66349027391425 -16.780222957548023 a64.0670215270793,64.0670215270793 0 0,0 0.4384298183881076,-1.0119564687771887 l 39.368769745683466 17.46047857091181" fill="#33ff56" stroke="none" /><path d="M 81.10775173730289 90.83032412892265 l -25.93097343982365 -12.586041542456014 a49.82401473156139,49.82401473156139 0 0,0 0.3811299562422377,-0.7683347349191736 l 25.710483470628 13.030535865874148" fill="#a7ff21" stroke="none" /><line stroke="#e1ed5e" stroke-width="0.3" x1="26.266209847984243" x2="21.928928074336255" y1="57.711370442889674" y2="55.22380399835377" /><path d="M 25.398753493254645 57.213857153982495 a86.0,86.0 0 0,1 29.58750427330803,-30.492523968695096" fill="none" id="id95" stroke="none" /><text fill="#e1ed5e" style="font-size:6.75px; font-family:Arial;" text-anchor="middle"><textPath startOffset="21.46611528233685" xlink:href="#id95">November</textPath></text><path d="M 82.34701348167596 88.62581576622439 l -25.716333944997984 -16.569565710826495 a51.59216140477905,51.59216140477905 0 0,0 0.48743135294597195,-0.7423913912796581 l 25.427305956694095 17.00977516608382" fill="#93ff23" stroke="none" /><path d="M 82.7489923806493 88.02491185347247 l -40.965440688094084 -28.436875922018494 a70.86805834373371,70.86805834373371 0 0,0 0.7042509254923665,-0.99611299028624 l 40.469877142797834 29.13781541263652" fill="#3cffa5" stroke="none" /><path d="M 84.31358615837235 86.03803664274999 l -38.967859080588326 -34.68401548541594 a73.16775796904793,73.16775796904793 0 0,0 0.845458179669311,-0.9335760385496249 l 38.365057260302976 35.349644311235124" fill="#3fffbf" stroke="none" /><path d="M 84.80347519578584 85.50635884689758 l -20.90397293387764 -19.93710313911835 a49.88709341557457,49.88709341557457 0 0,0 0.598017342508618,-0.6163094386636057 l 20.557691327665903 20.293976773332076" fill="#a6ff21" stroke="none" /><path d="M 85.83668400450813 84.49514656593479 l -19.449830281502003 -21.29210192924591 a49.83833390722546,49.83833390722546 0 0,0 0.6383792484555614,-0.5731431923753625 l 19.08044004545047 21.623744130390552" fill="#a7ff21" stroke="none" /><path d="M 86.10567301691215 84.25364557470407 l -41.68298094926353 -47.23906327588782 a84.0,84.0 0 0,0 1.092424805412906,-0.9473400263212777 l 40.863662345203856 47.94956829562878" fill="#4dd2ff" stroke="none" /><path d="M 88.09926311788651 82.69761687909137 l -19.026919163799597 -27.66308071875911 a54.57483712124821,54.57483712124821 0 0,0 0.7785888097644613,-0.5257066398985288 l 18.547925659628596 27.98649927095631" fill="#72ff27" stroke="none" /><line stroke="#e1ed5e" stroke-width="0.3" x1="56.762969772571076" x2="54.21961505331055" y1="26.818313649435495" y2="22.513508569990535" /><path d="M 56.25429882871897 25.957352633546506 a86.0,86.0 0 0,1 42.265352541879196,-11.944610805530505" fill="none" id="id96" stroke="none" /><text fill="#e1ed5e" style="font-size:6.75px; font-family:Arial;" text-anchor="middle"><textPath startOffset="22.20632615414155" xlink:href="#id96">December</textPath></text><path d="M 89.63071344664047 81.73862282372117 l -21.513712731193902 -37.88785473569138 a64.56982180309194,64.56982180309194 0 0,0 0.9712405371670171,-0.5404943073936306 l 20.85834810495484 38.25256444064519" fill="#34ff5c" stroke="none" /><path d="M 90.26544431104013 81.39251694778311 l -25.93990027489878 -49.58379921631007 a76.95919558924203,76.95919558924203 0 0,0 1.1790863840211283,-0.6039738418592365 l 25.082553403288887 50.02296558348181" fill="#44ffe7" stroke="none" /><path d="M 90.91171255644093 81.06846463323043 l -10.573214823656578 -22.024742463044188 a45.43117173347633,45.43117173347633 0 0,0 0.707908060827752,-0.3323723265694016 l 10.192528551529216 22.203479772253598" fill="#dbff1b" stroke="none" /><path d="M 92.91201910852362 80.23233633223022 l -12.041162253643902 -33.581586807790934 a56.675097210067655,56.675097210067655 0 0,0 0.921153838059942,-0.3213724867693776 l 11.461326411520675 33.783880147732525" fill="#5bff2a" stroke="none" /><path d="M 93.59665428221793 80.00007090966166 l -4.388792458401271 -13.707761821524743 a35.39320094345143,35.39320094345143 0 0,0 0.5818214605841843,-0.1807747599652515 l 4.152185625106358 13.781276716372519" fill="#ffa20e" stroke="none" /><path d="M 93.94186890950719 79.89281104454417 l -12.714531783157453 -42.20005959351055 a65.07385107022942,65.07385107022942 0 0,0 1.0752982329418486,-0.31390904081475995 l 11.986243332492183 42.412666963244014" fill="#35ff62" stroke="none" /><path d="M 94.63758080256005 79.69619591428918 l -7.368926433399127 -27.901070975051674 a49.85776911571162,49.85776911571162 0 0,0 0.831653969106159,-0.21200711427322072 l 6.887563575607969 28.02378108549376" fill="#a7ff21" stroke="none" /><path d="M 95.33964822691252 79.52364482259891 l -5.963805891532044 -26.2033884114256 a47.873491491652246,47.873491491652246 0 0,0 0.8050891352595952,-0.17596130200846918 l 5.511874032118929 26.302163211529937" fill="#beff1f" stroke="none" /></svg>