<?xml version="1.0" encoding="utf-8" ?>
<svg baseProfile="full" height="200mm" version="1.1" viewBox="0,0,200,200" width="200mm" xmlns="http://www.w3.org/2000/svg" xmlns:ev="http://www.w3.org/2001/xml-events" xmlns:xlink="http://www.w3.org/1999/xlink"><defs /><rect fill="#1a1a1a" height="200" width="200" x="0" y="0" /><text alignment-baseline="middle" fill="#e1ed5e" style="dominant-baseline: central; font-size:9.0px; font-family:Arial;" text-anchor="middle" x="100.0" y="100.0">2025</text><line stroke="#e1ed5e" stroke-width="0.3" x1="100.0" x2="100.0" y1="15.0" y2="10.0" /><path d="M 100.0 14.0 a86.0,86.0 0 0,1 42.46469731375804,11.215312516191453" fill="none" id="id85" stroke="none" /><text fill="#e1ed5e" style="font-size:6.75px; font-family:Arial;" text-anchor="middle"><textPath startOffset="22.20632615414155" xlink:href="#id85">January</textPath></text><path d="M 100.0 79.0 l 0.0 -46.96463234270985 a67.96463234270985,67.96463234270985 0 0,0 1.1698994225154256,0.010069693680019571 l -0.8084189432428973 46.95767402563839" fill="red" stroke="none" /><path d="M 100.72285384407766 79.0124445844662 l 1.1307449972164907 -32.830389551569 a53.84985635214408,53.84985635214408 0 0,0 0.926112823623544,0.039880366315303444 l -1.6956986532293663 32.806061458729495" fill="red" stroke="none" /><path d="M 101.44485096284872 79.0497635885617 l 4.0102813184406685 -58.14879448331267 a79.28691668046585,79.28691668046585 0 0,0 1.3607515536595491,0.10562050981052815 l -5.010623061462558 58.071148711313676" fill="red" stroke="none" /><path d="M 102.52436894288641 79.15227682838746 l 3.9610235513878944 -32.712461745449524 a53.95140150315534,53.95140150315534 0 0,0 0.9209896578686115,0.11957089017151262 l -4.523527937764352 32.63943253211387" fill="red" stroke="none" /><path d="M 102.88285421437855 79.19881850522331 l 5.471447505616358 -39.479128717579954 a60.85647177192133,60.85647177192133 0 0,0 1.0363886689193786,0.1527367493753593 l -6.150205154964393 39.379097484043626" fill="red" stroke="none" /><path d="M 103.2404852339499 79.25152402106235 l 4.927998780219877 -31.55344244262859 a52.9359499930427,52.9359499930427 0 0,0 0.8990813003719688,0.1483561181872244 l -5.470409286730721 31.46394006150174" fill="red" stroke="none" /><path d="M 103.95276090670814 79.375362276772 l 10.407306018247516 -54.30303561666325 a76.29133472563353,76.29133472563353 0 0,0 1.2876291282548418,0.2582862897420021 l -11.340501555969484 54.11584537084404" fill="red" stroke="none" /><path d="M 104.66035177308747 79.52364482259891 l 9.960493669390079 -43.76377922681291 a65.88295674697892,65.88295674697892 0 0,0 1.1036220769742753,0.2611916890205873 l -10.712339433326878 43.58584162565145" fill="red" stroke="none" /><path d="M 105.36241919743992 79.69619591428918 l 7.623387340656378 -28.8645399278129 a50.85427439731177,50.85427439731177 0 0,0 0.8444282297304387,0.2308141336465065 l -8.119113459610528 28.729039253340098" fill="red" stroke="none" /><path d="M 105.71112130821622 79.79150937346287 l 8.284809652663805 -29.315346176877657 a51.46354530337936,51.46354530337936 0 0,0 0.850397792900296,0.24825443519049228 l -8.788197663287528 29.16839341276846" fill="red" stroke="none" /><path d="M 106.40334571778207 80.00007090966166 l 17.77291801564673 -55.511152404941726 a79.28691668046585,79.28691668046585 0 0,0 1.296217165135149,0.42734241971572245 l -18.725818003024298 55.19699626096677" fill="red" stroke="none" /><path d="M 107.08798089147638 80.2323363322302 l 10.393518975858044 -28.986475921008 a51.79352241983203,51.79352241983203 0 0,0 0.8366322959667305,0.30813873523493673 l -10.89093359759735 28.80327391796674" fill="red" stroke="none" /><path d="M 107.4271985657038 80.35727306442388 l 9.096829888994833 -24.05840424329362 a46.7207917600341,46.7207917600341 0 0,0 0.7497949222703014,0.29090878107785145 l -9.509607976264801 23.89825275832522" fill="red" stroke="none" /><path d="M 108.09893153111575 80.62456947434976 l 9.554776976629954 -22.858313690827313 a45.77491206566435,45.77491206566435 0 0,0 0.7243688935781113,0.31013695696021265 l -9.94682962799838 22.69045720590431" fill="red" stroke="none" /><path d="M 108.76106565485865 80.91482961587045 l 6.670765736604415 -14.531645543040142 a36.98961655891766,36.98961655891766 0 0,0 0.5763718330357641,0.27061430391280716 l -6.919915780939777 14.414666256487331" fill="red" stroke="none" /><path d="M 110.36928655335952 81.73862282372117 l 10.983105503326884 -19.34237530528413 a43.2431132926053,43.2431132926053 0 0,0 0.6441231969666159,0.373117730958627 l -11.31442543275883 19.150453416935452" fill="red" stroke="none" /><line stroke="#e1ed5e" stroke-width="0.3" x1="143.23703022742887" x2="145.7803849466894" y1="26.81831364943548" y2="22.513508569990506" /><path d="M 143.74570117128098 25.957352633546492 a86.0,86.0 0 0,1 28.547481713284135,27.462654790039103" fill="none" id="id86" stroke="none" /><text fill="#e1ed5e" style="font-size:6.75px; font-family:Arial;" text-anchor="middle"><textPath startOffset="19.985693538727396" xlink:href="#id86">February</textPath></text><path d="M 110.99172775467656 82.1063720568725 l 9.94856498038676 -16.195444819976483 a40.00700865696338,40.00700865696338 0 0,0 0.5836848201605068,0.36550338083716105 l -10.225868952919528 16.021797097816375" fill="red" stroke="none" /><path d="M 111.90073688211348 82.69761687909136 l 17.493399635360337 -25.43350933445854 a51.868793754670996,51.868793754670996 0 0,0 0.7312730789579088,0.5123035243938133 l -17.928603853901897 25.128620967300794" fill="red" stroke="none" /><path d="M 112.77801427241765 83.33499621200491 l 12.580835876382434 -16.407844995808528 a41.67594759025449,41.67594759025449 0 0,0 0.5655375379097295,0.4414110187463284 l -12.861405969451594 16.188855587838976" fill="red" stroke="none" /><path d="M 113.06298171725822 83.55741782278167 l 33.58331075101026 -42.271845644322454 a74.98840333975755,74.98840333975755 0 0,0 1.0037612059943337,0.8116384216678605 l -34.30597535556908 41.68750112539046" fill="red" stroke="none" /><path d="M 113.6212207817346 84.01681056812373 l 19.963255685514206 -23.424955986795286 a51.777591532615276,51.777591532615276 0 0,0 0.6733705399377155,0.5839402967305006 l -20.363520024098687 23.077850696645115" fill="red" stroke="none" /><path d="M 113.89432698308785 84.25364557470407 l 20.46554367594259 -23.193473467266 a51.93179091854666,51.93179091854666 0 0,0 0.6651943405500667,0.5972180468197437 l -20.861749004088647 22.837756411676956" fill="red" stroke="none" /><path d="M 114.42810811169701 84.74124197986012 l 21.325342875807504 -22.55307793089359 a52.03887196609621,52.03887196609621 0 0,0 0.6455713395560021,0.621039117167372 l -21.710397458975923 22.182655726963915" fill="red" stroke="none" /><path d="M 114.94478906791727 85.2469230424477 l 36.377519379395274 -35.91086769375604 a72.11667374464744,72.11667374464744 0 0,0 0.864492569732928,0.8909355841520266 l -36.99027621283131 35.27936791405389" fill="red" stroke="none" /><path d="M 115.4437574822437 85.77008943001954 l 22.68316982329473 -20.900320300955002 a51.84395535457378,51.84395535457378 0 0,0 0.5990602601145552,0.6614973016276182 l -23.03957372402532 20.506770212057834" fill="red" stroke="none" /><path d="M 115.9244219780498 86.31012108654704 l 33.07118869223411 -28.430580987159 a64.61194167638905,64.61194167638905 0 0,0 0.717775249290046,0.8496194971914751 l -33.55567455501127 27.857102540338417" fill="red" stroke="none" /><path d="M 116.15771136456269 86.58626213691792 l 19.747469441949576 -16.39386745913098 a46.66556914678274,46.66556914678274 0 0,0 0.5077691865786889,0.6224649834410302 l -20.026737120604672 16.05151830608185" fill="red" stroke="none" /><path d="M 116.60985879189232 87.15038557335679 l 49.829576375676965 -38.54884327992963 a84.0,84.0 0 0,0 0.874896239103546,1.1512608964758657 l -50.48574855500462 37.68539760757273" fill="red" stroke="none" /><path d="M 117.2510076193507 88.02491185347247 l 32.60825149874642 -22.635587127305676 a60.69468315030798,60.69468315030798 0 0,0 0.588378693018613,0.8633731298874454 l -32.99305465743376 22.070935974147822" fill="red" stroke="none" /><path d="M 117.45458315368197 88.32363383020206 l 39.77777364941897 -26.609621465063736 a68.8575305570439,68.8575305570439 0 0,0 0.6505507496886671,0.9908334234973333 l -40.22992103446556 25.920969977588726" fill="red" stroke="none" /><line stroke="#e1ed5e" stroke-width="0.3" x1="172.23445277983987" x2="176.4835382374775" y1="55.19839476539836" y2="52.563006222186495" /><path d="M 173.08426987136738 54.67131705675599 a86.0,86.0 0 0,1 12.851231095245387,41.99856678651699" fill="none" id="id87" stroke="none" /><text fill="#e1ed5e" style="font-size:6.75px; font-family:Arial;" text-anchor="middle"><textPath startOffset="22.20632615414155" xlink:href="#id87">March</textPath></text><path d="M 117.84615892207809 88.93136811851018 l 27.04571252743003 -16.774423966849998 a52.8253337065932,52.8253337065932 0 0,0 0.4726212216060519,0.7768650209374379 l -27.330449547322303 16.306391172705478" fill="red" stroke="none" /><path d="M 118.03404312379186 89.2402003453031 l 48.13853815816133 -28.72129242989692 a77.0556107347731,77.0556107347731 0 0,0 0.6697979174958678,1.1449017591853998 l -48.62579575012753 27.888411258357625" fill="red" stroke="none" /><path d="M 118.3937258080291 89.86733742301442 l 31.387515136121895 -17.290629605097344 a56.83492679720373,56.83492679720373 0 0,0 0.4646712672662532,0.8609652869094353 l -31.680494502606614 16.74778333485545" fill="red" stroke="none" /><path d="M 118.89224826269711 90.83032412892265 l 34.365396631106165 -16.679833120257197 a59.199441337968175,59.199441337968175 0 0,0 0.4370661099332184,0.9205726932741155 l -34.64742093488114 16.08581801134254" fill="red" stroke="none" /><path d="M 119.04729006885535 91.15688171328212 l 27.94260295328572 -12.972960576619576 a51.80725183990772,51.80725183990772 0 0,0 0.3685658756846949,0.8120860518130557 l -28.161771145933766 12.490052515964456" fill="red" stroke="none" /><line stroke="#e1ed5e" stroke-width="0.3" x1="184.98032266829074" x2="189.97916517819016" y1="98.17113171792111" y2="98.06355123074" /><path d="M 185.9800911702706 98.14961562048488 a86.0,86.0 0 0,1 -9.607161424134198,41.387399972396054" fill="none" id="id88" stroke="none" /><text fill="#e1ed5e" style="font-size:6.75px; font-family:Arial;" text-anchor="middle"><textPath startOffset="21.466115282336823" xlink:href="#id88">April</textPath></text><line stroke="#e1ed5e" stroke-width="0.3" x1="174.80103733775053" x2="179.2010983576182" y1="140.37084112569926" y2="142.7455964860345" /><path d="M 175.68104954172406 140.8457921977663 a86.0,86.0 0 0,1 -30.038265399797805,32.042727171017184" fill="none" id="id89" stroke="none" /><text fill="#e1ed5e" style="font-size:6.75px; font-family:Arial;" text-anchor="middle"><textPath startOffset="22.206326154141568" xlink:href="#id89">May</textPath></text><line stroke="#e1ed5e" stroke-width="0.3" x1="143.8653032363475" x2="146.44561519142675" y1="172.8068346515853" y2="177.08958963109032" /><path d="M 144.38136562736335 173.6633856474863 a86.0,86.0 0 0,1 -40.68145358897372,12.25698825130547" fill="none" id="id90" stroke="none" /><text fill="#e1ed5e" style="font-size:6.75px; font-family:Arial;" text-anchor="middle"><textPath startOffset="21.466115282336833" xlink:href="#id90">June</textPath></text><line stroke="#e1ed5e" stroke-width="0.3" x1="102.19456741930631" x2="102.32365962044197" y1="184.97166512339345" y2="189.96999836594603" /><path d="M 102.22038585953345 185.97133177190398 a86.0,86.0 0 0,1 -42.740103519485714,-10.115201625700543" fill="none" id="id91" stroke="none" /><text fill="#e1ed5e" style="font-size:6.75px; font-family:Arial;" text-anchor="middle"><textPath startOffset="22.20632615414155" xlink:href="#id91">July</textPath></text><line stroke="#e1ed5e" stroke-width="0.3" x1="58.666819895761336" x2="56.23545636021788" y1="174.27360380694188" y2="178.64263932499728" /><path d="M 58.180547188652646 175.14741091055294 a86.0,86.0 0 0,1 -31.652253787137756,-30.449443065178592" fill="none" id="id92" stroke="none" /><text fill="#e1ed5e" style="font-size:6.75px; font-family:Arial;" text-anchor="middle"><textPath startOffset="22.20632615414155" xlink:href="#id92">August</textPath></text><line stroke="#e1ed5e" stroke-width="0.3" x1="26.63291911575756" x2="22.317208475507996" y1="142.92168965132927" y2="145.44649492493687" /><path d="M 25.769776987707644 143.4266507060508 a86.0,86.0 0 0,1 -11.730757126820373,-40.83630448921669" fill="none" id="id93" stroke="none" /><text fill="#e1ed5e" style="font-size:6.75px; font-family:Arial;" text-anchor="middle"><textPath startOffset="21.46611528233685" xlink:href="#id93">September</textPath></text><line stroke="#e1ed5e" stroke-width="0.3" x1="15.007084014347285" x2="10.007500721073583" y1="101.09737516637583" y2="101.16192664675087" /><path d="M 14.007167355692545 101.11028546245083 a86.0,86.0 0 0,1 10.666146001902534,-42.60595125391555" fill="none" id="id94" stroke="none" /><text fill="#e1ed5e" style="font-size:6.75px; font-family:Arial;" text-anchor="middle"><textPath startOffset="22.20632615414155" xlink:href="#id94">October</textPath></text><line stroke="#e1ed5e" stroke-width="0.3" x1="26.266209847984243" x2="21.928928074336255" y1="57.711370442889674" y2="55.22380399835377" /><path d="M 25.398753493254645 57.213857153982495 a86.0,86.0 0 0,1 29.58750427330803,-30.492523968695096" fill="none" id="id95" stroke="none" /><text fill="#e1ed5e" style="font-size:6.75px; font-family:Arial;" text-anchor="middle"><textPath startOffset="21.46611528233685" xlink:href="#id95">November</textPath></text><line stroke="#e1ed5e" stroke-width="0.3" x1="56.762969772571076" x2="54.21961505331055" y1="26.818313649435495" y2="22.513508569990535" /><path d="M 56.25429882871897 25.957352633546506 a86.0,86.0 0 0,1 42.265352541879196,-11.944610805530505" fill="none" id="id96" stroke="none" /><text fill="#e1ed5e" style="font-size:6.75px; font-family:Arial;" text-anchor="middle"><textPath startOffset="22.20632615414155" xlink:href="#id96">December</textPath></text></svg>