<?xml version="1.0" encoding="utf-8" ?>
<svg baseProfile="full" height="200mm" version="1.1" viewBox="0,0,200,200" width="200mm" xmlns="http://www.w3.org/2000/svg" xmlns:ev="http://www.w3.org/2001/xml-events" xmlns:xlink="http://www.w3.org/1999/xlink"><defs /><rect fill="#1a1a1a" height="200" width="200" x="0" y="0" /><text alignment-baseline="middle" fill="#e1ed5e" style="dominant-baseline: central; font-size:9.0px; font-family:Arial;" text-anchor="middle" x="100.0" y="100.0">2026</text><line stroke="#e1ed5e" stroke-width="0.3" x1="100.0" x2="100.0" y1="15.0" y2="10.0" /><path d="M 100.0 14.0 a86.0,86.0 0 0,1 42.46469731375804,11.215312516191453" fill="none" id="id97" stroke="none" /><text fill="#e1ed5e" style="font-size:6.75px; font-family:Arial;" text-anchor="middle"><textPath startOffset="22.20632615414155" xlink:href="#id97">January</textPath></text><path d="M 100.36148047927253 79.00311137660856 l 0.5070043447594528 -29.449761104427136 a50.454125050889466,50.454125050889466 0 0,0 0.8682274732351828,0.02242375411311099 l -1.0138584531895034 29.436670558171667" fill="red" stroke="none" /><path d="M 101.08401301168833 79.027996857942 l 2.9252784622701538 -56.59429217235544 a77.66984348462375,77.66984348462375 0 0,0 1.3345822471399835,0.08050564573351188 l -3.899022758249749 56.535553257241624" fill="red" stroke="none" /><path d="M 101.44485096284872 79.0497635885617 l 2.7395875231203957 -39.72382464004248 a60.818181573618894,60.818181573618894 0 0,0 1.0437842525845114,0.08101774684268317 l -3.422961965067248 39.67078163101134" fill="red" stroke="none" /><path d="M 102.16513564639614 79.11191278185805 l 4.680521875522458 -45.15520740008499 a66.39713691822354,66.39713691822354 0 0,0 1.1358124939356935,0.12762176780886014 l -5.457101072967877 45.067949678805526" fill="red" stroke="none" /><path d="M 102.88285421437855 79.19881850522331 l 7.257742312451227 -52.36810600086546 a73.86864240352523,73.86864240352523 0 0,0 1.2579865665297028,0.18539451915270092 l -8.158097859409585 52.23541699755179" fill="red" stroke="none" /><path d="M 103.95276090670814 79.375362276772 l 8.302612010945133 -43.32120482968265 a65.10963788220903,65.10963788220903 0 0,0 1.0989067968041246,0.22043036546050446 l -9.047085217216383 43.17187050814494" fill="red" stroke="none" /><path d="M 104.66035177308747 79.52364482259891 l 12.590374341759725 -55.31878051074978 a77.7334557669648,77.7334557669648 0 0,0 1.302132784255459,0.3081727598103232 l -13.540730812977708 55.09386183879859" fill="red" stroke="none" /><path d="M 105.36241919743992 79.69619591428918 l 14.507530853151323 -54.93007043358615 a77.81356430724861,77.81356430724861 0 0,0 1.2920835295697193,0.35317523736950074 l -15.450912271944752 54.67220865539036" fill="red" stroke="none" /><path d="M 106.40334571778207 80.00007090966166 l 17.263231990644943 -53.91922143515755 a77.61538323579892,77.61538323579892 0 0,0 1.2688902058613174,0.41833315088819956 l -18.188805018748678 53.61407456001012" fill="red" stroke="none" /><path d="M 107.08798089147638 80.2323363322302 l 17.923319126597868 -49.98632893194683 a74.10252770449495,74.10252770449495 0 0,0 1.1969946239186664,0.44086322184242327 l -18.78109607628911 49.670402442298084" fill="red" stroke="none" /><path d="M 107.76421540070413 80.48803036053334 l 20.970988711400565 -52.70143522928755 a77.72057512720124,77.72057512720124 0 0,0 1.2387776266638961,0.5053284977700289 l -21.875050207652848 52.332645845333936" fill="red" stroke="none" /><path d="M 108.76106565485865 80.91482961587045 l 13.485422318931652 -29.37674397132531 a53.324134968730995,53.324134968730995 0 0,0 0.8308961345414196,0.39011687626799113 l -13.98909666477267 29.140262112417318" fill="red" stroke="none" /><path d="M 109.41281617654863 81.2277094730956 l 23.661698974650093 -47.18930861721721 a73.78926828568405,73.78926828568405 0 0,0 1.1305201523532613,0.5790963316762847 l -24.47047961459211 46.77501976022842" fill="red" stroke="none" /><path d="M 110.05341064243156 81.56283822128135 l 15.749819256069127 -28.883925658436237 a53.8989052711624,53.8989052711624 0 0,0 0.8107317047880244,0.4511713159539431 l -16.24467504992919 28.608538944922113" fill="red" stroke="none" /><line stroke="#e1ed5e" stroke-width="0.3" x1="143.23703022742887" x2="145.7803849466894" y1="26.81831364943548" y2="22.513508569990506" /><path d="M 143.74570117128098 25.957352633546492 a86.0,86.0 0 0,1 28.547481713284135,27.462654790039103" fill="none" id="id98" stroke="none" /><text fill="#e1ed5e" style="font-size:6.75px; font-family:Arial;" text-anchor="middle"><textPath startOffset="19.985693538727396" xlink:href="#id98">February</textPath></text><path d="M 111.2981086023043 82.29822771554956 l 27.423304070523923 -42.96657971978157 a71.97219417447869,71.97219417447869 0 0,0 1.0385689553106467,0.6755141382090047 l -28.15884005161885 42.48816665741304" fill="red" stroke="none" /><path d="M 111.90073688211348 82.69761687909136 l 35.70221064634041 -51.90714936272591 a84.0,84.0 0 0,0 1.1842754416653962,0.8296606289442576 l -36.590417227589455 51.28490389101772" fill="red" stroke="none" /><path d="M 113.34407831869373 83.78471172551755 l 36.01720815399959 -43.7669353484666 a77.68142476160413,77.68142476160413 0 0,0 1.0251819709979038,0.8585604180555915 l -36.765247661956614 43.14047377301719" fill="red" stroke="none" /><line stroke="#e1ed5e" stroke-width="0.3" x1="172.23445277983987" x2="176.4835382374775" y1="55.19839476539836" y2="52.563006222186495" /><path d="M 173.08426987136738 54.67131705675599 a86.0,86.0 0 0,1 12.851231095245387,41.99856678651699" fill="none" id="id99" stroke="none" /><text fill="#e1ed5e" style="font-size:6.75px; font-family:Arial;" text-anchor="middle"><textPath startOffset="22.20632615414155" xlink:href="#id99">March</textPath></text><line stroke="#e1ed5e" stroke-width="0.3" x1="184.98032266829074" x2="189.97916517819016" y1="98.17113171792111" y2="98.06355123074" /><path d="M 185.9800911702706 98.14961562048488 a86.0,86.0 0 0,1 -9.607161424134198,41.387399972396054" fill="none" id="id100" stroke="none" /><text fill="#e1ed5e" style="font-size:6.75px; font-family:Arial;" text-anchor="middle"><textPath startOffset="21.466115282336823" xlink:href="#id100">April</textPath></text><line stroke="#e1ed5e" stroke-width="0.3" x1="174.80103733775053" x2="179.2010983576182" y1="140.37084112569926" y2="142.7455964860345" /><path d="M 175.68104954172406 140.8457921977663 a86.0,86.0 0 0,1 -30.038265399797805,32.042727171017184" fill="none" id="id101" stroke="none" /><text fill="#e1ed5e" style="font-size:6.75px; font-family:Arial;" text-anchor="middle"><textPath startOffset="22.206326154141568" xlink:href="#id101">May</textPath></text><line stroke="#e1ed5e" stroke-width="0.3" x1="143.8653032363475" x2="146.44561519142675" y1="172.8068346515853" y2="177.08958963109032" /><path d="M 144.38136562736335 173.6633856474863 a86.0,86.0 0 0,1 -40.68145358897372,12.25698825130547" fill="none" id="id102" stroke="none" /><text fill="#e1ed5e" style="font-size:6.75px; font-family:Arial;" text-anchor="middle"><textPath startOffset="21.466115282336833" xlink:href="#id102">June</textPath></text><line stroke="#e1ed5e" stroke-width="0.3" x1="102.19456741930631" x2="102.32365962044197" y1="184.97166512339345" y2="189.96999836594603" /><path d="M 102.22038585953345 185.97133177190398 a86.0,86.0 0 0,1 -42.740103519485714,-10.115201625700543" fill="none" id="id103" stroke="none" /><text fill="#e1ed5e" style="font-size:6.75px; font-family:Arial;" text-anchor="middle"><textPath startOffset="22.20632615414155" xlink:href="#id103">July</textPath></text><line stroke="#e1ed5e" stroke-width="0.3" x1="58.666819895761336" x2="56.23545636021788" y1="174.27360380694188" y2="178.64263932499728" /><path d="M 58.180547188652646 175.14741091055294 a86.0,86.0 0 0,1 -31.652253787137756,-30.449443065178592" fill="none" id="id104" stroke="none" /><text fill="#e1ed5e" style="font-size:6.75px; font-family:Arial;" text-anchor="middle"><textPath startOffset="22.20632615414155" xlink:href="#id104">August</textPath></text><line stroke="#e1ed5e" stroke-width="0.3" x1="26.63291911575756" x2="22.317208475507996" y1="142.92168965132927" y2="145.44649492493687" /><path d="M 25.769776987707644 143.4266507060508 a86.0,86.0 0 0,1 -11.730757126820373,-40.83630448921669" fill="none" id="id105" stroke="none" /><text fill="#e1ed5e" style="font-size:6.75px; font-family:Arial;" text-anchor="middle"><textPath startOffset="21.46611528233685" xlink:href="#id105">September</textPath></text><line stroke="#e1ed5e" stroke-width="0.3" x1="15.007084014347285" x2="10.007500721073583" y1="101.09737516637583" y2="101.16192664675087" /><path d="M 14.007167355692545 101.11028546245083 a86.0,86.0 0 0,1 10.666146001902534,-42.60595125391555" fill="none" id="id106" stroke="none" /><text fill="#e1ed5e" style="font-size:6.75px; font-family:Arial;" text-anchor="middle"><textPath startOffset="22.20632615414155" xlink:href="#id106">October</textPath></text><line stroke="#e1ed5e" stroke-width="0.3" x1="26.266209847984243" x2="21.928928074336255" y1="57.711370442889674" y2="55.22380399835377" /><path d="M 25.398753493254645 57.213857153982495 a86.0,86.0 0 0,1 29.58750427330803,-30.492523968695096" fill="none" id="id107" stroke="none" /><text fill="#e1ed5e" style="font-size:6.75px; font-family:Arial;" text-anchor="middle"><textPath startOffset="21.46611528233685" xlink:href="#id107">November</textPath></text><line stroke="#e1ed5e" stroke-width="0.3" x1="56.762969772571076" x2="54.21961505331055" y1="26.818313649435495" y2="22.513508569990535" /><path d="M 56.25429882871897 25.957352633546506 a86.0,86.0 0 0,1 42.265352541879196,-11.944610805530505" fill="none" id="id108" stroke="none" /><text fill="#e1ed5e" style="font-size:6.75px; font-family:Arial;" text-anchor="middle"><textPath startOffset="22.20632615414155" xlink:href="#id108">December</textPath></text></svg>