<?xml version="1.0" encoding="utf-8" ?>
<svg baseProfile="full" height="200mm" version="1.1" viewBox="0,0,200,200" width="200mm" xmlns="http://www.w3.org/2000/svg" xmlns:ev="http://www.w3.org/2001/xml-events" xmlns:xlink="http://www.w3.org/1999/xlink"><defs /><rect fill="#1a1a1a" height="200" width="200" x="0" y="0" /><text alignment-baseline="middle" fill="#e1ed5e" style="dominant-baseline: central; font-size:9.0px; font-family:Arial;" text-anchor="middle" x="100.0" y="100.0">2025</text><line stroke="#e1ed5e" stroke-width="0.3" x1="100.0" x2="100.0" y1="15.0" y2="10.0" /><path d="M 100.0 14.0 a86.0,86.0 0 0,1 42.46469731375804,11.215312516191453" fill="none" id="id85" stroke="none" /><text fill="#e1ed5e" style="font-size:6.75px; font-family:Arial;" text-anchor="middle"><textPath startOffset="22.20632615414155" xlink:href="#id85">January</textPath></text><path d="M 100.0 79.0 l 0.0 -38.77288587950956 a59.77288587950956,59.77288587950956 0 0,0 1.02889197310606,0.008855998045312608 l -0.6674114938335316 38.767141258072805" fill="red" stroke="none" /><path d="M 100.72285384407766 79.0124445844662 l 0.9335162344288388 -27.10399047040384 a48.12006179896507,48.12006179896507 0 0,0 0.8275714983184833,0.035636969560483484 l -1.3999285651366535 27.083905774319163" fill="red" stroke="none" /><path d="M 101.44485096284872 79.0497635885617 l 3.310793082973327 -48.0062647159743 a69.12029512397511,69.12029512397511 0 0,0 1.1862682131833793,0.0920772444547218 l -4.136651485519048 47.94216220933111" fill="red" stroke="none" /><path d="M 102.52436894288641 79.15227682838746 l 3.27012703949874 -27.00663207237944 a48.20389506573157,48.20389506573157 0 0,0 0.8228755433151467,0.10683286220853068 l -3.7345173113217327 26.946340887006773" fill="red" stroke="none" /><path d="M 102.88285421437855 79.19881850522331 l 4.517097210150324 -32.593031735439624 a53.90455720585406,53.90455720585406 0 0,0 0.9179972263367351,0.13528892826709982 l -5.077463416915715 32.51044832301156" fill="red" stroke="none" /><path d="M 103.2404852339499 79.25152402106235 l 4.068438839796158 -26.049773242260216 a47.3655623980665,47.3655623980665 0 0,0 0.8044720353427154,0.13274477881393365 l -4.51624008127775 25.975882200506657" fill="red" stroke="none" /><path d="M 103.95276090670814 79.375362276772 l 8.592024858495058 -44.83129746469004 a66.64721375436315,66.64721375436315 0 0,0 1.1248576795224248,0.2256358684005661 l -9.362448947484609 44.676757640212266" fill="red" stroke="none" /><path d="M 104.66035177308747 79.52364482259891 l 8.223147187200052 -36.1303375108964 a58.054303910796165,58.054303910796165 0 0,0 0.9724823326522394,0.23015514849476842 l -8.843853206814813 35.98343645026077" fill="red" stroke="none" /><path d="M 105.36241919743992 79.69619591428918 l 6.293687667299489 -23.829879140092114 a45.64698042935311,45.64698042935311 0 0,0 0.7579618298228281,0.20717960026457719 l -6.702947386346028 23.718012999001242" fill="red" stroke="none" /><path d="M 105.71112130821622 79.79150937346287 l 6.839742230965333 -24.20205408061351 a46.14998002995215,46.14998002995215 0 0,0 0.7625949772505657,0.2226223855906007 l -7.255327425939327 24.08073336610421" fill="red" stroke="none" /><path d="M 106.40334571778207 80.00007090966166 l 14.672899320024547 -45.82869001360268 a69.12029512397511,69.12029512397511 0 0,0 1.1300087927492537,0.3725461325326294 l -15.459590935016218 45.569330156810814" fill="red" stroke="none" /><path d="M 107.08798089147638 80.2323363322302 l 8.580642603497678 -23.930546602242327 a46.42240130615224,46.42240130615224 0 0,0 0.7498713811011939,0.27618395808447926 l -8.991296310371448 23.77929937635152" fill="red" stroke="none" /><path d="M 107.4271985657038 80.35727306442388 l 7.51012686690516 -19.86204758000473 a42.234475261408804,42.234475261408804 0 0,0 0.6777966276428503,0.26297456132301933 l -7.850906659547677 19.729830314791165" fill="red" stroke="none" /><path d="M 108.09893153111575 80.62456947434976 l 7.888197114281142 -18.871281300896907 a41.45357943371611,41.45357943371611 0 0,0 0.655985606835867,0.2808588023552892 l -8.211866478907325 18.732702970578824" fill="red" stroke="none" /><path d="M 108.76106565485865 80.91482961587045 l 5.507225878974734 -11.996981689759545 a34.2006479593418,34.2006479593418 0 0,0 0.5329141523794562,0.2502103401407917 l -5.712918242653788 11.900406366978752" fill="red" stroke="none" /><path d="M 110.36928655335952 81.73862282372117 l 9.067391248282803 -15.968606011388037 a39.36338645229615,39.36338645229615 0 0,0 0.5863331382622983,0.33964199886690044 l -9.340921119010428 15.810159855131086" fill="red" stroke="none" /><line stroke="#e1ed5e" stroke-width="0.3" x1="143.23703022742887" x2="145.7803849466894" y1="26.81831364943548" y2="22.513508569990506" /><path d="M 143.74570117128098 25.957352633546492 a86.0,86.0 0 0,1 28.547481713284135,27.462654790039103" fill="none" id="id86" stroke="none" /><text fill="#e1ed5e" style="font-size:6.75px; font-family:Arial;" text-anchor="middle"><textPath startOffset="19.985693538727396" xlink:href="#id86">February</textPath></text><path d="M 110.99172775467656 82.1063720568725 l 8.213299144655123 -13.37057488687689 a36.69173526558409,36.69173526558409 0 0,0 0.5353164262667702,0.3352150970182282 l -8.442234723294156 13.227215448535716" fill="red" stroke="none" /><path d="M 111.90073688211348 82.69761687909136 l 14.442135578897295 -20.99730170875011 a46.48454353382716,46.48454353382716 0 0,0 0.6553631348111606,0.45912375743406864 l -14.801429853292106 20.745593108552107" fill="red" stroke="none" /><path d="M 112.77801427241765 83.33499621200491 l 10.386439526328676 -13.54592743128155 a38.069571641011635,38.069571641011635 0 0,0 0.5165994550816237,0.4032140688559846 l -10.61807153656973 13.365134973202341" fill="red" stroke="none" /><path d="M 113.06298171725822 83.55741782278167 l 27.725584344048446 -34.898632552331144 a65.57154452385032,65.57154452385032 0 0,0 0.8777113484062607,0.7097148696783251 l -28.322199091019197 34.416211585388695" fill="red" stroke="none" /><path d="M 113.6212207817346 84.01681056812373 l 16.481190118335142 -19.339087732676195 a46.40924914374399,46.40924914374399 0 0,0 0.6035549400620873,0.5233968964927012 l -16.81163885704399 19.052525842763824" fill="red" stroke="none" /><path d="M 113.89432698308785 84.25364557470407 l 16.89586716274197 -19.14798125818458 a46.5365524972501,46.5365524972501 0 0,0 0.596086728424889,0.5351725503116918 l -17.22296487876285 18.85430969910359" fill="red" stroke="none" /><path d="M 114.42810811169701 84.74124197986012 l 17.605696977066717 -18.619285901467514 a46.6249560688186,46.6249560688186 0 0,0 0.5784086819886722,0.5564286938005045 l -17.92358890266781 18.313474120904708" fill="red" stroke="none" /><path d="M 114.94478906791727 85.2469230424477 l 30.03241667441438 -29.647160117507056 a63.200712723113384,63.200712723113384 0 0,0 0.7576132358019634,0.7807870355774783 l -30.538294173919454 29.125808886379463" fill="red" stroke="none" /><path d="M 115.4437574822437 85.77008943001954 l 18.72668668044331 -17.25480842606693 a46.464037540181316,46.464037540181316 0 0,0 0.5368949615133451,0.592852826242601 l -19.02092528257269 16.92990281255478" fill="red" stroke="none" /><path d="M 115.9244219780498 86.31012108654704 l 27.30278852619958 -23.47161293756794 a57.00498403273333,57.00498403273333 0 0,0 0.6332694168177637,0.749591246055952 l -27.702768556504463 22.99816274188288" fill="red" stroke="none" /><path d="M 116.15771136456269 86.58626213691792 l 16.303042116769912 -13.534387908720817 a42.18888478247267,42.18888478247267 0 0,0 0.459058275733793,0.5627511663881185 l -16.533598884580115 13.251752572724598" fill="red" stroke="none" /><path d="M 116.60985879189232 87.15038557335679 l 41.13811568117879 -31.825010156005614 a73.01130485988512,73.01130485988512 0 0,0 0.7604442384994754,1.0006554795936198 l -41.679835859902376 31.11216990053096" fill="red" stroke="none" /><path d="M 117.2510076193507 88.02491185347247 l 26.920598565858818 -18.6874035358855 a53.770988359479574,53.770988359479574 0 0,0 0.5212598898476843,0.7648845682594144 l -27.238282921375234 18.22124094435568" fill="red" stroke="none" /><path d="M 117.45458315368197 88.32363383020206 l 32.839585903610086 -21.96827197183449 a60.51004145466156,60.51004145466156 0 0,0 0.5716855152017284,0.8707162607409922 l -33.21286805416974 21.399737647115824" fill="red" stroke="none" /><line stroke="#e1ed5e" stroke-width="0.3" x1="172.23445277983987" x2="176.4835382374775" y1="55.19839476539836" y2="52.563006222186495" /><path d="M 173.08426987136738 54.67131705675599 a86.0,86.0 0 0,1 12.851231095245387,41.99856678651699" fill="none" id="id87" stroke="none" /><text fill="#e1ed5e" style="font-size:6.75px; font-family:Arial;" text-anchor="middle"><textPath startOffset="22.20632615414155" xlink:href="#id87">March</textPath></text><path d="M 117.84615892207809 88.93136811851018 l 22.32829840344408 -13.848566329980931 a47.27424021716185,47.27424021716185 0 0,0 0.4229563278488924,0.6952289941052113 l -22.5633705295792 13.462169562668638" fill="red" stroke="none" /><path d="M 118.03404312379186 89.2402003453031 l 39.742034661164155 -23.711617405417137 a67.27818188941798,67.27818188941798 0 0,0 0.5848086296732804,0.9996275166141769 l -40.144302965307766 23.024010476449064" fill="red" stroke="none" /><path d="M 118.3937258080291 89.86733742301442 l 25.912787595858642 -14.274733454128144 a50.5844651155719,50.5844651155719 0 0,0 0.41356871265284756,0.7662800143437751 l -26.154664407729957 13.82657245645191" fill="red" stroke="none" /><path d="M 118.89224826269711 90.83032412892265 l 28.371255885894158 -13.770474371900095 a52.53655220486287,52.53655220486287 0 0,0 0.38787437824613363,0.8169623608854601 l -28.604088457982048 13.280069595374094" fill="red" stroke="none" /><path d="M 119.04729006885535 91.15688171328212 l 23.068749853683656 -10.710168372790982 a46.43373598953488,46.43373598953488 0 0,0 0.3303377415034362,0.7278554254758621 l -23.249689912150437 10.311490938473057" fill="red" stroke="none" /><path d="M 119.196687751892 91.48605970444005 l 42.258316705391536 -18.742024148676737 a67.22800882541617,67.22800882541617 0 0,0 0.4600614012852644,1.0618851445299982 l -42.57466881651948 18.011839859560133" fill="red" stroke="none" /><path d="M 119.47837535516314 92.15188598940014 l 27.60263740548124 -11.121494549803051 a50.758918541502325,50.758918541502325 0 0,0 0.3195550682007599,0.8132327930334418 l -27.7899860235637 10.644712751873824" fill="red" stroke="none" /><path d="M 119.7369772167798 92.82701384747503 l 33.510841473352784 -12.178805255115812 a56.65529124399656,56.65529124399656 0 0,0 0.32522003882317896,0.9194408443545461 l -33.71551459298578 11.60016678433465" fill="red" stroke="none" /><path d="M 119.97218684219823 93.5106431181261 l 33.40011472097638 -10.852355129283872 a56.118958914331124,56.118958914331124 0 0,0 0.29060138278908815,0.9212857974303942 l -33.58197158753368 10.275819165427059" fill="red" stroke="none" /><path d="M 120.08093135843002 93.85539295169968 l 60.24279407529006 -18.433821144900946 a84.0,84.0 0 0,0 0.41117641155319085,1.3862824530138804 l -60.551176383954946 17.394109305140535" fill="red" stroke="none" /><path d="M 120.28053869075195 94.5502522615342 l 42.37198186732228 -11.386118282008592 a64.87514714387382,64.87514714387382 0 0,0 0.28051911100559995,1.0809545656517017 l -42.56169731019819 10.65506729080804" fill="red" stroke="none" /><line stroke="#e1ed5e" stroke-width="0.3" x1="184.98032266829074" x2="189.97916517819016" y1="98.17113171792111" y2="98.06355123074" /><path d="M 185.9800911702706 98.14961562048488 a86.0,86.0 0 0,1 -9.607161424134198,41.387399972396054" fill="none" id="id88" stroke="none" /><text fill="#e1ed5e" style="font-size:6.75px; font-family:Arial;" text-anchor="middle"><textPath startOffset="21.466115282336823" xlink:href="#id88">April</textPath></text><line stroke="#e1ed5e" stroke-width="0.3" x1="174.80103733775053" x2="179.2010983576182" y1="140.37084112569926" y2="142.7455964860345" /><path d="M 175.68104954172406 140.8457921977663 a86.0,86.0 0 0,1 -30.038265399797805,32.042727171017184" fill="none" id="id89" stroke="none" /><text fill="#e1ed5e" style="font-size:6.75px; font-family:Arial;" text-anchor="middle"><textPath startOffset="22.206326154141568" xlink:href="#id89">May</textPath></text><line stroke="#e1ed5e" stroke-width="0.3" x1="143.8653032363475" x2="146.44561519142675" y1="172.8068346515853" y2="177.08958963109032" /><path d="M 144.38136562736335 173.6633856474863 a86.0,86.0 0 0,1 -40.68145358897372,12.25698825130547" fill="none" id="id90" stroke="none" /><text fill="#e1ed5e" style="font-size:6.75px; font-family:Arial;" text-anchor="middle"><textPath startOffset="21.466115282336833" xlink:href="#id90">June</textPath></text><line stroke="#e1ed5e" stroke-width="0.3" x1="102.19456741930631" x2="102.32365962044197" y1="184.97166512339345" y2="189.96999836594603" /><path d="M 102.22038585953345 185.97133177190398 a86.0,86.0 0 0,1 -42.740103519485714,-10.115201625700543" fill="none" id="id91" stroke="none" /><text fill="#e1ed5e" style="font-size:6.75px; font-family:Arial;" text-anchor="middle"><textPath startOffset="22.20632615414155" xlink:href="#id91">July</textPath></text><line stroke="#e1ed5e" stroke-width="0.3" x1="58.666819895761336" x2="56.23545636021788" y1="174.27360380694188" y2="178.64263932499728" /><path d="M 58.180547188652646 175.14741091055294 a86.0,86.0 0 0,1 -31.652253787137756,-30.449443065178592" fill="none" id="id92" stroke="none" /><text fill="#e1ed5e" style="font-size:6.75px; font-family:Arial;" text-anchor="middle"><textPath startOffset="22.20632615414155" xlink:href="#id92">August</textPath></text><line stroke="#e1ed5e" stroke-width="0.3" x1="26.63291911575756" x2="22.317208475507996" y1="142.92168965132927" y2="145.44649492493687" /><path d="M 25.769776987707644 143.4266507060508 a86.0,86.0 0 0,1 -11.730757126820373,-40.83630448921669" fill="none" id="id93" stroke="none" /><text fill="#e1ed5e" style="font-size:6.75px; font-family:Arial;" text-anchor="middle"><textPath startOffset="21.46611528233685" xlink:href="#id93">September</textPath></text><line stroke="#e1ed5e" stroke-width="0.3" x1="15.007084014347285" x2="10.007500721073583" y1="101.09737516637583" y2="101.16192664675087" /><path d="M 14.007167355692545 101.11028546245083 a86.0,86.0 0 0,1 10.666146001902534,-42.60595125391555" fill="none" id="id94" stroke="none" /><text fill="#e1ed5e" style="font-size:6.75px; font-family:Arial;" text-anchor="middle"><textPath startOffset="22.20632615414155" xlink:href="#id94">October</textPath></text><line stroke="#e1ed5e" stroke-width="0.3" x1="26.266209847984243" x2="21.928928074336255" y1="57.711370442889674" y2="55.22380399835377" /><path d="M 25.398753493254645 57.213857153982495 a86.0,86.0 0 0,1 29.58750427330803,-30.492523968695096" fill="none" id="id95" stroke="none" /><text fill="#e1ed5e" style="font-size:6.75px; font-family:Arial;" text-anchor="middle"><textPath startOffset="21.46611528233685" xlink:href="#id95">November</textPath></text><line stroke="#e1ed5e" stroke-width="0.3" x1="56.762969772571076" x2="54.21961505331055" y1="26.818313649435495" y2="22.513508569990535" /><path d="M 56.25429882871897 25.957352633546506 a86.0,86.0 0 0,1 42.265352541879196,-11.944610805530505" fill="none" id="id96" stroke="none" /><text fill="#e1ed5e" style="font-size:6.75px; font-family:Arial;" text-anchor="middle"><textPath startOffset="22.20632615414155" xlink:href="#id96">December</textPath></text></svg>