<?xml version="1.0" encoding="utf-8" ?>
<svg baseProfile="full" height="200mm" version="1.1" viewBox="0,0,200,200" width="200mm" xmlns="http://www.w3.org/2000/svg" xmlns:ev="http://www.w3.org/2001/xml-events" xmlns:xlink="http://www.w3.org/1999/xlink"><defs /><rect fill="#1a1a1a" height="200" width="200" x="0" y="0" /><text alignment-baseline="middle" fill="#e1ed5e" style="dominant-baseline: central; font-size:9.0px; font-family:Arial;" text-anchor="middle" x="100.0" y="100.0">2024</text><line stroke="#e1ed5e" stroke-width="0.3" x1="100.0" x2="100.0" y1="15.0" y2="10.0" /><path d="M 100.0 14.0 a86.0,86.0 0 0,1 42.35913384403234,11.155469271406648" fill="none" id="id73" stroke="none" /><text fill="#e1ed5e" style="font-size:6.75px; font-family:Arial;" text-anchor="middle"><textPath startOffset="22.145653131862478" xlink:href="#id73">January</textPath></text><line stroke="#e1ed5e" stroke-width="0.3" x1="143.13028292997686" x2="145.6673583964461" y1="26.7553504044142" y2="22.446841604673864" /><path d="M 143.63769802327073 25.89364864446614 a86.0,86.0 0 0,1 29.32050498858742,28.57503671076993" fill="none" id="id74" stroke="none" /><text fill="#e1ed5e" style="font-size:6.75px; font-family:Arial;" text-anchor="middle"><textPath startOffset="20.669276256404974" xlink:href="#id74">February</textPath></text><line stroke="#e1ed5e" stroke-width="0.3" x1="172.87174338648825" x2="177.1583165268699" y1="56.24261187166439" y2="53.66864786411523" /><path d="M 173.72905801456457 55.72781907015455 a86.0,86.0 0 0,1 12.242430191666344,42.057860355516425" fill="none" id="id75" stroke="none" /><text fill="#e1ed5e" style="font-size:6.75px; font-family:Arial;" text-anchor="middle"><textPath startOffset="22.145653131862474" xlink:href="#id75">March</textPath></text><path d="M 118.70294669586156 90.45014215332178 l 5.909234703101735 -3.0172973443680022 a27.634993446920053,27.634993446920053 0 0,0 0.21210526867465018,0.42435262103596333 l -5.960159884988122 2.9154128671682886" fill="red" stroke="none" /><path d="M 119.71291397450082 92.76114493625339 l 7.3466682767728715 -2.69779835318997 a28.826343381389254,28.826343381389254 0 0,0 0.16658857766763344,0.46597790063533207 l -7.391897024484448 2.5712854961737213" fill="red" stroke="none" /><path d="M 120.26092885502905 94.47779374421319 l 6.07714061519501 -1.656351698515348 a27.298820445609437,27.298820445609437 0 0,0 0.1193485180252308,0.4531857626174236 l -6.104678614024971 1.5517854315251258" fill="red" stroke="none" /><line stroke="#e1ed5e" stroke-width="0.3" x1="184.99686870605535" x2="189.99668451229388" y1="99.2704041080226" y2="99.22748670261217" /><path d="M 185.99683186730306 99.26182062694052 a86.0,86.0 0 0,1 -10.086455211305974,41.156179273409016" fill="none" id="id76" stroke="none" /><text fill="#e1ed5e" style="font-size:6.75px; font-family:Arial;" text-anchor="middle"><textPath startOffset="21.40746469413373" xlink:href="#id76">April</textPath></text><path d="M 120.7213421655516 103.40968896794604 l 10.649072256421828 1.7523007873469536 a31.792279554006644,31.792279554006644 0 0,0 -0.09323492088911459,0.5377542474723572 l -10.61742251804048 -1.934848067739899" fill="red" stroke="none" /><path d="M 120.51834098615036 104.47187691870673 l 8.581615272734483 1.8703231069834416 a29.783064910026905,29.783064910026905 0 0,0 -0.11316024234967685,0.4986049072586239 l -8.548244168827141 -2.0173623481810825" fill="red" stroke="none" /><path d="M 120.35273937422433 105.17358676015961 l 9.567886776898318 2.4321194037573557 a30.872166032319285,30.872166032319285 0 0,0 -0.1349709329576097,0.512506616719344 l -9.524726363135978 -2.596006524849503" fill="red" stroke="none" /><path d="M 120.16314734710363 105.8691983318838 l 10.211957651131305 2.972552041578837 a31.63579544314358,31.63579544314358 0 0,0 -0.15625624395120263,0.5201262165244487 l -10.159425087176473 -3.147415861694009" fill="red" stroke="none" /><path d="M 119.4528033332814 107.91128576633889 l 9.968556859364815 4.0541252919318715 a31.7614152294701,31.7614152294701 0 0,0 -0.209737496822513,0.5032936401192546 l -9.897493518005817 -4.224651441492404" fill="red" stroke="none" /><path d="M 119.0197475246899 108.90220220490707 l 6.878258738679052 3.2193723933456013 a28.594392792267893,28.594392792267893 0 0,0 -0.21189907735802258,0.44278757367072547 l -6.821980403361118 -3.33697246908143" fill="red" stroke="none" /><path d="M 118.70294669586154 109.54985784667822 l 9.639125241834162 4.921806029967073 a31.82298064418415,31.82298064418415 0 0,0 -0.252601623550089,0.4843969199298167 l -9.553215549309124 -5.086549193001392" fill="red" stroke="none" /><line stroke="#e1ed5e" stroke-width="0.3" x1="174.33088141563837" x2="178.70328620479359" y1="141.23008692659167" y2="143.65538615756765" /><path d="M 175.20536237346943 141.71514677278685 a86.0,86.0 0 0,1 -30.301960400862466,31.631185727798858" fill="none" id="id77" stroke="none" /><text fill="#e1ed5e" style="font-size:6.75px; font-family:Arial;" text-anchor="middle"><textPath startOffset="22.145653131862474" xlink:href="#id77">May</textPath></text><path d="M 117.423217284605 111.72311816256416 l 8.705178133257078 5.857232347811818 a31.492249382662916,31.492249382662916 0 0,0 -0.3056401730932426,0.4459381467102762 l -8.603348223348515 -6.005805229592139" fill="red" stroke="none" /><path d="M 116.79662413953412 112.60449989151573 l 9.26424674165001 6.952063467042695 a32.58263588912138,32.58263588912138 0 0,0 -0.3395545446151852,0.4444877987485956 l -9.143540219680522 -7.110072179032168" fill="red" stroke="none" /><path d="M 116.1254893667686 113.45245675266167 l 9.061972499518024 7.559819759318378 a32.80128045490834,32.80128045490834 0 0,0 -0.364415097812283,0.4292800689141394 l -8.930862838198628 -7.714266610682074" fill="red" stroke="none" /><path d="M 115.41159269507618 114.26474011684316 l 8.256445929443364 7.642043090712174 a32.25032097258223,32.25032097258223 0 0,0 -0.37954660421461167,0.40306534089453794 l -8.124043491492493 -7.782649891551209" fill="red" stroke="none" /><path d="M 114.91283532996324 114.78537596483092 l 8.852552090178234 8.776889706449776 a33.466012651545924,33.466012651545924 0 0,0 -0.40797950665850363,0.4044925232810887 l -8.700580663389765 -8.927562239959526" fill="red" stroke="none" /><path d="M 113.59037401385872 116.0094264158162 l 7.492703760397601 8.826386189612753 a32.577810795191944,32.577810795191944 0 0,0 -0.42944638880603875,0.35825945133209175 l -7.340083037429668 -8.953707824856714" fill="red" stroke="none" /><path d="M 112.7482090630111 116.68781488649013 l 6.96865522709329 9.12219338910314 a32.47939754091179,32.47939754091179 0 0,0 -0.4459684382333772,0.33466303018005983 l -6.811033799949146 -9.240475446547215" fill="red" stroke="none" /><path d="M 111.8722381534696 117.32195027204791 l 6.432544152720146 9.385274157729715 a32.37809277921583,32.37809277921583 0 0,0 -0.46116227307633656,0.3102905583440932 l -6.270485591546806 -9.494314390130928" fill="red" stroke="none" /><line stroke="#e1ed5e" stroke-width="0.3" x1="143.1302829299769" x2="145.66735839644613" y1="173.24464959558577" y2="177.55315839532614" /><path d="M 143.63769802327073 174.10635135553383 a86.0,86.0 0 0,1 -40.68552437913181,11.842963189579606" fill="none" id="id78" stroke="none" /><text fill="#e1ed5e" style="font-size:6.75px; font-family:Arial;" text-anchor="middle"><textPath startOffset="21.407464694133747" xlink:href="#id78">June</textPath></text><path d="M 110.34350942703117 118.27599006163325 l 5.624806985541801 9.938494984856707 a32.41981331671502,32.41981331671502 0 0,0 -0.48669212223756453,0.26995991604265235 l -5.4533706751481414 -10.033587816332503" fill="red" stroke="none" /><path d="M 109.06512990194946 118.94263497670748 l 5.002107313019602 10.452480435440059 a32.58772733646341,32.58772733646341 0 0,0 -0.5066790840301592,0.23715139505287033 l -4.821939515117936 -10.536808062063463" fill="red" stroke="none" /><path d="M 107.74402155503746 119.51999308798841 l 5.108346069587718 12.876369113996166 a34.852656103670036,34.852656103670036 0 0,0 -0.5580204622775267,0.21585430245379655 l -4.886553344816662 -12.962163304588003" fill="red" stroke="none" /><path d="M 103.2317021107853 120.74984581791261 l 1.7631023027359594 11.320381547817815 a32.45685681668785,32.45685681668785 0 0,0 -0.5512640941618387,0.0810168380201252 l -1.5685131029664352 -11.348979459136823" fill="red" stroke="none" /><path d="M 101.80034050326958 120.92268563240118 l 1.001172311454116 11.63513985180964 a32.678134498642805,32.678134498642805 0 0,0 -0.5593111777008204,0.04329422248515313 l -0.8012921389780598 -11.650611841289848" fill="red" stroke="none" /><line stroke="#e1ed5e" stroke-width="0.3" x1="101.45913802915013" x2="101.54496967792366" y1="184.9874750549273" y2="189.98673829345242" /><path d="M 101.47630435890484 185.9873277026323 a86.0,86.0 0 0,1 -42.54439059252881,-10.42667462771756" fill="none" id="id79" stroke="none" /><text fill="#e1ed5e" style="font-size:6.75px; font-family:Arial;" text-anchor="middle"><textPath startOffset="22.145653131862474" xlink:href="#id79">July</textPath></text><path d="M 100.36049292484886 120.99690560180557 l 0.10605519198778729 6.177183243423119 a27.178093599693593,27.178093599693593 0 0,0 -0.46654811683663877,0.004004754464908326 l -7.565982551697508e-16 -6.178093599693593" fill="red" stroke="none" /><path d="M 99.27912038922189 120.98762331915562 l -0.4152987351934408 12.090969544489734 a33.09809975017695,33.09809975017695 0 0,0 -0.5676706144322644,-0.024378218720045797 l 0.6227951102265439 -12.08205875734386" fill="red" stroke="none" /><path d="M 97.48249496171623 120.84855314841334 l -1.4104807813138989 11.680804243428781 a32.765655264699866,32.765655264699866 0 0,0 -0.5578308779719461,-0.07222237531671498 l 1.610789481176639 -11.654870271911669" fill="red" stroke="none" /><path d="M 96.76829788921471 120.74984581791261 l -1.7777492411278013 11.41442539929814 a32.55203443383342,32.55203443383342 0 0,0 -0.5514043318812324,-0.09073337297709812 l 1.9734310760620972 -11.382226027825375" fill="red" stroke="none" /><path d="M 96.05791012581884 120.62667999033965 l -2.219264049840242 11.612127280489316 a32.82229389336932,32.82229389336932 0 0,0 -0.5525141068686584,-0.11051829543376294 l 2.4182746422398584 -11.572319588392691" fill="red" stroke="none" /><path d="M 94.6519064749342 120.30758222061772 l -2.971404920453076 11.282908470099427 a32.66761632665105,32.66761632665105 0 0,0 -0.541066883120888,-0.14747018501215242 l 3.1646532045086593 -11.23023779094313" fill="red" stroke="none" /><path d="M 93.27111125876986 119.89276391827306 l -3.6355292534759713 10.747796246687798 a32.34602120186614,32.34602120186614 0 0,0 -0.5244587388830841,-0.18243397387231575 l 3.819493764404077 -10.683803840246894" fill="red" stroke="none" /><path d="M 92.59220618246901 119.65005319985036 l -4.080918697191754 10.825121686608894 a32.56880101579154,32.56880101579154 0 0,0 -0.5214540132780033,-0.2017096144439879 l 4.266144972963285 -10.753472184026865" fill="red" stroke="none" /><path d="M 89.97174638481275 118.45085714620012 l -6.244981227333282 11.490062071398492 a34.07751187857749,34.07751187857749 0 0,0 -0.5115777939476668,-0.2837635786428143 l 6.441303209437051 -11.38116557732253" fill="red" stroke="none" /><line stroke="#e1ed5e" stroke-width="0.3" x1="58.13341422392154" x2="55.67067388415222" y1="173.97424548756322" y2="178.32567169271397" /><path d="M 57.64086615596768 174.84453072859336 a86.0,86.0 0 0,1 -31.369924170532247,-30.572349798747897" fill="none" id="id80" stroke="none" /><text fill="#e1ed5e" style="font-size:6.75px; font-family:Arial;" text-anchor="middle"><textPath startOffset="22.145653131862474" xlink:href="#id80">August</textPath></text><path d="M 87.2517909369889 116.68781488649013 l -10.356548559383516 13.557054513908039 a38.060241063828585,38.060241063828585 0 0,0 -0.5157888624548349,-0.4010805391659224 l 10.587747366473579 -13.377272923121323" fill="red" stroke="none" /><path d="M 85.34317274990678 115.03919595460226 l -15.288298829763788 15.687141424954156 a42.904759464433056,42.904759464433056 0 0,0 -0.5230459565607297,-0.518575505162106 l 15.555336706454481 -15.42238590956339" fill="red" stroke="none" /><path d="M 83.4222238831116 112.89097897827486 l -10.957924480533672 8.520948354476673 a34.88101832650393,34.88101832650393 0 0,0 -0.3635067566011419,-0.47584201311453866 l 11.102583214489108 -8.331585428121265" fill="red" stroke="none" /><path d="M 82.78059297857968 112.02048342749411 l -20.113943864005357 14.041094944678319 a45.530044537461194,45.530044537461194 0 0,0 -0.4418804933328543,-0.6447168455311678 l 20.352014094153535 -13.6937433640771" fill="red" stroke="none" /><path d="M 82.18462484594161 111.11811171558189 l -12.008667449230616 7.494296645524366 a35.155302049667775,35.155302049667775 0 0,0 -0.31511209833305,-0.5147119310334821 l 12.135547512019071 -7.2870475983663265" fill="red" stroke="none" /><line stroke="#e1ed5e" stroke-width="0.3" x1="26.387840678322732" x2="22.057713659400548" y1="142.50000000000003" y2="145.00000000000006" /><path d="M 25.521815274538298 143.00000000000003 a86.0,86.0 0 0,1 -11.493303480769221,-40.785679425670985" fill="none" id="id81" stroke="none" /><text fill="#e1ed5e" style="font-size:6.75px; font-family:Arial;" text-anchor="middle"><textPath startOffset="21.40746469413373" xlink:href="#id81">September</textPath></text><path d="M 81.29705330413844 109.54985784667822 l -12.756445526807191 6.513531979260726 a35.32316310467947,35.32316310467947 0 0,0 -0.27111383308800985,-0.5424092781329048 l 12.866379273106936 -6.2935908449640685" fill="red" stroke="none" /><path d="M 80.5471966667186 107.91128576633889 l -19.146181531041687 7.78658534871025 a41.66899074972822,41.66899074972822 0 0,0 -0.2637871830044369,-0.6649160197129182 l 19.277027389012247 -7.456768311783766" fill="red" stroke="none" /><path d="M 80.28708602549918 107.23885506374661 l -19.02190656639657 6.985107572040801 a41.26387567109764,41.26387567109764 0 0,0 -0.23846556832248939,-0.6670306359324473 l 19.139012304763003 -6.657541979727433" fill="red" stroke="none" /><path d="M 79.64726062577567 105.17358676015961 l -19.94614792133303 5.070232802798145 a41.58047806962385,41.58047806962385 0 0,0 -0.16991065103759215,-0.6932934383852115 l 20.030246098886916 -4.727083539804834" fill="red" stroke="none" /><path d="M 79.13060592940153 102.33845913500099 l -19.341320476969248 2.1672353015783203 a40.46236333658472,40.46236333658472 0 0,0 -0.07142109540117844,-0.6909343100116285 l 19.375673964852094 -1.8348964692837604" fill="red" stroke="none" /><path d="M 79.00696218219943 100.54070618675478 l -33.417583390199916 0.8607184078024773 a54.42866607895827,54.42866607895827 0 0,0 -0.016039786810619017,-0.9342371689452921 l 33.427434608609204 -0.28693432288813286" fill="red" stroke="none" /><line stroke="#e1ed5e" stroke-width="0.3" x1="15.003131293944662" x2="10.003315487706104" y1="100.72959589197737" y2="100.7725132973878" /><path d="M 14.003168132696942 100.73817937305945 a86.0,86.0 0 0,1 10.791469493833604,-42.45332614584628" fill="none" id="id82" stroke="none" /><text fill="#e1ed5e" style="font-size:6.75px; font-family:Arial;" text-anchor="middle"><textPath startOffset="22.145653131862435" xlink:href="#id82">October</textPath></text><path d="M 79.13060592940154 97.66154086499901 l -18.604249222348184 -2.084644930114525 a39.720679304231865,39.720679304231865 0 0,0 0.08174499485131764,-0.6769658228514757 l 18.5657221412372 2.403704429889437" fill="red" stroke="none" /><path d="M 79.407916724674 95.88100663000787 l -18.3024478746012 -3.6610021648679174 a39.66500830574853,39.66500830574853 0 0,0 0.1392851672684,-0.6665299471774412 l 18.236904996508432 3.9746485633307675" fill="red" stroke="none" /><path d="M 79.56144815229197 95.17655741523228 l -20.14207302618964 -4.753474390159352 a41.69537688881884,41.69537688881884 0 0,0 0.17038016303165332,-0.6952092075423439 l 20.05750533664169 5.098539422309813" fill="red" stroke="none" /><path d="M 79.73907114497095 94.47779374421319 l -24.040359485836245 -6.5523068805948075 a45.91729539227175,45.91729539227175 0 0,0 0.2138029706339608,-0.7587113169963324 l 23.924338023127703 6.964026121494153" fill="red" stroke="none" /><path d="M 80.05021161711548 93.44210830539832 l -12.166600712829649 -3.9994033137039273 a33.80708396830023,33.80708396830023 0 0,0 0.18596243106980284,-0.5497648840993307 l 12.09615286018748 4.20766987227742" fill="red" stroke="none" /><path d="M 80.28708602549916 92.7611449362534 l -24.397376064703344 -8.959054429829926 a46.99031771870469,46.99031771870469 0 0,0 0.28455840817286043,-0.7548249852511523 l 24.239986972716046 9.376547695275223" fill="red" stroke="none" /><path d="M 80.5471966667186 92.08871423366112 l -24.847626100988933 -10.105313220524112 a47.82390497558933,47.82390497558933 0 0,0 0.3158066492122644,-0.7578209927355389 l 24.670493607240193 10.530366722700915" fill="red" stroke="none" /><path d="M 81.63589988554816 89.8137432299009 l -27.204855989927825 -15.090075025723378 a52.10971799477893,52.10971799477893 0 0,0 0.4406165368580148,-0.7785272015669866 l 26.94180608804844 15.55485899738947" fill="red" stroke="none" /><line stroke="#e1ed5e" stroke-width="0.3" x1="26.387840678322718" x2="22.05771365940052" y1="57.49999999999999" y2="54.99999999999999" /><path d="M 25.521815274538284 56.99999999999999 a86.0,86.0 0 0,1 29.574782752854787,-30.34633250058573" fill="none" id="id83" stroke="none" /><text fill="#e1ed5e" style="font-size:6.75px; font-family:Arial;" text-anchor="middle"><textPath startOffset="21.40746469413373" xlink:href="#id83">November</textPath></text><path d="M 81.99639281039701 89.18935116829357 l -32.793988753789435 -19.691847998821256 a59.25198786981336,59.25198786981336 0 0,0 0.5311010612761586,-0.8675136698003052 l 32.45111972805789 20.251898784746103" fill="red" stroke="none" /><path d="M 82.98947788004972 87.6856937992154 l -25.92736114799026 -18.769410010068007 a53.00810535199414,53.00810535199414 0 0,0 0.5399203181180816,-0.7325056062266713 l 25.60133881028836 19.21172192556354" fill="red" stroke="none" /><path d="M 84.10781606972428 86.27271002978789 l -16.703631480189074 -14.42819903734532 a43.07225027239443,43.07225027239443 0 0,0 0.48812947691601777,-0.555401740038252 l 16.453490939314467 14.712813055194871" fill="red" stroke="none" /><path d="M 85.08716467003674 85.21462403516908 l -22.787255695224932 -22.592493996342238 a53.08862426303629,53.08862426303629 0 0,0 0.6471960362152887,-0.6416644794008415 l 22.396067738879665 22.980338485971753" fill="red" stroke="none" /><path d="M 86.40962598614128 83.9905735841838 l -20.853194113210932 -24.565010230751728 a53.22259195595836,53.22259195595836 0 0,0 0.7015894978970094,-0.5852909120408604 l 20.428430281152014 24.91936332670447" fill="red" stroke="none" /><path d="M 87.54013794807813 83.09580414077388 l -18.98330207652931 -25.754495115538486 a52.994683564383905,52.994683564383905 0 0,0 0.7369263785725085,-0.5334778679446908 l 18.538394687582834 26.076573754856256" fill="red" stroke="none" /><path d="M 88.4268655584334 82.4767994020092 l -18.639695891060484 -28.222875300875174 a54.82261008792738,54.82261008792738 0 0,0 0.7897441537509019,-0.5119026190431595 l 18.152466105052557 28.53869176162224" fill="red" stroke="none" /><line stroke="#e1ed5e" stroke-width="0.3" x1="56.869717070023135" x2="54.33264160355391" y1="26.7553504044142" y2="22.446841604673864" /><path d="M 56.362301976729285 25.89364864446614 a86.0,86.0 0 0,1 42.16139366436587,-11.88097634709845" fill="none" id="id84" stroke="none" /><text fill="#e1ed5e" style="font-size:6.75px; font-family:Arial;" text-anchor="middle"><textPath startOffset="22.145653131862474" xlink:href="#id84">December</textPath></text><path d="M 89.34428304082924 81.90426304109057 l -26.370467337772265 -44.78281867435933 a72.97020681152867,72.97020681152867 0 0,0 1.0848499137306484,-0.6263383897227288 l 25.597824956181217 45.22890396135824" fill="red" stroke="none" /><path d="M 90.61103034731259 81.2157712731953 l -21.005467826758167 -42.02500665857671 a67.98223987076807,67.98223987076807 0 0,0 1.0483500768741356,-0.5128005560914295 l 20.280957500621977 42.37940096476535" fill="red" stroke="none" /><path d="M 91.5904679813234 80.7573450057729 l -22.692306436268066 -51.92443798378004 a77.6664630211637,77.6664630211637 0 0,0 1.2262607130186014,-0.5234177804183402 l 21.797610648079033 52.306330413857786" fill="red" stroke="none" /><path d="M 92.25597844496254 80.48000691201159 l -16.94450561236843 -42.71122311348115 a66.94959031696747,66.94959031696747 0 0,0 1.071919489488528,-0.4146414859874831 l 16.208813860386375 42.99580448760667" fill="red" stroke="none" /><path d="M 92.93061703081487 80.22567764915836 l -14.872882479666917 -41.60209932338962 a65.18073450461364,65.18073450461364 0 0,0 1.056841136794665,-0.3676242076693954 l 14.156535570827247 41.8512819636276" fill="red" stroke="none" /><path d="M 93.95794788825049 79.88797359093562 l -16.43831249325127 -54.71779601864332 a78.13366187077142,78.13366187077142 0 0,0 1.287865940596532,-0.3748790057483302 l 15.496586540273114 54.99191871869417" fill="red" stroke="none" /><path d="M 94.6519064749342 79.69241777938228 l -9.874096658055407 -37.49355331913713 a59.77195281782438,59.77195281782438 0 0,0 0.9944763775300135,-0.2527920062985081 l 9.229014987300017 37.657530557270896" fill="red" stroke="none" /><path d="M 96.05791012581881 79.37332000966035 l -7.1143314989855515 -37.2251886330341 a58.89892322273061,58.89892322273061 0 0,0 0.9947334427784131,-0.18127356958864904 l 6.4742633226561 37.341830376554114" fill="red" stroke="none" /><path d="M 96.41257539226777 79.30868818359171 l -10.762273823196677 -62.07393544922487 a84.0,84.0 0 0,0 1.4228899877877086,-0.23413600601732654 l 9.695106332355897 62.24953745373786" fill="red" stroke="none" /><path d="M 97.12497278360702 79.19773525538626 l -4.379558403402605 -31.688302932442863 a52.989515072083876,52.989515072083876 0 0,0 0.9021393735962869,-0.11680000337151857 l 3.8349412079155236 31.758814532014778" fill="red" stroke="none" /><path d="M 97.84075906011542 79.11130261209362 l -3.351651946829148 -32.424192212029766 a53.59696015543988,53.59696015543988 0 0,0 0.9159986857630141,-0.08674602790200087 l 2.7945536976811183 32.47694999543695" fill="red" stroke="none" /><path d="M 98.5590905019552 79.04949213459386 l -2.5211195018215213 -36.656524246811514 a57.74311926605505,57.74311926605505 0 0,0 0.9894851234941665,-0.05952496792109021 l 1.891490026194871 36.6944011925573" fill="red" stroke="none" /><path d="M 98.9189461498227 79.02784411241856 l -3.1423630451231004 -60.96100358635122 a82.04193971166448,82.04193971166448 0 0,0 1.407113963546768,-0.06042752803345078 l 2.095423320975512 61.005963682810496" fill="red" stroke="none" /></svg>